<?xml version="1.0" standalone="no"?>
<!DOCTYPE svg PUBLIC "-//W3C//DTD SVG 20010904//EN"
 "http://www.w3.org/TR/2001/REC-SVG-20010904/DTD/svg10.dtd">
<svg version="1.0" xmlns="http://www.w3.org/2000/svg"
 width="1136.000000pt" height="1136.000000pt" viewBox="0 0 1136.000000 1136.000000"
 preserveAspectRatio="xMidYMid meet">
<metadata>
Created by potrace 1.14, written by Peter Selinger 2001-2017
</metadata>
<g transform="translate(0.000000,1136.000000) scale(0.100000,-0.100000)"
fill="#000000" stroke="none">
<path d="M8485 10629 c-72 -13 -98 -18 -154 -31 -31 -6 -58 -12 -61 -13 -3 -1
-18 -5 -35 -10 -16 -4 -57 -16 -90 -27 -33 -11 -64 -21 -70 -23 -5 -1 -17 -5
-25 -8 -18 -7 -93 -31 -100 -32 -3 0 -30 -9 -60 -20 -30 -11 -57 -20 -60 -20
-3 -1 -12 -4 -20 -8 -20 -7 -88 -28 -103 -31 -7 -2 -32 -8 -57 -15 -75 -22
-82 -23 -180 -26 -52 -2 -115 0 -140 6 -25 5 -56 12 -70 14 -35 8 -158 44
-201 61 -20 7 -39 10 -43 7 -3 -4 -6 -2 -6 4 0 6 -13 13 -30 17 -16 3 -43 9
-60 12 -16 4 -30 10 -30 13 0 4 -6 8 -12 9 -22 2 -43 7 -54 14 -6 4 -21 9 -35
12 -13 3 -78 19 -144 36 -183 48 -230 54 -395 54 -137 0 -192 -8 -310 -47 -36
-12 -68 -20 -72 -19 -5 1 -8 -2 -8 -8 0 -5 -5 -10 -12 -10 -13 0 -138 -72
-171 -99 -73 -59 -123 -107 -195 -190 -33 -39 -182 -264 -182 -276 0 -3 -18
-37 -40 -76 -22 -39 -40 -77 -40 -84 0 -7 -3 -15 -7 -17 -5 -1 -36 -59 -71
-128 -141 -282 -215 -380 -357 -474 -38 -25 -74 -50 -80 -54 -5 -4 -26 -15
-45 -25 -282 -141 -535 -283 -629 -354 -35 -26 -71 -52 -79 -58 -29 -19 -157
-149 -155 -157 2 -4 -1 -8 -6 -8 -21 0 -154 -231 -154 -267 0 -7 -3 -13 -7
-13 -4 0 -7 -6 -7 -12 0 -7 -6 -33 -13 -58 -20 -72 -33 -176 -32 -255 0 -65
16 -230 22 -230 1 0 3 -11 5 -25 1 -14 12 -63 24 -110 12 -47 24 -92 26 -100
2 -8 14 -46 26 -85 12 -38 23 -74 25 -80 3 -17 45 -129 55 -151 24 -47 95 -67
147 -40 15 8 120 109 235 224 146 147 207 216 208 233 3 43 1 53 -16 114 -9
33 -18 69 -20 80 -2 11 -7 34 -11 50 -15 62 -9 198 10 235 44 82 167 168 461
320 172 89 311 166 347 191 14 11 31 19 36 19 6 0 12 4 14 8 2 5 32 29 68 53
71 48 285 258 301 295 2 5 29 47 60 94 74 112 168 282 167 304 0 5 4 12 9 15
6 3 31 51 57 106 27 55 53 103 58 106 5 3 10 10 10 15 1 12 21 58 29 64 3 3 8
12 12 20 19 42 96 149 132 183 79 74 187 88 360 46 22 -5 51 -12 65 -15 14 -2
32 -8 40 -11 8 -4 22 -8 30 -9 15 -2 49 -14 120 -40 45 -16 278 -88 350 -108
58 -16 188 -43 255 -53 78 -12 289 -6 380 12 93 17 265 61 300 75 43 18 250
84 258 82 4 -1 7 3 7 9 0 5 5 7 10 4 6 -3 16 -3 23 2 6 4 14 8 17 9 20 4 67
18 75 23 6 3 15 6 20 7 6 1 37 9 70 17 193 50 298 40 376 -36 44 -43 89 -94
89 -101 0 -1 25 -44 55 -94 30 -50 55 -96 55 -102 0 -5 5 -10 12 -10 6 0 9 -2
6 -5 -6 -6 64 -148 84 -172 5 -7 11 -18 12 -25 1 -7 12 -29 24 -48 12 -19 22
-38 22 -43 0 -4 23 -44 50 -88 28 -44 50 -83 50 -85 0 -8 44 -69 53 -72 4 -2
7 -8 7 -14 0 -5 6 -15 13 -22 6 -7 21 -26 32 -42 21 -30 185 -197 220 -224 86
-66 164 -118 169 -113 3 4 6 2 6 -4 0 -6 14 -16 30 -22 17 -5 30 -15 30 -22 0
-7 3 -9 7 -6 3 4 15 0 25 -10 10 -9 18 -12 18 -7 0 5 4 4 8 -1 4 -6 45 -30 92
-54 297 -151 421 -216 445 -234 5 -4 24 -18 41 -30 43 -31 104 -85 104 -93 0
-3 8 -18 18 -32 25 -38 33 -129 19 -217 -11 -70 -37 -176 -47 -196 -6 -10 -8
-19 -5 -19 3 0 -1 -15 -9 -34 -8 -19 -12 -37 -8 -40 3 -3 -1 -6 -8 -6 -7 0
-11 -3 -7 -6 3 -4 0 -22 -8 -40 -8 -19 -12 -34 -9 -34 2 0 -2 -16 -10 -35 -9
-20 -15 -36 -15 -38 0 -1 -2 -9 -5 -17 -18 -53 -66 -212 -70 -231 -29 -128
-45 -213 -51 -259 -8 -61 -9 -238 -1 -285 2 -17 7 -50 11 -75 3 -25 10 -58 15
-75 5 -16 12 -43 14 -60 3 -16 17 -68 31 -115 14 -47 27 -89 28 -95 9 -32 41
-124 52 -150 8 -16 11 -33 9 -37 -3 -4 -1 -8 3 -8 5 0 10 -12 11 -26 1 -15 7
-33 13 -40 6 -8 8 -14 4 -14 -4 0 -1 -7 6 -17 8 -9 13 -19 12 -22 -1 -3 3 -24
9 -46 6 -22 12 -43 14 -47 1 -5 2 -9 4 -10 1 -2 3 -12 5 -23 2 -11 8 -45 15
-75 6 -30 13 -87 14 -126 4 -141 -56 -211 -296 -347 -51 -29 -108 -59 -125
-66 -18 -7 -33 -16 -33 -20 0 -4 -17 -13 -37 -20 -21 -8 -55 -25 -75 -38 -21
-13 -38 -20 -38 -16 0 5 -4 4 -8 -2 -4 -5 -34 -23 -67 -40 -33 -16 -62 -33
-65 -36 -3 -3 -16 -12 -30 -19 -28 -14 -191 -123 -223 -149 -44 -35 -195 -188
-228 -231 -55 -72 -112 -160 -165 -260 -11 -19 -21 -37 -24 -40 -3 -3 -48 -90
-100 -195 -52 -104 -101 -196 -108 -203 -7 -8 -10 -18 -7 -23 4 -5 2 -9 -3 -9
-4 0 -18 -19 -30 -42 -43 -86 -133 -185 -192 -211 -55 -24 -143 -25 -255 -2
-44 10 -84 18 -90 19 -5 1 -14 4 -20 8 -9 5 -37 12 -90 22 -41 8 -81 -24 -285
-228 -191 -190 -229 -237 -224 -273 1 -7 2 -20 3 -29 3 -36 56 -71 166 -106
134 -44 245 -79 265 -84 8 -2 42 -10 75 -18 33 -8 78 -17 100 -20 23 -4 52 -9
65 -12 14 -3 86 -7 160 -8 122 -3 168 2 290 30 14 3 31 6 38 6 6 1 12 5 12 10
0 4 8 8 18 8 40 0 277 140 290 172 2 4 11 8 19 8 9 0 14 3 10 6 -3 3 10 19 29
36 18 16 57 60 86 96 29 37 55 69 59 72 13 10 148 240 141 240 -4 0 -2 4 3 8
6 4 54 95 108 202 133 263 193 360 269 438 36 37 128 106 183 137 28 16 58 35
68 43 9 8 17 12 17 7 0 -4 6 -3 13 3 6 5 66 38 132 72 256 133 435 237 435
252 0 5 4 7 8 4 5 -3 18 2 28 12 11 9 47 41 81 70 164 140 260 280 317 459 34
109 40 156 40 293 0 148 -13 253 -49 385 -9 33 -18 67 -20 75 -1 8 -25 80 -51
160 -26 80 -48 147 -49 150 -5 23 -41 126 -45 130 -3 3 -6 12 -6 20 -1 8 -9
42 -19 75 -25 90 -34 148 -36 225 -1 40 9 118 17 140 4 8 8 24 9 35 1 11 14
57 28 103 14 45 23 82 20 82 -3 0 -1 6 4 13 6 6 22 53 37 102 15 50 31 99 36
110 7 19 47 151 55 185 53 224 59 263 59 410 1 159 -18 262 -68 385 -33 81
-81 165 -126 219 -32 38 -169 176 -176 176 -4 0 -14 8 -23 18 -9 9 -24 22 -33
27 -9 6 -37 25 -62 43 -26 17 -51 32 -57 32 -5 0 -9 4 -9 9 0 5 -8 11 -17 14
-10 3 -43 20 -73 38 -30 17 -146 78 -258 135 -201 103 -236 122 -256 137 -6 4
-39 25 -73 47 -58 38 -167 139 -161 150 2 5 -21 36 -49 65 -7 7 -9 15 -6 19 4
3 1 6 -5 6 -6 0 -14 10 -17 23 -4 12 -18 36 -31 54 -13 17 -24 38 -24 47 0 8
-4 17 -10 21 -5 3 -34 56 -65 118 -31 62 -61 116 -66 121 -5 6 -9 16 -9 23 0
8 -9 23 -20 35 -10 12 -17 25 -14 30 3 4 0 8 -7 8 -7 0 -9 3 -6 6 4 4 -2 19
-13 34 -11 16 -20 30 -20 33 0 5 -62 103 -77 122 -5 6 -17 24 -27 40 -23 36
-110 140 -147 175 -64 61 -99 90 -109 90 -5 0 -10 4 -10 9 0 11 -62 49 -136
84 -83 40 -167 67 -250 81 -82 14 -280 17 -349 5z"/>
<path d="M6203 8718 c-12 -6 -24 -22 -27 -37 -7 -33 -7 -577 0 -612 3 -14 15
-30 27 -36 17 -7 516 -11 624 -4 43 2 46 28 47 345 1 263 -1 302 -16 327 l-17
27 -308 0 c-186 0 -317 -4 -330 -10z"/>
<path d="M8257 8675 c-1 -2 -29 -5 -62 -9 -82 -8 -120 -15 -163 -30 -20 -7
-43 -11 -49 -9 -7 3 -13 0 -13 -5 0 -8 -17 -16 -60 -27 -22 -5 -129 -62 -144
-77 -11 -10 -25 -18 -31 -18 -6 0 -22 -11 -35 -25 -13 -14 -25 -23 -28 -21
-10 10 -175 -171 -225 -246 -53 -82 -128 -250 -141 -318 -3 -19 -8 -46 -11
-60 -17 -89 -21 -192 -11 -312 10 -111 76 -307 136 -402 17 -26 30 -51 30 -56
0 -6 4 -10 8 -10 4 0 15 -12 24 -27 34 -59 219 -233 247 -233 6 0 11 -4 11 -9
0 -5 23 -21 52 -36 28 -15 59 -31 67 -36 15 -8 63 -28 86 -35 6 -2 37 -13 70
-25 33 -12 71 -21 84 -20 12 0 28 -2 34 -6 6 -4 26 -7 44 -8 17 0 34 -3 37 -5
6 -6 135 -4 213 4 154 15 335 82 473 176 52 35 200 175 235 222 77 103 161
280 179 379 3 13 5 24 6 24 3 0 10 41 13 75 1 19 5 40 8 45 6 13 4 165 -5 235
-8 68 -11 84 -27 140 -7 25 -14 50 -15 55 -8 29 -30 81 -37 86 -5 3 -8 10 -8
15 1 16 -10 44 -18 44 -4 0 -8 6 -8 13 0 14 -52 98 -68 109 -5 4 -7 8 -2 8 27
0 -239 260 -267 260 -4 0 -16 9 -28 20 -12 11 -28 20 -35 20 -7 0 -13 5 -13
11 0 5 -4 7 -10 4 -5 -3 -10 -1 -10 4 0 6 -6 11 -14 11 -7 0 -38 11 -68 25
-62 28 -190 63 -260 71 -51 6 -187 12 -191 9z m156 -651 c12 -5 24 -8 27 -9
27 -3 112 -58 152 -97 71 -70 108 -154 113 -259 2 -46 1 -88 -3 -93 -3 -6 -8
-20 -9 -31 -12 -76 -112 -204 -193 -245 -117 -60 -263 -60 -373 -1 -157 84
-236 256 -202 438 13 72 78 173 148 229 77 63 253 97 340 68z"/>
<path d="M5500 7993 c-8 -3 -199 -190 -423 -417 -578 -583 -1842 -1861 -2670
-2700 -574 -582 -528 -536 -541 -536 -5 0 -7 -2 -4 -5 2 -3 -147 -158 -331
-344 -185 -187 -385 -390 -445 -450 -60 -61 -114 -111 -119 -111 -6 0 -8 -2
-5 -5 3 -3 -154 -166 -349 -362 -194 -196 -353 -357 -353 -358 0 0 -58 -59
-130 -130 -100 -100 -130 -136 -130 -156 0 -22 46 -72 236 -260 130 -129 253
-252 273 -273 20 -22 49 -51 64 -65 16 -14 225 -221 465 -458 240 -238 440
-433 446 -433 5 0 7 -3 3 -6 -3 -3 10 -20 29 -37 20 -18 67 -65 107 -104 l71
-73 863 0 863 0 0 28 c1 15 0 162 -1 327 0 165 -1 306 0 313 1 6 1 18 1 25 1
6 -1 369 -4 806 -5 733 -4 796 11 822 10 16 21 29 24 29 4 0 32 26 62 57 31
32 190 194 354 360 164 166 501 508 748 759 248 251 562 569 699 708 136 138
255 261 263 273 12 18 13 209 9 1370 -3 741 -7 1356 -9 1366 -6 32 -42 51 -77
40z m-638 -1741 c10 -11 13 -99 14 -376 l1 -360 -185 -188 c-102 -103 -325
-329 -496 -502 -171 -173 -540 -547 -821 -831 -280 -285 -547 -554 -592 -600
-45 -45 -79 -85 -76 -89 4 -3 2 -6 -3 -6 -5 0 -9 -74 -9 -170 0 -93 4 -170 8
-170 5 0 5 -6 1 -12 -10 -16 -11 -98 -2 -98 4 0 3 -11 -2 -25 -5 -14 -9 -29
-9 -33 6 -39 -29 -49 -166 -47 -60 0 -116 -3 -122 -8 -7 -5 -13 -6 -13 -1 0 5
-110 9 -245 9 -135 0 -245 -2 -245 -5 0 -3 -108 -4 -240 -4 -216 1 -242 3
-260 19 -30 28 -17 71 38 126 26 26 254 257 507 514 535 544 496 505 509 505
5 0 7 2 4 5 -4 5 167 179 1140 1163 188 191 342 347 342 347 0 0 138 141 308
312 169 171 358 363 421 427 62 64 117 113 122 111 4 -3 10 -1 13 4 8 12 42 3
58 -17z m-2199 -4230 c4 -1 10 -2 14 -1 24 3 27 -71 30 -655 1 -341 5 -626 7
-633 3 -7 1 -13 -5 -13 -6 0 -151 139 -322 309 -172 170 -447 442 -611 605
-249 246 -300 301 -302 326 -1 21 5 36 20 48 21 16 65 17 592 16 313 0 572 -1
577 -2z"/>
<path d="M6205 7412 c-14 -7 -26 -18 -26 -25 -4 -34 -5 -615 -1 -629 2 -10 11
-18 18 -18 8 0 14 -4 14 -9 0 -5 134 -9 316 -8 257 0 319 3 330 14 17 17 16
13 18 111 1 42 5 82 9 89 4 6 4 14 -1 17 -10 6 -8 118 2 134 3 6 3 13 -1 15
-10 7 -10 158 0 175 5 6 5 12 0 12 -4 0 -8 23 -9 50 -1 87 11 84 -339 85 -233
0 -311 -3 -330 -13z"/>
<path d="M6231 6122 c-56 -8 -56 -9 -56 -346 -1 -171 1 -318 3 -326 9 -40 23
-41 581 -40 1876 4 2688 8 2702 14 9 4 20 17 26 29 5 12 9 160 8 329 0 280 -2
309 -18 325 -17 17 -103 18 -1620 18 -881 0 -1613 -2 -1626 -3z"/>
<path d="M5978 4831 c-9 -3 -141 -134 -294 -289 -154 -156 -381 -388 -506
-515 -126 -127 -228 -235 -228 -239 0 -4 -4 -8 -9 -8 -4 0 -53 -46 -107 -101
-55 -56 -197 -201 -316 -323 -120 -121 -218 -224 -218 -228 0 -4 -9 -10 -20
-13 -11 -3 -20 -10 -20 -14 0 -4 -58 -66 -130 -138 -71 -72 -132 -142 -135
-154 -3 -13 -4 -213 -2 -444 2 -314 6 -426 15 -443 7 -12 17 -20 22 -17 5 3
11 1 14 -4 13 -21 66 25 278 241 121 122 430 436 686 696 257 261 558 567 670
680 592 602 586 596 617 599 35 4 136 5 150 3 6 -2 14 -1 20 0 23 4 115 3 120
-2 4 -3 22 -2 41 2 20 5 34 4 34 -1 0 -6 7 -6 18 -1 9 5 28 6 42 2 14 -4 33
-3 44 3 13 6 16 6 12 -2 -5 -8 0 -8 18 -1 16 6 27 6 31 -1 4 -5 10 -7 15 -4
10 6 71 7 116 2 39 -4 64 -28 64 -60 0 -26 17 -8 -952 -989 -952 -964 -1063
-1076 -1596 -1617 -296 -299 -582 -588 -636 -642 l-99 -99 502 0 502 0 176
177 c294 299 928 940 1540 1559 320 324 702 711 848 859 1046 1060 1296 1313
1344 1359 29 28 59 64 66 80 18 41 2 74 -39 81 -43 7 -2679 13 -2698 6z"/>
</g>
</svg>
