<?xml version="1.0" encoding="utf-8"?>
<!-- Generator: Adobe Illustrator 26.1.0, SVG Export Plug-In . SVG Version: 6.00 Build 0)  -->
<svg version="1.1" id="Layer_1" xmlns="http://www.w3.org/2000/svg" xmlns:xlink="http://www.w3.org/1999/xlink" x="0px" y="0px"
	 viewBox="0 0 545.03 153.74" style="enable-background:new 0 0 545.03 153.74;" xml:space="preserve">
<style type="text/css">
	.st0{fill:#FFFFFF;}
	.st1{fill:#184FD6;}
	.st2{fill:#68686A;}
	.st3{fill:#1D1D1E;}
	.st4{fill:#77777A;}
	.st5{fill:#EFEFEF;}
	.st6{fill:#FFEE1A;}
</style>
<g>
	<path class="st6" d="M50.49,86.22h-2.33c-0.69,1.47-1.53,2.87-2.52,4.21c-0.99,1.34-2.29,2.52-3.88,3.56
		c-1.6,1.04-3.5,1.86-5.7,2.46c-2.2,0.6-4.85,0.91-7.96,0.91c-3.97,0-7.66-0.71-11.07-2.14c-3.41-1.42-6.39-3.54-8.93-6.34
		c-2.55-2.8-4.53-6.23-5.96-10.29C0.71,74.53,0,69.87,0,64.6v-2.33c0-5.18,0.75-9.79,2.27-13.85c1.51-4.06,3.58-7.49,6.21-10.29
		c2.63-2.8,5.7-4.94,9.19-6.41c3.5-1.47,7.19-2.2,11.07-2.2c5.18,0,9.28,0.97,12.3,2.91c3.02,1.94,5.39,4.68,7.12,8.22h2.33v-9.32
		H66.8v80.01c0,2.93-0.93,5.35-2.78,7.25c-1.86,1.9-4.25,2.85-7.19,2.85H13.59V105.9h33.4c2.33,0,3.5-1.29,3.5-3.88V86.22z
		 M33.4,81.82c5.09,0,9.21-1.62,12.36-4.86c3.15-3.24,4.72-7.49,4.72-12.75v-1.55c0-5.26-1.58-9.52-4.72-12.75
		c-3.15-3.24-7.27-4.86-12.36-4.86c-5.09,0-9.21,1.58-12.36,4.73c-3.15,3.15-4.73,7.44-4.73,12.88v1.55c0,5.44,1.57,9.73,4.73,12.88
		C24.19,80.25,28.31,81.82,33.4,81.82z"/>
	<path class="st6" d="M125.45,86.22c-1.73,4.06-4.14,6.93-7.25,8.61c-3.11,1.68-6.73,2.52-10.88,2.52c-3.88,0-7.53-0.73-10.94-2.2
		c-3.41-1.47-6.41-3.62-9-6.47c-2.59-2.85-4.64-6.3-6.15-10.36c-1.51-4.06-2.27-8.67-2.27-13.85V62.4c0-5.09,0.73-9.67,2.2-13.72
		c1.47-4.06,3.45-7.51,5.96-10.36c2.5-2.85,5.42-5.03,8.74-6.54c3.32-1.51,6.88-2.27,10.68-2.27c4.57,0,8.26,0.78,11.07,2.33
		c2.8,1.55,5.03,3.97,6.67,7.25h2.33v-7.77h16.31v44.79c0,2.59,1.17,3.88,3.5,3.88h2.46v15.54h-11.13c-2.94,0-5.33-0.86-7.19-2.59
		c-1.86-1.73-2.78-3.97-2.78-6.73H125.45z M110.95,81.82c4.75,0,8.54-1.57,11.39-4.73c2.85-3.15,4.27-7.44,4.27-12.88v-1.55
		c0-5.44-1.42-9.73-4.27-12.88c-2.85-3.15-6.65-4.73-11.39-4.73c-4.75,0-8.54,1.58-11.39,4.73c-2.85,3.15-4.27,7.44-4.27,12.88v1.55
		c0,5.44,1.42,9.73,4.27,12.88C102.4,80.25,106.2,81.82,110.95,81.82z"/>
	<path class="st6" d="M162.73,80.01h22.53V20.46h-21.75V4.92h38.06v75.09h20.97v15.54h-59.81V80.01z"/>
	<path class="st6" d="M256.72,68.74c0.08,1.9,0.54,3.65,1.36,5.24c0.82,1.6,1.94,2.98,3.37,4.14c1.42,1.17,3.06,2.07,4.92,2.72
		c1.85,0.65,3.82,0.97,5.89,0.97c4.06,0,7.16-0.71,9.32-2.14c2.16-1.42,3.71-3.13,4.66-5.11l13.98,7.77
		c-0.78,1.64-1.86,3.35-3.24,5.11c-1.38,1.77-3.17,3.39-5.37,4.86c-2.2,1.47-4.88,2.68-8.03,3.62c-3.15,0.95-6.84,1.42-11.07,1.42
		c-4.83,0-9.24-0.78-13.21-2.33c-3.97-1.55-7.4-3.8-10.29-6.73c-2.89-2.93-5.14-6.52-6.73-10.75c-1.6-4.23-2.4-9.02-2.4-14.37V62.4
		c0-4.92,0.84-9.41,2.52-13.46c1.68-4.06,3.99-7.51,6.93-10.36c2.93-2.85,6.36-5.07,10.29-6.67c3.93-1.6,8.13-2.4,12.62-2.4
		c5.52,0,10.27,0.97,14.24,2.91c3.97,1.94,7.25,4.4,9.84,7.38c2.59,2.98,4.49,6.26,5.7,9.84c1.21,3.58,1.81,7.06,1.81,10.42v8.67
		H256.72z M272.13,44.28c-4.14,0-7.51,1.06-10.1,3.17c-2.59,2.12-4.27,4.55-5.05,7.31h30.29c-0.52-3.02-2.14-5.52-4.85-7.51
		C279.7,45.27,276.27,44.28,272.13,44.28z M272.52,4.14h17.35l-10.88,17.61h-13.21L272.52,4.14z"/>
	<path class="st6" d="M318.47,31.33h27.19v9.32h2.33c1.21-3.54,3.26-6.28,6.15-8.22c2.89-1.94,6.36-2.91,10.42-2.91
		c6.39,0,11.52,2.01,15.41,6.02c3.88,4.01,5.83,10.12,5.83,18.32v2.85l-16.83,1.55v-1.81c0-3.54-0.91-6.36-2.72-8.48
		c-1.81-2.11-4.53-3.17-8.16-3.17s-6.47,1.25-8.54,3.75c-2.07,2.5-3.11,6.08-3.11,10.75v20.71h14.76v15.54h-44.28V80.01h13.21V46.87
		h-11.65V31.33z"/>
	<path class="st6" d="M401.98,80.01h21.75V46.87h-20.2V31.33h36.51v48.68h18.64v15.54h-56.71V80.01z M444.05,12.3
		c0,1.73-0.32,3.35-0.97,4.86c-0.65,1.51-1.53,2.81-2.65,3.88c-1.12,1.08-2.44,1.94-3.95,2.59c-1.51,0.65-3.09,0.97-4.73,0.97
		c-1.73,0-3.32-0.32-4.79-0.97c-1.47-0.65-2.76-1.51-3.88-2.59c-1.12-1.08-2.01-2.37-2.65-3.88c-0.65-1.51-0.97-3.13-0.97-4.86
		c0-1.72,0.32-3.34,0.97-4.85c0.65-1.51,1.53-2.8,2.65-3.88c1.12-1.08,2.42-1.94,3.88-2.59c1.47-0.65,3.06-0.97,4.79-0.97
		c1.64,0,3.21,0.32,4.73,0.97c1.51,0.65,2.83,1.51,3.95,2.59c1.12,1.08,2.01,2.38,2.65,3.88C443.73,8.96,444.05,10.57,444.05,12.3z"
		/>
	<path class="st6" d="M521.6,86.22c-1.73,4.06-4.14,6.93-7.25,8.61c-3.11,1.68-6.73,2.52-10.88,2.52c-3.88,0-7.53-0.73-10.94-2.2
		c-3.41-1.47-6.41-3.62-9-6.47c-2.59-2.85-4.64-6.3-6.15-10.36c-1.51-4.06-2.27-8.67-2.27-13.85V62.4c0-5.09,0.73-9.67,2.2-13.72
		c1.47-4.06,3.45-7.51,5.96-10.36c2.5-2.85,5.42-5.03,8.74-6.54c3.32-1.51,6.88-2.27,10.68-2.27c4.57,0,8.26,0.78,11.07,2.33
		c2.8,1.55,5.03,3.97,6.67,7.25h2.33v-7.77h16.31v44.79c0,2.59,1.17,3.88,3.5,3.88h2.46v15.54H533.9c-2.94,0-5.33-0.86-7.19-2.59
		c-1.86-1.73-2.78-3.97-2.78-6.73H521.6z M507.1,81.82c4.75,0,8.54-1.57,11.39-4.73c2.85-3.15,4.27-7.44,4.27-12.88v-1.55
		c0-5.44-1.42-9.73-4.27-12.88c-2.85-3.15-6.65-4.73-11.39-4.73c-4.75,0-8.54,1.58-11.39,4.73c-2.85,3.15-4.27,7.44-4.27,12.88v1.55
		c0,5.44,1.42,9.73,4.27,12.88C498.56,80.25,502.35,81.82,507.1,81.82z"/>
</g>
<rect x="255.72" y="121.43" class="st6" width="32.31" height="32.31"/>
</svg>
