<?xml version="1.0" encoding="utf-8"?>
<!-- Generator: Adobe Illustrator 26.2.1, SVG Export Plug-In . SVG Version: 6.00 Build 0)  -->
<svg version="1.1" id="Layer_1" xmlns="http://www.w3.org/2000/svg" xmlns:xlink="http://www.w3.org/1999/xlink" x="0px" y="0px"
	 viewBox="0 0 433 502.9" style="enable-background:new 0 0 433 502.9;" xml:space="preserve">
<style type="text/css">
	.st0{font-family:'SpaceMono-Bold';}
	.st1{font-size:22.7094px;}
	.st2{font-family:'SpaceMono-Regular';}
	.st3{fill:#184FD6;}
	.st4{fill:#999999;}
</style>
<text transform="matrix(1 0 0 1 37.3515 254.4771)"><tspan x="0" y="0" class="st0 st1">nyitva:</tspan><tspan x="0" y="54.5" class="st2 st1">kedd - szombat</tspan><tspan x="0" y="81.75" class="st2 st1">11:30 - 20:00</tspan><tspan x="0" y="136.26" class="st2 st1">Pitaguru Kft.</tspan><tspan x="0" y="163.51" class="st2 st1">8000 Székesfehérvár</tspan><tspan x="0" y="190.76" class="st0 st1">Borszéki utca 9.</tspan><tspan x="0" y="245.26" class="st0 st1">+36 20 51 16 510</tspan></text>
<rect y="234.22" class="st3" width="14.81" height="268.68"/>
<g>
	<g>
		<g>
			<path class="st3" d="M66.8,65.62c0.33,0.08,0.54,0.41,0.47,0.74c-1.5,7.17-4.87,12.99-10.1,17.43
				c-5.38,4.57-12.55,6.86-21.52,6.86c-4.66,0-8.99-0.72-13.01-2.16c-4.02-1.44-7.51-3.51-10.47-6.22
				c-2.96-2.71-5.29-6.05-6.98-10.03c-1.69-3.98-2.54-8.51-2.54-13.58v-1.52c0-5.08,0.84-9.65,2.54-13.71
				c1.69-4.06,4.04-7.53,7.05-10.41c3-2.88,6.52-5.08,10.54-6.6c4.02-1.52,8.32-2.28,12.89-2.28c8.8,0,15.93,2.28,21.39,6.86
				c5.31,4.45,8.72,10.26,10.23,17.44c0.07,0.33-0.14,0.66-0.46,0.74l-14.49,3.74c-0.36,0.09-0.72-0.15-0.78-0.51
				c-0.6-3.43-2.18-6.42-4.72-8.96c-2.71-2.71-6.52-4.06-11.43-4.06c-2.29,0-4.44,0.42-6.47,1.27c-2.03,0.85-3.81,2.05-5.33,3.62
				c-1.52,1.57-2.73,3.47-3.62,5.71c-0.89,2.24-1.33,4.76-1.33,7.55v0.76c0,2.79,0.44,5.27,1.33,7.43c0.89,2.16,2.09,3.96,3.62,5.4
				c1.52,1.44,3.3,2.52,5.33,3.24c2.03,0.72,4.19,1.08,6.47,1.08c4.91,0,8.65-1.23,11.24-3.68c2.44-2.32,4.07-5.41,4.89-9.25
				c0.07-0.35,0.42-0.58,0.77-0.49L66.8,65.62z"/>
			<path class="st3" d="M121.11,79.73c-0.25,0-0.47,0.15-0.57,0.38c-1.68,3.78-4,6.47-6.94,8.06c-3.05,1.65-6.6,2.48-10.66,2.48
				c-3.81,0-7.39-0.72-10.73-2.16c-3.34-1.44-6.28-3.55-8.82-6.35c-2.54-2.79-4.55-6.18-6.03-10.16c-1.48-3.98-2.22-8.51-2.22-13.58
				v-2.03c0-4.99,0.72-9.48,2.16-13.46c1.44-3.98,3.38-7.36,5.84-10.16c2.45-2.79,5.31-4.93,8.57-6.41
				c3.26-1.48,6.75-2.22,10.47-2.22c4.49,0,8.1,0.76,10.85,2.28c2.65,1.47,4.77,3.73,6.36,6.77c0.11,0.21,0.32,0.34,0.56,0.34h1.27
				c0.35,0,0.63-0.28,0.63-0.63v-6.36c0-0.35,0.28-0.63,0.63-0.63h14.74c0.35,0,0.63,0.28,0.63,0.63v43.3
				c0,2.54,1.14,3.81,3.43,3.81h1.78c0.35,0,0.63,0.28,0.63,0.63v13.97c0,0.35-0.28,0.63-0.63,0.63h-10.29
				c-2.88,0-5.23-0.85-7.05-2.54c-1.69-1.57-2.59-3.57-2.71-6.01c-0.02-0.33-0.3-0.59-0.63-0.59H121.11z M106.48,75.41
				c4.65,0,8.38-1.54,11.17-4.63c2.79-3.09,4.19-7.3,4.19-12.63v-1.52c0-5.33-1.4-9.54-4.19-12.63c-2.79-3.09-6.52-4.63-11.17-4.63
				c-4.66,0-8.38,1.55-11.17,4.63c-2.79,3.09-4.19,7.3-4.19,12.63v1.52c0,5.33,1.4,9.54,4.19,12.63
				C98.11,73.87,101.83,75.41,106.48,75.41z"/>
			<path class="st3" d="M214.82,65.62c0.33,0.08,0.54,0.41,0.47,0.74c-1.5,7.17-4.87,12.99-10.1,17.43
				c-5.38,4.57-12.55,6.86-21.52,6.86c-4.66,0-8.99-0.72-13.01-2.16c-4.02-1.44-7.51-3.51-10.47-6.22
				c-2.96-2.71-5.29-6.05-6.98-10.03c-1.69-3.98-2.54-8.51-2.54-13.58v-1.52c0-5.08,0.84-9.65,2.54-13.71
				c1.69-4.06,4.04-7.53,7.05-10.41c3-2.88,6.52-5.08,10.54-6.6c4.02-1.52,8.32-2.28,12.89-2.28c8.8,0,15.93,2.28,21.39,6.86
				c5.31,4.45,8.72,10.26,10.23,17.44c0.07,0.33-0.14,0.66-0.46,0.74l-14.49,3.74c-0.36,0.09-0.72-0.15-0.78-0.51
				c-0.6-3.43-2.18-6.42-4.72-8.96c-2.71-2.71-6.52-4.06-11.43-4.06c-2.29,0-4.44,0.42-6.47,1.27c-2.03,0.85-3.81,2.05-5.33,3.62
				c-1.52,1.57-2.73,3.47-3.62,5.71c-0.89,2.24-1.33,4.76-1.33,7.55v0.76c0,2.79,0.44,5.27,1.33,7.43c0.89,2.16,2.09,3.96,3.62,5.4
				c1.52,1.44,3.3,2.52,5.33,3.24c2.03,0.72,4.19,1.08,6.47,1.08c4.91,0,8.65-1.23,11.24-3.68c2.44-2.32,4.07-5.41,4.89-9.25
				c0.07-0.35,0.42-0.58,0.77-0.49L214.82,65.62z"/>
			<path class="st3" d="M223.91,73.63h20.07c0.35,0,0.63-0.28,0.63-0.63V41.76c0-0.35-0.28-0.63-0.63-0.63h-18.54
				c-0.35,0-0.63-0.28-0.63-0.63V26.53c0-0.35,0.28-0.63,0.63-0.63h34.54c0.35,0,0.63,0.28,0.63,0.63V73c0,0.35,0.28,0.63,0.63,0.63
				h17.02c0.35,0,0.63,0.28,0.63,0.63v13.97c0,0.35-0.28,0.63-0.63,0.63h-54.35c-0.35,0-0.63-0.28-0.63-0.63V74.26
				C223.28,73.91,223.56,73.63,223.91,73.63z"/>
			<path class="st3" d="M305.54,49h2.1c0.2,0,0.39-0.1,0.51-0.26l16.38-22.59c0.12-0.16,0.31-0.26,0.51-0.26h16.57
				c0.35,0,0.63,0.28,0.63,0.63v0c0,0.08-0.03,0.16-0.07,0.23l-20.12,28.55c-0.07,0.11-0.12,0.23-0.12,0.36v1.88
				c0,0.13,0.04,0.27,0.12,0.37L344.19,88c0.05,0.07,0.08,0.15,0.08,0.24l0,0c0,0.35-0.28,0.63-0.63,0.63h-17.33
				c-0.2,0-0.39-0.1-0.51-0.26L308.15,64.5c-0.12-0.16-0.31-0.26-0.51-0.26h-2.1c-0.35,0-0.63,0.28-0.63,0.63v23.37
				c0,0.35-0.28,0.63-0.63,0.63h-14.74c-0.35,0-0.63-0.28-0.63-0.63V0.63c0-0.35,0.28-0.63,0.63-0.63h14.74
				c0.35,0,0.63,0.28,0.63,0.63v47.74C304.91,48.72,305.19,49,305.54,49z"/>
			<path class="st3" d="M352.77,73.63h20.07c0.35,0,0.63-0.28,0.63-0.63V41.76c0-0.35-0.28-0.63-0.63-0.63h-18.54
				c-0.35,0-0.63-0.28-0.63-0.63V26.53c0-0.35,0.28-0.63,0.63-0.63h34.54c0.35,0,0.63,0.28,0.63,0.63V73c0,0.35,0.28,0.63,0.63,0.63
				h17.02c0.35,0,0.63,0.28,0.63,0.63v13.97c0,0.35-0.28,0.63-0.63,0.63h-54.34c-0.35,0-0.63-0.28-0.63-0.63V74.26
				C352.14,73.91,352.42,73.63,352.77,73.63z"/>
			<path class="st3" d="M388.83,16.9H373.2c-0.35,0-0.63-0.28-0.63-0.63V0.63c0-0.35,0.28-0.63,0.63-0.63h15.64
				c0.35,0,0.63,0.28,0.63,0.63v15.64C389.46,16.61,389.18,16.9,388.83,16.9z"/>
			<path class="st3" d="M432.37,88.81h-13.9c-0.35,0-0.63-0.28-0.63-0.63v-13.9c0-0.35,0.28-0.63,0.63-0.63h13.9
				c0.35,0,0.63,0.28,0.63,0.63v13.9C433,88.53,432.72,88.81,432.37,88.81z"/>
			<path class="st3" d="M259.57,16.9h-15.64c-0.35,0-0.63-0.28-0.63-0.63V0.63c0-0.35,0.28-0.63,0.63-0.63h15.64
				c0.35,0,0.63,0.28,0.63,0.63v15.64C260.2,16.61,259.92,16.9,259.57,16.9z"/>
		</g>
	</g>
	<g>
		<path class="st4" d="M6.95,160.84H2.64v-38.5h4.31v4.31h0.66c0.96-1.66,2.29-2.92,3.98-3.79c1.7-0.87,3.54-1.3,5.53-1.3
			c1.7,0,3.3,0.31,4.81,0.94c1.51,0.63,2.85,1.53,4.01,2.71c1.16,1.18,2.08,2.64,2.77,4.37c0.68,1.73,1.02,3.71,1.02,5.92v1.11
			c0,2.25-0.33,4.24-1,5.97c-0.66,1.73-1.58,3.19-2.74,4.37c-1.16,1.18-2.52,2.07-4.07,2.68c-1.55,0.61-3.19,0.91-4.92,0.91
			c-0.88,0-1.79-0.1-2.71-0.3c-0.92-0.2-1.8-0.52-2.63-0.94c-0.83-0.42-1.6-0.94-2.3-1.55c-0.7-0.61-1.29-1.34-1.77-2.19H6.95
			V160.84z M16.13,146.46c1.33,0,2.54-0.23,3.65-0.69c1.11-0.46,2.07-1.11,2.9-1.96c0.83-0.85,1.48-1.88,1.94-3.1
			c0.46-1.22,0.69-2.58,0.69-4.09v-1.11c0-1.47-0.23-2.81-0.69-4.01c-0.46-1.2-1.11-2.23-1.94-3.1c-0.83-0.87-1.81-1.54-2.93-2.02
			c-1.13-0.48-2.33-0.72-3.62-0.72c-1.29,0-2.49,0.25-3.6,0.75c-1.11,0.5-2.07,1.19-2.9,2.07c-0.83,0.88-1.49,1.95-1.96,3.18
			c-0.48,1.24-0.72,2.59-0.72,4.06v0.66c0,1.51,0.24,2.89,0.72,4.12c0.48,1.24,1.13,2.3,1.96,3.18c0.83,0.88,1.8,1.57,2.9,2.05
			C13.65,146.22,14.84,146.46,16.13,146.46z"/>
		<path class="st4" d="M35.88,145.8h9.62v-19.47h-8.63v-3.98h12.94v23.45h8.96v3.98h-22.9V145.8z M43.74,114.16
			c0-1.07,0.38-1.98,1.13-2.74c0.76-0.75,1.67-1.13,2.74-1.13c1.07,0,1.98,0.38,2.74,1.13c0.76,0.76,1.13,1.67,1.13,2.74
			c0,1.07-0.38,1.98-1.13,2.74c-0.76,0.76-1.67,1.13-2.74,1.13c-1.07,0-1.98-0.38-2.74-1.13C44.11,116.14,43.74,115.23,43.74,114.16
			z"/>
		<path class="st4" d="M58.59,122.34h8.63v-11.28h4.31v11.28h10.62v3.98H71.53v17.81c0,1.11,0.5,1.66,1.49,1.66h7.8v3.98h-9.35
			c-1.25,0-2.28-0.41-3.07-1.22c-0.79-0.81-1.19-1.84-1.19-3.1v-19.14h-8.63V122.34z"/>
		<path class="st4" d="M108.98,145.13h-0.66c-0.88,1.84-2.11,3.21-3.68,4.09c-1.57,0.88-3.22,1.33-4.95,1.33
			c-1.81,0-3.48-0.3-5.03-0.91c-1.55-0.61-2.9-1.51-4.07-2.71c-1.16-1.2-2.07-2.66-2.74-4.4c-0.66-1.73-1-3.74-1-6.03v-0.88
			c0-2.25,0.33-4.24,1-5.97c0.66-1.73,1.58-3.2,2.74-4.4c1.16-1.2,2.52-2.11,4.07-2.74c1.55-0.63,3.19-0.94,4.92-0.94
			c1.88,0,3.59,0.42,5.12,1.24c1.53,0.83,2.74,2.11,3.62,3.84h0.66v-4.31h4.31v21.79c0,1.11,0.5,1.66,1.49,1.66h1.38v3.98h-2.93
			c-1.25,0-2.28-0.41-3.07-1.22c-0.79-0.81-1.19-1.84-1.19-3.1V145.13z M100.13,146.46c1.29,0,2.48-0.24,3.57-0.72
			c1.09-0.48,2.02-1.16,2.79-2.05c0.77-0.88,1.38-1.95,1.83-3.18c0.44-1.23,0.66-2.61,0.66-4.12v-0.66c0-1.47-0.22-2.83-0.66-4.06
			s-1.06-2.3-1.85-3.18c-0.79-0.88-1.73-1.58-2.82-2.07c-1.09-0.5-2.26-0.75-3.51-0.75c-1.29,0-2.47,0.24-3.54,0.72
			c-1.07,0.48-2,1.15-2.79,2.02c-0.79,0.87-1.41,1.92-1.85,3.15c-0.44,1.24-0.66,2.59-0.66,4.07v0.88c0,3.13,0.82,5.58,2.46,7.33
			C95.38,145.59,97.51,146.46,100.13,146.46z"/>
		<path class="st4" d="M158.16,150.36h-4.31v-38.72h4.31v15.6h0.66c0.96-1.66,2.29-2.92,3.98-3.79c1.7-0.87,3.54-1.3,5.53-1.3
			c1.7,0,3.3,0.31,4.81,0.94c1.51,0.63,2.85,1.53,4.01,2.71c1.16,1.18,2.08,2.64,2.77,4.37c0.68,1.73,1.02,3.71,1.02,5.92v1.11
			c0,2.25-0.33,4.24-1,5.97c-0.66,1.73-1.58,3.19-2.74,4.37c-1.16,1.18-2.52,2.07-4.07,2.68c-1.55,0.61-3.19,0.91-4.92,0.91
			c-0.88,0-1.79-0.1-2.71-0.3c-0.92-0.2-1.8-0.52-2.63-0.94c-0.83-0.42-1.6-0.94-2.3-1.55c-0.7-0.61-1.29-1.34-1.77-2.19h-0.66
			V150.36z M167.34,147.04c1.33,0,2.54-0.23,3.65-0.69c1.11-0.46,2.07-1.11,2.9-1.96c0.83-0.85,1.48-1.88,1.94-3.1
			c0.46-1.22,0.69-2.58,0.69-4.09v-1.11c0-1.47-0.23-2.81-0.69-4.01c-0.46-1.2-1.11-2.23-1.94-3.1c-0.83-0.87-1.81-1.54-2.93-2.02
			c-1.13-0.48-2.33-0.72-3.62-0.72c-1.29,0-2.49,0.25-3.6,0.75c-1.11,0.5-2.07,1.19-2.9,2.07c-0.83,0.88-1.49,1.95-1.96,3.18
			c-0.48,1.24-0.72,2.59-0.72,4.06v0.66c0,1.51,0.24,2.89,0.72,4.12c0.48,1.24,1.13,2.3,1.96,3.18s1.8,1.57,2.9,2.05
			C164.85,146.8,166.05,147.04,167.34,147.04z"/>
		<path class="st4" d="M207.35,145.71h-0.66c-0.88,1.84-2.11,3.21-3.68,4.09c-1.57,0.88-3.22,1.33-4.95,1.33
			c-1.81,0-3.48-0.3-5.03-0.91c-1.55-0.61-2.9-1.51-4.07-2.71c-1.16-1.2-2.07-2.66-2.74-4.4c-0.66-1.73-1-3.74-1-6.03v-0.88
			c0-2.25,0.33-4.24,1-5.97c0.66-1.73,1.58-3.2,2.74-4.4c1.16-1.2,2.52-2.11,4.07-2.74c1.55-0.63,3.19-0.94,4.92-0.94
			c1.88,0,3.59,0.42,5.12,1.24c1.53,0.83,2.74,2.11,3.62,3.84h0.66v-4.31h4.31v21.79c0,1.11,0.5,1.66,1.49,1.66h1.38v3.98h-2.93
			c-1.25,0-2.28-0.41-3.07-1.22c-0.79-0.81-1.19-1.84-1.19-3.1V145.71z M198.5,147.04c1.29,0,2.48-0.24,3.57-0.72
			c1.09-0.48,2.02-1.16,2.79-2.05c0.77-0.88,1.38-1.95,1.83-3.18c0.44-1.23,0.66-2.61,0.66-4.12v-0.66c0-1.47-0.22-2.83-0.66-4.06
			s-1.06-2.3-1.85-3.18c-0.79-0.88-1.73-1.58-2.82-2.07c-1.09-0.5-2.26-0.75-3.51-0.75c-1.29,0-2.47,0.24-3.54,0.72
			c-1.07,0.48-2,1.15-2.79,2.02c-0.79,0.87-1.41,1.92-1.85,3.15c-0.44,1.24-0.66,2.59-0.66,4.07v0.88c0,3.13,0.82,5.58,2.46,7.33
			C193.75,146.16,195.88,147.04,198.5,147.04z"/>
		<path class="st4" d="M219.56,122.92h9.96v3.65h0.66c0.7-1.51,1.7-2.63,2.99-3.35c1.29-0.72,2.77-1.08,4.43-1.08
			c2.77,0,5,0.9,6.69,2.71c1.7,1.81,2.6,4.44,2.71,7.91l-4.54,0.66c0-2.54-0.61-4.38-1.83-5.5c-1.22-1.12-2.71-1.69-4.48-1.69
			c-1.14,0-2.13,0.22-2.96,0.66c-0.83,0.44-1.52,1.05-2.07,1.83c-0.55,0.77-0.96,1.68-1.22,2.71c-0.26,1.03-0.39,2.14-0.39,3.32
			v11.62h6.97v3.98H218.9v-3.98h6.31V126.9h-5.64V122.92z"/>
	</g>
</g>
</svg>
