<svg width="421" height="80" viewBox="0 0 421 80" fill="none" xmlns="http://www.w3.org/2000/svg">
<path d="M368.219 11.1485C367.808 10.1039 367.252 9.23507 366.549 8.52243C365.855 7.81955 365.044 7.27286 364.136 6.89214C363.228 6.51141 362.261 6.32593 361.245 6.32593C360.043 6.32593 358.93 6.58951 357.914 7.10691C356.889 7.63407 356.097 8.38576 355.511 9.39127H355.111V6.78475H352.513V27.8614H355.111V20.7545H355.511C355.795 21.2622 356.156 21.7015 356.576 22.0724C357.006 22.4434 357.455 22.746 357.963 22.9998C358.461 23.2537 358.988 23.4391 359.545 23.566C360.102 23.693 360.639 23.7515 361.176 23.7515C362.222 23.7515 363.208 23.566 364.146 23.2048C365.074 22.8339 365.894 22.297 366.597 21.5941C367.291 20.8912 367.848 20.0126 368.238 18.968C368.639 17.9235 368.844 16.7325 368.844 15.3755V14.7019C368.834 13.3743 368.629 12.193 368.219 11.1485ZM366.177 15.3755C366.177 16.2834 366.031 17.1034 365.757 17.8356C365.484 18.5678 365.093 19.1926 364.595 19.7002C364.097 20.2176 363.511 20.6081 362.847 20.8912C362.182 21.1645 361.45 21.311 360.649 21.311C359.868 21.311 359.155 21.1645 358.49 20.8717C357.826 20.5886 357.24 20.1785 356.742 19.6416C356.244 19.1145 355.843 18.4702 355.56 17.7282C355.267 16.9863 355.121 16.1663 355.121 15.2486V14.8386C355.121 13.96 355.267 13.14 355.56 12.398C355.843 11.6561 356.244 11.0118 356.742 10.4846C357.24 9.95748 357.826 9.5377 358.49 9.23507C359.155 8.93245 359.877 8.78601 360.649 8.78601C361.43 8.78601 362.153 8.93245 362.827 9.22531C363.501 9.50842 364.097 9.91843 364.585 10.4358C365.083 10.9532 365.474 11.578 365.748 12.3004C366.021 13.0228 366.168 13.8233 366.168 14.7117V15.3755H366.177Z" fill="#1D1D1E"/>
<path d="M372.526 20.8911H378.318V9.18618H373.132V6.78467H380.916V20.8911H386.308V23.2926H372.526V20.8911Z" fill="#1D1D1E"/>
<path d="M400.373 9.18627V6.78476H393.985V0H391.387V6.78476H386.191V9.17651H391.387V20.6959C391.387 21.4476 391.622 22.0724 392.1 22.5605C392.579 23.0486 393.194 23.2927 393.946 23.2927H399.572V20.901H394.874C394.278 20.901 393.976 20.569 393.976 19.9052V9.18627H400.373Z" fill="#1D1D1E"/>
<path d="M420.015 20.9009C419.41 20.9009 419.117 20.569 419.117 19.9052V6.78475H416.519V9.38151H416.118C415.591 8.33695 414.858 7.56573 413.94 7.06785C413.022 6.56998 411.996 6.31616 410.854 6.31616C409.808 6.31616 408.822 6.51141 407.894 6.88237C406.966 7.2631 406.146 7.80978 405.442 8.52243C404.749 9.24483 404.192 10.1332 403.792 11.168C403.391 12.2028 403.196 13.4035 403.196 14.7605V15.2877C403.196 16.6641 403.391 17.8747 403.792 18.9192C404.192 19.9638 404.749 20.8424 405.442 21.5648C406.136 22.2872 406.956 22.8241 407.894 23.1951C408.822 23.566 409.828 23.7418 410.922 23.7418C411.967 23.7418 412.954 23.4782 413.901 22.9413C414.849 22.4141 415.581 21.5941 416.118 20.4812H416.519V20.6764C416.519 21.4281 416.763 22.0529 417.242 22.541C417.72 23.0291 418.335 23.2732 419.088 23.2732H420.846V20.8814H420.015V20.9009ZM416.519 15.2388C416.519 16.1565 416.382 16.9765 416.118 17.7185C415.855 18.4604 415.483 19.1047 415.024 19.6319C414.555 20.159 413.999 20.569 413.344 20.8619C412.69 21.1548 411.977 21.3012 411.195 21.3012C409.623 21.3012 408.334 20.774 407.347 19.7197C406.361 18.6654 405.872 17.1913 405.872 15.3072V14.78C405.872 13.8917 406.009 13.0814 406.273 12.3297C406.536 11.5878 406.908 10.9532 407.386 10.4358C407.855 9.91843 408.422 9.50841 409.066 9.22531C409.701 8.93244 410.414 8.78601 411.195 8.78601C411.948 8.78601 412.651 8.93244 413.305 9.23507C413.96 9.5377 414.526 9.94772 415.005 10.4846C415.483 11.0118 415.855 11.6561 416.118 12.398C416.382 13.14 416.519 13.96 416.519 14.8386V15.2388Z" fill="#1D1D1E"/>
<path d="M368.219 39.0099C367.808 37.9653 367.252 37.0867 366.549 36.3838C365.855 35.6712 365.044 35.1245 364.136 34.7535C363.228 34.3728 362.261 34.1873 361.245 34.1873C360.043 34.1873 358.93 34.4509 357.914 34.9683C356.889 35.4857 356.097 36.2472 355.511 37.2429H355.111V30.8584H352.513V51.1541H355.111V48.6257H355.511C355.795 49.1333 356.156 49.5726 356.576 49.9436C357.006 50.3145 357.455 50.6172 357.963 50.871C358.461 51.1248 358.988 51.32 359.545 51.4372C360.102 51.5641 360.639 51.6227 361.176 51.6227C362.222 51.6227 363.208 51.4372 364.146 51.076C365.074 50.705 365.894 50.1681 366.597 49.4555C367.291 48.7526 367.848 47.874 368.238 46.8294C368.629 45.7849 368.844 44.5939 368.844 43.2369V42.5731C368.834 41.2454 368.629 40.0544 368.219 39.0099ZM366.177 43.2369C366.177 44.1448 366.031 44.9648 365.757 45.697C365.484 46.4292 365.093 47.0442 364.595 47.5616C364.097 48.0692 363.511 48.4695 362.847 48.7428C362.182 49.0162 361.45 49.1528 360.649 49.1528C359.868 49.1528 359.155 49.0064 358.49 48.7233C357.826 48.4402 357.24 48.0302 356.742 47.4933C356.244 46.9661 355.843 46.3315 355.56 45.5799C355.267 44.8379 355.121 44.0081 355.121 43.1002V42.7C355.121 41.8116 355.267 41.0014 355.56 40.2497C355.843 39.5077 356.244 38.8732 356.742 38.3363C357.24 37.8091 357.826 37.3796 358.49 37.0867C359.155 36.7841 359.877 36.6376 360.649 36.6376C361.43 36.6376 362.153 36.7841 362.827 37.0672C363.501 37.3503 364.097 37.7603 364.585 38.2777C365.083 38.7951 365.474 39.4199 365.748 40.1423C366.021 40.8647 366.168 41.6652 366.168 42.5536V43.2369H366.177Z" fill="#1D1D1E"/>
<path d="M388.222 48.7623C387.617 48.7623 387.324 48.4304 387.324 47.7665V34.6461H384.726V37.2428H384.325C383.798 36.1983 383.065 35.4271 382.147 34.9292C381.229 34.4313 380.203 34.1775 379.07 34.1775C378.025 34.1775 377.039 34.363 376.101 34.7437C375.173 35.1244 374.353 35.6711 373.659 36.3935C372.956 37.1159 372.409 37.9945 372.008 39.0391C371.608 40.0836 371.403 41.2746 371.403 42.6316V43.1588C371.403 44.5352 371.608 45.7457 372.008 46.7903C372.409 47.8349 372.956 48.7135 373.659 49.4359C374.353 50.1583 375.173 50.705 376.101 51.0662C377.029 51.4274 378.045 51.6129 379.129 51.6129C380.174 51.6129 381.17 51.3493 382.108 50.8123C383.046 50.2852 383.788 49.4652 384.325 48.3523H384.726V48.5573C384.726 49.309 384.97 49.9337 385.439 50.4219C385.917 50.91 386.533 51.154 387.285 51.154H389.053V48.7623H388.222ZM384.726 43.1002C384.726 44.0081 384.589 44.8379 384.325 45.5798C384.061 46.3217 383.69 46.9563 383.231 47.4932C382.762 48.0301 382.206 48.4401 381.551 48.7232C380.897 49.0063 380.174 49.1528 379.402 49.1528C377.83 49.1528 376.55 48.6256 375.564 47.5713C374.577 46.517 374.089 45.0526 374.089 43.1588V42.6316C374.089 41.753 374.226 40.933 374.489 40.191C374.753 39.4491 375.124 38.8146 375.603 38.2874C376.081 37.77 376.638 37.36 377.283 37.0769C377.927 36.7938 378.631 36.6473 379.412 36.6473C380.164 36.6473 380.867 36.7938 381.522 37.0964C382.176 37.399 382.743 37.8188 383.221 38.346C383.7 38.8731 384.071 39.5174 384.335 40.2594C384.599 41.0013 384.735 41.8213 384.735 42.7097V43.1002H384.726Z" fill="#1D1D1E"/>
<path d="M406.956 35.8175C405.931 34.7339 404.593 34.1873 402.922 34.1873C401.926 34.1873 401.037 34.402 400.266 34.8316C399.484 35.2611 398.889 35.9347 398.469 36.8426H398.068V34.6461H392.071V37.0476H395.47V48.7525H391.67V51.1443H402.258V48.7525H398.068V41.7628C398.068 41.0501 398.146 40.3863 398.303 39.7713C398.459 39.1465 398.703 38.6095 399.035 38.141C399.367 37.6821 399.787 37.3112 400.285 37.0476C400.783 36.784 401.379 36.6473 402.063 36.6473C403.128 36.6473 404.026 36.9793 404.759 37.6626C405.491 38.346 405.853 39.4491 405.853 40.9818L408.588 40.5815C408.519 38.4924 407.972 36.9012 406.956 35.8175Z" fill="#1D1D1E"/>
<path d="M381.336 0H377.498V3.83656H381.336V0Z" fill="#1D1D1E"/>
<path d="M381.336 27.4417H377.498V31.2782H381.336V27.4417Z" fill="#1D1D1E"/>
<path d="M123.447 64.3332H121.894C119.901 64.3332 118.905 63.23 118.905 61.014V23.2341C118.905 22.9315 118.661 22.6874 118.358 22.6874H105.494C105.191 22.6874 104.947 22.9315 104.947 23.2341V28.7791C104.947 29.0817 104.703 29.3258 104.4 29.3258H103.287C103.081 29.3258 102.896 29.2086 102.798 29.0231C101.411 26.3678 99.5554 24.3958 97.2405 23.117C94.8377 21.7893 91.6829 21.1255 87.7661 21.1255C84.5136 21.1255 81.4661 21.7698 78.6238 23.0682C75.7815 24.3568 73.281 26.2214 71.1419 28.6619C68.9931 31.1025 67.3033 34.0507 66.0433 37.526C64.7638 40.9916 64.1387 44.9063 64.1387 49.2603V51.037C64.1387 55.469 64.7833 59.4227 66.0824 62.8883C67.3717 66.3637 69.1298 69.3119 71.347 71.7525C73.5643 74.193 76.1331 76.0381 79.0536 77.2876C81.974 78.547 85.0898 79.1718 88.4205 79.1718C91.9661 79.1718 95.0722 78.4494 97.7289 77.0143C100.308 75.6183 102.32 73.2754 103.794 69.9757C103.882 69.7805 104.078 69.6438 104.293 69.6438H105.396C105.689 69.6438 105.934 69.8684 105.943 70.1612C106.051 72.2894 106.842 74.0368 108.317 75.4035C109.909 76.8776 111.96 77.6196 114.47 77.6196H123.456C123.759 77.6196 124.003 77.3755 124.003 77.0729V64.8798C123.994 64.5772 123.749 64.3332 123.447 64.3332ZM104.928 50.8125C104.928 55.469 103.707 59.1396 101.265 61.834C98.8229 64.5284 95.5703 65.8756 91.507 65.8756C87.4438 65.8756 84.1912 64.5284 81.7494 61.834C79.3075 59.1396 78.0866 55.4593 78.0866 50.8125V49.4848C78.0866 44.8282 79.3075 41.1576 81.7494 38.4632C84.1912 35.7688 87.4438 34.4217 91.507 34.4217C95.5703 34.4217 98.8229 35.7688 101.265 38.4632C103.707 41.1576 104.928 44.838 104.928 49.4848V50.8125Z" fill="#184FD6"/>
<path d="M145.228 43.6665C146 41.7141 147.054 40.0447 148.383 38.678C149.711 37.3113 151.264 36.257 153.042 35.5248C154.82 34.7829 156.705 34.4217 158.697 34.4217C162.985 34.4217 166.306 35.6029 168.67 37.9654C170.887 40.1814 172.264 42.7879 172.792 45.7849C172.85 46.1071 173.153 46.3121 173.475 46.234L186.124 42.9734C186.407 42.8953 186.583 42.6122 186.525 42.3291C185.206 36.0715 182.237 30.9951 177.597 27.1097C172.831 23.117 166.609 21.1255 158.922 21.1255C154.927 21.1255 151.176 21.7893 147.67 23.117C144.163 24.4447 141.096 26.3678 138.469 28.8767C135.841 31.3856 133.79 34.4119 132.315 37.9654C130.84 41.509 130.098 45.5018 130.098 49.9339V51.2615C130.098 55.6936 130.84 59.6473 132.315 63.1129C133.79 66.5882 135.822 69.5071 138.41 71.8696C140.999 74.2321 144.046 76.0478 147.553 77.2974C151.059 78.5567 154.849 79.1815 158.912 79.1815C166.746 79.1815 173.007 77.19 177.705 73.1973C182.276 69.3119 185.206 64.2453 186.525 57.9877C186.583 57.6948 186.407 57.4117 186.114 57.3434L173.436 54.1804C173.133 54.1023 172.831 54.2976 172.762 54.61C172.049 57.9682 170.633 60.6528 168.494 62.6833C166.238 64.831 162.966 65.8951 158.687 65.8951C156.695 65.8951 154.81 65.5827 153.032 64.9579C151.254 64.3332 149.711 63.3862 148.373 62.1367C147.045 60.8773 145.99 59.3154 145.218 57.4313C144.447 55.5471 144.056 53.3897 144.056 50.9491V50.2853C144.056 47.8252 144.447 45.6287 145.228 43.6665Z" fill="#184FD6"/>
<path d="M241.496 64.3332H226.63C226.327 64.3332 226.083 64.0891 226.083 63.7865V23.2244C226.083 22.9218 225.839 22.6777 225.536 22.6777H195.374C195.071 22.6777 194.827 22.9218 194.827 23.2244V35.4175C194.827 35.7201 195.071 35.9641 195.374 35.9641H211.569C211.871 35.9641 212.116 36.2082 212.116 36.5108V63.7768C212.116 64.0794 211.871 64.3234 211.569 64.3234H194.046C193.743 64.3234 193.499 64.5675 193.499 64.8701V77.0632C193.499 77.3658 193.743 77.6099 194.046 77.6099H241.496C241.799 77.6099 242.043 77.3658 242.043 77.0632V64.8799C242.053 64.5773 241.799 64.3332 241.496 64.3332Z" fill="#184FD6"/>
<path d="M279.735 50.627C279.667 50.5294 279.628 50.422 279.628 50.3048V48.6648C279.628 48.5476 279.667 48.4403 279.726 48.3524L297.297 23.4294C297.336 23.3708 297.366 23.3025 297.366 23.2244C297.366 22.9218 297.121 22.6777 296.819 22.6777H282.343C282.167 22.6777 282.001 22.7656 281.894 22.9022L267.594 42.6122C267.487 42.7586 267.321 42.8367 267.145 42.8367H265.319C265.016 42.8367 264.772 42.5927 264.772 42.29V0.62481C264.772 0.322181 264.527 0.078125 264.225 0.078125H251.361C251.058 0.078125 250.814 0.322181 250.814 0.62481V77.0729C250.814 77.3755 251.058 77.6196 251.361 77.6196H264.225C264.527 77.6196 264.772 77.3755 264.772 77.0729V56.6796C264.772 56.377 265.016 56.1329 265.319 56.1329H267.145C267.321 56.1329 267.487 56.2208 267.585 56.3574L282.998 77.4048C283.105 77.5415 283.261 77.6293 283.437 77.6293H298.567C298.87 77.6293 299.114 77.3853 299.114 77.0827C299.114 77.0046 299.094 76.9362 299.046 76.8777L279.735 50.627Z" fill="#184FD6"/>
<path d="M354.007 64.3332H339.141C338.838 64.3332 338.594 64.0891 338.594 63.7865V23.2244C338.594 22.9218 338.35 22.6777 338.047 22.6777H307.885C307.582 22.6777 307.338 22.9218 307.338 23.2244V35.4175C307.338 35.7201 307.582 35.9641 307.885 35.9641H324.08C324.382 35.9641 324.627 36.2082 324.627 36.5108V63.7768C324.627 64.0794 324.382 64.3234 324.08 64.3234H306.557C306.254 64.3234 306.01 64.5675 306.01 64.8701V77.0632C306.01 77.3658 306.254 77.6099 306.557 77.6099H354.007C354.31 77.6099 354.554 77.3658 354.554 77.0632V64.8799C354.564 64.5773 354.31 64.3332 354.007 64.3332Z" fill="#184FD6"/>
<path d="M324.392 14.8191H338.047C338.35 14.8191 338.594 14.5751 338.594 14.2724V0.62481C338.594 0.322181 338.35 0.078125 338.047 0.078125H324.392C324.089 0.078125 323.845 0.322181 323.845 0.62481V14.2724C323.845 14.5653 324.089 14.8191 324.392 14.8191Z" fill="#184FD6"/>
<path d="M376.062 64.343H363.921C363.618 64.343 363.374 64.5871 363.374 64.8897V77.0242C363.374 77.3268 363.618 77.5708 363.921 77.5708H376.062C376.365 77.5708 376.609 77.3268 376.609 77.0242V64.8897C376.609 64.5871 376.365 64.343 376.062 64.343Z" fill="#184FD6"/>
<path d="M211.529 14.8191H225.184C225.487 14.8191 225.731 14.5751 225.731 14.2724V0.62481C225.731 0.322181 225.487 0.078125 225.184 0.078125H211.529C211.227 0.078125 210.982 0.322181 210.982 0.62481V14.2724C210.982 14.5653 211.227 14.8191 211.529 14.8191Z" fill="#184FD6"/>
<path d="M15.028 47.1907C15.1745 46.2144 15.3992 45.287 15.6922 44.4084C15.7801 44.1546 15.868 43.9106 15.9657 43.6665C16.1611 43.1784 16.3662 42.7098 16.6006 42.2607C17.2843 40.9038 18.1243 39.7128 19.1206 38.6878C19.4527 38.3461 19.7945 38.0239 20.1559 37.7213C20.6931 37.2722 21.2694 36.8622 21.8652 36.4913C22.2657 36.2472 22.6759 36.0227 23.1057 35.8177C23.3206 35.72 23.5355 35.6224 23.7601 35.5248C24.0922 35.3881 24.4243 35.2612 24.7662 35.1441C25.6745 34.8414 26.6122 34.6364 27.5694 34.5193C28.1652 34.4509 28.7806 34.4119 29.4057 34.4119C33.6936 34.4119 37.0243 35.5931 39.3783 37.9556C39.935 38.512 40.4331 39.088 40.8825 39.6933C41.4392 40.445 41.9178 41.2357 42.3183 42.0753C42.5527 42.5731 42.7676 43.0808 42.9434 43.6079C43.0606 43.9594 43.168 44.3206 43.2559 44.6818C43.3536 45.043 43.4317 45.4139 43.4904 45.7849C43.5099 45.8825 43.549 45.9704 43.6173 46.0485C43.7443 46.2047 43.9592 46.2828 44.1741 46.2242L56.8229 42.9636C56.8522 42.9539 56.8815 42.9441 56.9108 42.9343C57.0476 42.8758 57.155 42.7586 57.2038 42.6122C57.2136 42.5927 57.2234 42.5634 57.2234 42.5438C57.2429 42.4755 57.2429 42.3876 57.2234 42.3095C55.9145 36.052 52.9355 30.9756 48.2959 27.0902C48.1494 26.9633 47.9931 26.8364 47.8466 26.7193C47.3973 26.358 46.9285 26.0164 46.4499 25.6942C46.0983 25.4599 45.7369 25.2256 45.3755 25.0011C45.1508 24.8644 44.9164 24.7278 44.682 24.6008C43.0704 23.7027 41.3317 22.9803 39.4662 22.4239C38.6848 22.1993 37.8936 21.9943 37.0634 21.8284C36.7997 21.7796 36.5359 21.7307 36.282 21.6819C35.9011 21.6136 35.5006 21.5453 35.1099 21.4965C34.4555 21.3988 33.7913 21.3305 33.1173 21.2719C32.2383 21.1938 31.3299 21.1548 30.402 21.1255C30.3824 21.1255 30.3531 21.1255 30.3336 21.1255C30.1187 21.1255 29.9038 21.1255 29.6792 21.1255H29.6597C25.6648 21.1255 21.9238 21.7893 18.4076 23.117C14.8913 24.4447 11.8243 26.3678 9.20663 28.8767C6.57919 31.3856 4.52803 34.4119 3.05314 37.9654C1.58803 41.509 0.845703 45.492 0.845703 49.9241V51.2518C0.845703 52.3549 0.89454 53.4385 0.982447 54.4831C1.03128 55.0102 1.08989 55.5276 1.15826 56.0255C1.25594 56.7869 1.39268 57.5386 1.54896 58.2708C1.6564 58.7589 1.76384 59.2373 1.89082 59.7059C2.0178 60.1842 2.15454 60.643 2.31082 61.1019C2.53547 61.7852 2.78942 62.4588 3.06291 63.1031C3.24849 63.5327 3.44384 63.9622 3.63919 64.382C5.05547 67.3009 6.89175 69.7902 9.1578 71.8598C9.32384 72.0063 9.48012 72.1527 9.64617 72.2991C9.97826 72.5822 10.3104 72.8654 10.662 73.1289C11.0038 73.3925 11.3555 73.6561 11.7169 73.9099C12.9769 74.7885 14.315 75.5695 15.7508 76.2431C16.5713 76.6238 17.4211 76.9753 18.3001 77.2876C21.8066 78.547 25.5964 79.1718 29.6597 79.1718C35.5397 79.1718 40.5308 78.0491 44.6331 75.8038C44.975 75.6183 45.3071 75.4231 45.6392 75.2181C45.9713 75.0131 46.2936 74.808 46.6159 74.5835C47.2508 74.1442 47.8564 73.6756 48.4522 73.1777C48.882 72.8165 49.2922 72.4358 49.6927 72.0551C53.5508 68.3357 56.0806 63.64 57.2722 57.9682C57.3211 57.7144 57.1843 57.4508 56.9597 57.3532C56.9304 57.3434 56.9011 57.3336 56.8717 57.3239L44.1936 54.1609C43.8908 54.0828 43.588 54.278 43.5197 54.5904C42.8066 57.9487 41.3904 60.6333 39.2513 62.6638C36.995 64.8017 33.7327 65.8756 29.4448 65.8756C27.4522 65.8756 25.5671 65.5632 23.7894 64.9384C22.0215 64.3136 20.4685 63.3667 19.1304 62.1074C18.7983 61.795 18.4857 61.4631 18.1829 61.1116C17.5871 60.4087 17.0597 59.618 16.6006 58.7589C16.3662 58.3294 16.1611 57.8803 15.9657 57.402C15.8778 57.197 15.7997 56.992 15.7313 56.7772C15.409 55.8791 15.1745 54.9224 15.0183 53.8973C14.8717 52.9601 14.8034 51.9644 14.8034 50.9198V50.256C14.8131 49.1919 14.8815 48.1669 15.028 47.1907Z" fill="#184FD6"/>
</svg>
