<?xml version="1.0" encoding="utf-8"?>
<!-- Generator: Adobe Illustrator 26.1.0, SVG Export Plug-In . SVG Version: 6.00 Build 0)  -->
<svg version="1.1" id="Layer_1" xmlns="http://www.w3.org/2000/svg" xmlns:xlink="http://www.w3.org/1999/xlink" x="0px" y="0px"
	 viewBox="0 0 488.96 488.96" style="enable-background:new 0 0 488.96 488.96;" xml:space="preserve">
<style type="text/css">
	.st0{fill:#FFFFFF;}
	.st1{fill:#184FD6;}
	.st2{fill:#68686A;}
	.st3{fill:#1D1D1E;}
	.st4{fill:#77777A;}
	.st5{fill:#EFEFEF;}
	.st6{fill:#FFEE1A;}
</style>
<g>
	<path class="st2" d="M398.35,244.81c-2.3-0.12-3.98-0.28-5.65-0.29c-20.37-0.02-40.75-0.08-61.12,0.05
		c-3.51,0.02-4.74-0.85-4.69-4.6c0.22-15.9,0.07-31.81,0.1-47.71c0.04-22.35,16.41-38.84,38.8-39.01
		c12.62-0.1,25.24-0.02,37.86-0.02c1.43,0,2.85,0,4.65,0c0.16-1.84,0.4-3.36,0.4-4.89c0.03-17.48-0.07-34.96,0.09-52.44
		c0.03-3.45-1.16-5.17-4.35-6.37c-18.99-7.17-38.55-9.65-58.75-7.85c-19.4,1.73-37.2,7.66-52.65,19.74
		c-19.45,15.2-30.25,35.74-34.91,59.48c-2.11,10.74-2.86,21.84-3.25,32.81c-0.53,15.1-0.13,30.23-0.13,45.34
		c0,5.45,0,5.46-5.65,5.46c-16.82,0-33.65-0.01-50.47,0.01c-5.29,0-5.31,0.03-5.31,5.19c-0.01,20.5-0.01,41.01,0,61.51
		c0,5.69,0.01,5.71,5.57,5.72c17.22,0.01,34.44,0.07,51.66-0.05c3.2-0.02,4.28,0.85,4.27,4.2c-0.1,55.07-0.07,110.15-0.08,165.22
		c0,1.15-0.13,2.3-0.24,3.94c-1.59,0-3,0-4.4,0c-55.47,0-110.94-0.01-166.41,0c-44.73,0.01-74.67-30.07-81.92-63.93
		c-1.25-5.86-2.01-11.95-2.02-17.93c-0.11-109.62-0.17-219.25,0-328.87C-0.18,40.28,30.61,5.96,69.68,0.9
		c3.89-0.5,7.84-0.77,11.76-0.77C190.41,0.08,299.37,0.26,408.34,0c37.56-0.09,73.52,26.81,80.47,68.39
		c0.63,3.74,0.92,7.57,0.92,11.36c0.05,110.15,0.06,220.3,0.03,330.45c-0.01,38.29-29.89,72.98-67.7,78.54
		c-6.21,0.91-12.53,1.4-18.8,1.45c-23.79,0.17-47.58,0.07-71.37,0.07c-1.43,0-2.85,0-4.69,0c-0.08-1.68-0.22-3.07-0.22-4.47
		c-0.01-54.68,0.03-109.36-0.09-164.04c-0.01-3.74,0.94-4.94,4.8-4.89c17.22,0.2,34.44,0.01,51.66,0.15c3.5,0.03,5-0.78,5.5-4.63
		c2.29-17.67,4.98-35.29,7.51-52.93C397.03,254.79,397.63,250.13,398.35,244.81z"/>
</g>
</svg>
