<?xml version="1.0" encoding="utf-8"?>
<!-- Generator: Adobe Illustrator 26.1.0, SVG Export Plug-In . SVG Version: 6.00 Build 0)  -->
<svg version="1.1" id="Layer_1" xmlns="http://www.w3.org/2000/svg" xmlns:xlink="http://www.w3.org/1999/xlink" x="0px" y="0px"
	 viewBox="0 0 1013.41 416.53" style="enable-background:new 0 0 1013.41 416.53;" xml:space="preserve">
<style type="text/css">
	.st0{fill:#FFFFFF;}
	.st1{fill:#184FD6;}
	.st2{fill:#68686A;}
	.st3{fill:#1D1D1E;}
	.st4{fill:#77777A;}
	.st5{fill:#EFEFEF;}
	.st6{fill:#FFEE1A;}
</style>
<g>
	<g>
		<path class="st1" d="M151.08,154.51c0.77,0.19,1.26,0.96,1.1,1.74c-3.54,16.9-11.47,30.58-23.78,41.05
			c-12.66,10.76-29.55,16.14-50.67,16.14c-10.96,0-21.18-1.7-30.64-5.08c-9.47-3.39-17.69-8.27-24.66-14.65
			c-6.98-6.38-12.46-14.25-16.44-23.62C1.99,160.74,0,150.07,0,138.11v-3.59c0-11.96,1.99-22.72,5.98-32.29
			c3.98-9.57,9.52-17.74,16.59-24.51c7.07-6.77,15.34-11.96,24.81-15.55c9.46-3.59,19.58-5.38,30.34-5.38
			c20.73,0,37.52,5.38,50.37,16.14c12.51,10.48,20.54,24.17,24.08,41.06c0.16,0.77-0.32,1.54-1.09,1.74l-34.12,8.8
			c-0.85,0.22-1.68-0.34-1.84-1.21c-1.42-8.08-5.13-15.12-11.11-21.1c-6.38-6.38-15.35-9.57-26.9-9.57c-5.38,0-10.46,1-15.25,2.99
			c-4.78,1.99-8.97,4.83-12.56,8.52c-3.59,3.69-6.43,8.18-8.52,13.45c-2.09,5.28-3.14,11.21-3.14,17.79v1.79
			c0,6.58,1.05,12.41,3.14,17.49c2.09,5.08,4.93,9.32,8.52,12.71c3.59,3.39,7.77,5.93,12.56,7.62c4.78,1.7,9.87,2.54,15.25,2.54
			c11.56,0,20.37-2.89,26.46-8.67c5.76-5.47,9.59-12.74,11.51-21.79c0.18-0.83,0.99-1.36,1.81-1.15L151.08,154.51z"/>
		<path class="st1" d="M278.99,187.74c-0.59,0-1.11,0.35-1.35,0.89c-3.96,8.9-9.41,15.23-16.35,18.99
			c-7.18,3.89-15.55,5.83-25.11,5.83c-8.97,0-17.39-1.7-25.26-5.08c-7.88-3.39-14.8-8.37-20.78-14.95
			c-5.98-6.58-10.71-14.55-14.2-23.92c-3.49-9.36-5.23-20.03-5.23-31.99v-4.78c0-11.76,1.69-22.32,5.08-31.69
			c3.39-9.36,7.97-17.34,13.75-23.92c5.78-6.58,12.5-11.61,20.18-15.1c7.67-3.48,15.89-5.23,24.66-5.23
			c10.56,0,19.08,1.79,25.56,5.38c6.24,3.46,11.24,8.77,14.98,15.94c0.26,0.49,0.76,0.81,1.31,0.81h3c0.82,0,1.48-0.66,1.48-1.48
			V62.47c0-0.82,0.66-1.48,1.48-1.48h34.7c0.82,0,1.48,0.66,1.48,1.48v101.95c0,5.98,2.69,8.97,8.07,8.97h4.2
			c0.82,0,1.48,0.66,1.48,1.48v32.91c0,0.82-0.66,1.48-1.48,1.48h-24.23c-6.78,0-12.31-1.99-16.59-5.98
			c-3.97-3.69-6.1-8.41-6.39-14.16c-0.04-0.78-0.7-1.39-1.48-1.39H278.99z M244.54,177.57c10.96,0,19.73-3.63,26.31-10.91
			c6.58-7.27,9.87-17.19,9.87-29.74v-3.59c0-12.55-3.29-22.47-9.87-29.74c-6.58-7.27-15.35-10.91-26.31-10.91
			c-10.96,0-19.73,3.64-26.31,10.91c-6.58,7.28-9.87,17.19-9.87,29.74v3.59c0,12.55,3.29,22.47,9.87,29.74
			C224.81,173.94,233.58,177.57,244.54,177.57z"/>
		<path class="st1" d="M499.65,154.51c0.77,0.19,1.26,0.96,1.1,1.74c-3.54,16.9-11.47,30.58-23.78,41.05
			c-12.66,10.76-29.55,16.14-50.67,16.14c-10.96,0-21.18-1.7-30.64-5.08c-9.47-3.39-17.69-8.27-24.66-14.65
			c-6.98-6.38-12.46-14.25-16.44-23.62c-3.99-9.36-5.98-20.03-5.98-31.99v-3.59c0-11.96,1.99-22.72,5.98-32.29
			c3.98-9.57,9.52-17.74,16.59-24.51c7.07-6.77,15.34-11.96,24.81-15.55c9.46-3.59,19.58-5.38,30.34-5.38
			c20.73,0,37.52,5.38,50.37,16.14c12.51,10.48,20.54,24.17,24.08,41.06c0.16,0.77-0.32,1.54-1.09,1.74l-34.12,8.8
			c-0.85,0.22-1.68-0.34-1.84-1.21c-1.42-8.08-5.13-15.12-11.11-21.1c-6.38-6.38-15.35-9.57-26.9-9.57c-5.38,0-10.46,1-15.25,2.99
			c-4.78,1.99-8.97,4.83-12.56,8.52c-3.59,3.69-6.43,8.18-8.52,13.45c-2.09,5.28-3.14,11.21-3.14,17.79v1.79
			c0,6.58,1.05,12.41,3.14,17.49c2.09,5.08,4.93,9.32,8.52,12.71c3.59,3.39,7.77,5.93,12.56,7.62c4.78,1.7,9.87,2.54,15.25,2.54
			c11.56,0,20.37-2.89,26.46-8.67c5.76-5.47,9.59-12.74,11.51-21.79c0.18-0.83,0.99-1.36,1.81-1.15L499.65,154.51z"/>
		<path class="st1" d="M521.05,173.39h47.26c0.82,0,1.48-0.66,1.48-1.48V98.34c0-0.82-0.66-1.48-1.48-1.48h-43.67
			c-0.82,0-1.48-0.66-1.48-1.48V62.47c0-0.82,0.66-1.48,1.48-1.48h81.34c0.82,0,1.48,0.66,1.48,1.48v109.44
			c0,0.82,0.66,1.48,1.48,1.48h40.08c0.82,0,1.48,0.66,1.48,1.48v32.91c0,0.82-0.66,1.48-1.48,1.48H521.05
			c-0.82,0-1.48-0.66-1.48-1.48v-32.91C519.57,174.05,520.23,173.39,521.05,173.39z"/>
		<path class="st1" d="M713.28,115.39h4.93c0.48,0,0.92-0.23,1.2-0.61l38.57-53.18c0.28-0.38,0.73-0.61,1.2-0.61h39.01
			c0.82,0,1.48,0.66,1.48,1.48v0.01c0,0.19-0.06,0.38-0.17,0.54l-47.39,67.23c-0.18,0.25-0.27,0.55-0.27,0.85v4.42
			c0,0.32,0.1,0.62,0.29,0.88l52.14,70.81c0.12,0.16,0.18,0.36,0.18,0.56l0,0c0,0.82-0.66,1.48-1.48,1.48h-40.81
			c-0.47,0-0.92-0.23-1.2-0.61l-41.56-56.78c-0.28-0.38-0.72-0.61-1.2-0.61h-4.94c-0.82,0-1.48,0.66-1.48,1.48v55.03
			c0,0.82-0.66,1.48-1.48,1.48h-34.7c-0.82,0-1.48-0.66-1.48-1.48V1.48c0-0.82,0.66-1.48,1.48-1.48h34.7c0.82,0,1.48,0.66,1.48,1.48
			v112.43C711.79,114.73,712.46,115.39,713.28,115.39z"/>
		<path class="st1" d="M824.49,173.39h47.25c0.82,0,1.48-0.66,1.48-1.48V98.34c0-0.82-0.66-1.48-1.48-1.48h-43.67
			c-0.82,0-1.48-0.66-1.48-1.48V62.47c0-0.82,0.66-1.48,1.48-1.48h81.34c0.82,0,1.48,0.66,1.48,1.48v109.44
			c0,0.82,0.66,1.48,1.48,1.48h40.08c0.82,0,1.48,0.66,1.48,1.48v32.91c0,0.82-0.66,1.48-1.48,1.48H824.49
			c-0.82,0-1.48-0.66-1.48-1.48v-32.91C823,174.05,823.67,173.39,824.49,173.39z"/>
		<path class="st1" d="M909.41,39.79h-36.82c-0.82,0-1.48-0.66-1.48-1.48V1.48c0-0.82,0.66-1.48,1.48-1.48h36.82
			c0.82,0,1.48,0.66,1.48,1.48v36.82C910.89,39.12,910.23,39.79,909.41,39.79z"/>
		<path class="st1" d="M1011.93,209.13H979.2c-0.82,0-1.48-0.66-1.48-1.48v-32.73c0-0.82,0.66-1.48,1.48-1.48h32.73
			c0.82,0,1.48,0.66,1.48,1.48v32.73C1013.41,208.47,1012.75,209.13,1011.93,209.13z"/>
		<path class="st1" d="M605.02,39.79H568.2c-0.82,0-1.48-0.66-1.48-1.48V1.48c0-0.82,0.66-1.48,1.48-1.48h36.82
			c0.82,0,1.48,0.66,1.48,1.48v36.82C606.51,39.12,605.84,39.79,605.02,39.79z"/>
	</g>
	<g>
		<path class="st4" d="M22.99,416.53h-12.2V307.69h12.2v12.2h1.88c2.71-4.69,6.46-8.26,11.26-10.71c4.79-2.45,10.01-3.68,15.64-3.68
			c4.79,0,9.33,0.89,13.61,2.66c4.27,1.77,8.05,4.33,11.34,7.67c3.28,3.34,5.89,7.45,7.82,12.35c1.93,4.9,2.89,10.48,2.89,16.73
			v3.13c0,6.36-0.94,11.99-2.82,16.89c-1.88,4.9-4.46,9.02-7.74,12.35c-3.28,3.34-7.12,5.86-11.49,7.58
			c-4.38,1.72-9.02,2.58-13.92,2.58c-2.5,0-5.06-0.29-7.66-0.86c-2.61-0.57-5.08-1.46-7.43-2.66c-2.35-1.2-4.51-2.66-6.49-4.38
			c-1.98-1.72-3.65-3.78-5-6.18h-1.88V416.53z M48.95,375.87c3.75,0,7.19-0.65,10.32-1.96c3.13-1.3,5.87-3.15,8.21-5.55
			c2.35-2.39,4.17-5.32,5.47-8.76c1.3-3.44,1.95-7.29,1.95-11.57v-3.13c0-4.17-0.65-7.95-1.95-11.34c-1.3-3.39-3.13-6.31-5.47-8.76
			c-2.34-2.45-5.11-4.35-8.29-5.71c-3.18-1.36-6.59-2.03-10.24-2.03c-3.65,0-7.04,0.7-10.17,2.11c-3.13,1.41-5.86,3.36-8.21,5.86
			s-4.2,5.5-5.55,8.99c-1.36,3.49-2.03,7.32-2.03,11.49v1.88c0,4.28,0.68,8.16,2.03,11.65c1.35,3.49,3.2,6.49,5.55,8.99
			c2.35,2.5,5.08,4.43,8.21,5.78C41.91,375.19,45.3,375.87,48.95,375.87z"/>
		<path class="st4" d="M104.78,374h27.21v-55.05h-24.4v-11.26h36.59V374h25.33v11.26h-64.74V374z M126.98,284.54
			c0-3.02,1.07-5.6,3.2-7.74c2.14-2.13,4.72-3.2,7.74-3.2c3.02,0,5.6,1.07,7.74,3.2c2.14,2.14,3.21,4.72,3.21,7.74
			c0,3.03-1.07,5.61-3.21,7.74c-2.14,2.14-4.72,3.21-7.74,3.21c-3.03,0-5.61-1.07-7.74-3.21
			C128.05,290.15,126.98,287.57,126.98,284.54z"/>
		<path class="st4" d="M183.75,307.69h24.4v-31.9h12.2v31.9h30.02v11.26h-30.02v50.35c0,3.13,1.41,4.69,4.22,4.69h22.05v11.26
			h-26.43c-3.55,0-6.44-1.15-8.68-3.44c-2.24-2.29-3.36-5.21-3.36-8.76v-54.11h-24.4V307.69z"/>
		<path class="st4" d="M326.21,372.12h-1.88c-2.5,5.21-5.97,9.07-10.4,11.57c-4.43,2.5-9.1,3.75-14,3.75
			c-5.11,0-9.85-0.86-14.23-2.58c-4.38-1.72-8.21-4.27-11.49-7.66c-3.28-3.39-5.87-7.53-7.74-12.43c-1.88-4.9-2.82-10.58-2.82-17.04
			v-2.5c0-6.36,0.94-11.99,2.82-16.89c1.88-4.9,4.46-9.04,7.74-12.43c3.28-3.39,7.12-5.97,11.49-7.74
			c4.38-1.77,9.02-2.66,13.92-2.66c5.32,0,10.14,1.17,14.47,3.52c4.32,2.35,7.74,5.97,10.24,10.87h1.88v-12.2h12.2v61.61
			c0,3.13,1.41,4.69,4.22,4.69h3.91v11.26h-8.29c-3.55,0-6.44-1.15-8.68-3.44c-2.24-2.29-3.36-5.21-3.36-8.76V372.12z
			 M301.19,375.87c3.65,0,7.01-0.68,10.09-2.03c3.07-1.35,5.71-3.28,7.9-5.78c2.19-2.5,3.91-5.5,5.16-8.99
			c1.25-3.49,1.88-7.37,1.88-11.65v-1.88c0-4.17-0.63-8-1.88-11.49c-1.25-3.49-3-6.49-5.24-8.99c-2.24-2.5-4.9-4.46-7.98-5.86
			c-3.08-1.41-6.39-2.11-9.93-2.11c-3.65,0-6.99,0.68-10.01,2.03c-3.02,1.36-5.66,3.26-7.9,5.71c-2.24,2.45-3.99,5.42-5.24,8.91
			c-1.25,3.49-1.88,7.33-1.88,11.49v2.5c0,8.86,2.32,15.77,6.96,20.72C287.77,373.4,293.79,375.87,301.19,375.87z"/>
		<path class="st4" d="M452.1,385.25h-12.2V275.79h12.2v44.1h1.88c2.71-4.69,6.46-8.26,11.26-10.71c4.79-2.45,10.01-3.68,15.64-3.68
			c4.79,0,9.33,0.89,13.61,2.66c4.27,1.77,8.05,4.33,11.34,7.67c3.28,3.34,5.89,7.45,7.82,12.35c1.93,4.9,2.89,10.48,2.89,16.73
			v3.13c0,6.36-0.94,11.99-2.82,16.89c-1.88,4.9-4.46,9.02-7.74,12.35c-3.28,3.34-7.12,5.86-11.49,7.58
			c-4.38,1.72-9.02,2.58-13.92,2.58c-2.5,0-5.06-0.29-7.66-0.86c-2.61-0.57-5.08-1.46-7.43-2.66c-2.35-1.2-4.51-2.66-6.49-4.38
			c-1.98-1.72-3.65-3.78-5-6.18h-1.88V385.25z M478.06,375.87c3.75,0,7.19-0.65,10.32-1.96c3.13-1.3,5.87-3.15,8.21-5.55
			c2.35-2.39,4.17-5.32,5.47-8.76c1.3-3.44,1.95-7.29,1.95-11.57v-3.13c0-4.17-0.65-7.95-1.95-11.34c-1.3-3.39-3.13-6.31-5.47-8.76
			c-2.34-2.45-5.11-4.35-8.29-5.71c-3.18-1.36-6.59-2.03-10.24-2.03c-3.65,0-7.04,0.7-10.17,2.11c-3.13,1.41-5.86,3.36-8.21,5.86
			s-4.2,5.5-5.55,8.99c-1.36,3.49-2.03,7.32-2.03,11.49v1.88c0,4.28,0.68,8.16,2.03,11.65c1.35,3.49,3.2,6.49,5.55,8.99
			c2.35,2.5,5.08,4.43,8.21,5.78C471.02,375.19,474.41,375.87,478.06,375.87z"/>
		<path class="st4" d="M588.31,372.12h-1.88c-2.5,5.21-5.97,9.07-10.4,11.57c-4.43,2.5-9.1,3.75-14,3.75
			c-5.11,0-9.85-0.86-14.23-2.58c-4.38-1.72-8.21-4.27-11.49-7.66c-3.28-3.39-5.87-7.53-7.74-12.43c-1.88-4.9-2.82-10.58-2.82-17.04
			v-2.5c0-6.36,0.94-11.99,2.82-16.89c1.88-4.9,4.46-9.04,7.74-12.43c3.28-3.39,7.12-5.97,11.49-7.74
			c4.38-1.77,9.02-2.66,13.92-2.66c5.32,0,10.14,1.17,14.47,3.52c4.32,2.35,7.74,5.97,10.24,10.87h1.88v-12.2h12.2v61.61
			c0,3.13,1.41,4.69,4.22,4.69h3.91v11.26h-8.29c-3.55,0-6.44-1.15-8.68-3.44c-2.24-2.29-3.36-5.21-3.36-8.76V372.12z
			 M563.29,375.87c3.65,0,7.01-0.68,10.09-2.03c3.07-1.35,5.71-3.28,7.9-5.78c2.19-2.5,3.91-5.5,5.16-8.99
			c1.25-3.49,1.88-7.37,1.88-11.65v-1.88c0-4.17-0.63-8-1.88-11.49c-1.25-3.49-3-6.49-5.24-8.99c-2.24-2.5-4.9-4.46-7.98-5.86
			c-3.08-1.41-6.39-2.11-9.93-2.11c-3.65,0-6.99,0.68-10.01,2.03c-3.02,1.36-5.66,3.26-7.9,5.71c-2.24,2.45-3.99,5.42-5.24,8.91
			c-1.25,3.49-1.88,7.33-1.88,11.49v2.5c0,8.86,2.32,15.77,6.96,20.72C549.86,373.4,555.88,375.87,563.29,375.87z"/>
		<path class="st4" d="M616.93,307.69h28.15v10.32h1.88c1.98-4.27,4.79-7.43,8.45-9.46c3.65-2.03,7.82-3.05,12.51-3.05
			c7.82,0,14.13,2.56,18.92,7.67c4.79,5.11,7.35,12.56,7.66,22.36l-12.82,1.88c0-7.19-1.72-12.38-5.16-15.56
			c-3.44-3.18-7.66-4.77-12.67-4.77c-3.23,0-6.02,0.62-8.37,1.88c-2.35,1.25-4.3,2.97-5.86,5.16c-1.56,2.19-2.71,4.75-3.44,7.66
			c-0.73,2.92-1.1,6.05-1.1,9.39V374h19.7v11.26h-49.73V374h17.83v-55.05h-15.95V307.69z"/>
	</g>
</g>
</svg>
