<?xml version="1.0" encoding="utf-8"?>
<!-- Generator: Adobe Illustrator 26.2.1, SVG Export Plug-In . SVG Version: 6.00 Build 0)  -->
<svg version="1.1" class="opening" xmlns="http://www.w3.org/2000/svg" xmlns:xlink="http://www.w3.org/1999/xlink" x="0px" y="0px"
	 viewBox="0 0 300.12 268.68" style="enable-background:new 0 0 300.12 268.68;" xml:space="preserve">
<g>
	<path d="M41.98,20.26h-2.86V8.99h2.86v1.68h0.41c0.26-0.64,0.67-1.13,1.25-1.48c0.58-0.35,1.25-0.52,2.02-0.52
		c0.54,0,1.06,0.09,1.53,0.26c0.48,0.17,0.9,0.44,1.26,0.81s0.65,0.83,0.85,1.39c0.2,0.56,0.31,1.23,0.31,2v7.13h-2.86v-6.4
		c0-0.8-0.19-1.43-0.58-1.9c-0.39-0.46-0.94-0.69-1.67-0.69c-0.85,0-1.48,0.28-1.9,0.85c-0.42,0.57-0.62,1.33-0.62,2.28V20.26z"/>
	<path d="M60.65,8.99h2.86v14.03c0,0.51-0.16,0.94-0.49,1.27c-0.33,0.33-0.75,0.5-1.26,0.5h-6.7v-2.73h4.97
		c0.41,0,0.61-0.23,0.61-0.68v-2.77h-0.41c-0.5,1.3-1.58,1.95-3.23,1.95c-0.56,0-1.08-0.09-1.57-0.27
		c-0.48-0.18-0.91-0.46-1.27-0.84c-0.36-0.38-0.65-0.85-0.85-1.42c-0.2-0.57-0.31-1.24-0.31-2.01V8.99h2.86v6.45
		c0,0.8,0.19,1.43,0.57,1.87c0.38,0.45,0.95,0.67,1.7,0.67c0.86,0,1.49-0.28,1.9-0.83c0.4-0.55,0.6-1.31,0.6-2.26V8.99z"/>
	<path d="M67.12,17.53h3.82v-5.81H67.4V8.99h6.4v8.54h3.27v2.73h-9.95V17.53z M74.5,5.65c0,0.3-0.06,0.59-0.17,0.85
		C74.22,6.77,74.06,7,73.87,7.19c-0.2,0.19-0.43,0.34-0.69,0.45c-0.27,0.11-0.54,0.17-0.83,0.17c-0.3,0-0.58-0.06-0.84-0.17
		c-0.26-0.11-0.48-0.26-0.68-0.45c-0.2-0.19-0.35-0.42-0.47-0.68c-0.11-0.26-0.17-0.55-0.17-0.85s0.06-0.59,0.17-0.85
		c0.11-0.26,0.27-0.49,0.47-0.68c0.2-0.19,0.42-0.34,0.68-0.45c0.26-0.11,0.54-0.17,0.84-0.17c0.29,0,0.56,0.06,0.83,0.17
		c0.26,0.11,0.5,0.27,0.69,0.45c0.2,0.19,0.35,0.42,0.47,0.68C74.45,5.07,74.5,5.35,74.5,5.65z"/>
	<path d="M80.5,8.99h3.34V4.36h2.86v4.63h4.06v2.73H86.7v5.13c0,0.45,0.2,0.68,0.61,0.68h3.04v2.73h-4.77
		c-0.52,0-0.94-0.17-1.26-0.5s-0.49-0.76-0.49-1.27v-6.77H80.5V8.99z"/>
	<path d="M93.92,8.99h3.09l2.66,9.9h0.41l2.66-9.9h3.09l-3.23,11.26h-5.45L93.92,8.99z"/>
	<path d="M115.9,18.62c-0.3,0.71-0.73,1.22-1.27,1.51c-0.55,0.3-1.18,0.44-1.91,0.44c-0.68,0-1.32-0.13-1.92-0.39
		c-0.6-0.26-1.12-0.64-1.58-1.14c-0.45-0.5-0.81-1.1-1.08-1.82c-0.27-0.71-0.4-1.52-0.4-2.43v-0.36c0-0.89,0.13-1.7,0.39-2.41
		c0.26-0.71,0.61-1.32,1.04-1.82s0.95-0.88,1.53-1.15c0.58-0.26,1.21-0.4,1.87-0.4c0.8,0,1.45,0.14,1.94,0.41
		c0.49,0.27,0.88,0.7,1.17,1.27h0.41V8.99h2.86v7.86c0,0.45,0.2,0.68,0.61,0.68h0.43v2.73h-1.95c-0.51,0-0.93-0.15-1.26-0.45
		s-0.49-0.7-0.49-1.18H115.9z M113.36,17.85c0.83,0,1.5-0.28,2-0.83c0.5-0.55,0.75-1.31,0.75-2.26v-0.27c0-0.95-0.25-1.71-0.75-2.26
		c-0.5-0.55-1.17-0.83-2-0.83c-0.83,0-1.5,0.28-2,0.83c-0.5,0.55-0.75,1.31-0.75,2.26v0.27c0,0.95,0.25,1.71,0.75,2.26
		C111.86,17.57,112.53,17.85,113.36,17.85z"/>
	<path d="M129.85,10.83c0,0.3-0.06,0.59-0.17,0.85c-0.11,0.27-0.27,0.49-0.47,0.68c-0.2,0.19-0.43,0.34-0.69,0.45
		c-0.27,0.11-0.54,0.17-0.83,0.17c-0.3,0-0.58-0.06-0.84-0.17c-0.26-0.11-0.48-0.26-0.68-0.45c-0.2-0.19-0.35-0.42-0.47-0.68
		c-0.11-0.26-0.17-0.55-0.17-0.85s0.06-0.59,0.17-0.85c0.11-0.26,0.27-0.49,0.47-0.68c0.2-0.19,0.42-0.34,0.68-0.45
		c0.26-0.11,0.54-0.17,0.84-0.17c0.29,0,0.56,0.06,0.83,0.17c0.26,0.11,0.5,0.27,0.69,0.45c0.2,0.19,0.35,0.42,0.47,0.68
		C129.79,10.25,129.85,10.53,129.85,10.83z M129.85,18.42c0,0.3-0.06,0.59-0.17,0.85c-0.11,0.27-0.27,0.49-0.47,0.68
		c-0.2,0.19-0.43,0.34-0.69,0.45c-0.27,0.11-0.54,0.17-0.83,0.17c-0.3,0-0.58-0.06-0.84-0.17c-0.26-0.11-0.48-0.26-0.68-0.45
		c-0.2-0.19-0.35-0.42-0.47-0.68c-0.11-0.26-0.17-0.55-0.17-0.85s0.06-0.59,0.17-0.85c0.11-0.26,0.27-0.49,0.47-0.68
		c0.2-0.19,0.42-0.34,0.68-0.45c0.26-0.11,0.54-0.17,0.84-0.17c0.29,0,0.56,0.06,0.83,0.17c0.26,0.11,0.5,0.27,0.69,0.45
		c0.2,0.19,0.35,0.42,0.47,0.68C129.79,17.83,129.85,18.11,129.85,18.42z"/>
	<path d="M42.23,68.17h0.39l4.29-4.68h2.18v0.14l-4.68,5.15v0.41l5.22,5.43v0.14h-2.18l-4.79-4.95h-0.43v4.95h-1.77v-15.9h1.77
		V68.17z"/>
	<path d="M54.52,69.67c0.05,1.12,0.39,2.02,1.04,2.7c0.65,0.68,1.56,1.02,2.73,1.02c0.53,0,0.99-0.06,1.39-0.18
		c0.39-0.12,0.73-0.29,1.01-0.5c0.28-0.21,0.51-0.46,0.68-0.74c0.17-0.28,0.31-0.58,0.42-0.9l1.68,0.45
		c-0.32,1.04-0.9,1.9-1.76,2.55s-2.01,0.99-3.46,0.99c-0.8,0-1.54-0.14-2.21-0.42c-0.67-0.28-1.25-0.68-1.74-1.19
		c-0.48-0.52-0.86-1.13-1.14-1.84c-0.27-0.71-0.41-1.5-0.41-2.36v-0.54c0-0.79,0.14-1.52,0.42-2.2c0.28-0.68,0.67-1.27,1.17-1.76
		c0.5-0.49,1.09-0.88,1.76-1.16c0.67-0.28,1.4-0.42,2.19-0.42c0.92,0,1.72,0.17,2.4,0.51s1.23,0.76,1.66,1.26
		c0.43,0.5,0.75,1.04,0.95,1.64s0.31,1.14,0.31,1.64v1.45H54.52z M58.29,64.86c-0.5,0-0.97,0.08-1.4,0.24
		c-0.43,0.16-0.81,0.38-1.14,0.67c-0.33,0.29-0.59,0.62-0.79,1.01c-0.2,0.39-0.34,0.81-0.4,1.26h7.27
		c-0.03-0.48-0.15-0.92-0.35-1.32c-0.2-0.39-0.47-0.73-0.79-1c-0.33-0.27-0.7-0.48-1.11-0.64C59.16,64.93,58.73,64.86,58.29,64.86z"
		/>
	<path d="M75.84,73.03h-0.27c-0.18,0.35-0.41,0.65-0.69,0.91c-0.28,0.26-0.58,0.47-0.91,0.64c-0.33,0.17-0.67,0.29-1.03,0.37
		c-0.36,0.08-0.71,0.12-1.04,0.12c-0.76,0-1.46-0.13-2.11-0.39c-0.65-0.26-1.22-0.63-1.71-1.11s-0.88-1.09-1.16-1.81
		c-0.28-0.72-0.42-1.54-0.42-2.46v-0.36c0-0.91,0.14-1.72,0.43-2.44c0.29-0.72,0.67-1.32,1.16-1.82c0.48-0.49,1.05-0.87,1.7-1.12
		c0.65-0.26,1.34-0.39,2.07-0.39c0.77,0,1.5,0.17,2.17,0.51c0.67,0.34,1.19,0.87,1.56,1.58h0.27v-6.4h1.77v15.9h-1.77V73.03z
		 M72.07,73.4c0.53,0,1.02-0.1,1.48-0.29c0.45-0.2,0.85-0.48,1.19-0.84s0.61-0.8,0.81-1.31s0.3-1.07,0.3-1.69v-0.27
		c0-0.61-0.1-1.16-0.3-1.67c-0.2-0.51-0.47-0.94-0.81-1.31s-0.74-0.65-1.2-0.85c-0.46-0.2-0.95-0.31-1.46-0.31
		c-0.53,0-1.03,0.1-1.49,0.3c-0.46,0.2-0.86,0.48-1.2,0.84c-0.34,0.36-0.61,0.79-0.79,1.29c-0.19,0.5-0.28,1.05-0.28,1.66v0.36
		c0,0.64,0.09,1.2,0.28,1.7c0.19,0.5,0.45,0.93,0.79,1.28s0.74,0.63,1.19,0.82C71.03,73.3,71.53,73.4,72.07,73.4z"/>
	<path d="M89.74,73.03h-0.27c-0.18,0.35-0.41,0.65-0.69,0.91c-0.28,0.26-0.58,0.47-0.91,0.64c-0.33,0.17-0.67,0.29-1.03,0.37
		c-0.36,0.08-0.71,0.12-1.04,0.12c-0.76,0-1.46-0.13-2.11-0.39c-0.65-0.26-1.22-0.63-1.71-1.11s-0.88-1.09-1.16-1.81
		c-0.28-0.72-0.42-1.54-0.42-2.46v-0.36c0-0.91,0.14-1.72,0.43-2.44c0.29-0.72,0.67-1.32,1.16-1.82c0.48-0.49,1.05-0.87,1.7-1.12
		c0.65-0.26,1.34-0.39,2.07-0.39c0.77,0,1.5,0.17,2.17,0.51c0.67,0.34,1.19,0.87,1.56,1.58h0.27v-6.4h1.77v15.9h-1.77V73.03z
		 M85.97,73.4c0.53,0,1.02-0.1,1.48-0.29c0.45-0.2,0.85-0.48,1.19-0.84s0.61-0.8,0.81-1.31s0.3-1.07,0.3-1.69v-0.27
		c0-0.61-0.1-1.16-0.3-1.67c-0.2-0.51-0.47-0.94-0.81-1.31s-0.74-0.65-1.2-0.85c-0.46-0.2-0.95-0.31-1.46-0.31
		c-0.53,0-1.03,0.1-1.49,0.3c-0.46,0.2-0.86,0.48-1.2,0.84c-0.34,0.36-0.61,0.79-0.79,1.29c-0.19,0.5-0.28,1.05-0.28,1.66v0.36
		c0,0.64,0.09,1.2,0.28,1.7c0.19,0.5,0.45,0.93,0.79,1.28s0.74,0.63,1.19,0.82C84.93,73.3,85.43,73.4,85.97,73.4z"/>
	<path d="M110.38,68.04h6.81v1.63h-6.81V68.04z"/>
	<path d="M138.95,66.4c0,0.54,0.23,0.96,0.69,1.25s1.31,0.48,2.53,0.57c1.32,0.11,2.32,0.42,3.01,0.94s1.03,1.28,1.03,2.28v0.14
		c0,0.54-0.11,1.03-0.33,1.46c-0.22,0.43-0.52,0.8-0.91,1.1c-0.39,0.3-0.86,0.53-1.41,0.69c-0.55,0.16-1.15,0.24-1.81,0.24
		c-0.88,0-1.63-0.12-2.26-0.35c-0.63-0.23-1.15-0.54-1.57-0.93c-0.42-0.38-0.73-0.82-0.94-1.32c-0.21-0.49-0.33-0.99-0.36-1.49
		l1.68-0.41c0.08,0.86,0.41,1.56,1,2.08s1.38,0.78,2.36,0.78c0.83,0,1.5-0.16,2.01-0.49c0.51-0.33,0.76-0.78,0.76-1.37
		c0-0.64-0.25-1.09-0.75-1.36s-1.31-0.45-2.43-0.52c-1.3-0.09-2.3-0.39-3-0.91s-1.04-1.26-1.04-2.25V66.4c0-0.53,0.11-1,0.34-1.4
		c0.23-0.4,0.53-0.74,0.92-1.01c0.39-0.27,0.82-0.48,1.31-0.61c0.48-0.14,0.99-0.2,1.52-0.2c0.74,0,1.39,0.1,1.95,0.31
		c0.56,0.2,1.03,0.47,1.41,0.79c0.38,0.33,0.67,0.7,0.87,1.12c0.2,0.42,0.34,0.85,0.4,1.27l-1.68,0.41
		c-0.08-0.73-0.37-1.29-0.87-1.7s-1.17-0.61-1.99-0.61c-0.32,0-0.62,0.03-0.92,0.1c-0.3,0.07-0.56,0.17-0.78,0.31
		c-0.23,0.14-0.41,0.31-0.54,0.51C139.02,65.89,138.95,66.13,138.95,66.4z"/>
	<path d="M160.41,73.12v1.64h-9.81v-2.82l8.04-6.54v-0.27h-7.9V63.5h9.4v2.73l-8.08,6.63v0.27H160.41z"/>
	<path d="M175.04,69.26c0,0.94-0.16,1.77-0.47,2.49c-0.31,0.72-0.72,1.32-1.24,1.82s-1.12,0.87-1.81,1.12
		c-0.69,0.26-1.4,0.39-2.15,0.39c-0.76,0-1.48-0.13-2.16-0.39c-0.68-0.26-1.28-0.63-1.79-1.12s-0.93-1.1-1.24-1.82
		c-0.31-0.72-0.47-1.55-0.47-2.49v-0.27c0-0.92,0.16-1.74,0.47-2.46c0.31-0.72,0.73-1.33,1.25-1.83c0.52-0.5,1.12-0.88,1.81-1.14
		c0.68-0.26,1.39-0.39,2.13-0.39c0.74,0,1.45,0.13,2.13,0.39c0.68,0.26,1.28,0.64,1.81,1.14c0.52,0.5,0.94,1.11,1.25,1.83
		c0.31,0.72,0.47,1.54,0.47,2.46V69.26z M169.38,73.4c0.54,0,1.05-0.09,1.51-0.28c0.46-0.19,0.87-0.47,1.21-0.83
		c0.35-0.36,0.62-0.8,0.82-1.31s0.3-1.08,0.3-1.71v-0.27c0-0.61-0.1-1.16-0.3-1.67c-0.2-0.51-0.47-0.94-0.82-1.31
		c-0.35-0.36-0.76-0.65-1.23-0.85s-0.97-0.31-1.5-0.31c-0.53,0-1.03,0.1-1.5,0.31s-0.88,0.49-1.23,0.85
		c-0.35,0.36-0.62,0.8-0.82,1.31c-0.2,0.51-0.29,1.06-0.29,1.67v0.27c0,0.63,0.1,1.21,0.29,1.71s0.47,0.94,0.82,1.31
		c0.35,0.36,0.75,0.64,1.21,0.83C168.34,73.3,168.84,73.4,169.38,73.4z"/>
	<path d="M189.14,74.76h-1.77v-8.08c0-0.53-0.12-0.97-0.36-1.31c-0.24-0.34-0.63-0.51-1.16-0.51c-0.5,0-0.9,0.19-1.21,0.56
		c-0.31,0.37-0.47,0.94-0.47,1.71v7.63h-1.77v-8.18c0-0.5-0.14-0.91-0.41-1.24c-0.27-0.33-0.64-0.49-1.09-0.49
		c-0.54,0-0.96,0.2-1.26,0.59c-0.3,0.39-0.44,0.91-0.44,1.54v7.77h-1.77V63.5h1.77v1.23h0.27c0.2-0.53,0.48-0.92,0.86-1.17
		c0.38-0.25,0.82-0.38,1.34-0.38c0.54,0,1,0.14,1.35,0.43c0.36,0.29,0.6,0.66,0.74,1.11h0.27c0.51-1.03,1.33-1.54,2.45-1.54
		c0.85,0,1.5,0.27,1.96,0.81c0.46,0.54,0.69,1.24,0.69,2.1V74.76z"/>
	<path d="M193.57,74.76h-1.77v-15.9h1.77v6.4h0.27c0.39-0.68,0.94-1.2,1.64-1.56c0.7-0.36,1.45-0.53,2.27-0.53
		c0.7,0,1.35,0.13,1.98,0.39c0.62,0.26,1.17,0.63,1.65,1.11c0.48,0.48,0.85,1.08,1.14,1.79c0.28,0.71,0.42,1.52,0.42,2.43v0.45
		c0,0.92-0.14,1.74-0.41,2.45c-0.27,0.71-0.65,1.31-1.12,1.79c-0.48,0.49-1.03,0.85-1.67,1.1c-0.64,0.25-1.31,0.37-2.02,0.37
		c-0.36,0-0.73-0.04-1.11-0.12c-0.38-0.08-0.74-0.21-1.08-0.38c-0.34-0.17-0.65-0.39-0.94-0.64s-0.53-0.55-0.73-0.9h-0.27V74.76z
		 M197.34,73.4c0.55,0,1.04-0.09,1.5-0.28c0.45-0.19,0.85-0.46,1.19-0.81c0.34-0.35,0.6-0.77,0.79-1.27
		c0.19-0.5,0.28-1.06,0.28-1.68V68.9c0-0.61-0.09-1.15-0.28-1.65c-0.19-0.49-0.45-0.92-0.79-1.27c-0.34-0.36-0.74-0.63-1.2-0.83
		c-0.46-0.2-0.96-0.3-1.49-0.3s-1.02,0.1-1.48,0.31s-0.85,0.49-1.19,0.85c-0.34,0.36-0.61,0.8-0.81,1.31
		c-0.2,0.51-0.29,1.06-0.29,1.67v0.27c0,0.62,0.1,1.18,0.29,1.69s0.47,0.94,0.81,1.31c0.34,0.36,0.74,0.64,1.19,0.84
		C196.32,73.3,196.81,73.4,197.34,73.4z"/>
	<path d="M214.28,72.85h-0.27c-0.36,0.76-0.87,1.32-1.51,1.68c-0.64,0.36-1.32,0.54-2.03,0.54c-0.74,0-1.43-0.12-2.07-0.37
		c-0.64-0.25-1.19-0.62-1.67-1.11c-0.48-0.49-0.85-1.09-1.12-1.81c-0.27-0.71-0.41-1.54-0.41-2.47v-0.36c0-0.92,0.14-1.74,0.41-2.45
		c0.27-0.71,0.65-1.31,1.12-1.81c0.48-0.49,1.03-0.87,1.67-1.12c0.64-0.26,1.31-0.39,2.02-0.39c0.77,0,1.47,0.17,2.1,0.51
		c0.63,0.34,1.12,0.87,1.49,1.58h0.27V63.5h1.77v8.95c0,0.45,0.2,0.68,0.61,0.68h0.57v1.64h-1.2c-0.51,0-0.93-0.17-1.26-0.5
		c-0.33-0.33-0.49-0.76-0.49-1.27V72.85z M210.65,73.4c0.53,0,1.02-0.1,1.46-0.29c0.45-0.2,0.83-0.48,1.15-0.84
		c0.32-0.36,0.57-0.8,0.75-1.31c0.18-0.51,0.27-1.07,0.27-1.69v-0.27c0-0.61-0.09-1.16-0.27-1.67c-0.18-0.51-0.43-0.94-0.76-1.31
		s-0.71-0.65-1.16-0.85s-0.93-0.31-1.44-0.31c-0.53,0-1.01,0.1-1.45,0.3s-0.82,0.47-1.15,0.83c-0.33,0.36-0.58,0.79-0.76,1.29
		c-0.18,0.51-0.27,1.06-0.27,1.67v0.36c0,1.29,0.34,2.29,1.01,3.01C208.7,73.04,209.57,73.4,210.65,73.4z"/>
	<path d="M219.62,63.5h3.54v-4.63h1.77v4.63h4.36v1.63h-4.36v7.31c0,0.45,0.21,0.68,0.61,0.68h3.2v1.64h-3.84
		c-0.51,0-0.93-0.17-1.26-0.5c-0.33-0.33-0.49-0.76-0.49-1.27v-7.86h-3.54V63.5z"/>
	<path d="M43.46,100.24V86.96h-0.27l-2.61,5.97h-1.88v-0.14l2.98-6.68h3.7v14.12h4.5v1.77h-10.9v-1.77H43.46z"/>
	<path d="M57.36,100.24V86.96h-0.27l-2.61,5.97h-1.88v-0.14l2.98-6.68h3.7v14.12h4.5v1.77h-10.9v-1.77H57.36z"/>
	<path d="M70.51,92.02c0-0.44,0.16-0.81,0.47-1.12c0.31-0.31,0.68-0.47,1.12-0.47c0.44,0,0.81,0.16,1.12,0.47
		c0.31,0.31,0.47,0.69,0.47,1.12c0,0.44-0.16,0.81-0.47,1.12c-0.31,0.31-0.69,0.47-1.12,0.47c-0.44,0-0.81-0.16-1.12-0.47
		C70.66,92.83,70.51,92.46,70.51,92.02z M70.51,100.74c0-0.44,0.16-0.81,0.47-1.12c0.31-0.31,0.68-0.47,1.12-0.47
		c0.44,0,0.81,0.16,1.12,0.47c0.31,0.31,0.47,0.68,0.47,1.12s-0.16,0.81-0.47,1.12c-0.31,0.31-0.69,0.47-1.12,0.47
		c-0.44,0-0.81-0.16-1.12-0.47C70.66,101.55,70.51,101.18,70.51,100.74z"/>
	<path d="M84.43,94.11v-2.63l5.18-3.32v-0.27h-8.99v-1.77h10.63v2.91l-5.18,3.31v0.27h0.91c0.6,0,1.19,0.1,1.75,0.29
		c0.56,0.2,1.06,0.48,1.49,0.86s0.78,0.84,1.04,1.4c0.26,0.55,0.4,1.19,0.4,1.92v0.41c0,0.68-0.14,1.32-0.41,1.91
		c-0.27,0.59-0.65,1.1-1.14,1.53c-0.48,0.43-1.06,0.77-1.71,1.02c-0.66,0.25-1.37,0.38-2.15,0.38c-0.89,0-1.7-0.14-2.41-0.41
		s-1.32-0.65-1.82-1.12c-0.5-0.48-0.88-1.04-1.15-1.68c-0.27-0.64-0.4-1.33-0.4-2.05v-1.23h1.91v1.09c0,0.58,0.09,1.09,0.28,1.53
		s0.45,0.83,0.79,1.13c0.34,0.31,0.75,0.55,1.21,0.72c0.47,0.17,0.98,0.25,1.52,0.25c0.5,0,0.97-0.08,1.4-0.25
		c0.43-0.17,0.81-0.4,1.12-0.69c0.32-0.3,0.57-0.64,0.75-1.04s0.27-0.83,0.27-1.28v-0.14c0-0.95-0.3-1.7-0.91-2.24
		c-0.61-0.54-1.36-0.81-2.27-0.81H84.43z"/>
	<path d="M94.31,92.29c0-2.06,0.49-3.66,1.48-4.79c0.98-1.14,2.35-1.7,4.11-1.7c1.76,0,3.13,0.57,4.11,1.7
		c0.98,1.13,1.48,2.73,1.48,4.79v3.54c0,2.12-0.49,3.73-1.48,4.84c-0.98,1.11-2.35,1.66-4.11,1.66c-1.76,0-3.13-0.55-4.11-1.66
		c-0.98-1.1-1.48-2.72-1.48-4.84V92.29z M99.89,100.6c1.23,0,2.15-0.43,2.76-1.28c0.61-0.85,0.92-2.06,0.92-3.62v-3.27
		c0-0.73-0.08-1.39-0.23-1.99s-0.38-1.11-0.69-1.54c-0.31-0.43-0.7-0.77-1.16-1.01c-0.46-0.24-1-0.36-1.6-0.36
		c-0.62,0-1.16,0.12-1.61,0.36c-0.45,0.24-0.84,0.58-1.15,1.01c-0.31,0.43-0.54,0.95-0.69,1.54s-0.23,1.26-0.23,1.99v3.27
		c0,1.56,0.31,2.77,0.92,3.62C97.75,100.18,98.67,100.6,99.89,100.6z M98.44,94.06c0-0.39,0.14-0.73,0.43-1.02
		c0.29-0.29,0.63-0.43,1.02-0.43c0.39,0,0.73,0.14,1.02,0.43c0.29,0.29,0.43,0.63,0.43,1.02c0,0.39-0.14,0.73-0.43,1.02
		c-0.29,0.29-0.63,0.43-1.02,0.43c-0.39,0-0.73-0.14-1.02-0.43C98.58,94.8,98.44,94.46,98.44,94.06z"/>
	<path d="M124.28,95.29h6.81v1.63h-6.81V95.29z"/>
	<path d="M160.89,100.24v1.77h-10.76v-2.73c0-0.73,0.12-1.36,0.36-1.9c0.24-0.54,0.59-1,1.03-1.39c0.45-0.39,0.99-0.71,1.62-0.96
		c0.64-0.26,1.35-0.48,2.16-0.66c1.35-0.3,2.32-0.73,2.92-1.29s0.9-1.25,0.9-2.07v-0.14c0-0.41-0.07-0.81-0.2-1.2
		s-0.35-0.75-0.64-1.07s-0.65-0.57-1.1-0.76c-0.45-0.19-0.98-0.28-1.6-0.28c-1.17,0-2.07,0.36-2.71,1.07
		c-0.64,0.71-0.97,1.66-0.97,2.84v1h-1.91v-1.13c0-0.73,0.12-1.42,0.36-2.09c0.24-0.67,0.6-1.26,1.07-1.77
		c0.47-0.51,1.05-0.92,1.75-1.23c0.7-0.3,1.5-0.45,2.41-0.45c0.92,0,1.73,0.14,2.41,0.42c0.68,0.28,1.25,0.65,1.7,1.11
		s0.79,0.98,1.01,1.57c0.22,0.58,0.33,1.18,0.33,1.78v0.41c0,1.21-0.38,2.24-1.14,3.1c-0.76,0.86-1.97,1.46-3.63,1.83
		c-1.45,0.32-2.52,0.74-3.2,1.26c-0.68,0.52-1.02,1.28-1.02,2.28v0.68H160.89z"/>
	<path d="M163.8,92.29c0-2.06,0.49-3.66,1.48-4.79c0.98-1.14,2.35-1.7,4.11-1.7c1.76,0,3.13,0.57,4.11,1.7
		c0.98,1.13,1.48,2.73,1.48,4.79v3.54c0,2.12-0.49,3.73-1.48,4.84c-0.98,1.11-2.35,1.66-4.11,1.66c-1.76,0-3.13-0.55-4.11-1.66
		c-0.98-1.1-1.48-2.72-1.48-4.84V92.29z M169.38,100.6c1.23,0,2.15-0.43,2.76-1.28c0.61-0.85,0.92-2.06,0.92-3.62v-3.27
		c0-0.73-0.08-1.39-0.23-1.99s-0.38-1.11-0.69-1.54c-0.31-0.43-0.7-0.77-1.16-1.01c-0.46-0.24-1-0.36-1.6-0.36
		c-0.62,0-1.16,0.12-1.61,0.36c-0.45,0.24-0.84,0.58-1.15,1.01c-0.31,0.43-0.54,0.95-0.69,1.54s-0.23,1.26-0.23,1.99v3.27
		c0,1.56,0.31,2.77,0.92,3.62C167.24,100.18,168.16,100.6,169.38,100.6z M167.93,94.06c0-0.39,0.14-0.73,0.43-1.02
		c0.29-0.29,0.63-0.43,1.02-0.43c0.39,0,0.73,0.14,1.02,0.43c0.29,0.29,0.43,0.63,0.43,1.02c0,0.39-0.14,0.73-0.43,1.02
		c-0.29,0.29-0.63,0.43-1.02,0.43c-0.39,0-0.73-0.14-1.02-0.43C168.07,94.8,167.93,94.46,167.93,94.06z"/>
	<path d="M181.69,92.02c0-0.44,0.16-0.81,0.47-1.12c0.31-0.31,0.68-0.47,1.12-0.47c0.44,0,0.81,0.16,1.12,0.47
		c0.31,0.31,0.47,0.69,0.47,1.12c0,0.44-0.16,0.81-0.47,1.12c-0.31,0.31-0.69,0.47-1.12,0.47c-0.44,0-0.81-0.16-1.12-0.47
		C181.85,92.83,181.69,92.46,181.69,92.02z M181.69,100.74c0-0.44,0.16-0.81,0.47-1.12c0.31-0.31,0.68-0.47,1.12-0.47
		c0.44,0,0.81,0.16,1.12,0.47c0.31,0.31,0.47,0.68,0.47,1.12s-0.16,0.81-0.47,1.12c-0.31,0.31-0.69,0.47-1.12,0.47
		c-0.44,0-0.81-0.16-1.12-0.47C181.85,101.55,181.69,101.18,181.69,100.74z"/>
	<path d="M191.59,92.29c0-2.06,0.49-3.66,1.48-4.79c0.98-1.14,2.35-1.7,4.11-1.7c1.76,0,3.13,0.57,4.11,1.7
		c0.98,1.13,1.48,2.73,1.48,4.79v3.54c0,2.12-0.49,3.73-1.48,4.84c-0.98,1.11-2.35,1.66-4.11,1.66c-1.76,0-3.13-0.55-4.11-1.66
		c-0.98-1.1-1.48-2.72-1.48-4.84V92.29z M197.18,100.6c1.23,0,2.15-0.43,2.76-1.28c0.61-0.85,0.92-2.06,0.92-3.62v-3.27
		c0-0.73-0.08-1.39-0.23-1.99s-0.38-1.11-0.69-1.54c-0.31-0.43-0.7-0.77-1.16-1.01c-0.46-0.24-1-0.36-1.6-0.36
		c-0.62,0-1.16,0.12-1.61,0.36c-0.45,0.24-0.84,0.58-1.15,1.01c-0.31,0.43-0.54,0.95-0.69,1.54s-0.23,1.26-0.23,1.99v3.27
		c0,1.56,0.31,2.77,0.92,3.62C195.03,100.18,195.95,100.6,197.18,100.6z M195.73,94.06c0-0.39,0.14-0.73,0.43-1.02
		c0.29-0.29,0.63-0.43,1.02-0.43c0.39,0,0.73,0.14,1.02,0.43c0.29,0.29,0.43,0.63,0.43,1.02c0,0.39-0.14,0.73-0.43,1.02
		c-0.29,0.29-0.63,0.43-1.02,0.43c-0.39,0-0.73-0.14-1.02-0.43C195.87,94.8,195.73,94.46,195.73,94.06z"/>
	<path d="M205.49,92.29c0-2.06,0.49-3.66,1.48-4.79c0.98-1.14,2.35-1.7,4.11-1.7c1.76,0,3.13,0.57,4.11,1.7
		c0.98,1.13,1.48,2.73,1.48,4.79v3.54c0,2.12-0.49,3.73-1.48,4.84c-0.98,1.11-2.35,1.66-4.11,1.66c-1.76,0-3.13-0.55-4.11-1.66
		c-0.98-1.1-1.48-2.72-1.48-4.84V92.29z M211.08,100.6c1.23,0,2.15-0.43,2.76-1.28c0.61-0.85,0.92-2.06,0.92-3.62v-3.27
		c0-0.73-0.08-1.39-0.23-1.99c-0.15-0.6-0.38-1.11-0.69-1.54c-0.31-0.43-0.7-0.77-1.16-1.01c-0.46-0.24-1-0.36-1.6-0.36
		c-0.62,0-1.16,0.12-1.61,0.36c-0.45,0.24-0.84,0.58-1.15,1.01c-0.31,0.43-0.54,0.95-0.69,1.54s-0.23,1.26-0.23,1.99v3.27
		c0,1.56,0.31,2.77,0.92,3.62C208.93,100.18,209.85,100.6,211.08,100.6z M209.62,94.06c0-0.39,0.14-0.73,0.43-1.02
		c0.29-0.29,0.63-0.43,1.02-0.43c0.39,0,0.73,0.14,1.02,0.43c0.29,0.29,0.43,0.63,0.43,1.02c0,0.39-0.14,0.73-0.43,1.02
		c-0.29,0.29-0.63,0.43-1.02,0.43c-0.39,0-0.73-0.14-1.02-0.43C209.77,94.8,209.62,94.46,209.62,94.06z"/>
	<path d="M41.19,149.97v6.54h-1.91v-15.9h5.68c0.82,0,1.53,0.12,2.13,0.35c0.61,0.24,1.11,0.55,1.51,0.94
		c0.4,0.39,0.7,0.85,0.91,1.37c0.2,0.52,0.31,1.07,0.31,1.65v0.68c0,0.58-0.1,1.13-0.31,1.66c-0.2,0.53-0.51,1-0.92,1.4
		s-0.92,0.72-1.52,0.95c-0.61,0.24-1.31,0.35-2.11,0.35H41.19z M41.19,148.2h3.54c2.12,0,3.18-0.91,3.18-2.73v-0.41
		c0-0.8-0.26-1.45-0.78-1.94c-0.52-0.49-1.32-0.74-2.4-0.74h-3.54V148.2z"/>
	<path d="M53.5,154.88h3.95v-7.99h-3.54v-1.63h5.31v9.63h3.68v1.63h-9.4V154.88z M56.72,141.89c0-0.44,0.15-0.81,0.47-1.12
		c0.31-0.31,0.69-0.47,1.12-0.47s0.81,0.16,1.12,0.47c0.31,0.31,0.47,0.69,0.47,1.12c0,0.44-0.16,0.81-0.47,1.12
		c-0.31,0.31-0.69,0.47-1.12,0.47s-0.81-0.16-1.12-0.47C56.88,142.7,56.72,142.33,56.72,141.89z"/>
	<path d="M66.74,145.25h3.54v-4.63h1.77v4.63h4.36v1.63h-4.36v7.31c0,0.45,0.2,0.68,0.61,0.68h3.2v1.63h-3.84
		c-0.51,0-0.94-0.17-1.26-0.5c-0.33-0.33-0.49-0.76-0.49-1.27v-7.86h-3.54V145.25z"/>
	<path d="M89.2,154.61h-0.27c-0.36,0.76-0.87,1.32-1.51,1.68c-0.64,0.36-1.32,0.55-2.03,0.55c-0.74,0-1.43-0.12-2.07-0.38
		c-0.64-0.25-1.19-0.62-1.67-1.11c-0.48-0.49-0.85-1.09-1.12-1.8s-0.41-1.54-0.41-2.48v-0.36c0-0.92,0.14-1.74,0.41-2.45
		c0.27-0.71,0.65-1.31,1.12-1.8c0.48-0.49,1.03-0.87,1.67-1.12c0.64-0.26,1.31-0.39,2.02-0.39c0.77,0,1.47,0.17,2.1,0.51
		c0.63,0.34,1.12,0.87,1.49,1.58h0.27v-1.77h1.77v8.95c0,0.45,0.2,0.68,0.61,0.68h0.57v1.63h-1.2c-0.52,0-0.94-0.17-1.26-0.5
		c-0.33-0.33-0.49-0.76-0.49-1.27V154.61z M85.56,155.15c0.53,0,1.02-0.1,1.46-0.3c0.45-0.2,0.83-0.48,1.15-0.84
		c0.32-0.36,0.57-0.8,0.75-1.31s0.27-1.07,0.27-1.69v-0.27c0-0.61-0.09-1.16-0.27-1.67c-0.18-0.51-0.44-0.94-0.76-1.31
		s-0.71-0.65-1.16-0.85s-0.93-0.31-1.44-0.31c-0.53,0-1.01,0.1-1.45,0.29c-0.44,0.2-0.82,0.47-1.15,0.83
		c-0.33,0.36-0.58,0.79-0.76,1.29c-0.18,0.51-0.27,1.06-0.27,1.67v0.36c0,1.29,0.34,2.29,1.01,3.01
		C83.61,154.79,84.49,155.15,85.56,155.15z"/>
	<path d="M103.48,154.79h-0.27c-0.36,0.68-0.86,1.19-1.49,1.53c-0.63,0.34-1.31,0.51-2.06,0.51c-0.76,0-1.47-0.13-2.13-0.39
		c-0.67-0.26-1.25-0.63-1.76-1.11s-0.91-1.09-1.2-1.81c-0.29-0.72-0.44-1.54-0.44-2.46v-0.36c0-0.91,0.15-1.72,0.45-2.44
		c0.3-0.72,0.7-1.32,1.2-1.82c0.5-0.49,1.08-0.87,1.75-1.12c0.67-0.26,1.36-0.39,2.09-0.39c0.82,0,1.53,0.18,2.15,0.53
		c0.61,0.36,1.09,0.87,1.44,1.56h0.27v-1.77h1.77v14.03c0,0.51-0.16,0.94-0.49,1.27c-0.33,0.33-0.75,0.5-1.26,0.5h-7.34v-1.63h6.7
		c0.41,0,0.61-0.23,0.61-0.68V154.79z M99.71,155.15c0.53,0,1.02-0.1,1.48-0.3c0.45-0.2,0.85-0.48,1.19-0.84
		c0.34-0.36,0.61-0.8,0.81-1.31c0.2-0.51,0.29-1.07,0.29-1.69v-0.27c0-0.61-0.1-1.16-0.29-1.67c-0.2-0.51-0.47-0.94-0.81-1.31
		c-0.34-0.36-0.74-0.65-1.2-0.85s-0.95-0.31-1.46-0.31c-0.53,0-1.03,0.1-1.49,0.29c-0.46,0.2-0.86,0.48-1.2,0.84
		c-0.34,0.36-0.61,0.79-0.79,1.29c-0.19,0.5-0.28,1.05-0.28,1.66v0.36c0,0.64,0.09,1.2,0.28,1.7c0.19,0.5,0.45,0.93,0.79,1.28
		c0.34,0.36,0.74,0.63,1.19,0.82S99.17,155.15,99.71,155.15z"/>
	<path d="M116.86,145.25h1.77v11.26h-1.77v-2.04h-0.27c-0.36,0.73-0.84,1.3-1.43,1.73c-0.59,0.42-1.34,0.64-2.25,0.64
		c-0.62,0-1.19-0.1-1.71-0.31c-0.52-0.21-0.97-0.51-1.34-0.92c-0.37-0.41-0.66-0.92-0.86-1.52c-0.2-0.61-0.31-1.31-0.31-2.11v-6.72
		h1.77v6.5c0,1.18,0.24,2.04,0.73,2.59c0.48,0.54,1.23,0.82,2.23,0.82c1.07,0,1.92-0.37,2.53-1.1s0.92-1.71,0.92-2.94V145.25z"/>
	<path d="M122.08,145.25h4.09v1.5h0.27c0.29-0.62,0.7-1.08,1.23-1.37c0.53-0.3,1.14-0.44,1.82-0.44c1.14,0,2.05,0.37,2.75,1.11
		c0.7,0.74,1.07,1.82,1.11,3.25l-1.86,0.27c0-1.04-0.25-1.8-0.75-2.26c-0.5-0.46-1.11-0.69-1.84-0.69c-0.47,0-0.87,0.09-1.22,0.27
		c-0.34,0.18-0.62,0.43-0.85,0.75c-0.23,0.32-0.39,0.69-0.5,1.11s-0.16,0.88-0.16,1.36v4.77h2.86v1.63h-7.22v-1.63h2.59v-7.99h-2.32
		V145.25z"/>
	<path d="M144.65,145.25h1.77v11.26h-1.77v-2.04h-0.27c-0.36,0.73-0.84,1.3-1.43,1.73c-0.59,0.42-1.34,0.64-2.25,0.64
		c-0.62,0-1.19-0.1-1.71-0.31c-0.52-0.21-0.97-0.51-1.34-0.92c-0.37-0.41-0.66-0.92-0.86-1.52c-0.2-0.61-0.31-1.31-0.31-2.11v-6.72
		h1.77v6.5c0,1.18,0.24,2.04,0.73,2.59c0.48,0.54,1.23,0.82,2.23,0.82c1.07,0,1.92-0.37,2.53-1.1s0.92-1.71,0.92-2.94V145.25z"/>
	<path d="M166.36,156.51h-1.91v-15.9h1.91v7.04h0.52l6.11-7.04h2.36v0.14l-6.59,7.68v0.27l6.86,7.68v0.14h-2.41l-6.34-7.08h-0.52
		V156.51z"/>
	<path d="M178.2,145.25h3.47v-2.86c0-0.51,0.16-0.94,0.49-1.27c0.33-0.33,0.75-0.5,1.26-0.5h4.45v1.63h-3.82
		c-0.41,0-0.61,0.23-0.61,0.68v2.32h4.7v1.63h-4.7v9.63h-1.77v-9.63h-3.47V145.25z"/>
	<path d="M191.82,145.25h3.54v-4.63h1.77v4.63h4.36v1.63h-4.36v7.31c0,0.45,0.2,0.68,0.61,0.68h3.2v1.63h-3.84
		c-0.51,0-0.94-0.17-1.26-0.5c-0.33-0.33-0.49-0.76-0.49-1.27v-7.86h-3.54V145.25z"/>
	<path d="M209.49,155.24c0-0.44,0.16-0.81,0.47-1.12c0.31-0.31,0.68-0.47,1.12-0.47c0.44,0,0.81,0.16,1.12,0.47
		c0.31,0.31,0.47,0.68,0.47,1.12s-0.16,0.81-0.47,1.12c-0.31,0.31-0.69,0.47-1.12,0.47c-0.44,0-0.81-0.16-1.12-0.47
		C209.64,156.06,209.49,155.68,209.49,155.24z"/>
	<path d="M44.1,184.08c-0.8,0-1.53-0.11-2.18-0.33c-0.65-0.22-1.21-0.52-1.68-0.91c-0.47-0.39-0.83-0.84-1.08-1.36
		c-0.25-0.52-0.37-1.09-0.37-1.71v-0.27c0-0.54,0.08-1.03,0.25-1.45c0.17-0.42,0.39-0.79,0.66-1.11c0.27-0.32,0.59-0.58,0.94-0.79
		c0.36-0.21,0.72-0.37,1.1-0.48v-0.27c-0.35-0.11-0.67-0.26-0.98-0.48s-0.57-0.46-0.81-0.75c-0.23-0.29-0.42-0.62-0.56-0.99
		s-0.2-0.78-0.2-1.21v-0.27c0-0.61,0.12-1.16,0.36-1.67c0.24-0.51,0.59-0.94,1.03-1.31c0.45-0.36,0.98-0.65,1.59-0.85
		c0.61-0.2,1.3-0.31,2.06-0.31h0.14c0.74,0,1.42,0.1,2.04,0.31c0.62,0.21,1.15,0.49,1.6,0.85c0.45,0.36,0.79,0.8,1.03,1.31
		c0.24,0.51,0.36,1.06,0.36,1.67v0.27c0,0.44-0.07,0.84-0.2,1.21s-0.32,0.7-0.56,0.99c-0.23,0.29-0.51,0.54-0.82,0.75
		c-0.31,0.21-0.63,0.37-0.97,0.48v0.27c0.38,0.11,0.75,0.27,1.1,0.48c0.36,0.21,0.67,0.48,0.94,0.79c0.27,0.32,0.49,0.69,0.66,1.11
		c0.17,0.42,0.25,0.91,0.25,1.45v0.27c0,0.62-0.12,1.19-0.37,1.71s-0.61,0.98-1.08,1.36c-0.47,0.39-1.03,0.69-1.68,0.91
		c-0.65,0.22-1.38,0.33-2.18,0.33H44.1z M44.44,182.36c1.03,0,1.87-0.26,2.51-0.79c0.64-0.53,0.97-1.22,0.97-2.07v-0.14
		c0-0.94-0.33-1.67-0.99-2.18c-0.66-0.51-1.51-0.77-2.56-0.77h-0.14c-1.04,0-1.9,0.26-2.55,0.77s-0.99,1.24-0.99,2.18v0.14
		c0,0.85,0.32,1.54,0.96,2.07c0.64,0.53,1.48,0.79,2.51,0.79H44.44z M44.3,174.64c0.95,0,1.73-0.25,2.32-0.75
		c0.59-0.5,0.89-1.13,0.89-1.88v-0.14c0-0.77-0.29-1.4-0.87-1.87c-0.58-0.48-1.36-0.71-2.33-0.71c-0.97,0-1.75,0.24-2.33,0.71
		c-0.58,0.48-0.87,1.1-0.87,1.87V172c0,0.76,0.3,1.39,0.89,1.88C42.57,174.39,43.35,174.64,44.3,174.64z"/>
	<path d="M52.61,174.05c0-2.06,0.49-3.66,1.48-4.79c0.98-1.13,2.35-1.7,4.11-1.7c1.76,0,3.13,0.57,4.11,1.7
		c0.98,1.14,1.48,2.73,1.48,4.79v3.54c0,2.12-0.49,3.73-1.48,4.84c-0.98,1.11-2.35,1.66-4.11,1.66c-1.76,0-3.13-0.55-4.11-1.66
		c-0.98-1.1-1.48-2.72-1.48-4.84V174.05z M58.2,182.36c1.23,0,2.15-0.43,2.76-1.28c0.61-0.85,0.92-2.06,0.92-3.62v-3.27
		c0-0.73-0.08-1.39-0.23-1.99s-0.38-1.11-0.69-1.54c-0.31-0.43-0.7-0.77-1.16-1.01c-0.46-0.24-1-0.36-1.6-0.36
		c-0.62,0-1.16,0.12-1.61,0.36c-0.45,0.24-0.84,0.58-1.15,1.01c-0.31,0.43-0.54,0.95-0.69,1.54s-0.23,1.26-0.23,1.99v3.27
		c0,1.56,0.31,2.77,0.92,3.62C56.05,181.93,56.97,182.36,58.2,182.36z M56.75,175.82c0-0.39,0.14-0.73,0.43-1.02
		c0.29-0.29,0.63-0.43,1.02-0.43c0.39,0,0.73,0.14,1.02,0.43c0.29,0.29,0.43,0.63,0.43,1.02s-0.14,0.73-0.43,1.02
		c-0.29,0.29-0.63,0.43-1.02,0.43c-0.39,0-0.73-0.14-1.02-0.43C56.89,176.55,56.75,176.21,56.75,175.82z"/>
	<path d="M66.51,174.05c0-2.06,0.49-3.66,1.48-4.79c0.98-1.13,2.35-1.7,4.11-1.7c1.76,0,3.13,0.57,4.11,1.7
		c0.98,1.14,1.48,2.73,1.48,4.79v3.54c0,2.12-0.49,3.73-1.48,4.84c-0.98,1.11-2.35,1.66-4.11,1.66c-1.76,0-3.13-0.55-4.11-1.66
		c-0.98-1.1-1.48-2.72-1.48-4.84V174.05z M72.1,182.36c1.23,0,2.15-0.43,2.76-1.28c0.61-0.85,0.92-2.06,0.92-3.62v-3.27
		c0-0.73-0.08-1.39-0.23-1.99s-0.38-1.11-0.69-1.54c-0.31-0.43-0.7-0.77-1.16-1.01c-0.46-0.24-1-0.36-1.6-0.36
		c-0.62,0-1.16,0.12-1.61,0.36c-0.45,0.24-0.84,0.58-1.15,1.01c-0.31,0.43-0.54,0.95-0.69,1.54s-0.23,1.26-0.23,1.99v3.27
		c0,1.56,0.31,2.77,0.92,3.62C69.95,181.93,70.87,182.36,72.1,182.36z M70.64,175.82c0-0.39,0.14-0.73,0.43-1.02
		c0.29-0.29,0.63-0.43,1.02-0.43c0.39,0,0.73,0.14,1.02,0.43c0.29,0.29,0.43,0.63,0.43,1.02s-0.14,0.73-0.43,1.02
		c-0.29,0.29-0.63,0.43-1.02,0.43c-0.39,0-0.73-0.14-1.02-0.43C70.79,176.55,70.64,176.21,70.64,175.82z"/>
	<path d="M80.41,174.05c0-2.06,0.49-3.66,1.48-4.79c0.98-1.13,2.35-1.7,4.11-1.7c1.76,0,3.13,0.57,4.11,1.7
		c0.98,1.14,1.48,2.73,1.48,4.79v3.54c0,2.12-0.49,3.73-1.48,4.84c-0.98,1.11-2.35,1.66-4.11,1.66c-1.76,0-3.13-0.55-4.11-1.66
		c-0.98-1.1-1.48-2.72-1.48-4.84V174.05z M86,182.36c1.23,0,2.15-0.43,2.76-1.28c0.61-0.85,0.92-2.06,0.92-3.62v-3.27
		c0-0.73-0.08-1.39-0.23-1.99s-0.38-1.11-0.69-1.54c-0.31-0.43-0.7-0.77-1.16-1.01c-0.46-0.24-1-0.36-1.6-0.36
		c-0.62,0-1.16,0.12-1.61,0.36c-0.45,0.24-0.84,0.58-1.15,1.01c-0.31,0.43-0.54,0.95-0.69,1.54s-0.23,1.26-0.23,1.99v3.27
		c0,1.56,0.31,2.77,0.92,3.62C83.85,181.93,84.77,182.36,86,182.36z M84.54,175.82c0-0.39,0.14-0.73,0.43-1.02
		c0.29-0.29,0.63-0.43,1.02-0.43c0.39,0,0.73,0.14,1.02,0.43c0.29,0.29,0.43,0.63,0.43,1.02s-0.14,0.73-0.43,1.02
		c-0.29,0.29-0.63,0.43-1.02,0.43c-0.39,0-0.73-0.14-1.02-0.43C84.69,176.55,84.54,176.21,84.54,175.82z"/>
	<path d="M117.54,172.46c0-0.51-0.1-0.97-0.31-1.36c-0.2-0.39-0.48-0.72-0.83-0.98c-0.35-0.26-0.75-0.45-1.2-0.59
		c-0.45-0.14-0.93-0.2-1.43-0.2c-0.44,0-0.86,0.06-1.25,0.17c-0.39,0.11-0.75,0.28-1.06,0.49c-0.31,0.21-0.56,0.47-0.74,0.78
		s-0.27,0.67-0.27,1.08v0.14c0,0.44,0.09,0.81,0.27,1.12s0.45,0.58,0.81,0.79c0.36,0.22,0.8,0.4,1.33,0.54
		c0.53,0.14,1.15,0.27,1.86,0.38c1.67,0.26,2.89,0.75,3.68,1.46s1.18,1.68,1.18,2.9v0.27c0,0.68-0.12,1.31-0.35,1.87
		c-0.23,0.57-0.58,1.06-1.04,1.46s-1.03,0.73-1.71,0.95c-0.68,0.23-1.47,0.34-2.36,0.34c-1.01,0-1.91-0.15-2.69-0.44
		c-0.78-0.29-1.43-0.7-1.95-1.23c-0.52-0.52-0.92-1.13-1.19-1.84s-0.41-1.47-0.41-2.31v-0.68h1.91v0.54c0,1.39,0.38,2.44,1.15,3.13
		s1.83,1.04,3.19,1.04c1.18,0,2.07-0.26,2.67-0.78c0.6-0.52,0.9-1.21,0.9-2.08v-0.14c0-0.83-0.31-1.47-0.92-1.91
		s-1.61-0.76-2.99-0.95c-0.8-0.11-1.53-0.27-2.17-0.49c-0.64-0.22-1.19-0.51-1.65-0.86c-0.45-0.36-0.8-0.78-1.04-1.28
		c-0.24-0.5-0.36-1.09-0.36-1.77v-0.27c0-0.62,0.13-1.19,0.39-1.7c0.26-0.51,0.62-0.96,1.08-1.34c0.46-0.38,1.01-0.67,1.66-0.88
		c0.64-0.2,1.35-0.31,2.12-0.31c0.89,0,1.69,0.13,2.4,0.39c0.7,0.26,1.3,0.6,1.78,1.03s0.85,0.94,1.1,1.52s0.37,1.19,0.37,1.83v0.95
		h-1.91V172.46z"/>
	<path d="M132.62,182.13v1.63h-9.81v-2.82l8.04-6.54v-0.27h-7.9v-1.63h9.4v2.72l-8.08,6.63v0.27H132.62z"/>
	<path d="M137.91,178.68c0.05,1.12,0.39,2.02,1.04,2.7c0.65,0.68,1.56,1.02,2.73,1.02c0.53,0,0.99-0.06,1.39-0.18
		c0.39-0.12,0.73-0.29,1.01-0.5s0.51-0.46,0.68-0.74c0.17-0.28,0.31-0.58,0.42-0.9l1.68,0.45c-0.32,1.04-0.9,1.9-1.76,2.55
		s-2.01,0.99-3.46,0.99c-0.8,0-1.54-0.14-2.21-0.42c-0.67-0.28-1.25-0.68-1.74-1.19c-0.48-0.51-0.86-1.13-1.14-1.84
		s-0.41-1.5-0.41-2.36v-0.54c0-0.79,0.14-1.52,0.42-2.2c0.28-0.68,0.67-1.27,1.17-1.76c0.5-0.49,1.09-0.88,1.76-1.16
		c0.67-0.28,1.4-0.42,2.19-0.42c0.92,0,1.72,0.17,2.4,0.51c0.67,0.34,1.23,0.76,1.66,1.26c0.43,0.5,0.75,1.04,0.95,1.63
		c0.2,0.59,0.31,1.14,0.31,1.64v1.45H137.91z M141.68,173.86c-0.5,0-0.97,0.08-1.4,0.24c-0.43,0.16-0.81,0.38-1.14,0.67
		c-0.33,0.29-0.59,0.62-0.79,1.01c-0.2,0.39-0.34,0.81-0.4,1.26h7.27c-0.03-0.48-0.15-0.92-0.35-1.32c-0.2-0.39-0.47-0.73-0.79-1
		s-0.7-0.48-1.11-0.64C142.54,173.94,142.12,173.86,141.68,173.86z M144.38,168.14l-1.91,2.68h-1.64l1.5-2.68H144.38z"/>
	<path d="M153.42,177.18h0.39l4.29-4.68h2.18v0.14l-4.68,5.16v0.41l5.22,5.43v0.14h-2.18l-4.79-4.95h-0.43v4.95h-1.77v-15.9h1.77
		V177.18z"/>
	<path d="M165.71,178.68c0.05,1.12,0.39,2.02,1.04,2.7c0.65,0.68,1.56,1.02,2.73,1.02c0.53,0,0.99-0.06,1.39-0.18
		c0.39-0.12,0.73-0.29,1.01-0.5s0.51-0.46,0.68-0.74c0.17-0.28,0.31-0.58,0.42-0.9l1.68,0.45c-0.32,1.04-0.9,1.9-1.76,2.55
		s-2.01,0.99-3.46,0.99c-0.8,0-1.54-0.14-2.21-0.42c-0.67-0.28-1.25-0.68-1.74-1.19c-0.48-0.51-0.86-1.13-1.14-1.84
		s-0.41-1.5-0.41-2.36v-0.54c0-0.79,0.14-1.52,0.42-2.2c0.28-0.68,0.67-1.27,1.17-1.76c0.5-0.49,1.09-0.88,1.76-1.16
		c0.67-0.28,1.4-0.42,2.19-0.42c0.92,0,1.72,0.17,2.4,0.51c0.67,0.34,1.23,0.76,1.66,1.26c0.43,0.5,0.75,1.04,0.95,1.63
		c0.2,0.59,0.31,1.14,0.31,1.64v1.45H165.71z M169.48,173.86c-0.5,0-0.97,0.08-1.4,0.24c-0.43,0.16-0.81,0.38-1.14,0.67
		c-0.33,0.29-0.59,0.62-0.79,1.01c-0.2,0.39-0.34,0.81-0.4,1.26h7.27c-0.03-0.48-0.15-0.92-0.35-1.32c-0.2-0.39-0.47-0.73-0.79-1
		s-0.7-0.48-1.11-0.64C170.34,173.94,169.91,173.86,169.48,173.86z"/>
	<path d="M180.65,175.41c0,0.54,0.23,0.96,0.69,1.25c0.46,0.29,1.31,0.48,2.53,0.57c1.32,0.11,2.32,0.42,3.01,0.94
		s1.03,1.28,1.03,2.28v0.14c0,0.54-0.11,1.03-0.33,1.46c-0.22,0.43-0.52,0.8-0.91,1.1c-0.39,0.3-0.86,0.53-1.41,0.69
		c-0.55,0.16-1.15,0.24-1.81,0.24c-0.88,0-1.63-0.12-2.26-0.35c-0.63-0.23-1.15-0.54-1.57-0.93c-0.42-0.39-0.73-0.83-0.94-1.32
		c-0.21-0.49-0.33-0.99-0.36-1.49l1.68-0.41c0.08,0.86,0.41,1.56,1,2.08s1.38,0.78,2.36,0.78c0.83,0,1.5-0.16,2.01-0.49
		c0.51-0.33,0.76-0.78,0.76-1.37c0-0.64-0.25-1.09-0.75-1.36s-1.31-0.45-2.43-0.52c-1.3-0.09-2.3-0.39-3-0.91s-1.04-1.26-1.04-2.25
		v-0.14c0-0.53,0.11-1,0.34-1.4c0.23-0.4,0.53-0.74,0.92-1.01c0.39-0.27,0.82-0.48,1.31-0.61c0.48-0.14,0.99-0.21,1.52-0.21
		c0.74,0,1.39,0.1,1.95,0.31s1.03,0.47,1.41,0.79c0.38,0.33,0.67,0.7,0.87,1.12c0.2,0.42,0.34,0.85,0.4,1.27l-1.68,0.41
		c-0.08-0.73-0.37-1.29-0.87-1.7c-0.51-0.41-1.17-0.61-1.99-0.61c-0.32,0-0.62,0.03-0.92,0.1c-0.3,0.07-0.56,0.17-0.78,0.31
		c-0.23,0.14-0.41,0.31-0.54,0.51S180.65,175.14,180.65,175.41z"/>
	<path d="M192.09,172.5h3.47v-2.86c0-0.51,0.16-0.94,0.49-1.27c0.33-0.33,0.75-0.5,1.26-0.5h4.45v1.63h-3.82
		c-0.41,0-0.61,0.23-0.61,0.68v2.32h4.7v1.63h-4.7v9.63h-1.77v-9.63h-3.47V172.5z"/>
	<path d="M207.4,178.68c0.05,1.12,0.39,2.02,1.04,2.7c0.65,0.68,1.56,1.02,2.73,1.02c0.53,0,0.99-0.06,1.39-0.18
		c0.39-0.12,0.73-0.29,1.01-0.5s0.51-0.46,0.68-0.74c0.17-0.28,0.31-0.58,0.42-0.9l1.68,0.45c-0.32,1.04-0.91,1.9-1.76,2.55
		c-0.86,0.66-2.01,0.99-3.46,0.99c-0.8,0-1.54-0.14-2.21-0.42c-0.67-0.28-1.25-0.68-1.74-1.19c-0.48-0.51-0.86-1.13-1.14-1.84
		s-0.41-1.5-0.41-2.36v-0.54c0-0.79,0.14-1.52,0.42-2.2c0.28-0.68,0.67-1.27,1.17-1.76c0.5-0.49,1.09-0.88,1.76-1.16
		c0.67-0.28,1.4-0.42,2.19-0.42c0.92,0,1.72,0.17,2.4,0.51c0.67,0.34,1.23,0.76,1.66,1.26s0.75,1.04,0.95,1.63
		c0.21,0.59,0.31,1.14,0.31,1.64v1.45H207.4z M211.17,173.86c-0.5,0-0.97,0.08-1.4,0.24c-0.43,0.16-0.81,0.38-1.14,0.67
		c-0.33,0.29-0.59,0.62-0.79,1.01c-0.2,0.39-0.34,0.81-0.4,1.26h7.27c-0.03-0.48-0.15-0.92-0.35-1.32s-0.47-0.73-0.79-1
		s-0.7-0.48-1.11-0.64C212.04,173.94,211.61,173.86,211.17,173.86z"/>
	<path d="M221.77,183.77H220v-15.9h1.77v6.68h0.27c0.35-0.73,0.84-1.3,1.46-1.73c0.63-0.42,1.4-0.64,2.3-0.64
		c1.23,0,2.22,0.41,2.99,1.21c0.76,0.81,1.15,2.03,1.15,3.65v6.72h-1.77v-6.36c0-1.18-0.27-2.07-0.79-2.66
		c-0.53-0.59-1.25-0.89-2.16-0.89c-1.08,0-1.92,0.37-2.53,1.1s-0.92,1.71-0.92,2.94V183.77z"/>
	<path d="M235.2,178.68c0.04,1.12,0.39,2.02,1.04,2.7c0.65,0.68,1.56,1.02,2.73,1.02c0.53,0,0.99-0.06,1.38-0.18s0.73-0.29,1.01-0.5
		s0.51-0.46,0.68-0.74c0.17-0.28,0.31-0.58,0.42-0.9l1.68,0.45c-0.32,1.04-0.91,1.9-1.76,2.55c-0.86,0.66-2.01,0.99-3.46,0.99
		c-0.8,0-1.54-0.14-2.21-0.42c-0.67-0.28-1.25-0.68-1.74-1.19c-0.48-0.51-0.86-1.13-1.14-1.84s-0.41-1.5-0.41-2.36v-0.54
		c0-0.79,0.14-1.52,0.42-2.2c0.28-0.68,0.67-1.27,1.17-1.76c0.5-0.49,1.09-0.88,1.76-1.16c0.67-0.28,1.4-0.42,2.19-0.42
		c0.92,0,1.72,0.17,2.4,0.51c0.67,0.34,1.23,0.76,1.66,1.26s0.75,1.04,0.95,1.63c0.21,0.59,0.31,1.14,0.31,1.64v1.45H235.2z
		 M238.97,173.86c-0.5,0-0.96,0.08-1.4,0.24s-0.81,0.38-1.14,0.67c-0.33,0.29-0.59,0.62-0.79,1.01s-0.34,0.81-0.4,1.26h7.27
		c-0.03-0.48-0.15-0.92-0.35-1.32s-0.47-0.73-0.79-1s-0.7-0.48-1.11-0.64C239.83,173.94,239.4,173.86,238.97,173.86z M241.67,168.14
		l-1.91,2.68h-1.64l1.5-2.68H241.67z"/>
	<path d="M247.16,172.5h4.09v1.5h0.27c0.29-0.62,0.7-1.08,1.23-1.37c0.53-0.3,1.13-0.44,1.82-0.44c1.14,0,2.05,0.37,2.75,1.11
		c0.7,0.74,1.07,1.82,1.11,3.25l-1.86,0.27c0-1.04-0.25-1.8-0.75-2.26c-0.5-0.46-1.11-0.69-1.84-0.69c-0.47,0-0.87,0.09-1.21,0.27
		s-0.62,0.43-0.85,0.75c-0.23,0.32-0.39,0.69-0.5,1.11c-0.11,0.42-0.16,0.88-0.16,1.36v4.77h2.86v1.63h-7.22v-1.63h2.59v-7.99h-2.32
		V172.5z"/>
	<path d="M268.4,183.77h-3.5l-3.93-11.26h2.09l3.45,10.45h0.27l3.45-10.45h2.09L268.4,183.77z"/>
	<path d="M283.77,181.86h-0.27c-0.36,0.76-0.87,1.32-1.51,1.68c-0.64,0.36-1.32,0.55-2.03,0.55c-0.74,0-1.43-0.12-2.07-0.38
		s-1.19-0.62-1.67-1.11c-0.48-0.49-0.85-1.09-1.12-1.8c-0.27-0.71-0.41-1.54-0.41-2.48v-0.36c0-0.92,0.14-1.74,0.41-2.45
		c0.27-0.71,0.65-1.31,1.12-1.8c0.48-0.49,1.03-0.87,1.67-1.12c0.64-0.26,1.31-0.39,2.02-0.39c0.77,0,1.47,0.17,2.1,0.51
		c0.63,0.34,1.12,0.87,1.49,1.58h0.27v-1.77h1.77v8.95c0,0.45,0.2,0.68,0.61,0.68h0.57v1.63h-1.2c-0.51,0-0.93-0.17-1.26-0.5
		c-0.33-0.33-0.49-0.76-0.49-1.27V181.86z M280.14,182.4c0.53,0,1.02-0.1,1.46-0.3c0.45-0.2,0.83-0.48,1.15-0.84
		c0.32-0.36,0.57-0.8,0.75-1.31s0.27-1.07,0.27-1.69V178c0-0.61-0.09-1.16-0.27-1.67c-0.18-0.51-0.44-0.94-0.76-1.31
		c-0.33-0.36-0.71-0.65-1.16-0.85c-0.45-0.2-0.93-0.31-1.44-0.31c-0.53,0-1.01,0.1-1.45,0.29c-0.44,0.2-0.82,0.47-1.15,0.83
		c-0.33,0.36-0.58,0.79-0.76,1.29c-0.18,0.51-0.27,1.06-0.27,1.67v0.36c0,1.29,0.34,2.29,1.01,3.01
		C278.19,182.04,279.06,182.4,280.14,182.4z M282.57,168.14l-1.91,2.68h-1.63l1.5-2.68H282.57z"/>
	<path d="M288.86,172.5h4.09v1.5h0.27c0.29-0.62,0.7-1.08,1.23-1.37c0.53-0.3,1.13-0.44,1.82-0.44c1.14,0,2.05,0.37,2.75,1.11
		c0.7,0.74,1.07,1.82,1.11,3.25l-1.86,0.27c0-1.04-0.25-1.8-0.75-2.26c-0.5-0.46-1.11-0.69-1.84-0.69c-0.47,0-0.87,0.09-1.21,0.27
		s-0.62,0.43-0.85,0.75c-0.23,0.32-0.39,0.69-0.5,1.11c-0.11,0.42-0.16,0.88-0.16,1.36v4.77h2.86v1.63h-7.22v-1.63h2.59v-7.99h-2.32
		V172.5z"/>
	<path d="M38.4,208.15h1.5v-10.17h-1.5v-2.86h6.97c0.76,0,1.43,0.11,2.01,0.32c0.58,0.21,1.07,0.5,1.48,0.86
		c0.4,0.36,0.7,0.8,0.91,1.31c0.2,0.51,0.31,1.06,0.31,1.65v0.27c0,0.91-0.25,1.64-0.76,2.18c-0.51,0.54-1.15,0.92-1.92,1.13v0.41
		c0.77,0.21,1.41,0.59,1.92,1.15c0.51,0.55,0.76,1.28,0.76,2.19v0.27c0,0.59-0.1,1.14-0.31,1.65c-0.2,0.51-0.51,0.95-0.91,1.32
		c-0.4,0.37-0.89,0.66-1.48,0.87c-0.58,0.21-1.25,0.32-2.01,0.32H38.4V208.15z M42.89,201.61h2.18c0.64,0,1.15-0.13,1.54-0.4
		c0.39-0.26,0.59-0.72,0.59-1.35v-0.14c0-0.64-0.2-1.09-0.59-1.35c-0.39-0.26-0.91-0.4-1.54-0.4h-2.18V201.61z M42.89,208.15h2.18
		c0.64,0,1.15-0.14,1.54-0.41c0.39-0.27,0.59-0.73,0.59-1.36v-0.14c0-0.64-0.2-1.09-0.59-1.36c-0.39-0.27-0.91-0.41-1.54-0.41h-2.18
		V208.15z"/>
	<path d="M64.06,205.52c0,0.94-0.16,1.77-0.48,2.49s-0.75,1.33-1.29,1.82c-0.54,0.49-1.17,0.87-1.87,1.12
		c-0.7,0.26-1.44,0.39-2.21,0.39c-0.77,0-1.51-0.13-2.21-0.39c-0.7-0.26-1.33-0.63-1.87-1.12c-0.54-0.49-0.98-1.1-1.29-1.82
		s-0.48-1.55-0.48-2.49v-0.27c0-0.92,0.16-1.74,0.48-2.46c0.32-0.72,0.75-1.33,1.29-1.83c0.54-0.5,1.17-0.88,1.87-1.13
		c0.7-0.26,1.44-0.39,2.21-0.39c0.77,0,1.51,0.13,2.21,0.39c0.7,0.26,1.33,0.64,1.87,1.13c0.55,0.5,0.98,1.11,1.29,1.83
		c0.32,0.72,0.48,1.54,0.48,2.46V205.52z M58.2,208.61c0.41,0,0.79-0.07,1.16-0.2c0.36-0.14,0.68-0.33,0.95-0.59
		c0.27-0.26,0.49-0.57,0.65-0.94c0.16-0.37,0.24-0.79,0.24-1.26v-0.45c0-0.47-0.08-0.89-0.24-1.26c-0.16-0.37-0.38-0.69-0.65-0.94
		c-0.27-0.26-0.59-0.45-0.95-0.59c-0.36-0.14-0.75-0.2-1.16-0.2s-0.79,0.07-1.16,0.2c-0.36,0.14-0.68,0.33-0.95,0.59
		c-0.27,0.26-0.49,0.57-0.65,0.94c-0.16,0.37-0.24,0.79-0.24,1.26v0.45c0,0.47,0.08,0.89,0.24,1.26c0.16,0.37,0.37,0.69,0.65,0.94
		c0.27,0.26,0.59,0.45,0.95,0.59C57.4,208.54,57.79,208.61,58.2,208.61z"/>
	<path d="M66.37,199.75h4.77v1.63h0.41c0.21-0.62,0.57-1.1,1.08-1.44c0.51-0.34,1.12-0.51,1.83-0.51c1.12,0,2.02,0.35,2.7,1.06
		c0.68,0.7,1.02,1.77,1.02,3.21v0.5l-2.95,0.27v-0.32c0-0.62-0.16-1.12-0.48-1.49s-0.79-0.56-1.43-0.56s-1.14,0.22-1.5,0.66
		c-0.36,0.44-0.55,1.07-0.55,1.88v3.63h2.59v2.73H66.1v-2.73h2.32v-5.81h-2.04V199.75z"/>
	<path d="M84.41,202.93c0,0.36,0.19,0.62,0.57,0.78c0.38,0.16,1.07,0.29,2.07,0.4c1.15,0.12,2.09,0.46,2.82,1.03
		c0.73,0.57,1.09,1.36,1.09,2.37v0.14c0,1.12-0.41,2.01-1.23,2.68c-0.82,0.67-1.97,1-3.45,1c-0.88,0-1.63-0.11-2.25-0.34
		c-0.62-0.23-1.14-0.51-1.54-0.85s-0.72-0.72-0.94-1.14c-0.22-0.42-0.37-0.82-0.44-1.21l2.63-0.86c0.12,0.49,0.37,0.91,0.76,1.27
		c0.39,0.36,0.98,0.55,1.78,0.55c0.71,0,1.2-0.11,1.46-0.33c0.26-0.22,0.4-0.46,0.4-0.71c0-0.15-0.03-0.29-0.1-0.42
		c-0.07-0.13-0.19-0.25-0.37-0.36c-0.18-0.11-0.43-0.21-0.74-0.28c-0.31-0.08-0.7-0.14-1.17-0.18c-1.27-0.11-2.28-0.44-3.03-0.99
		c-0.75-0.55-1.12-1.37-1.12-2.44v-0.14c0-0.56,0.12-1.05,0.36-1.48c0.24-0.42,0.56-0.78,0.95-1.08c0.39-0.3,0.85-0.52,1.36-0.67
		s1.04-0.23,1.59-0.23c0.71,0,1.33,0.09,1.85,0.26s0.97,0.4,1.33,0.68c0.36,0.28,0.66,0.59,0.89,0.93s0.4,0.67,0.52,0.99l-2.59,1.04
		c-0.14-0.41-0.37-0.73-0.7-0.96c-0.33-0.24-0.76-0.35-1.29-0.35c-0.48,0-0.85,0.09-1.09,0.26S84.41,202.67,84.41,202.93z"/>
	<path d="M104.82,208.29v2.73h-9.81v-4.77l7.09-3.45v-0.41h-6.95v-2.63h9.4v4.63l-7.09,3.5v0.41H104.82z"/>
	<path d="M111.13,206.31c0.02,0.33,0.09,0.64,0.24,0.92c0.14,0.28,0.34,0.52,0.59,0.73c0.25,0.21,0.54,0.36,0.86,0.48
		c0.33,0.11,0.67,0.17,1.03,0.17c0.71,0,1.26-0.12,1.64-0.38c0.38-0.25,0.65-0.55,0.82-0.9l2.45,1.36c-0.14,0.29-0.33,0.59-0.57,0.9
		s-0.56,0.59-0.94,0.85c-0.39,0.26-0.86,0.47-1.41,0.64c-0.55,0.17-1.2,0.25-1.94,0.25c-0.85,0-1.62-0.14-2.32-0.41
		s-1.3-0.67-1.81-1.18c-0.51-0.51-0.9-1.14-1.18-1.88c-0.28-0.74-0.42-1.58-0.42-2.52v-0.14c0-0.86,0.15-1.65,0.44-2.36
		c0.3-0.71,0.7-1.32,1.21-1.82s1.12-0.89,1.81-1.17c0.69-0.28,1.43-0.42,2.21-0.42c0.97,0,1.8,0.17,2.5,0.51
		c0.7,0.34,1.27,0.77,1.73,1.29s0.79,1.1,1,1.73c0.21,0.63,0.32,1.24,0.32,1.83v1.52H111.13z M113.84,202.02
		c-0.73,0-1.32,0.19-1.77,0.56s-0.75,0.8-0.89,1.28h5.31c-0.09-0.53-0.37-0.97-0.85-1.32C115.17,202.2,114.56,202.02,113.84,202.02z
		 M113.9,194.98h3.04l-1.91,3.09h-2.32L113.9,194.98z"/>
	<path d="M126.28,203.89h0.54l3-4.13h3.13v0.14l-3.63,5.16v0.41l4,5.43v0.14h-3.27l-3.23-4.41h-0.54v4.41h-2.86v-15.9h2.86V203.89z"
		/>
	<path d="M136.61,208.29h3.82v-5.81h-3.54v-2.72h6.4v8.54h3.27v2.73h-9.95V208.29z M144,196.41c0,0.3-0.06,0.59-0.17,0.85
		c-0.11,0.27-0.27,0.49-0.47,0.68s-0.43,0.34-0.69,0.45c-0.27,0.11-0.54,0.17-0.83,0.17c-0.3,0-0.58-0.06-0.84-0.17
		c-0.26-0.11-0.48-0.26-0.68-0.45s-0.35-0.42-0.47-0.68c-0.11-0.26-0.17-0.55-0.17-0.85c0-0.3,0.06-0.59,0.17-0.85
		c0.11-0.26,0.27-0.49,0.47-0.68s0.42-0.34,0.68-0.45c0.26-0.11,0.54-0.17,0.84-0.17c0.29,0,0.56,0.06,0.83,0.17
		c0.26,0.11,0.5,0.26,0.69,0.45s0.35,0.42,0.47,0.68C143.94,195.83,144,196.11,144,196.41z"/>
	<path d="M171.84,199.75h2.86v11.26h-2.86v-1.63h-0.41c-0.5,1.3-1.58,1.95-3.23,1.95c-0.56,0-1.08-0.09-1.57-0.27
		c-0.48-0.18-0.91-0.46-1.27-0.84c-0.36-0.38-0.65-0.85-0.85-1.42c-0.2-0.57-0.31-1.24-0.31-2.01v-7.04h2.86v6.45
		c0,0.8,0.19,1.43,0.57,1.87c0.38,0.45,0.95,0.67,1.7,0.67c0.86,0,1.49-0.28,1.9-0.83c0.4-0.55,0.6-1.31,0.6-2.26V199.75z"/>
	<path d="M177.79,199.75h3.34v-4.63h2.86v4.63h4.06v2.72h-4.06v5.13c0,0.45,0.2,0.68,0.61,0.68h3.04v2.73h-4.77
		c-0.52,0-0.94-0.17-1.26-0.5c-0.33-0.33-0.49-0.76-0.49-1.27v-6.77h-3.34V199.75z"/>
	<path d="M202.99,206.88c-0.26,1.33-0.87,2.41-1.83,3.22s-2.24,1.23-3.85,1.23c-0.83,0-1.61-0.13-2.33-0.39
		c-0.72-0.26-1.34-0.63-1.87-1.11c-0.53-0.48-0.95-1.08-1.25-1.79c-0.3-0.71-0.45-1.52-0.45-2.43v-0.27c0-0.91,0.15-1.73,0.45-2.45
		c0.3-0.73,0.72-1.35,1.26-1.86c0.54-0.51,1.17-0.91,1.88-1.18c0.72-0.27,1.49-0.41,2.31-0.41c1.57,0,2.85,0.41,3.83,1.23
		c0.98,0.82,1.59,1.89,1.85,3.22l-2.82,0.73c-0.09-0.67-0.38-1.24-0.86-1.73c-0.48-0.48-1.17-0.73-2.04-0.73
		c-0.41,0-0.79,0.08-1.16,0.23c-0.36,0.15-0.68,0.37-0.95,0.65c-0.27,0.28-0.49,0.62-0.65,1.02c-0.16,0.4-0.24,0.85-0.24,1.35v0.14
		c0,0.5,0.08,0.94,0.24,1.33c0.16,0.39,0.37,0.71,0.65,0.96c0.27,0.26,0.59,0.45,0.95,0.58c0.36,0.13,0.75,0.19,1.16,0.19
		c0.88,0,1.55-0.22,2.01-0.66c0.46-0.44,0.76-1.03,0.9-1.77L202.99,206.88z"/>
	<path d="M213.19,209.38c-0.3,0.71-0.73,1.21-1.27,1.51c-0.55,0.29-1.18,0.44-1.91,0.44c-0.68,0-1.32-0.13-1.92-0.39
		c-0.6-0.26-1.12-0.64-1.58-1.13c-0.45-0.5-0.81-1.11-1.08-1.82c-0.27-0.71-0.4-1.52-0.4-2.43v-0.36c0-0.89,0.13-1.7,0.39-2.41
		c0.26-0.71,0.61-1.32,1.04-1.82c0.44-0.5,0.95-0.88,1.53-1.15c0.58-0.26,1.21-0.4,1.87-0.4c0.8,0,1.45,0.14,1.94,0.41
		c0.49,0.27,0.88,0.7,1.17,1.27h0.41v-1.36h2.86v7.86c0,0.45,0.2,0.68,0.61,0.68h0.43v2.73h-1.95c-0.52,0-0.94-0.15-1.26-0.45
		c-0.33-0.3-0.49-0.7-0.49-1.18H213.19z M210.65,208.61c0.83,0,1.5-0.28,2-0.83s0.75-1.31,0.75-2.26v-0.27
		c0-0.95-0.25-1.71-0.75-2.26s-1.17-0.83-2-0.83c-0.83,0-1.5,0.28-2,0.83s-0.75,1.31-0.75,2.26v0.27c0,0.95,0.25,1.71,0.75,2.26
		S209.81,208.61,210.65,208.61z"/>
	<path d="M236.49,206.52c0,0.53,0.19,0.99,0.58,1.37c0.39,0.39,0.99,0.58,1.81,0.58s1.46-0.24,1.94-0.71s0.72-1.1,0.72-1.87v-2.04
		h-0.41c-0.21,0.53-0.56,0.96-1.04,1.28c-0.48,0.33-1.17,0.49-2.07,0.49c-0.68,0-1.31-0.12-1.9-0.37s-1.09-0.6-1.52-1.06
		c-0.43-0.45-0.77-1-1.01-1.63c-0.24-0.64-0.36-1.34-0.36-2.11v-0.27c0-0.76,0.14-1.46,0.41-2.12s0.65-1.23,1.15-1.7
		s1.09-0.85,1.79-1.12c0.7-0.27,1.49-0.41,2.35-0.41c0.79,0,1.53,0.13,2.21,0.39c0.69,0.26,1.28,0.62,1.78,1.08
		c0.5,0.46,0.89,1.01,1.18,1.66c0.29,0.64,0.43,1.35,0.43,2.12v5.79c0,0.86-0.14,1.63-0.43,2.32c-0.29,0.68-0.68,1.26-1.18,1.73
		c-0.5,0.47-1.09,0.83-1.76,1.08s-1.4,0.38-2.19,0.38c-0.77,0-1.49-0.11-2.16-0.33c-0.67-0.22-1.25-0.54-1.74-0.95
		c-0.49-0.42-0.88-0.92-1.16-1.51c-0.28-0.59-0.42-1.26-0.42-2.02H236.49z M238.88,197.66c-0.77,0-1.41,0.23-1.91,0.69
		c-0.5,0.46-0.75,1.08-0.75,1.85s0.25,1.39,0.75,1.85c0.5,0.46,1.14,0.69,1.91,0.69s1.41-0.23,1.91-0.69
		c0.5-0.46,0.75-1.08,0.75-1.85s-0.25-1.39-0.75-1.85C240.28,197.89,239.65,197.66,238.88,197.66z"/>
	<path d="M254.93,209.18c0,0.3-0.06,0.59-0.17,0.85c-0.11,0.27-0.27,0.49-0.47,0.68c-0.2,0.19-0.43,0.34-0.69,0.45
		c-0.27,0.11-0.54,0.17-0.83,0.17c-0.3,0-0.58-0.06-0.84-0.17c-0.26-0.11-0.48-0.26-0.68-0.45c-0.2-0.19-0.35-0.42-0.47-0.68
		c-0.11-0.26-0.17-0.55-0.17-0.85c0-0.3,0.06-0.59,0.17-0.85c0.11-0.26,0.27-0.49,0.47-0.68c0.2-0.19,0.42-0.34,0.68-0.45
		c0.26-0.11,0.54-0.17,0.84-0.17c0.29,0,0.56,0.06,0.83,0.17c0.26,0.11,0.5,0.26,0.69,0.45c0.2,0.19,0.35,0.42,0.47,0.68
		C254.87,208.59,254.93,208.87,254.93,209.18z"/>
	<path d="M39.55,256.28h3.45v-3.45h2.59v3.45h3.45v2.59H45.6v3.45h-2.59v-3.45h-3.45V256.28z"/>
	<path d="M56.65,258.71v-4.72l3.95-1.09v-0.41h-7.9v-2.86h10.36v5l-4.22,1.23v0.41h0.54c0.56,0,1.11,0.09,1.66,0.26
		c0.55,0.17,1.03,0.44,1.44,0.81c0.42,0.36,0.75,0.81,1.01,1.35s0.39,1.17,0.39,1.9v0.27c0,0.71-0.12,1.37-0.35,1.98
		c-0.23,0.61-0.58,1.13-1.04,1.58c-0.46,0.45-1.03,0.8-1.71,1.06c-0.68,0.26-1.46,0.39-2.34,0.39c-0.89,0-1.7-0.14-2.43-0.43
		c-0.73-0.29-1.34-0.68-1.85-1.18c-0.51-0.5-0.9-1.07-1.17-1.73c-0.27-0.65-0.41-1.34-0.41-2.07v-0.95h3v0.82
		c0,0.73,0.23,1.36,0.7,1.89c0.47,0.53,1.17,0.79,2.11,0.79c0.8,0,1.42-0.2,1.85-0.61c0.43-0.41,0.65-0.95,0.65-1.61
		c0-0.71-0.23-1.23-0.69-1.56c-0.46-0.33-1.05-0.49-1.76-0.49H56.65z"/>
	<path d="M74.48,254.12c0-0.53-0.19-0.99-0.58-1.37c-0.39-0.39-0.99-0.58-1.81-0.58c-0.82,0-1.46,0.24-1.94,0.72
		c-0.48,0.48-0.72,1.1-0.72,1.87v2.04h0.41c0.26-0.53,0.67-0.96,1.25-1.28c0.58-0.33,1.23-0.49,1.95-0.49
		c0.65,0,1.26,0.12,1.84,0.35s1.08,0.57,1.5,1s0.76,0.96,1,1.58c0.24,0.62,0.36,1.33,0.36,2.11v0.27c0,0.8-0.13,1.54-0.4,2.21
		c-0.27,0.67-0.64,1.25-1.14,1.74c-0.49,0.49-1.09,0.86-1.78,1.14s-1.48,0.41-2.34,0.41c-0.79,0-1.53-0.13-2.21-0.39
		c-0.69-0.26-1.29-0.62-1.79-1.08c-0.51-0.46-0.91-1.01-1.2-1.66s-0.44-1.35-0.44-2.12v-5.79c0-0.83,0.15-1.59,0.45-2.27
		c0.3-0.68,0.71-1.26,1.23-1.74c0.51-0.48,1.11-0.84,1.78-1.1c0.67-0.26,1.39-0.39,2.15-0.39c0.76,0,1.46,0.11,2.12,0.33
		c0.66,0.22,1.23,0.54,1.73,0.95c0.49,0.42,0.88,0.92,1.16,1.52c0.28,0.6,0.42,1.27,0.42,2.01H74.48z M72.1,262.98
		c0.77,0,1.41-0.23,1.91-0.69c0.5-0.46,0.75-1.08,0.75-1.85s-0.25-1.39-0.75-1.85c-0.5-0.46-1.14-0.69-1.91-0.69
		c-0.77,0-1.41,0.23-1.91,0.69s-0.75,1.08-0.75,1.85s0.25,1.39,0.75,1.85C70.69,262.74,71.32,262.98,72.1,262.98z"/>
	<path d="M105.59,262.66v2.86H94.42v-3.13c0-0.83,0.12-1.54,0.37-2.13c0.25-0.59,0.61-1.09,1.07-1.5c0.46-0.41,1.02-0.75,1.67-1.01
		c0.65-0.26,1.39-0.49,2.2-0.67c0.61-0.14,1.1-0.29,1.49-0.46c0.39-0.17,0.69-0.37,0.92-0.59s0.38-0.46,0.47-0.73
		c0.08-0.26,0.12-0.56,0.12-0.9c0-0.64-0.23-1.17-0.69-1.59c-0.46-0.42-1.1-0.64-1.92-0.64c-0.86,0-1.55,0.26-2.07,0.78
		c-0.52,0.52-0.77,1.25-0.77,2.17v1h-3v-1.27c0-0.74,0.13-1.45,0.4-2.12c0.26-0.67,0.64-1.26,1.14-1.77
		c0.49-0.51,1.09-0.91,1.81-1.2c0.71-0.3,1.51-0.44,2.41-0.44c0.95,0,1.79,0.14,2.5,0.42c0.71,0.28,1.31,0.65,1.78,1.1
		c0.48,0.45,0.83,0.98,1.07,1.58c0.23,0.6,0.35,1.21,0.35,1.85v0.27c0,1.33-0.38,2.44-1.12,3.32c-0.75,0.88-1.97,1.51-3.67,1.91
		c-0.71,0.17-1.3,0.34-1.76,0.51c-0.46,0.17-0.82,0.37-1.08,0.58c-0.26,0.21-0.44,0.44-0.53,0.69c-0.1,0.25-0.15,0.53-0.15,0.85
		v0.27H105.59z"/>
	<path d="M107.93,255.8c0-2.06,0.52-3.66,1.56-4.79c1.04-1.13,2.47-1.7,4.3-1.7c1.83,0,3.27,0.57,4.3,1.7
		c1.04,1.14,1.56,2.73,1.56,4.79v3.54c0,2.12-0.52,3.73-1.56,4.84c-1.04,1.11-2.47,1.66-4.3,1.66c-1.83,0-3.27-0.55-4.3-1.66
		c-1.04-1.1-1.56-2.72-1.56-4.84V255.8z M113.79,263.11c0.54,0,1-0.09,1.36-0.26s0.66-0.42,0.89-0.74c0.23-0.32,0.39-0.7,0.48-1.14
		c0.09-0.44,0.14-0.92,0.14-1.45v-3.91c0-0.5-0.05-0.97-0.16-1.41c-0.11-0.44-0.27-0.82-0.5-1.13c-0.23-0.32-0.52-0.57-0.89-0.76
		s-0.8-0.28-1.32-0.28c-0.52,0-0.95,0.09-1.32,0.28s-0.66,0.44-0.89,0.76c-0.23,0.32-0.39,0.7-0.5,1.13
		c-0.11,0.44-0.16,0.91-0.16,1.41v3.91c0,0.53,0.05,1.01,0.14,1.45c0.09,0.44,0.25,0.82,0.48,1.14c0.23,0.32,0.52,0.56,0.89,0.74
		S113.25,263.11,113.79,263.11z M111.88,257.57c0-0.51,0.19-0.96,0.57-1.34c0.38-0.38,0.82-0.57,1.34-0.57
		c0.51,0,0.96,0.19,1.34,0.57c0.38,0.38,0.57,0.83,0.57,1.34s-0.19,0.96-0.57,1.34c-0.38,0.38-0.83,0.57-1.34,0.57
		c-0.52,0-0.96-0.19-1.34-0.57C112.07,258.53,111.88,258.09,111.88,257.57z"/>
	<path d="M136.14,258.43v-8.81h10.63v2.86h-7.63v4.31h0.41c0.21-0.59,0.61-1.1,1.19-1.53c0.58-0.43,1.37-0.65,2.35-0.65
		c0.74,0,1.41,0.13,2,0.39c0.59,0.26,1.09,0.61,1.5,1.07s0.72,1,0.94,1.63c0.22,0.64,0.33,1.33,0.33,2.09v0.14
		c0,0.8-0.13,1.56-0.4,2.27c-0.27,0.71-0.65,1.34-1.16,1.87c-0.51,0.54-1.13,0.97-1.87,1.28c-0.74,0.32-1.6,0.48-2.57,0.48
		c-0.97,0-1.82-0.13-2.57-0.4s-1.37-0.64-1.87-1.11s-0.89-1.04-1.16-1.7c-0.26-0.66-0.4-1.37-0.4-2.15v-0.55h3v0.27
		c0,0.8,0.25,1.46,0.74,1.99c0.49,0.52,1.21,0.78,2.17,0.78c0.95,0,1.71-0.26,2.26-0.77s0.83-1.23,0.83-2.13
		c0-0.86-0.2-1.51-0.61-1.94s-0.95-0.65-1.61-0.65c-0.44,0-0.79,0.09-1.07,0.28s-0.45,0.41-0.52,0.67H136.14z"/>
	<path d="M154.53,262.66v-11.54h-0.41l-1.5,5.45h-2.86v-0.27l1.91-6.68h5.86v13.04h3.95v2.86h-11.45v-2.86H154.53z"/>
	<path d="M182.33,262.66v-11.54h-0.41l-1.5,5.45h-2.86v-0.27l1.91-6.68h5.86v13.04h3.95v2.86h-11.45v-2.86H182.33z"/>
	<path d="M199.56,254.12c0-0.53-0.19-0.99-0.58-1.37c-0.39-0.39-0.99-0.58-1.81-0.58c-0.82,0-1.46,0.24-1.94,0.72
		c-0.48,0.48-0.72,1.1-0.72,1.87v2.04h0.41c0.26-0.53,0.67-0.96,1.25-1.28c0.58-0.33,1.23-0.49,1.95-0.49
		c0.65,0,1.26,0.12,1.84,0.35s1.08,0.57,1.5,1s0.76,0.96,1,1.58c0.24,0.62,0.36,1.33,0.36,2.11v0.27c0,0.8-0.13,1.54-0.4,2.21
		c-0.27,0.67-0.64,1.25-1.14,1.74c-0.49,0.49-1.09,0.86-1.78,1.14s-1.48,0.41-2.34,0.41c-0.79,0-1.53-0.13-2.21-0.39
		c-0.69-0.26-1.29-0.62-1.79-1.08c-0.51-0.46-0.91-1.01-1.2-1.66s-0.44-1.35-0.44-2.12v-5.79c0-0.83,0.15-1.59,0.45-2.27
		c0.3-0.68,0.71-1.26,1.23-1.74c0.51-0.48,1.11-0.84,1.78-1.1c0.67-0.26,1.39-0.39,2.15-0.39c0.76,0,1.46,0.11,2.12,0.33
		c0.66,0.22,1.23,0.54,1.73,0.95c0.49,0.42,0.88,0.92,1.16,1.52c0.28,0.6,0.42,1.27,0.42,2.01H199.56z M197.18,262.98
		c0.77,0,1.41-0.23,1.91-0.69c0.5-0.46,0.75-1.08,0.75-1.85s-0.25-1.39-0.75-1.85c-0.5-0.46-1.14-0.69-1.91-0.69
		c-0.77,0-1.41,0.23-1.91,0.69s-0.75,1.08-0.75,1.85s0.25,1.39,0.75,1.85C195.77,262.74,196.41,262.98,197.18,262.98z"/>
	<path d="M219.53,258.43v-8.81h10.63v2.86h-7.63v4.31h0.41c0.21-0.59,0.61-1.1,1.19-1.53c0.58-0.43,1.37-0.65,2.35-0.65
		c0.74,0,1.41,0.13,2,0.39c0.59,0.26,1.09,0.61,1.5,1.07c0.41,0.45,0.72,1,0.94,1.63c0.22,0.64,0.33,1.33,0.33,2.09v0.14
		c0,0.8-0.13,1.56-0.4,2.27s-0.65,1.34-1.16,1.87c-0.51,0.54-1.13,0.97-1.87,1.28c-0.74,0.32-1.6,0.48-2.57,0.48
		s-1.82-0.13-2.57-0.4s-1.37-0.64-1.87-1.11c-0.51-0.48-0.89-1.04-1.16-1.7c-0.27-0.66-0.4-1.37-0.4-2.15v-0.55h3v0.27
		c0,0.8,0.25,1.46,0.74,1.99s1.21,0.78,2.17,0.78s1.71-0.26,2.26-0.77c0.55-0.51,0.83-1.23,0.83-2.13c0-0.86-0.21-1.51-0.61-1.94
		c-0.41-0.43-0.95-0.65-1.61-0.65c-0.44,0-0.79,0.09-1.07,0.28s-0.45,0.41-0.52,0.67H219.53z"/>
	<path d="M237.92,262.66v-11.54h-0.41l-1.5,5.45h-2.86v-0.27l1.91-6.68h5.86v13.04h3.95v2.86h-11.45v-2.86H237.92z"/>
	<path d="M246.91,255.8c0-2.06,0.52-3.66,1.56-4.79c1.04-1.13,2.47-1.7,4.3-1.7c1.83,0,3.27,0.57,4.3,1.7
		c1.04,1.14,1.56,2.73,1.56,4.79v3.54c0,2.12-0.52,3.73-1.56,4.84c-1.04,1.11-2.47,1.66-4.3,1.66c-1.83,0-3.27-0.55-4.3-1.66
		c-1.04-1.1-1.56-2.72-1.56-4.84V255.8z M252.77,263.11c0.54,0,1-0.09,1.36-0.26s0.66-0.42,0.89-0.74c0.23-0.32,0.39-0.7,0.48-1.14
		c0.09-0.44,0.14-0.92,0.14-1.45v-3.91c0-0.5-0.05-0.97-0.16-1.41c-0.11-0.44-0.27-0.82-0.5-1.13c-0.23-0.32-0.52-0.57-0.89-0.76
		s-0.8-0.28-1.32-0.28s-0.95,0.09-1.32,0.28s-0.66,0.44-0.89,0.76c-0.23,0.32-0.39,0.7-0.5,1.13c-0.11,0.44-0.16,0.91-0.16,1.41
		v3.91c0,0.53,0.04,1.01,0.14,1.45c0.09,0.44,0.25,0.82,0.48,1.14c0.23,0.32,0.52,0.56,0.89,0.74S252.23,263.11,252.77,263.11z
		 M250.86,257.57c0-0.51,0.19-0.96,0.57-1.34c0.38-0.38,0.83-0.57,1.34-0.57s0.96,0.19,1.34,0.57c0.38,0.38,0.57,0.83,0.57,1.34
		s-0.19,0.96-0.57,1.34c-0.38,0.38-0.83,0.57-1.34,0.57s-0.96-0.19-1.34-0.57C251.05,258.53,250.86,258.09,250.86,257.57z"/>
</g>
<rect class="st0" width="14.81" height="268.68" fill='#184FD6'/>
</svg>
