<?xml version="1.0" encoding="utf-8"?>
<!-- Generator: Adobe Illustrator 26.1.0, SVG Export Plug-In . SVG Version: 6.00 Build 0)  -->
<svg version="1.1" id="Layer_1" xmlns="http://www.w3.org/2000/svg" xmlns:xlink="http://www.w3.org/1999/xlink" x="0px" y="0px"
	 viewBox="0 0 685.37 116.52" style="enable-background:new 0 0 685.37 116.52;" xml:space="preserve">
<style type="text/css">
	.st0{fill:#FFFFFF;}
	.st1{fill:#184FD6;}
	.st2{fill:#68686A;}
	.st3{fill:#1D1D1E;}
	.st4{fill:#77777A;}
	.st5{fill:#EFEFEF;}
	.st6{fill:#FFEE1A;}
</style>
<g>
	<path class="st0" d="M16.31,49.97h3.11l17.09-23.56h17.87v0.78L33.66,56.57v2.33l22.79,30.94v0.78H37.8L19.42,65.51h-3.11v25.12H0
		V0h16.31V49.97z"/>
	<path class="st0" d="M115.61,81.3c-1.73,4.06-4.14,6.93-7.25,8.61c-3.11,1.68-6.73,2.52-10.87,2.52c-3.88,0-7.53-0.73-10.94-2.2
		c-3.41-1.47-6.41-3.62-9-6.47c-2.59-2.85-4.64-6.3-6.15-10.36c-1.51-4.06-2.27-8.67-2.27-13.85v-2.07c0-5.09,0.73-9.67,2.2-13.72
		c1.47-4.06,3.45-7.51,5.96-10.36c2.5-2.85,5.42-5.03,8.74-6.54c3.32-1.51,6.88-2.27,10.68-2.27c4.57,0,8.26,0.78,11.07,2.33
		c2.8,1.55,5.03,3.97,6.67,7.25h2.33v-7.77h16.31V71.2c0,2.59,1.17,3.88,3.5,3.88h2.46v15.54h-11.13c-2.93,0-5.33-0.86-7.18-2.59
		c-1.86-1.73-2.78-3.97-2.78-6.73H115.61z M101.11,76.9c4.75,0,8.54-1.57,11.39-4.73c2.85-3.15,4.27-7.44,4.27-12.88v-1.55
		c0-5.44-1.42-9.73-4.27-12.88c-2.85-3.15-6.65-4.73-11.39-4.73c-4.75,0-8.54,1.58-11.39,4.73c-2.85,3.15-4.27,7.44-4.27,12.88v1.55
		c0,5.44,1.42,9.73,4.27,12.88C92.57,75.33,96.36,76.9,101.11,76.9z"/>
	<path class="st0" d="M166.23,116.52h-16.31V26.41h16.31v9.32h2.33c1.73-3.54,4.23-6.28,7.51-8.22c3.28-1.94,7.46-2.91,12.56-2.91
		c3.8,0,7.4,0.73,10.81,2.2c3.41,1.47,6.39,3.6,8.93,6.41c2.54,2.81,4.57,6.24,6.08,10.29c1.51,4.06,2.27,8.67,2.27,13.85v2.33
		c0,5.27-0.73,9.93-2.2,13.98c-1.47,4.06-3.45,7.49-5.96,10.29c-2.5,2.81-5.46,4.92-8.87,6.34c-3.41,1.42-7.1,2.14-11.07,2.14
		c-2.94,0-5.48-0.3-7.64-0.91c-2.16-0.6-4.04-1.42-5.63-2.46c-1.6-1.04-2.94-2.22-4.01-3.56c-1.08-1.34-2.01-2.74-2.78-4.21h-2.33
		V116.52z M183.32,76.9c5.09,0,9.21-1.57,12.36-4.73c3.15-3.15,4.73-7.44,4.73-12.88v-1.55c0-5.44-1.58-9.73-4.73-12.88
		c-3.15-3.15-7.27-4.73-12.36-4.73c-5.09,0-9.21,1.62-12.36,4.86c-3.15,3.24-4.73,7.49-4.73,12.75v1.55c0,5.27,1.57,9.52,4.73,12.75
		C174.1,75.28,178.22,76.9,183.32,76.9z"/>
	<path class="st0" d="M295.17,67.06c-1.47,7.6-4.94,13.72-10.42,18.38c-5.48,4.66-12.8,6.99-21.94,6.99c-4.75,0-9.17-0.73-13.27-2.2
		c-4.1-1.47-7.66-3.58-10.68-6.34c-3.02-2.76-5.39-6.17-7.12-10.23c-1.73-4.06-2.59-8.67-2.59-13.85v-1.55
		c0-5.18,0.86-9.84,2.59-13.98c1.73-4.14,4.12-7.68,7.19-10.62c3.06-2.93,6.64-5.18,10.75-6.73c4.1-1.55,8.48-2.33,13.14-2.33
		c8.97,0,16.25,2.33,21.81,6.99c5.57,4.66,9.08,10.79,10.55,18.38l-16.05,4.14c-0.52-3.8-2.16-7.08-4.92-9.84
		c-2.76-2.76-6.65-4.14-11.65-4.14c-2.33,0-4.53,0.43-6.6,1.29c-2.07,0.86-3.88,2.09-5.44,3.69c-1.55,1.6-2.78,3.54-3.69,5.83
		c-0.91,2.29-1.36,4.85-1.36,7.7v0.78c0,2.85,0.45,5.37,1.36,7.57c0.91,2.2,2.14,4.04,3.69,5.5c1.55,1.47,3.37,2.57,5.44,3.3
		c2.07,0.73,4.27,1.1,6.6,1.1c5,0,8.82-1.25,11.46-3.75c2.63-2.5,4.34-5.87,5.11-10.1L295.17,67.06z"/>
	<path class="st0" d="M332.2,44.54c0,2.07,1.08,3.56,3.24,4.47c2.16,0.91,6.08,1.66,11.78,2.27c6.56,0.69,11.91,2.65,16.05,5.89
		c4.14,3.24,6.21,7.75,6.21,13.53v0.78c0,6.39-2.33,11.48-6.99,15.28c-4.66,3.8-11.22,5.7-19.68,5.7c-5.01,0-9.28-0.65-12.82-1.94
		c-3.54-1.29-6.47-2.91-8.8-4.85c-2.33-1.94-4.12-4.1-5.37-6.47c-1.25-2.37-2.09-4.68-2.53-6.93l15.02-4.92
		c0.69,2.76,2.14,5.18,4.34,7.25c2.2,2.07,5.59,3.11,10.16,3.11c4.06,0,6.84-0.62,8.35-1.88c1.51-1.25,2.27-2.61,2.27-4.08
		c0-0.86-0.19-1.66-0.58-2.4c-0.39-0.73-1.1-1.42-2.14-2.07c-1.04-0.65-2.44-1.18-4.21-1.62c-1.77-0.43-3.99-0.78-6.67-1.04
		c-7.25-0.6-13.01-2.48-17.28-5.63c-4.27-3.15-6.41-7.79-6.41-13.92v-0.78c0-3.19,0.69-6,2.07-8.42c1.38-2.42,3.19-4.47,5.44-6.15
		c2.24-1.68,4.83-2.96,7.77-3.82c2.93-0.86,5.96-1.29,9.06-1.29c4.06,0,7.57,0.5,10.55,1.49c2.98,0.99,5.5,2.29,7.57,3.88
		c2.07,1.6,3.75,3.37,5.05,5.31c1.29,1.94,2.29,3.82,2.98,5.63l-14.76,5.96c-0.78-2.33-2.12-4.16-4.01-5.5
		c-1.9-1.34-4.36-2.01-7.38-2.01c-2.76,0-4.83,0.5-6.21,1.49C332.89,41.84,332.2,43.07,332.2,44.54z"/>
	<path class="st0" d="M453.89,59.29c0,5.35-0.91,10.08-2.72,14.18c-1.81,4.1-4.27,7.55-7.38,10.36c-3.11,2.81-6.67,4.94-10.68,6.41
		c-4.01,1.47-8.22,2.2-12.62,2.2s-8.61-0.73-12.62-2.2c-4.01-1.47-7.57-3.6-10.68-6.41c-3.11-2.8-5.57-6.26-7.38-10.36
		c-1.81-4.1-2.72-8.82-2.72-14.18v-1.55c0-5.26,0.91-9.95,2.72-14.05c1.81-4.1,4.27-7.57,7.38-10.42c3.11-2.85,6.67-5,10.68-6.47
		c4.01-1.47,8.22-2.2,12.62-2.2s8.61,0.73,12.62,2.2c4.01,1.47,7.57,3.62,10.68,6.47c3.11,2.85,5.57,6.32,7.38,10.42
		c1.81,4.1,2.72,8.78,2.72,14.05V59.29z M420.49,76.9c2.33,0,4.53-0.39,6.6-1.17c2.07-0.78,3.88-1.9,5.44-3.37
		c1.55-1.47,2.78-3.26,3.69-5.37c0.91-2.11,1.36-4.51,1.36-7.18v-2.59c0-2.67-0.45-5.07-1.36-7.18c-0.91-2.11-2.14-3.9-3.69-5.37
		c-1.55-1.47-3.37-2.59-5.44-3.37c-2.07-0.78-4.27-1.17-6.6-1.17s-4.53,0.39-6.6,1.17c-2.07,0.78-3.88,1.9-5.44,3.37
		c-1.55,1.47-2.78,3.26-3.69,5.37c-0.91,2.12-1.36,4.51-1.36,7.18v2.59c0,2.68,0.45,5.07,1.36,7.18c0.91,2.12,2.14,3.91,3.69,5.37
		c1.55,1.47,3.37,2.59,5.44,3.37C415.96,76.51,418.16,76.9,420.49,76.9z"/>
	<path class="st0" d="M469.82,75.09h22.53V15.54h-21.75V0h38.06v75.09h20.97v15.54h-59.81V75.09z"/>
	<path class="st0" d="M590.99,81.3c-1.73,4.06-4.14,6.93-7.25,8.61c-3.11,1.68-6.73,2.52-10.88,2.52c-3.88,0-7.53-0.73-10.94-2.2
		c-3.41-1.47-6.41-3.62-9-6.47c-2.59-2.85-4.64-6.3-6.15-10.36c-1.51-4.06-2.27-8.67-2.27-13.85v-2.07c0-5.09,0.73-9.67,2.2-13.72
		c1.47-4.06,3.45-7.51,5.96-10.36c2.5-2.85,5.42-5.03,8.74-6.54c3.32-1.51,6.88-2.27,10.68-2.27c4.57,0,8.26,0.78,11.07,2.33
		c2.8,1.55,5.03,3.97,6.67,7.25h2.33v-7.77h16.31V71.2c0,2.59,1.17,3.88,3.5,3.88h2.46v15.54h-11.13c-2.94,0-5.33-0.86-7.19-2.59
		c-1.86-1.73-2.78-3.97-2.78-6.73H590.99z M576.49,76.9c4.75,0,8.54-1.57,11.39-4.73c2.85-3.15,4.27-7.44,4.27-12.88v-1.55
		c0-5.44-1.42-9.73-4.27-12.88c-2.85-3.15-6.65-4.73-11.39-4.73c-4.75,0-8.54,1.58-11.39,4.73c-2.85,3.15-4.27,7.44-4.27,12.88v1.55
		c0,5.44,1.42,9.73,4.27,12.88C567.95,75.33,571.75,76.9,576.49,76.9z"/>
	<path class="st0" d="M626.85,26.41h19.03V0h16.31v26.41h23.17v15.54H662.2V71.2c0,2.59,1.17,3.88,3.5,3.88h17.35v15.54h-27.19
		c-2.94,0-5.33-0.95-7.19-2.85c-1.86-1.9-2.78-4.31-2.78-7.25V41.95h-19.03V26.41z"/>
</g>
</svg>
