<?xml version="1.0" encoding="utf-8"?>
<!-- Generator: Adobe Illustrator 26.1.0, SVG Export Plug-In . SVG Version: 6.00 Build 0)  -->
<svg version="1.1" id="Layer_1" xmlns="http://www.w3.org/2000/svg" xmlns:xlink="http://www.w3.org/1999/xlink" x="0px" y="0px"
	 viewBox="0 0 1000 1000" style="enable-background:new 0 0 1000 1000;" xml:space="preserve">
<style type="text/css">
	.st0{fill:#FFFFFF;}
	.st1{fill:#184FD6;}
	.st2{fill:#68686A;}
	.st3{fill:#1D1D1E;}
	.st4{fill:#77777A;}
	.st5{fill:#EFEFEF;}
	.st6{fill:#FFEE1A;}
</style>
<g>
	<path class="st1" d="M527.43,454.14c14.16,6.1,30.99,1.78,40.45-10.42c13.51-17.38,7.5-42.46-12.03-51.99
		c-14.96-7.31-33.4-2.58-42.98,11.05C500.36,420.57,507.2,445.42,527.43,454.14z"/>
	<path class="st1" d="M502.84,745.84l-55.5,13.97c-1.37,0.34-2.54,1.22-3.25,2.44l-120.44,205.4c16.31,6.16,33.02,11.5,50.09,15.95
		L508.66,753.6C511.03,749.58,507.37,744.7,502.84,745.84z"/>
	<path class="st1" d="M500.3,0.37C224.33,0.37,0.6,224.09,0.6,500.07c0,110.18,35.66,212.02,96.06,294.63l199.7-340.13
		c2.37-4.04,8.45-3.2,9.63,1.34l46.55,178.99l-0.13,0.03l11.79,45.56c0.35,1.35,0.15,2.79-0.56,3.99l-9.76,16.58l-7.41,12.61
		L226.48,918.13c13.16,8.64,26.76,16.68,40.75,24.07l136.81-233.35c0.71-1.22,1.89-2.09,3.25-2.44l223.08-56.21
		c4.53-1.14,8.19,3.74,5.82,7.77L437.91,995.9c20.44,2.55,41.26,3.86,62.39,3.86c275.98,0,499.7-223.72,499.7-499.7
		S776.28,0.37,500.3,0.37z M336.24,733.04l-0.01,0l4.53-7.65L336.24,733.04z M358.6,434.86c-2.82,0.72-5.69-0.99-6.41-3.81
		l-12.4-48.67c-0.72-2.82,0.99-5.69,3.81-6.41l48.67-12.4c2.82-0.72,5.69,0.99,6.41,3.81l12.4,48.67c0.72,2.82-0.99,5.69-3.81,6.41
		L358.6,434.86z M380.22,540.01l-12.4-48.67c-0.72-2.82,0.99-5.69,3.81-6.41l48.67-12.4c2.82-0.72,5.69,0.99,6.41,3.81l12.4,48.67
		c0.72,2.82-0.99,5.69-3.81,6.41l-48.67,12.4C383.81,544.53,380.94,542.83,380.22,540.01z M414.89,653.66
		c-2.82,0.73-5.69-0.97-6.42-3.79l-12.75-49.55c-0.73-2.82,0.97-5.69,3.79-6.42l267.45-68.81c2.82-0.73,5.7,0.98,6.42,3.8
		l12.64,49.45c0.72,2.82-0.98,5.68-3.79,6.41L414.89,653.66z M467.07,372.21c25.09-36.9,74.36-49.59,114.15-29.38
		c48.12,24.46,63.81,85.53,33.46,130.13c-25.11,36.86-74.34,49.54-114.11,29.36C452.43,477.91,436.71,416.85,467.07,372.21z
		 M842.51,564.51c-4.67,33.7-30.35,56.3-53.01,76.24c-12.3,10.83-25.02,22.02-31.19,32.53c-6.17,10.51-9.75,27.07-13.21,43.09
		c-6.37,29.5-13.59,62.93-40.75,83.44c-28.13,21.24-62.92,18.86-93.62,16.75c-2.03-0.14-4.06-0.28-6.08-0.41l-22.15-2.1
		c-3.83-0.36-5.99-4.58-4.04-7.9l28.55-48.62c1.01-1.72,2.91-2.72,4.9-2.59l3.04,0.21c20.91,1.43,42.54,2.92,52.31-4.46
		c8.91-6.73,13.36-27.36,17.67-47.31c4.49-20.76,9.12-42.24,20.29-61.26c11.17-19.03,27.66-33.54,43.61-47.57
		c15.32-13.48,31.16-27.43,32.7-38.48c1.68-12.12-10.15-30.29-21.6-47.85c-11.31-17.36-23-35.31-28.33-55.77
		c-5.32-20.47-3.86-41.84-2.44-62.51c1.43-20.91,2.92-42.54-4.46-52.31c-6.72-8.91-27.35-13.36-47.3-17.67
		c-20.76-4.49-42.24-9.12-61.26-20.29c-19.02-11.17-33.54-27.66-47.57-43.61c-13.48-15.32-27.43-31.17-38.48-32.7
		c-12.12-1.68-30.29,10.15-47.85,21.59c-17.36,11.31-35.31,23-55.77,28.33c-20.47,5.32-41.84,3.86-62.51,2.44
		c-20.91-1.43-42.54-2.92-52.31,4.46c-8.9,6.73-13.36,27.35-17.67,47.3c-4.49,20.77-9.12,42.24-20.29,61.26
		c-11.17,19.02-27.66,33.54-43.61,47.57c-15.32,13.49-31.17,27.43-32.7,38.48c-1.68,12.12,10.15,30.29,21.59,47.85l1.63,2.49
		c1.11,1.7,1.14,3.89,0.08,5.62l-29.44,48.11c-2.01,3.29-6.77,3.37-8.89,0.14l-14.97-22.76c-16.8-25.78-35.84-55-30.99-89.91
		c4.67-33.7,30.35-56.3,53.01-76.24c12.3-10.83,25.02-22.02,31.19-32.53c6.17-10.51,9.75-27.07,13.21-43.09
		c6.37-29.5,13.59-62.93,40.74-83.44c28.13-21.24,62.92-18.85,93.62-16.75c15.75,1.08,32.04,2.2,42.8-0.6
		c10.76-2.8,24.44-11.71,37.67-20.33c25.78-16.8,55-35.84,89.92-30.99c33.71,4.68,56.3,30.35,76.24,53.01
		c10.83,12.3,22.02,25.02,32.53,31.19c10.51,6.17,27.07,9.75,43.09,13.21c29.5,6.37,62.93,13.6,83.44,40.74
		c21.24,28.13,18.86,62.92,16.75,93.62c-1.08,15.75-2.2,32.04,0.6,42.8c2.8,10.76,11.71,24.44,20.33,37.67
		C828.32,500.37,847.36,529.59,842.51,564.51z"/>
	<path class="st1" d="M298.36,671.08l-14.51-55.82c-1.18-4.54-7.26-5.38-9.63-1.34L138.62,844.87
		c12.11,12.7,24.89,24.76,38.27,36.13L297.8,675.07C298.51,673.87,298.71,672.43,298.36,671.08z"/>
</g>
</svg>
