<?xml version="1.0" encoding="utf-8"?>
<!-- Generator: Adobe Illustrator 26.3.1, SVG Export Plug-In . SVG Version: 6.00 Build 0)  -->
<svg version="1.1" id="Layer_1" xmlns="http://www.w3.org/2000/svg" xmlns:xlink="http://www.w3.org/1999/xlink" x="0px" y="0px"
	 viewBox="0 0 71 62.01" style="enable-background:new 0 0 71 62.01;" xml:space="preserve">
<style type="text/css">
	.logo1{fill:#FFFFFF;}
	
</style>
<g>
	<polygon class="logo1" points="32.04,36.84 32.5,36.38 32.04,36.84 	"/>
	<path class="logo1" d="M54.15,36.29L37.5,36.24c-0.1,0-0.2,0.04-0.27,0.11L25.05,48.72c-0.07,0.07-0.11,0.17-0.11,0.27l0.03,5.22
		c0,0.34,0.41,0.51,0.65,0.27l13.47-13.66c0.07-0.07,0.17-0.11,0.27-0.11l4.14,0.01c0.34,0,0.51,0.41,0.27,0.65L23.37,62.01h6.26
		l24.79-25.07C54.66,36.7,54.49,36.29,54.15,36.29z M34.93,30.25h0.01l-0.06-13.38c0-0.34-0.41-0.5-0.65-0.27L0.11,51.08
		c-0.15,0.15-0.15,0.39,0,0.54L10.6,62.01h6.33L9.3,54.46c-0.24-0.24-0.07-0.65,0.27-0.65l6.95-0.03c0.21,0,0.38,0.17,0.38,0.38
		l0.04,7.86h4.45l-0.07-14.25c0-0.1,0.04-0.2,0.11-0.27l11.68-11.83l0.74-0.75l0.98-0.99c0.07-0.07,0.11-0.17,0.11-0.27L34.93,30.25
		z M30.39,32.09L16.97,45.67c-0.07,0.07-0.11,0.17-0.11,0.27l0.01,2.99c0,0.21-0.17,0.38-0.38,0.38l-7.48,0.04
		c-0.34,0-0.51-0.41-0.27-0.65l21.08-21.33c0.24-0.24,0.65-0.07,0.65,0.27l0.02,4.17C30.5,31.92,30.46,32.02,30.39,32.09z"/>
	<path class="logo1" d="M56.66,48.11c-2.35,0.99-4.75,0.2-6.86-0.5c-0.14-0.05-0.28-0.09-0.42-0.14v0c-0.49-0.18-0.63-0.8-0.26-1.17
		l2.41-2.41c0.19-0.19,0.46-0.25,0.71-0.18c1.08,0.33,2.08,0.55,2.7,0.29c0.74-0.31,1.43-1.68,2.09-3c0.69-1.38,1.39-2.8,2.52-3.93
		c1.12-1.13,2.54-1.86,3.91-2.56c1.32-0.67,2.68-1.37,2.98-2.11c0.33-0.82-0.17-2.31-0.66-3.74c-0.48-1.42-0.98-2.89-0.99-4.42
		c-0.01-1.53,0.48-3,0.95-4.43c0.47-1.44,0.97-2.93,0.62-3.75c-0.31-0.75-1.68-1.43-3-2.08c-1.38-0.69-2.8-1.4-3.93-2.52
		c-1.13-1.12-1.86-2.54-2.56-3.91c-0.67-1.32-1.37-2.68-2.11-2.98c-0.82-0.33-2.31,0.17-3.74,0.66c-1.42,0.48-2.89,0.98-4.42,0.99
		c-1.53,0.01-3-0.48-4.43-0.95c-1.44-0.48-2.93-0.97-3.75-0.62c-0.74,0.31-1.43,1.68-2.08,3c-0.69,1.38-1.39,2.8-2.52,3.93
		c-1.12,1.13-2.54,1.86-3.91,2.56c-1.31,0.67-2.68,1.37-2.98,2.11c-0.24,0.59-0.05,1.53,0.26,2.54c0.08,0.25,0.01,0.53-0.18,0.71
		l-2.4,2.4c-0.37,0.37-1,0.23-1.17-0.27l-0.07-0.21c-0.72-2.11-1.53-4.5-0.57-6.86c0.93-2.28,3.14-3.4,5.08-4.4
		c1.06-0.54,2.15-1.1,2.77-1.72c0.62-0.63,1.17-1.72,1.7-2.78c0.97-1.95,2.08-4.17,4.35-5.12c2.35-0.99,4.75-0.2,6.86,0.5
		c1.09,0.36,2.21,0.73,3.01,0.72c0.8,0,1.92-0.38,3-0.75c2.11-0.72,4.5-1.53,6.86-0.57c2.28,0.93,3.41,3.14,4.4,5.08
		c0.54,1.06,1.1,2.15,1.72,2.77c0.63,0.62,1.72,1.17,2.79,1.7c1.95,0.98,4.17,2.08,5.12,4.35c0.99,2.35,0.2,4.75-0.5,6.87
		c-0.36,1.09-0.73,2.21-0.72,3.01c0,0.8,0.38,1.92,0.75,3.01c0.72,2.11,1.53,4.5,0.56,6.86c-0.93,2.28-3.13,3.41-5.08,4.4
		c-1.06,0.54-2.15,1.1-2.77,1.72c-0.62,0.63-1.17,1.72-1.7,2.79C60.04,44.94,58.93,47.15,56.66,48.11z"/>
	<path class="logo1" d="M56.2,13.86c-2.43-2.13-6.11-2.12-8.53,0.02c-2.93,2.59-2.91,7.15,0.02,9.72c2.43,2.13,6.11,2.12,8.53-0.02
		C59.14,21,59.14,16.44,56.2,13.86z M53.46,20.7c-0.88,0.69-2.14,0.69-3.02,0.01c-1.26-0.97-1.3-2.84-0.1-3.86
		c0.92-0.78,2.29-0.79,3.21-0.01C54.75,17.85,54.72,19.72,53.46,20.7z"/>
	<polygon class="logo1" points="32.04,36.84 32.5,36.38 32.04,36.84 	"/>
	<path class="logo1" d="M59.34,28.55l0,3.69c0,0.21-0.17,0.38-0.38,0.38l-19.98,0.05c-0.21,0-0.38-0.17-0.38-0.38l-0.01-3.7
		c0-0.21,0.17-0.38,0.38-0.38l19.98-0.04C59.16,28.17,59.34,28.34,59.34,28.55z"/>
	<path class="logo1" d="M42.6,24.47l-3.63,0c-0.21,0-0.38-0.17-0.38-0.38l0-3.63c0-0.21,0.17-0.38,0.38-0.38l3.63,0
		c0.21,0,0.38,0.17,0.38,0.38l0,3.63C42.98,24.3,42.81,24.47,42.6,24.47z"/>
	<path class="logo1" d="M42.58,16.33l-3.63,0c-0.21,0-0.38-0.17-0.38-0.38l0-3.63c0-0.21,0.17-0.38,0.38-0.38l3.63,0
		c0.21,0,0.38,0.17,0.38,0.38l0,3.63C42.96,16.16,42.79,16.33,42.58,16.33z"/>
</g>
</svg>
