<?xml version="1.0" encoding="utf-8"?>
<!-- Generator: Adobe Illustrator 26.1.0, SVG Export Plug-In . SVG Version: 6.00 Build 0)  -->
<svg version="1.1" id="Layer_1" xmlns="http://www.w3.org/2000/svg" xmlns:xlink="http://www.w3.org/1999/xlink" x="0px" y="0px"
	 viewBox="0 0 499.7 499.61" style="enable-background:new 0 0 499.7 499.61;" xml:space="preserve">
<style type="text/css">
	.st0{fill:#FFFFFF;}
	.st1{fill:#184FD6;}
	.st2{fill:#68686A;}
	.st3{fill:#1D1D1E;}
	.st4{fill:#77777A;}
	.st5{fill:#EFEFEF;}
	.st6{fill:#FFEE1A;}
</style>
<g>
	<path class="fb2" d="M0.02,249.41c0-34.3,0.06-68.6-0.02-102.89c-0.07-28.59,7.13-55.16,22.74-79.11
		C46.48,30.98,79.85,8.79,122.92,1.76c7.19-1.17,14.58-1.61,21.87-1.62C214.72,0.03,284.65,0.32,354.58,0
		c65.34-0.3,125.69,45.75,140.83,112.08c2.53,11.07,3.86,22.65,3.92,34.01c0.35,69.8,0.59,139.6,0.06,209.39
		c-0.52,68.38-48.39,125.16-111.96,139.74c-11.58,2.66-23.71,3.93-35.6,3.99c-69.53,0.35-139.07,0.7-208.59-0.05
		c-45.4-0.49-82.71-19.47-111.4-54.67c-17.68-21.7-28-46.7-30.83-74.64c-0.62-6.09-0.93-12.23-0.95-18.35
		C-0.03,317.47,0.02,283.44,0.02,249.41z M249.44,374.93c69.05,0.01,125.6-56.17,125.65-124.88
		c0.05-68.43-54.74-125.88-125.53-125.79c-69.97,0.09-125.16,56.45-125.18,125.26C124.35,319.88,181.52,374.77,249.44,374.93z
		 M374.58,103.74c0,11.72,9.4,21.23,20.99,21.25c11.38,0.02,21.15-9.8,21.16-21.26c0-11.49-9.66-21.17-21.17-21.2
		C383.94,82.51,374.58,91.97,374.58,103.74z M250.13,166.64c42.65-0.25,82.77,33.78,82.6,83.16c-0.16,47.74-37.87,83.09-83.42,82.83
		c-49.45-0.28-83.41-41.18-82.64-84.45C167.48,203.03,204.41,166.44,250.13,166.64z"/>	
</g>
</svg>
