<?xml version="1.0" encoding="utf-8"?>
<!-- Generator: Adobe Illustrator 26.3.1, SVG Export Plug-In . SVG Version: 6.00 Build 0)  -->
<svg version="1.1" id="Layer_1" xmlns="http://www.w3.org/2000/svg" xmlns:xlink="http://www.w3.org/1999/xlink" x="0px" y="0px"
	 viewBox="0 0 572 197.97" style="enable-background:new 0 0 572 197.97;" xml:space="preserve">
<style type="text/css">
	.land1{fill:#184FD6;}
	.land2{fill:#1D1D1E;}
</style>
<g>
	<path class="land1" d="M30.58,159.51c-0.8-2.03-1.88-3.73-3.25-5.12c-1.36-1.38-2.92-2.44-4.7-3.17c-1.77-0.74-3.65-1.11-5.64-1.11
		c-2.33,0-4.5,0.52-6.48,1.52c-1.99,1.03-3.55,2.5-4.68,4.45H5.06v-5.06H0v46.95h5.06v-19.71h0.78c0.56,1,1.25,1.85,2.07,2.56
		c0.83,0.72,1.72,1.32,2.7,1.81s2,0.86,3.08,1.1s2.14,0.35,3.17,0.35c2.03,0,3.96-0.35,5.78-1.07c1.81-0.72,3.4-1.76,4.77-3.14
		c1.36-1.38,2.43-3.09,3.2-5.12c0.78-2.03,1.17-4.37,1.17-7v-1.31C31.78,163.85,31.38,161.54,30.58,159.51z M26.6,167.75
		c0,1.77-0.28,3.37-0.82,4.79c-0.54,1.43-1.3,2.64-2.27,3.63c-0.96,1.01-2.1,1.76-3.4,2.31c-1.3,0.54-2.73,0.81-4.28,0.81
		c-1.51,0-2.91-0.28-4.21-0.85c-1.3-0.56-2.44-1.36-3.4-2.4c-0.97-1.04-1.74-2.28-2.3-3.73c-0.57-1.44-0.85-3.05-0.85-4.83v-0.78
		c0-1.72,0.28-3.31,0.85-4.76c0.56-1.45,1.33-2.7,2.3-3.73c0.96-1.04,2.11-1.85,3.4-2.43c1.3-0.59,2.7-0.88,4.21-0.88
		c1.51,0,2.93,0.28,4.25,0.85c1.32,0.56,2.47,1.35,3.43,2.36c0.97,1.02,1.73,2.23,2.27,3.63c0.54,1.41,0.82,2.98,0.82,4.7V167.75z"
		/>
	<polygon class="land1" points="38.98,178.51 50.26,178.51 50.26,155.68 40.14,155.68 40.14,151.01 55.32,151.01 55.32,178.51 
		65.82,178.51 65.82,183.18 38.98,183.18 	"/>
	<path class="land1" d="M93.22,155.68v-4.67H80.77v-13.23h-5.06v13.23H65.59v4.67h10.12v22.44c0,1.47,0.46,2.69,1.39,3.63
		c0.93,0.95,2.13,1.43,3.6,1.43h10.96v-4.67h-9.15c-1.16,0-1.74-0.65-1.74-1.95v-20.88H93.22z"/>
	<path class="land1" d="M131.48,178.51c-1.17,0-1.75-0.65-1.75-1.95v-25.55h-5.06v5.06h-0.78c-1.04-2.03-2.45-3.54-4.24-4.51
		s-3.8-1.46-6-1.46c-2.03,0-3.95,0.37-5.77,1.11c-1.81,0.74-3.41,1.8-4.77,3.2c-1.36,1.41-2.44,3.13-3.21,5.16
		c-0.78,2.03-1.16,4.37-1.16,7v1.04c0,2.69,0.38,5.04,1.16,7.07c0.78,2.03,1.86,3.74,3.21,5.15c1.36,1.4,2.96,2.46,4.77,3.17
		c1.81,0.72,3.77,1.07,5.9,1.07c2.03,0,3.96-0.52,5.8-1.56c1.85-1.04,3.28-2.63,4.31-4.79h0.78v0.38c0,1.47,0.47,2.69,1.4,3.63
		c0.92,0.95,2.13,1.43,3.6,1.43h3.43v-4.67H131.48z M124.67,167.48c0,1.78-0.26,3.39-0.78,4.83c-0.52,1.45-1.23,2.7-2.14,3.73
		c-0.91,1.04-2,1.84-3.28,2.4c-1.28,0.57-2.67,0.85-4.18,0.85c-3.07,0-5.57-1.03-7.5-3.08c-1.92-2.05-2.88-4.93-2.88-8.6v-1.04
		c0-1.73,0.26-3.32,0.78-4.77c0.52-1.44,1.24-2.68,2.18-3.69c0.92-1.02,2.02-1.8,3.28-2.36c1.24-0.57,2.63-0.85,4.15-0.85
		c1.46,0,2.84,0.29,4.12,0.88c1.28,0.58,2.37,1.39,3.31,2.43c0.92,1.04,1.65,2.28,2.17,3.73c0.52,1.45,0.78,3.04,0.78,4.76V167.48z"
		/>
	<g>
		<path class="land1" d="M204.03,159.47c-0.8-2.03-1.88-3.74-3.25-5.12c-1.36-1.39-2.92-2.45-4.7-3.18s-3.65-1.1-5.64-1.1
			c-2.33,0-4.5,0.51-6.48,1.52c-1.99,1.02-3.55,2.5-4.68,4.44h-0.78v-19.11h-5.06v46.21h5.06v-4.93h0.78c0.56,1,1.25,1.85,2.07,2.56
			c0.83,0.72,1.72,1.32,2.7,1.81c0.97,0.5,2,0.87,3.08,1.1c1.08,0.24,2.14,0.36,3.17,0.36c2.03,0,3.96-0.36,5.78-1.07
			c1.81-0.72,3.4-1.76,4.77-3.15c1.36-1.38,2.43-3.09,3.2-5.12c0.78-2.03,1.17-4.37,1.17-7v-1.3
			C205.23,163.81,204.83,161.5,204.03,159.47z M200.05,167.7c0,1.77-0.28,3.37-0.82,4.8c-0.54,1.42-1.3,2.63-2.27,3.63
			c-0.96,1-2.1,1.76-3.4,2.3c-1.3,0.54-2.73,0.81-4.28,0.81c-1.51,0-2.91-0.28-4.21-0.84c-1.3-0.56-2.44-1.36-3.4-2.41
			c-0.97-1.04-1.74-2.27-2.3-3.72c-0.57-1.45-0.85-3.06-0.85-4.83v-0.78c0-1.73,0.28-3.32,0.85-4.77c0.56-1.44,1.33-2.69,2.3-3.72
			c0.96-1.04,2.11-1.86,3.4-2.44c1.3-0.58,2.7-0.87,4.21-0.87c1.51,0,2.93,0.28,4.25,0.84c1.32,0.56,2.47,1.35,3.43,2.36
			c0.97,1.02,1.73,2.23,2.27,3.63c0.54,1.41,0.82,2.98,0.82,4.71V167.7z"/>
		<path class="land1" d="M243,178.46c-1.17,0-1.75-0.64-1.75-1.95v-25.55h-5.06v5.06h-0.78c-1.04-2.03-2.46-3.54-4.25-4.5
			c-1.79-0.97-3.79-1.46-5.99-1.46c-2.03,0-3.96,0.36-5.78,1.1c-1.81,0.74-3.4,1.8-4.76,3.21c-1.37,1.4-2.44,3.12-3.21,5.15
			c-0.78,2.03-1.17,4.37-1.17,7v1.04c0,2.69,0.39,5.04,1.17,7.07c0.78,2.03,1.85,3.75,3.21,5.15c1.36,1.41,2.94,2.47,4.76,3.18
			c1.81,0.71,3.79,1.07,5.9,1.07c2.03,0,3.97-0.52,5.81-1.56c1.84-1.04,3.28-2.63,4.31-4.8h0.78v0.39c0,1.46,0.47,2.68,1.39,3.63
			c0.93,0.95,2.14,1.42,3.6,1.42h3.44v-4.67H243z M236.18,167.44c0,1.77-0.26,3.38-0.78,4.83c-0.52,1.45-1.23,2.69-2.14,3.72
			c-0.91,1.05-2,1.85-3.28,2.41c-1.28,0.56-2.68,0.84-4.19,0.84c-3.07,0-5.56-1.03-7.49-3.08c-1.93-2.05-2.88-4.91-2.88-8.6v-1.04
			c0-1.72,0.26-3.32,0.78-4.76c0.52-1.45,1.24-2.69,2.17-3.7c0.93-1.02,2.02-1.8,3.28-2.36c1.25-0.56,2.63-0.84,4.15-0.84
			c1.47,0,2.84,0.29,4.12,0.87c1.28,0.58,2.39,1.4,3.31,2.44c0.93,1.04,1.66,2.28,2.18,3.72c0.52,1.45,0.78,3.04,0.78,4.77V167.44z"
			/>
		<path class="land1" d="M279.48,153.24c-1.99-2.12-4.6-3.17-7.85-3.17c-1.95,0-3.68,0.43-5.18,1.26c-1.51,0.84-2.69,2.15-3.5,3.92
			h-0.78v-4.28h-11.68v4.68h6.62v22.82h-7.39v4.67h20.62v-4.67h-8.17v-13.61c0-1.39,0.15-2.69,0.46-3.89
			c0.3-1.21,0.78-2.27,1.42-3.18c0.65-0.9,1.46-1.62,2.44-2.14c0.97-0.52,2.13-0.78,3.46-0.78c2.07,0,3.83,0.65,5.26,1.97
			c1.42,1.33,2.14,3.47,2.14,6.46l5.32-0.78C282.53,158.45,281.46,155.36,279.48,153.24z"/>
	</g>
	<rect x="48.66" y="137.79" class="land1" width="7.49" height="7.49"/>
	<rect x="222.11" y="136.92" class="land1" width="7.49" height="7.49"/>
</g>
<g>
	<path class="land2" d="M186.62,97.87h-2.37c-3.04,0-4.56-1.69-4.56-5.06V35.26c0-0.46-0.37-0.84-0.84-0.84h-19.59
		c-0.46,0-0.84,0.38-0.84,0.84v8.45c0,0.46-0.37,0.84-0.84,0.84h-1.69c-0.31,0-0.6-0.18-0.74-0.45c-2.11-4.04-4.93-7.04-8.46-9
		c-3.66-2.02-8.47-3.04-14.43-3.04c-4.95,0-9.59,0.99-13.92,2.95c-4.33,1.97-8.13,4.81-11.39,8.52c-3.26,3.71-5.85,8.21-7.76,13.5
		c-1.91,5.29-2.87,11.25-2.87,17.89v2.7c0,6.75,0.98,12.77,2.95,18.05c1.97,5.29,4.64,9.79,8.01,13.5
		c3.37,3.71,7.28,6.53,11.73,8.44c4.44,1.91,9.2,2.87,14.26,2.87c5.4,0,10.12-1.1,14.17-3.29c3.92-2.12,7-5.69,9.23-10.72
		c0.13-0.3,0.43-0.5,0.76-0.5h1.68c0.44,0,0.81,0.34,0.83,0.78c0.16,3.24,1.37,5.91,3.61,7.99c2.42,2.25,5.54,3.37,9.36,3.37h13.67
		c0.46,0,0.84-0.38,0.84-0.84V98.7C187.46,98.24,187.09,97.87,186.62,97.87z M158.44,77.28c0,7.09-1.86,12.68-5.57,16.79
		c-3.71,4.11-8.66,6.16-14.85,6.16c-6.19,0-11.14-2.05-14.85-6.16c-3.71-4.1-5.57-9.7-5.57-16.79v-2.03
		c0-7.09,1.86-12.68,5.57-16.79c3.71-4.1,8.66-6.16,14.85-6.16c6.19,0,11.14,2.05,14.85,6.16c3.71,4.11,5.57,9.7,5.57,16.79V77.28z"
		/>
	<path class="land2" d="M219.77,66.4c1.18-2.98,2.78-5.51,4.81-7.59c2.02-2.08,4.39-3.68,7.09-4.81c2.7-1.12,5.57-1.69,8.61-1.69
		c6.52,0,11.58,1.8,15.19,5.4c3.38,3.38,5.47,7.35,6.27,11.91c0.09,0.49,0.56,0.81,1.04,0.68l19.26-4.97
		c0.43-0.11,0.71-0.55,0.61-0.98c-2-9.54-6.53-17.26-13.59-23.18c-7.26-6.07-16.73-9.11-28.43-9.11c-6.07,0-11.79,1.01-17.13,3.04
		c-5.34,2.02-10.01,4.95-14.01,8.77c-3.99,3.83-7.12,8.44-9.36,13.84c-2.25,5.4-3.37,11.47-3.37,18.22v2.02
		c0,6.75,1.12,12.77,3.37,18.05c2.25,5.29,5.34,9.73,9.28,13.33c3.94,3.6,8.58,6.36,13.92,8.27c5.34,1.91,11.11,2.87,17.3,2.87
		c11.92,0,21.46-3.04,28.6-9.11c6.95-5.91,11.43-13.64,13.42-23.17c0.09-0.44-0.18-0.87-0.62-0.98l-19.29-4.82
		c-0.46-0.12-0.92,0.18-1.02,0.65c-1.08,5.11-3.25,9.21-6.49,12.3c-3.43,3.26-8.41,4.89-14.93,4.89c-3.04,0-5.91-0.48-8.61-1.43
		c-2.7-0.95-5.06-2.39-7.09-4.3c-2.02-1.91-3.63-4.3-4.81-7.17c-1.18-2.87-1.77-6.16-1.77-9.87v-1.01
		C218,72.73,218.59,69.38,219.77,66.4z"/>
	<path class="land2" d="M366.33,97.87H343.7c-0.46,0-0.84-0.37-0.84-0.84V35.26c0-0.46-0.37-0.84-0.84-0.84h-45.91
		c-0.46,0-0.84,0.38-0.84,0.84v18.57c0,0.46,0.37,0.84,0.84,0.84h24.65c0.46,0,0.84,0.37,0.84,0.84v41.52
		c0,0.46-0.37,0.84-0.84,0.84H294.1c-0.46,0-0.84,0.38-0.84,0.84v18.57c0,0.46,0.38,0.84,0.84,0.84h72.23
		c0.46,0,0.84-0.38,0.84-0.84V98.7C367.16,98.24,366.79,97.87,366.33,97.87z"/>
	<path class="land2" d="M424.53,77c-0.11-0.14-0.16-0.32-0.16-0.5V74c0-0.17,0.05-0.34,0.15-0.48l26.75-37.95
		c0.06-0.09,0.1-0.2,0.1-0.31v-0.01c0-0.46-0.37-0.84-0.84-0.84h-22.02c-0.27,0-0.52,0.13-0.68,0.35l-21.77,30.02
		c-0.16,0.22-0.41,0.35-0.68,0.35h-2.78c-0.46,0-0.84-0.37-0.84-0.84V0.84c0-0.46-0.37-0.84-0.84-0.84h-19.59
		c-0.46,0-0.84,0.37-0.84,0.84v116.44c0,0.46,0.37,0.84,0.84,0.84h19.59c0.46,0,0.84-0.38,0.84-0.84V86.22
		c0-0.46,0.37-0.84,0.84-0.84h2.79c0.27,0,0.52,0.13,0.68,0.34l23.46,32.05c0.16,0.22,0.41,0.34,0.68,0.34h23.04
		c0.46,0,0.84-0.38,0.84-0.84c0-0.11-0.04-0.22-0.1-0.32L424.53,77z"/>
	<path class="land2" d="M537.59,97.87h-22.62c-0.46,0-0.84-0.37-0.84-0.84V35.26c0-0.46-0.38-0.84-0.84-0.84h-45.91
		c-0.46,0-0.84,0.38-0.84,0.84v18.57c0,0.46,0.37,0.84,0.84,0.84h24.65c0.46,0,0.84,0.37,0.84,0.84v41.52
		c0,0.46-0.38,0.84-0.84,0.84h-26.67c-0.46,0-0.84,0.38-0.84,0.84v18.57c0,0.46,0.37,0.84,0.84,0.84h72.23
		c0.46,0,0.84-0.38,0.84-0.84V98.7C538.43,98.24,538.06,97.87,537.59,97.87z"/>
	<path class="land2" d="M492.51,22.46h20.78c0.46,0,0.84-0.37,0.84-0.84V0.84c0-0.46-0.38-0.84-0.84-0.84h-20.78
		c-0.46,0-0.84,0.37-0.84,0.84v20.78C491.68,22.08,492.05,22.46,492.51,22.46z"/>
	<path class="land1" d="M571.16,97.89h-18.47c-0.46,0-0.84,0.37-0.84,0.84v18.47c0,0.46,0.37,0.84,0.84,0.84h18.47
		c0.46,0,0.84-0.37,0.84-0.84V98.73C572,98.27,571.63,97.89,571.16,97.89z"/>
	<path class="land2" d="M320.71,22.46h20.78c0.46,0,0.84-0.37,0.84-0.84V0.84c0-0.46-0.37-0.84-0.84-0.84h-20.78
		c-0.46,0-0.84,0.37-0.84,0.84v20.78C319.87,22.08,320.25,22.46,320.71,22.46z"/>
	<path class="land2" d="M21.59,71.77c0.23-1.49,0.57-2.9,1.02-4.24c0.13-0.38,0.27-0.76,0.41-1.13c0.3-0.75,0.62-1.46,0.97-2.15
		c1.04-2.07,2.33-3.88,3.84-5.44l0.01-0.01c0.51-0.52,1.03-1.01,1.58-1.47c0.82-0.69,1.69-1.31,2.61-1.87
		c0.61-0.37,1.24-0.72,1.89-1.02c0.33-0.15,0.66-0.3,1-0.44c0.51-0.21,1.02-0.4,1.54-0.57c1.38-0.46,2.81-0.78,4.27-0.95
		c0.91-0.11,1.84-0.17,2.79-0.17c6.53,0,11.59,1.8,15.19,5.4h0.01c0.84,0.85,1.61,1.72,2.29,2.64c0.85,1.15,1.58,2.36,2.18,3.62
		c0.36,0.76,0.68,1.54,0.95,2.34c0.18,0.54,0.35,1.08,0.48,1.63c0.14,0.55,0.27,1.12,0.36,1.68c0.02,0.15,0.09,0.29,0.19,0.41
		c0.2,0.23,0.52,0.36,0.84,0.27l19.26-4.97c0.05-0.01,0.09-0.02,0.14-0.04c0.21-0.09,0.37-0.27,0.44-0.49
		c0.01-0.03,0.02-0.07,0.03-0.1c0.02-0.11,0.02-0.23,0-0.35c-2-9.54-6.53-17.26-13.59-23.17c-0.23-0.19-0.46-0.38-0.69-0.56
		c-0.69-0.55-1.4-1.07-2.13-1.57c-0.54-0.36-1.08-0.72-1.63-1.05c-0.35-0.21-0.7-0.41-1.05-0.62c-2.45-1.37-5.1-2.47-7.94-3.32
		c-1.18-0.35-2.4-0.65-3.65-0.91c-0.39-0.08-0.8-0.15-1.2-0.23c-0.59-0.1-1.18-0.2-1.78-0.29c-0.99-0.14-2-0.26-3.03-0.35
		c-1.34-0.12-2.73-0.19-4.13-0.22c-0.04,0.01-0.07,0.01-0.1,0c-0.33,0-0.66-0.01-0.99-0.01h-0.1c-6.08,0-11.78,1.01-17.12,3.03
		c-5.35,2.02-10.02,4.95-14.01,8.78c-4,3.82-7.12,8.43-9.36,13.84C1.12,63.11,0,69.18,0,75.93v2.02c0,1.68,0.07,3.33,0.21,4.93
		c0.07,0.8,0.16,1.59,0.27,2.36c0.15,1.17,0.35,2.31,0.59,3.42c0.16,0.74,0.33,1.47,0.52,2.18c0.2,0.72,0.41,1.42,0.64,2.12
		c0.34,1.04,0.72,2.06,1.15,3.05c0.28,0.66,0.57,1.31,0.88,1.94c2.15,4.45,4.95,8.24,8.39,11.39c0.25,0.22,0.49,0.44,0.75,0.67
		c0.51,0.44,1.02,0.86,1.54,1.27c0.52,0.41,1.06,0.81,1.61,1.19c1.91,1.34,3.96,2.52,6.14,3.55c1.25,0.58,2.54,1.11,3.88,1.59
		c5.34,1.91,11.11,2.87,17.3,2.87c8.94,0,16.54-1.71,22.8-5.13c0.52-0.28,1.03-0.58,1.54-0.89c0.5-0.31,0.99-0.63,1.48-0.96
		c0.96-0.67,1.89-1.38,2.79-2.14c0.65-0.56,1.28-1.12,1.89-1.71c5.88-5.66,9.72-12.82,11.53-21.46c0.08-0.39-0.13-0.78-0.48-0.94
		c-0.04-0.02-0.09-0.03-0.14-0.04l-19.29-4.82c-0.46-0.12-0.93,0.18-1.02,0.65c-1.08,5.11-3.24,9.21-6.49,12.3
		c-3.43,3.26-8.41,4.89-14.93,4.89c-3.03,0-5.9-0.47-8.6-1.43c-2.7-0.96-5.06-2.39-7.09-4.31c-0.51-0.48-0.99-0.99-1.44-1.52
		c-0.91-1.07-1.71-2.27-2.41-3.58c-0.35-0.65-0.67-1.34-0.97-2.06c-0.13-0.31-0.25-0.63-0.36-0.95c-0.49-1.37-0.85-2.83-1.09-4.39
		c-0.22-1.43-0.33-2.95-0.33-4.54v-1.01C21.26,74.81,21.37,73.26,21.59,71.77z"/>
</g>
</svg>
