<?xml version="1.0" encoding="UTF-8"?><svg id="Layer_1" xmlns="http://www.w3.org/2000/svg" viewBox="0 0 96.4 96.36">
    <defs>
        <style>
            .cls-1 {
                fill: #5e5e5e;
            }
        </style>
    </defs>
    <path class="cls-1"
        d="M48.11,96.35c-9.2,0-18.39-.02-27.59,0-5.35,.01-10-1.77-13.92-5.37-3.78-3.47-5.95-7.79-6.47-12.91-.09-.86-.13-1.72-.13-2.59C0,57.18,0,38.88,0,20.58,0,10.74,6.68,2.46,16.31,.44c1.26-.26,2.57-.41,3.86-.41,18.68-.03,37.36-.06,56.05,0,9.72,.03,17.78,6.99,19.69,16.08,.32,1.51,.47,3.08,.47,4.63,.03,18.33,.02,36.66,.02,55,0,9.7-6.33,17.78-15.73,20.1-1.52,.37-3.06,.51-4.62,.51-9.31,0-18.62,0-27.94,0ZM78.5,28.34c4.69-4.54,3.64-10.85,.5-13.99-1.75-1.74-3.84-2.77-6.28-2.92-3.71-.22-6.62,1.36-8.77,4.28-10.56-4.72-21.01-4.69-31.45-.02-4.38-5.87-11.37-4.93-14.79-1.65-3.63,3.47-4.41,9.86,.21,14.29-5.13,7.87-7.11,16.48-5.7,25.78,1.41,9.32,5.88,16.96,13.2,22.88,13.14,10.63,32.06,10.71,45.28,.23,6.67-5.29,11.08-12.08,12.97-20.38,2.32-10.2,.49-19.72-5.16-28.5Z M62.17,30.88c7.74,.04,12.53,6.23,13.29,11.53,.62,4.33-.63,8.09-3.78,11.16-.96,.93-2.06,1.67-3.39,1.98-1.51,.35-3.19-.26-4-1.57-.4-.65-.76-1.38-.94-2.12-.58-2.37-1.72-4.46-3.15-6.39-1.18-1.59-2.45-3.13-3.71-4.66-.77-.93-1.42-1.89-1.55-3.12-.05-.45-.05-.92,.02-1.37,.41-2.62,2.33-4.65,4.91-5.17,.76-.15,1.54-.19,2.31-.28Zm-.22,9.96c1.1,.02,2-.84,2.01-1.92,.01-1.09-.85-1.96-1.96-1.96-1.09,0-1.92,.79-1.95,1.87-.04,1.11,.8,2,1.9,2.02Z M34.1,30.88c.77,.09,1.55,.13,2.31,.29,2.62,.54,4.69,2.88,4.9,5.47,.13,1.64-.52,2.95-1.55,4.16-1.12,1.32-2.21,2.65-3.27,4.02-.63,.82-1.19,1.7-1.74,2.58-.8,1.28-1.39,2.64-1.78,4.1-.18,.66-.43,1.31-.71,1.94-.95,2.12-3.37,2.57-4.96,1.93-1.26-.51-2.31-1.29-3.23-2.26-4.23-4.44-4.63-11.26-.98-16.37,2.33-3.27,5.44-5.24,9.45-5.73,.51-.06,1.03-.06,1.55-.09,0-.02,0-.03,0-.05Zm.7,9.96c1.08,0,1.99-.9,1.98-1.97-.02-1.05-.87-1.9-1.93-1.92-1.12-.02-2,.82-2.02,1.91-.02,1.08,.88,1.97,1.97,1.98Z M39.26,57.98h17.69c.01,.97-.19,1.82-.56,2.63-1.08,2.38-2.95,3.88-5.43,4.57-3.66,1.02-6.95,.31-9.69-2.43-1.06-1.07-1.7-2.38-1.93-3.88-.04-.28-.05-.56-.08-.9Z M29.72,17.21c-3.83,2.3-7.12,5.15-9.9,8.57-1.51-.81-2.45-3.72-2.14-5.61,.5-2.99,2.51-5.11,5.49-5.7,2.81-.56,5.57,.99,6.55,2.75Z M76.63,25.86c-2.84-3.47-6.13-6.36-9.94-8.62,.82-1.76,3.33-2.97,5.82-2.86,2.54,.12,4.89,1.9,5.82,4.35,1.04,2.76,0,5.7-1.69,7.14Z M48.27,49.27c1.29,.17,2.72,.34,4.14,.57,.47,.08,.94,.28,1.36,.51,.54,.29,.68,.65,.47,1.23-.16,.42-.37,.86-.68,1.18-1.37,1.45-3.13,2.23-5.02,2.71-.35,.09-.76,.06-1.11-.04-1.56-.45-3.03-1.11-4.29-2.16-.52-.43-.96-.92-1.17-1.57-.22-.67-.12-1.07,.51-1.37,.59-.28,1.23-.52,1.87-.62,1.25-.2,2.52-.29,3.92-.44Z" />
</svg>