<?xml version="1.0" encoding="utf-8"?>
<!-- Generator: Adobe Illustrator 26.5.0, SVG Export Plug-In . SVG Version: 6.00 Build 0)  -->
<svg version="1.1" id="Layer_1" xmlns="http://www.w3.org/2000/svg" xmlns:xlink="http://www.w3.org/1999/xlink" x="0px" y="0px"
	 viewBox="0 0 140.4 41.1" style="enable-background:new 0 0 140.4 41.1;" xml:space="preserve">
<style type="text/css">
	.st0{fill:#1D1D1E;}
	.st1{fill:#184FD6;}
	.pst2{font-size: 12px; color:black; font-weight: bold;}
</style>
<g>
	<rect y="0" class="st1" width="10.5" height="41.1"/>
	<path d="M24.1,9c-0.4,0-0.8-0.1-1.2-0.2S22.2,8.5,22,8.3s-0.5-0.5-0.6-0.7S21.2,7,21.2,6.6V6.5c0-0.3,0-0.6,0.1-0.8
		c0.1-0.2,0.2-0.4,0.4-0.6c0.1-0.2,0.3-0.3,0.5-0.4s0.4-0.2,0.6-0.3V4.3c-0.2-0.1-0.4-0.1-0.5-0.3S22,3.8,21.8,3.6
		c-0.1-0.2-0.2-0.3-0.3-0.5c-0.1-0.2-0.1-0.4-0.1-0.7V2.2c0-0.3,0.1-0.6,0.2-0.9c0.1-0.3,0.3-0.5,0.6-0.7s0.5-0.4,0.9-0.5
		S23.8,0,24.2,0h0.1c0.4,0,0.8,0.1,1.1,0.2s0.6,0.3,0.9,0.5c0.2,0.2,0.4,0.4,0.6,0.7C26.9,1.6,27,1.9,27,2.2v0.1
		c0,0.2,0,0.5-0.1,0.7s-0.2,0.4-0.3,0.5c-0.1,0.2-0.3,0.3-0.4,0.4c-0.2,0.1-0.3,0.2-0.5,0.3v0.1c0.2,0.1,0.4,0.1,0.6,0.3
		c0.2,0.1,0.4,0.3,0.5,0.4s0.3,0.4,0.4,0.6s0.1,0.5,0.1,0.8v0.1c0,0.3-0.1,0.6-0.2,0.9c-0.1,0.3-0.3,0.5-0.6,0.7s-0.6,0.4-0.9,0.5
		C25.2,8.9,24.8,9,24.3,9H24.1z M24.3,8c0.6,0,1-0.1,1.4-0.4s0.5-0.7,0.5-1.1V6.4c0-0.5-0.2-0.9-0.5-1.2s-0.8-0.4-1.4-0.4h-0.1
		c-0.6,0-1,0.1-1.4,0.4c-0.4,0.3-0.5,0.7-0.5,1.2v0.1c0,0.5,0.2,0.8,0.5,1.1S23.5,8,24.1,8H24.3z M24.2,3.9c0.5,0,0.9-0.1,1.3-0.4
		s0.5-0.6,0.5-1V2.4c0-0.4-0.2-0.8-0.5-1C25.1,1.1,24.7,1,24.2,1c-0.5,0-1,0.1-1.3,0.4c-0.3,0.3-0.5,0.6-0.5,1v0.1
		c0,0.4,0.2,0.8,0.5,1C23.3,3.7,23.7,3.9,24.2,3.9z"/>
	<path d="M28.7,3.5c0-1.1,0.3-2,0.8-2.6C30,0.3,30.8,0,31.7,0c1,0,1.7,0.3,2.2,0.9c0.5,0.6,0.8,1.5,0.8,2.6v1.9c0,1.1-0.3,2-0.8,2.6
		S32.7,9,31.7,9S30,8.7,29.5,8.1c-0.5-0.6-0.8-1.5-0.8-2.6V3.5z M31.7,8c0.7,0,1.2-0.2,1.5-0.7c0.3-0.5,0.5-1.1,0.5-2V3.6
		c0-0.4,0-0.8-0.1-1.1c-0.1-0.3-0.2-0.6-0.4-0.8c-0.2-0.2-0.4-0.4-0.6-0.6s-0.5-0.2-0.9-0.2c-0.3,0-0.6,0.1-0.9,0.2
		c-0.2,0.1-0.5,0.3-0.6,0.6c-0.2,0.2-0.3,0.5-0.4,0.8c-0.1,0.3-0.1,0.7-0.1,1.1v1.8c0,0.9,0.2,1.5,0.5,2C30.6,7.8,31.1,8,31.7,8z
		 M30.9,4.5c0-0.2,0.1-0.4,0.2-0.5c0.2-0.2,0.3-0.2,0.5-0.2s0.4,0.1,0.6,0.2s0.2,0.3,0.2,0.5s-0.1,0.4-0.2,0.5
		c-0.2,0.2-0.3,0.2-0.5,0.2s-0.4-0.1-0.5-0.2C31,4.9,30.9,4.7,30.9,4.5z"/>
	<path d="M36.2,3.5c0-1.1,0.3-2,0.8-2.6C37.6,0.3,38.3,0,39.3,0s1.7,0.3,2.2,0.9c0.5,0.6,0.8,1.5,0.8,2.6v1.9c0,1.1-0.3,2-0.8,2.6
		S40.2,9,39.3,9S37.6,8.7,37,8.1s-0.8-1.5-0.8-2.6V3.5z M39.3,8c0.7,0,1.2-0.2,1.5-0.7c0.3-0.5,0.5-1.1,0.5-2V3.6
		c0-0.4,0-0.8-0.1-1.1c-0.1-0.3-0.2-0.6-0.4-0.8c-0.2-0.2-0.4-0.4-0.6-0.6s-0.5-0.2-0.9-0.2c-0.3,0-0.6,0.1-0.9,0.2
		c-0.2,0.1-0.5,0.3-0.6,0.6c-0.2,0.2-0.3,0.5-0.4,0.8c-0.1,0.3-0.1,0.7-0.1,1.1v1.8c0,0.9,0.2,1.5,0.5,2C38.1,7.8,38.6,8,39.3,8z
		 M38.5,4.5c0-0.2,0.1-0.4,0.2-0.5s0.3-0.2,0.5-0.2s0.4,0.1,0.5,0.2S40,4.3,40,4.5S40,4.9,39.8,5.1c-0.2,0.2-0.3,0.2-0.5,0.2
		s-0.4-0.1-0.5-0.2C38.5,4.9,38.5,4.7,38.5,4.5z"/>
	<path d="M43.8,3.5c0-1.1,0.3-2,0.8-2.6C45.1,0.3,45.8,0,46.8,0s1.7,0.3,2.2,0.9c0.5,0.6,0.8,1.5,0.8,2.6v1.9c0,1.1-0.3,2-0.8,2.6
		S47.8,9,46.8,9s-1.7-0.3-2.2-0.9s-0.8-1.5-0.8-2.6V3.5z M46.8,8c0.7,0,1.2-0.2,1.5-0.7c0.3-0.5,0.5-1.1,0.5-2V3.6
		c0-0.4,0-0.8-0.1-1.1c-0.1-0.3-0.2-0.6-0.4-0.8c-0.2-0.2-0.4-0.4-0.6-0.6s-0.5-0.2-0.9-0.2c-0.3,0-0.6,0.1-0.9,0.2
		c-0.2,0.1-0.5,0.3-0.6,0.6c-0.2,0.2-0.3,0.5-0.4,0.8c-0.1,0.3-0.1,0.7-0.1,1.1v1.8c0,0.9,0.2,1.5,0.5,2C45.6,7.8,46.1,8,46.8,8z
		 M46,4.5c0-0.2,0.1-0.4,0.2-0.5c0.2-0.2,0.3-0.2,0.5-0.2s0.4,0.1,0.5,0.2c0.2,0.2,0.2,0.3,0.2,0.5s-0.1,0.4-0.2,0.5
		c-0.2,0.2-0.3,0.2-0.5,0.2s-0.4-0.1-0.5-0.2S46,4.7,46,4.5z"/>
	<path d="M63.9,2.7c0-0.3-0.1-0.5-0.2-0.7c-0.1-0.2-0.3-0.4-0.5-0.5c-0.2-0.1-0.4-0.2-0.7-0.3C62.4,1,62.1,1,61.9,1
		c-0.2,0-0.5,0-0.7,0.1c-0.2,0.1-0.4,0.1-0.6,0.3c-0.2,0.1-0.3,0.3-0.4,0.4C60.1,1.9,60,2.1,60,2.3v0.1c0,0.2,0,0.4,0.2,0.6
		c0.1,0.2,0.2,0.3,0.4,0.4c0.2,0.1,0.4,0.2,0.7,0.3s0.6,0.1,1,0.2c0.9,0.1,1.6,0.4,2,0.8C64.8,5.1,65,5.6,65,6.3v0.1
		c0,0.4-0.1,0.7-0.2,1c-0.1,0.3-0.3,0.6-0.6,0.8s-0.6,0.4-0.9,0.5C62.9,8.9,62.5,9,62,9c-0.5,0-1-0.1-1.5-0.2s-0.8-0.4-1.1-0.7
		c-0.3-0.3-0.5-0.6-0.7-1s-0.2-0.8-0.2-1.2V5.4h1v0.3c0,0.8,0.2,1.3,0.6,1.7C60.7,7.8,61.3,8,62,8c0.6,0,1.1-0.1,1.5-0.4
		C63.8,7.3,64,6.9,64,6.5V6.4c0-0.5-0.2-0.8-0.5-1c-0.3-0.2-0.9-0.4-1.6-0.5c-0.4-0.1-0.8-0.1-1.2-0.3c-0.3-0.1-0.7-0.3-0.9-0.5
		c-0.2-0.2-0.4-0.4-0.6-0.7c-0.1-0.3-0.2-0.6-0.2-1V2.3c0-0.3,0.1-0.6,0.2-0.9c0.1-0.3,0.3-0.5,0.6-0.7c0.2-0.2,0.5-0.4,0.9-0.5
		C61,0.1,61.4,0,61.8,0c0.5,0,0.9,0.1,1.3,0.2s0.7,0.3,1,0.6c0.3,0.2,0.5,0.5,0.6,0.8c0.1,0.3,0.2,0.6,0.2,1v0.5h-1V2.7z"/>
	<path d="M72.1,7.9v0.9h-5.3V7.3l4.4-3.5V3.6h-4.3V2.7h5.1v1.5l-4.4,3.6v0.1H72.1z"/>
	<path d="M74.2,2.7h1.9V1.2c0-0.3,0.1-0.5,0.3-0.7c0.2-0.2,0.4-0.3,0.7-0.3h2.4v0.9h-2.1c-0.2,0-0.3,0.1-0.3,0.4v1.3h2.6v0.9H77v5.2
		h-1V3.6h-1.9L74.2,2.7L74.2,2.7z"/>
	<path d="M85.4,8.8h-1.9l-2.1-6.1h1.1l1.9,5.7h0.2l1.9-5.7h1.1L85.4,8.8z"/>
	<path d="M93.8,7.8h-0.2c-0.2,0.4-0.5,0.7-0.8,0.9S92.1,9,91.7,9c-0.4,0-0.8-0.1-1.1-0.2c-0.3-0.1-0.7-0.3-0.9-0.6
		c-0.3-0.3-0.5-0.6-0.6-1s-0.2-0.8-0.2-1.3V5.7c0-0.5,0.1-0.9,0.2-1.3s0.3-0.7,0.6-1s0.6-0.5,0.9-0.6c0.3-0.1,0.7-0.2,1.1-0.2
		c0.4,0,0.8,0.1,1.1,0.3s0.6,0.5,0.8,0.9h0.2v-1h1v4.9c0,0.2,0.1,0.4,0.3,0.4h0.3v0.9h-0.7c-0.3,0-0.5-0.1-0.7-0.3
		C93.8,8.4,93.8,8.1,93.8,7.8L93.8,7.8L93.8,7.8z M91.8,8.1c0.3,0,0.6,0,0.8-0.2s0.4-0.3,0.6-0.5c0.2-0.2,0.3-0.4,0.4-0.7
		c0.1-0.3,0.2-0.6,0.2-0.9V5.7c0-0.3-0.1-0.6-0.2-0.9s-0.2-0.5-0.4-0.7c-0.2-0.2-0.4-0.4-0.6-0.5c-0.2-0.1-0.5-0.2-0.8-0.2
		c-0.3,0-0.6,0-0.8,0.2S90.5,3.9,90.4,4c-0.2,0.2-0.3,0.4-0.4,0.7c-0.1,0.3-0.2,0.6-0.2,0.9v0.2c0,0.7,0.2,1.2,0.6,1.6
		C90.7,7.9,91.2,8.1,91.8,8.1z M93.1,0.3l-1,1.5h-0.9L92,0.3C92,0.3,93.1,0.3,93.1,0.3z"/>
	<path d="M96.5,2.7h2.2v0.8h0.2c0.2-0.3,0.4-0.6,0.7-0.7c0.3-0.2,0.6-0.2,1-0.2c0.6,0,1.1,0.2,1.5,0.6s0.6,1,0.6,1.8l-1,0.1
		c0-0.6-0.1-1-0.4-1.2c-0.3-0.2-0.6-0.4-1-0.4c-0.2,0-0.5,0-0.7,0.1c-0.2,0.1-0.3,0.2-0.5,0.4c-0.1,0.2-0.2,0.4-0.3,0.6
		s-0.1,0.5-0.1,0.7v2.6h1.6v0.9h-3.9V7.9h1.4V3.6h-1.3L96.5,2.7L96.5,2.7z"/>
	<path d="M21.4,15h5.8v1.5l-5.2,6v0.2h5.3v1h-6.2V22l5.2-6v-0.1h-4.9L21.4,15L21.4,15z"/>
	<path d="M30.3,19.1c0,0.3,0.1,0.5,0.4,0.7c0.2,0.2,0.7,0.3,1.4,0.3c0.7,0.1,1.3,0.2,1.6,0.5c0.4,0.3,0.6,0.7,0.6,1.2v0.1
		c0,0.3-0.1,0.6-0.2,0.8s-0.3,0.4-0.5,0.6c-0.2,0.2-0.5,0.3-0.8,0.4s-0.6,0.1-1,0.1c-0.5,0-0.9-0.1-1.2-0.2
		c-0.3-0.1-0.6-0.3-0.9-0.5c-0.2-0.2-0.4-0.5-0.5-0.7c-0.1-0.3-0.2-0.5-0.2-0.8l0.9-0.2c0,0.5,0.2,0.8,0.5,1.1
		c0.3,0.3,0.8,0.4,1.3,0.4c0.4,0,0.8-0.1,1.1-0.3c0.3-0.2,0.4-0.4,0.4-0.7c0-0.3-0.1-0.6-0.4-0.7s-0.7-0.2-1.3-0.3
		c-0.7,0-1.2-0.2-1.6-0.5c-0.4-0.3-0.6-0.7-0.6-1.2v-0.1c0-0.3,0.1-0.5,0.2-0.8c0.1-0.2,0.3-0.4,0.5-0.5c0.2-0.2,0.5-0.3,0.7-0.3
		c0.3-0.1,0.5-0.1,0.8-0.1c0.4,0,0.8,0.1,1.1,0.2c0.3,0.1,0.6,0.2,0.8,0.4c0.2,0.2,0.4,0.4,0.5,0.6s0.2,0.5,0.2,0.7l-0.9,0.2
		c0-0.4-0.2-0.7-0.5-0.9c-0.3-0.2-0.6-0.3-1.1-0.3c-0.2,0-0.3,0-0.5,0.1s-0.3,0.1-0.4,0.2c-0.1,0.1-0.2,0.2-0.3,0.3
		C30.3,18.8,30.3,18.9,30.3,19.1z"/>
	<path d="M42.3,20.6c0,0.5-0.1,1-0.2,1.3s-0.4,0.7-0.7,1c-0.3,0.3-0.6,0.5-1,0.6s-0.8,0.2-1.2,0.2c-0.4,0-0.8-0.1-1.2-0.2
		s-0.7-0.3-1-0.6c-0.3-0.3-0.5-0.6-0.7-1s-0.2-0.8-0.2-1.3v-0.2c0-0.5,0.1-1,0.2-1.3s0.4-0.7,0.7-1c0.3-0.3,0.6-0.5,1-0.6
		s0.8-0.2,1.2-0.2s0.8,0.1,1.2,0.2s0.7,0.3,1,0.6c0.3,0.3,0.5,0.6,0.7,1c0.2,0.4,0.2,0.8,0.2,1.3L42.3,20.6L42.3,20.6z M39.3,22.8
		c0.3,0,0.6,0,0.8-0.2c0.2-0.1,0.5-0.2,0.7-0.5s0.3-0.4,0.4-0.7c0.1-0.3,0.2-0.6,0.2-0.9v-0.2c0-0.3,0-0.6-0.2-0.9s-0.2-0.5-0.4-0.7
		s-0.4-0.3-0.7-0.5s-0.5-0.2-0.8-0.2c-0.3,0-0.6,0.1-0.8,0.2c-0.2,0.1-0.5,0.3-0.7,0.5s-0.3,0.4-0.4,0.7c-0.1,0.3-0.2,0.6-0.2,0.9
		v0.2c0,0.3,0,0.7,0.2,0.9c0.1,0.3,0.2,0.5,0.4,0.7s0.4,0.3,0.7,0.5C38.7,22.8,39,22.8,39.3,22.8z"/>
	<path d="M44.1,22.7h2.2v-6.9h-2.1V15h3.1v7.7h2.2v0.9h-5.4V22.7z"/>
	<path d="M51.4,17.5h1.9V15h1v2.5h2.4v0.9h-2.4v4c0,0.2,0.1,0.4,0.3,0.4h1.7v0.9h-2.1c-0.3,0-0.5-0.1-0.7-0.3
		c-0.2-0.2-0.3-0.4-0.3-0.7v-4.3h-1.9L51.4,17.5L51.4,17.5z"/>
	<path d="M71.1,17.5h1v6.1h-1v-1.1h-0.2c-0.2,0.4-0.5,0.7-0.8,0.9s-0.7,0.3-1.2,0.3c-0.3,0-0.7-0.1-0.9-0.2
		c-0.3-0.1-0.5-0.3-0.7-0.5c-0.2-0.2-0.4-0.5-0.5-0.8c-0.1-0.3-0.2-0.7-0.2-1.1v-3.6h1V21c0,0.6,0.1,1.1,0.4,1.4
		c0.3,0.3,0.7,0.4,1.2,0.4c0.6,0,1-0.2,1.4-0.6c0.3-0.4,0.5-0.9,0.5-1.6L71.1,17.5L71.1,17.5z"/>
	<path d="M74,17.5H76V15h1v2.5h2.4v0.9h-2.4v4c0,0.2,0.1,0.4,0.3,0.4H79v0.9h-2.1c-0.3,0-0.5-0.1-0.7-0.3C76,23.1,76,22.9,76,22.6
		v-4.3H74V17.5z"/>
	<path d="M87.5,21.4c-0.1,0.3-0.2,0.7-0.3,0.9c-0.2,0.3-0.4,0.5-0.6,0.7c-0.2,0.2-0.5,0.4-0.9,0.5c-0.3,0.1-0.7,0.2-1.1,0.2
		c-0.4,0-0.8-0.1-1.2-0.2s-0.7-0.3-1-0.6c-0.3-0.3-0.5-0.6-0.7-1c-0.2-0.4-0.2-0.8-0.2-1.3v-0.2c0-0.5,0.1-0.9,0.2-1.3
		c0.2-0.4,0.4-0.7,0.7-1c0.3-0.3,0.6-0.5,1-0.6s0.8-0.2,1.2-0.2c0.4,0,0.7,0.1,1.1,0.2c0.3,0.1,0.6,0.3,0.9,0.5
		c0.2,0.2,0.5,0.5,0.6,0.7c0.2,0.3,0.3,0.6,0.3,0.9l-1,0.2c0-0.2-0.1-0.4-0.2-0.6c-0.1-0.2-0.2-0.4-0.4-0.5
		c-0.2-0.2-0.3-0.3-0.6-0.4s-0.5-0.1-0.8-0.1s-0.6,0.1-0.8,0.2c-0.3,0.1-0.5,0.3-0.7,0.5c-0.2,0.2-0.3,0.4-0.5,0.7
		c-0.1,0.3-0.2,0.6-0.2,0.9v0.2c0,0.3,0.1,0.7,0.2,0.9c0.1,0.3,0.3,0.5,0.5,0.7c0.2,0.2,0.4,0.3,0.7,0.4c0.3,0.1,0.6,0.2,0.8,0.2
		c0.3,0,0.6,0,0.8-0.1c0.2-0.1,0.4-0.2,0.6-0.4c0.2-0.2,0.3-0.3,0.4-0.5s0.2-0.4,0.2-0.6L87.5,21.4z"/>
	<path d="M93.8,22.6h-0.2c-0.2,0.4-0.5,0.7-0.8,0.9s-0.7,0.3-1.1,0.3c-0.4,0-0.8-0.1-1.1-0.2c-0.3-0.1-0.7-0.3-0.9-0.6
		c-0.3-0.3-0.5-0.6-0.6-1s-0.2-0.8-0.2-1.3v-0.2c0-0.5,0.1-0.9,0.2-1.3c0.2-0.4,0.3-0.7,0.6-1s0.6-0.5,0.9-0.6
		c0.3-0.1,0.7-0.2,1.1-0.2c0.4,0,0.8,0.1,1.1,0.3c0.3,0.2,0.6,0.5,0.8,0.9h0.2v-1h1v4.8c0,0.2,0.1,0.4,0.3,0.4h0.3v0.9h-0.7
		c-0.3,0-0.5-0.1-0.7-0.3C93.8,23.1,93.8,22.9,93.8,22.6L93.8,22.6L93.8,22.6z M91.8,22.8c0.3,0,0.6,0,0.8-0.2s0.4-0.3,0.6-0.5
		c0.2-0.2,0.3-0.4,0.4-0.7c0.1-0.3,0.2-0.6,0.2-0.9v-0.2c0-0.3-0.1-0.6-0.2-0.9s-0.2-0.5-0.4-0.7c-0.2-0.2-0.4-0.3-0.6-0.5
		s-0.5-0.2-0.8-0.2c-0.3,0-0.6,0-0.8,0.2s-0.4,0.3-0.6,0.5c-0.2,0.2-0.3,0.4-0.4,0.7c-0.1,0.3-0.2,0.6-0.2,0.9v0.2
		c0,0.7,0.2,1.2,0.6,1.6C90.7,22.7,91.2,22.8,91.8,22.8z"/>
	<path d="M106.6,22.6v-7.2h-0.2l-1.4,3.2h-1v-0.1l1.6-3.6h2v7.7h2.4v1h-5.9v-1L106.6,22.6L106.6,22.6z"/>
	<path d="M113.8,22.9c0-0.2,0.1-0.4,0.2-0.6c0.2-0.2,0.4-0.2,0.6-0.2s0.4,0.1,0.6,0.2s0.2,0.4,0.2,0.6s-0.1,0.4-0.2,0.6
		c-0.2,0.2-0.4,0.2-0.6,0.2s-0.4-0.1-0.6-0.2C113.8,23.3,113.8,23.1,113.8,22.9z"/>
</g>
<text transform="matrix(1 0 0 1 20.481 38.216)" class="pst2">+36 20 809 88 66</text>
</svg>
