<svg width="312" height="172" viewBox="0 0 312 172" fill="none" xmlns="http://www.w3.org/2000/svg">
<g clip-path="url(#clip0_552_967)">
<path d="M272.91 8.27995C272.61 7.50995 272.19 6.85995 271.67 6.32995C271.15 5.79995 270.56 5.39995 269.88 5.11995C269.2 4.83995 268.49 4.69995 267.73 4.69995C266.84 4.69995 266.01 4.89995 265.26 5.27995C264.5 5.66995 263.91 6.22995 263.48 6.97995H263.18V5.04995H261.25V20.72H263.18V15.44H263.48C263.69 15.82 263.96 16.14 264.27 16.42C264.59 16.69 264.93 16.92 265.3 17.11C265.67 17.3 266.06 17.44 266.47 17.53C266.88 17.62 267.28 17.66 267.68 17.66C268.45 17.66 269.19 17.53 269.88 17.25C270.57 16.98 271.18 16.58 271.7 16.05C272.22 15.52 272.63 14.87 272.92 14.1C273.22 13.33 273.37 12.44 273.37 11.43V10.93C273.36 9.93995 273.21 9.05995 272.91 8.27995ZM271.39 11.43C271.39 12.11 271.28 12.72 271.08 13.26C270.87 13.81 270.59 14.27 270.21 14.64C269.84 15.02 269.41 15.31 268.91 15.52C268.42 15.73 267.87 15.83 267.28 15.83C266.7 15.83 266.17 15.72 265.67 15.51C265.18 15.3 264.74 14.99 264.37 14.6C264 14.2 263.71 13.73 263.49 13.18C263.27 12.63 263.17 12.02 263.17 11.34V11.04C263.17 10.38 263.28 9.77995 263.49 9.22995C263.7 8.67995 264 8.19995 264.37 7.80995C264.74 7.40995 265.17 7.10995 265.67 6.87995C266.16 6.64995 266.7 6.53995 267.28 6.53995C267.86 6.53995 268.4 6.64995 268.9 6.85995C269.4 7.06995 269.84 7.36995 270.21 7.75995C270.58 8.14995 270.87 8.60995 271.08 9.13995C271.29 9.67995 271.39 10.27 271.39 10.93V11.43Z" fill="#1D1D1E"/>
<path d="M276.11 15.53H280.41V6.83005H276.55V5.05005H282.34V15.53H286.35V17.31H276.11V15.53Z" fill="#1D1D1E"/>
<path d="M296.79 6.82V5.05H292.05V0H290.12V5.05H286.26V6.83H290.12V15.39C290.12 15.95 290.29 16.41 290.65 16.77C291.01 17.13 291.46 17.32 292.02 17.32H296.2V15.54H292.71C292.27 15.54 292.05 15.29 292.05 14.8V6.82H296.79Z" fill="#1D1D1E"/>
<path d="M311.38 15.53C310.93 15.53 310.71 15.28 310.71 14.79V5.04995H308.78V6.97995H308.48C308.08 6.19995 307.55 5.62995 306.86 5.25995C306.18 4.88995 305.41 4.69995 304.57 4.69995C303.8 4.69995 303.06 4.83995 302.37 5.11995C301.68 5.39995 301.07 5.80995 300.55 6.33995C300.03 6.87995 299.62 7.52995 299.32 8.30995C299.02 9.07995 298.88 9.96995 298.88 10.98V11.38C298.88 12.4 299.03 13.3 299.32 14.08C299.62 14.85 300.03 15.51 300.55 16.05C301.07 16.58 301.68 16.99 302.37 17.26C303.06 17.53 303.81 17.67 304.62 17.67C305.39 17.67 306.13 17.47 306.83 17.08C307.53 16.68 308.08 16.08 308.47 15.25H308.77V15.4C308.77 15.96 308.95 16.42 309.3 16.78C309.65 17.14 310.11 17.33 310.67 17.33H312V15.55H311.38V15.53ZM308.79 11.32C308.79 12 308.69 12.61 308.49 13.16C308.29 13.71 308.02 14.19 307.68 14.58C307.33 14.98 306.92 15.28 306.43 15.49C305.94 15.71 305.41 15.81 304.84 15.81C303.67 15.81 302.72 15.42 301.98 14.64C301.25 13.86 300.88 12.76 300.88 11.36V10.96C300.88 10.3 300.98 9.68995 301.18 9.13995C301.38 8.58995 301.65 8.11995 302.01 7.72995C302.36 7.33995 302.78 7.03995 303.26 6.82995C303.73 6.60995 304.26 6.50995 304.84 6.50995C305.4 6.50995 305.92 6.61995 306.41 6.84995C306.9 7.06995 307.32 7.37995 307.67 7.77995C308.02 8.17995 308.3 8.64995 308.5 9.19995C308.7 9.74995 308.8 10.36 308.8 11.01V11.32H308.79Z" fill="#1D1D1E"/>
<path d="M272.91 29C272.61 28.23 272.19 27.5699 271.67 27.0499C271.15 26.5199 270.56 26.12 269.88 25.84C269.2 25.56 268.49 25.42 267.73 25.42C266.84 25.42 266.01 25.61 265.26 26C264.5 26.39 263.91 26.95 263.48 27.69H263.18V22.95H261.25V38.0299H263.18V36.15H263.48C263.69 36.53 263.96 36.85 264.27 37.13C264.59 37.4 264.93 37.63 265.3 37.82C265.67 38.01 266.06 38.15 266.47 38.24C266.88 38.33 267.28 38.38 267.68 38.38C268.45 38.38 269.19 38.24 269.88 37.97C270.57 37.7 271.18 37.3 271.7 36.77C272.22 36.24 272.63 35.59 272.92 34.82C273.22 34.04 273.37 33.16 273.37 32.15V31.66C273.36 30.65 273.21 29.77 272.91 29ZM271.39 32.1399C271.39 32.8199 271.28 33.43 271.08 33.97C270.87 34.51 270.59 34.9699 270.21 35.3499C269.84 35.7299 269.41 36.0199 268.91 36.2299C268.41 36.4399 267.87 36.54 267.28 36.54C266.7 36.54 266.17 36.43 265.67 36.22C265.18 36.01 264.74 35.6999 264.37 35.2999C264 34.8999 263.71 34.43 263.49 33.88C263.27 33.33 263.17 32.71 263.17 32.04V31.74C263.17 31.08 263.28 30.47 263.49 29.92C263.7 29.37 264 28.9 264.37 28.5C264.74 28.1 265.17 27.79 265.67 27.57C266.16 27.35 266.7 27.24 267.28 27.24C267.86 27.24 268.4 27.3499 268.9 27.5599C269.4 27.7699 269.84 28.0699 270.21 28.4599C270.58 28.8499 270.87 29.31 271.08 29.84C271.29 30.38 271.39 30.9699 271.39 31.6399V32.1399Z" fill="#1D1D1E"/>
<path d="M287.77 36.2399C287.32 36.2399 287.1 35.9899 287.1 35.4999V25.7599H285.17V27.6899H284.87C284.47 26.9199 283.93 26.3399 283.25 25.9699C282.57 25.5999 281.8 25.4099 280.96 25.4099C280.19 25.4099 279.45 25.5499 278.76 25.8299C278.07 26.1099 277.46 26.5199 276.95 27.0599C276.43 27.5899 276.02 28.2499 275.72 29.0299C275.42 29.7999 275.27 30.6899 275.27 31.6999V32.0999C275.27 33.1199 275.42 34.0199 275.72 34.7999C276.02 35.5699 276.42 36.2299 276.95 36.7699C277.47 37.3099 278.07 37.7099 278.76 37.9799C279.45 38.2499 280.2 38.3899 281.01 38.3899C281.78 38.3899 282.52 38.1899 283.22 37.7999C283.92 37.3999 284.47 36.7999 284.86 35.9699H285.16V36.1199C285.16 36.6799 285.34 37.1399 285.69 37.4999C286.05 37.8599 286.5 38.0399 287.06 38.0399H288.37V36.2599H287.77V36.2399ZM285.17 32.0399C285.17 32.7199 285.07 33.3299 284.87 33.8799C284.67 34.4299 284.4 34.8999 284.06 35.2999C283.71 35.6999 283.3 35.9999 282.81 36.2199C282.32 36.4299 281.79 36.5399 281.21 36.5399C280.04 36.5399 279.09 36.1499 278.36 35.3699C277.62 34.5899 277.26 33.4999 277.26 32.0899V31.6899C277.26 31.0299 277.36 30.4199 277.56 29.8799C277.76 29.3299 278.03 28.8599 278.39 28.4699C278.75 28.0799 279.16 27.7799 279.64 27.5699C280.12 27.3599 280.64 27.2499 281.22 27.2499C281.78 27.2499 282.3 27.3599 282.79 27.5799C283.28 27.7999 283.7 28.1099 284.05 28.5099C284.41 28.9099 284.68 29.3799 284.88 29.9299C285.08 30.4799 285.18 31.0899 285.18 31.7499V32.0399H285.17Z" fill="#1D1D1E"/>
<path d="M301.68 26.6199C300.92 25.8099 299.92 25.4099 298.69 25.4099C297.95 25.4099 297.29 25.5699 296.71 25.8899C296.13 26.2099 295.69 26.7099 295.37 27.3799H295.07V25.7499H290.62V27.5299H293.14V36.2299H290.32V38.0099H298.18V36.2299H295.06V31.0399C295.06 30.5099 295.12 30.0199 295.23 29.5599C295.34 29.0999 295.53 28.6899 295.77 28.3499C296.02 28.0099 296.33 27.7299 296.7 27.5399C297.07 27.3399 297.51 27.2399 298.02 27.2399C298.81 27.2399 299.48 27.4899 300.02 27.9899C300.56 28.4999 300.83 29.3099 300.83 30.4499L302.86 30.1499C302.84 28.6099 302.43 27.4299 301.68 26.6199Z" fill="#1D1D1E"/>
<path d="M282.65 0H279.8V2.85H282.65V0Z" fill="#1D1D1E"/>
<path d="M282.65 20.3999H279.8V23.2499H282.65V20.3999Z" fill="#1D1D1E"/>
<path d="M91.07 47.81H89.91C88.43 47.81 87.69 46.99 87.69 45.34V17.26C87.69 17.03 87.51 16.85 87.28 16.85H77.72C77.49 16.85 77.31 17.03 77.31 17.26V21.38C77.31 21.61 77.13 21.79 76.9 21.79H76.07C75.92 21.79 75.78 21.7 75.71 21.57C74.68 19.6 73.3 18.13 71.58 17.18C69.8 16.19 67.45 15.7 64.54 15.7C62.12 15.7 59.86 16.18 57.75 17.14C55.64 18.1 53.78 19.49 52.19 21.3C50.6 23.11 49.33 25.31 48.4 27.89C47.47 30.47 47 33.3799 47 36.6199V37.9399C47 41.2299 47.48 44.17 48.44 46.75C49.4 49.33 50.7 51.53 52.35 53.34C54 55.15 55.9 56.5199 58.07 57.4599C60.24 58.3899 62.56 58.86 65.03 58.86C67.67 58.86 69.97 58.32 71.95 57.25C73.86 56.21 75.36 54.47 76.45 52.02C76.52 51.87 76.66 51.77 76.82 51.77H77.64C77.86 51.77 78.04 51.94 78.05 52.15C78.13 53.73 78.72 55.0299 79.81 56.0499C80.99 57.1499 82.51 57.7 84.38 57.7H91.05C91.28 57.7 91.46 57.52 91.46 57.29V48.2299C91.48 47.9999 91.3 47.81 91.07 47.81ZM77.32 37.77C77.32 41.23 76.41 43.9599 74.6 45.9599C72.79 47.9599 70.37 48.97 67.35 48.97C64.33 48.97 61.92 47.9699 60.1 45.9599C58.29 43.9599 57.38 41.23 57.38 37.77V36.7799C57.38 33.3199 58.29 30.59 60.1 28.59C61.91 26.59 64.33 25.58 67.35 25.58C70.37 25.58 72.78 26.58 74.6 28.59C76.41 30.59 77.32 33.3199 77.32 36.7799V37.77Z" fill="#184FD6"/>
<path d="M107.25 32.4599C107.83 31.0099 108.61 29.7699 109.6 28.7499C110.59 27.7299 111.74 26.9499 113.06 26.3999C114.38 25.8499 115.78 25.5799 117.26 25.5799C120.44 25.5799 122.91 26.4599 124.67 28.2199C126.32 29.8699 127.34 31.8099 127.73 34.0299C127.77 34.2699 128 34.4199 128.24 34.3599L137.64 31.9299C137.85 31.8799 137.98 31.6599 137.94 31.4499C136.96 26.7999 134.75 23.0299 131.31 20.1399C127.77 17.1799 123.14 15.6899 117.43 15.6899C114.47 15.6899 111.68 16.1799 109.07 17.1699C106.46 18.1599 104.18 19.5899 102.24 21.4499C100.29 23.3199 98.77 25.5699 97.67 28.1999C96.57 30.8399 96.02 33.7999 96.02 37.0899V38.0799C96.02 41.3699 96.57 44.3099 97.67 46.8899C98.77 49.4699 100.28 51.6399 102.2 53.3999C104.12 55.1599 106.39 56.4999 108.99 57.4299C111.6 58.3599 114.41 58.8299 117.43 58.8299C123.25 58.8299 127.9 57.3499 131.39 54.3799C134.78 51.4899 136.97 47.7299 137.94 43.0699C137.98 42.8599 137.85 42.6399 137.64 42.5899L128.23 40.2399C128 40.1799 127.78 40.3299 127.73 40.5599C127.2 43.0499 126.15 45.0499 124.56 46.5599C122.88 48.1499 120.46 48.9499 117.27 48.9499C115.79 48.9499 114.39 48.7199 113.07 48.2499C111.75 47.7799 110.6 47.0799 109.61 46.1499C108.62 45.2199 107.84 44.0499 107.26 42.6499C106.68 41.2499 106.4 39.6399 106.4 37.8299V37.3399C106.39 35.5399 106.68 33.9099 107.25 32.4599Z" fill="#184FD6"/>
<path d="M178.77 47.8101H167.73C167.5 47.8101 167.32 47.6301 167.32 47.4001V17.2601C167.32 17.0301 167.14 16.8501 166.91 16.8501H144.51C144.28 16.8501 144.1 17.0301 144.1 17.2601V26.3201C144.1 26.5501 144.28 26.7301 144.51 26.7301H156.54C156.77 26.7301 156.95 26.9101 156.95 27.1401V47.4001C156.95 47.6301 156.77 47.8101 156.54 47.8101H143.52C143.29 47.8101 143.11 47.9901 143.11 48.2201V57.2801C143.11 57.5101 143.29 57.6901 143.52 57.6901H178.77C179 57.6901 179.18 57.5101 179.18 57.2801V48.2201C179.18 48.0001 179 47.8101 178.77 47.8101Z" fill="#184FD6"/>
<path d="M207.17 37.6301C207.12 37.5601 207.09 37.47 207.09 37.39V36.17C207.09 36.09 207.12 36 207.16 35.93L220.21 17.41C220.24 17.37 220.26 17.31 220.26 17.26C220.26 17.03 220.08 16.85 219.85 16.85H209.1C208.97 16.85 208.85 16.9101 208.77 17.0201L198.15 31.67C198.07 31.78 197.95 31.84 197.82 31.84H196.46C196.23 31.84 196.05 31.66 196.05 31.43V0.460049C196.05 0.230049 195.87 0.0500488 195.64 0.0500488H186.08C185.85 0.0500488 185.67 0.230049 185.67 0.460049V57.28C185.67 57.51 185.85 57.69 186.08 57.69H195.64C195.87 57.69 196.05 57.51 196.05 57.28V42.1301C196.05 41.9001 196.23 41.7201 196.46 41.7201H197.82C197.95 41.7201 198.07 41.78 198.15 41.89L209.6 57.53C209.68 57.64 209.8 57.7001 209.93 57.7001H221.17C221.4 57.7001 221.58 57.5201 221.58 57.2901C221.58 57.2301 221.56 57.18 221.53 57.14L207.17 37.6301Z" fill="#184FD6"/>
<path d="M262.35 47.8101H251.31C251.08 47.8101 250.9 47.6301 250.9 47.4001V17.2601C250.9 17.0301 250.72 16.8501 250.49 16.8501H228.09C227.86 16.8501 227.68 17.0301 227.68 17.2601V26.3201C227.68 26.5501 227.86 26.7301 228.09 26.7301H240.12C240.35 26.7301 240.53 26.9101 240.53 27.1401V47.4001C240.53 47.6301 240.35 47.8101 240.12 47.8101H227.1C226.87 47.8101 226.69 47.9901 226.69 48.2201V57.2801C226.69 57.5101 226.87 57.6901 227.1 57.6901H262.35C262.58 57.6901 262.76 57.5101 262.76 57.2801V48.2201C262.76 48.0001 262.58 47.8101 262.35 47.8101Z" fill="#184FD6"/>
<path d="M240.35 11.01H250.49C250.72 11.01 250.9 10.83 250.9 10.6V0.460049C250.9 0.230049 250.72 0.0500488 250.49 0.0500488H240.35C240.12 0.0500488 239.94 0.230049 239.94 0.460049V10.6C239.94 10.83 240.13 11.01 240.35 11.01Z" fill="#184FD6"/>
<path d="M278.73 47.8201H269.71C269.48 47.8201 269.3 48.0001 269.3 48.2301V57.2501C269.3 57.4801 269.48 57.6601 269.71 57.6601H278.73C278.96 57.6601 279.14 57.4801 279.14 57.2501V48.2301C279.14 48.0101 278.96 47.8201 278.73 47.8201Z" fill="#184FD6"/>
<path d="M156.51 11.01H166.65C166.88 11.01 167.06 10.83 167.06 10.6V0.460049C167.06 0.230049 166.88 0.0500488 166.65 0.0500488H156.51C156.28 0.0500488 156.1 0.230049 156.1 0.460049V10.6C156.1 10.83 156.28 11.01 156.51 11.01Z" fill="#184FD6"/>
<path d="M10.54 35.08C10.65 34.35 10.82 33.67 11.04 33.01C11.1 32.82 11.17 32.64 11.24 32.46C11.38 32.1 11.54 31.75 11.71 31.41C12.22 30.4 12.84 29.52 13.59 28.76C13.84 28.51 14.09 28.27 14.36 28.04C14.76 27.7 15.18 27.4 15.63 27.13C15.93 26.95 16.24 26.78 16.55 26.63C16.71 26.55 16.87 26.48 17.04 26.41C17.29 26.31 17.54 26.21 17.79 26.13C18.46 25.9 19.16 25.75 19.88 25.67C20.33 25.62 20.78 25.59 21.24 25.59C24.42 25.59 26.9 26.47 28.65 28.23C29.06 28.64 29.44 29.07 29.77 29.52C30.19 30.08 30.54 30.67 30.84 31.29C31.02 31.66 31.17 32.04 31.3 32.43C31.39 32.69 31.47 32.96 31.53 33.22C31.6 33.49 31.66 33.76 31.71 34.04C31.72 34.12 31.76 34.18 31.8 34.24C31.9 34.35 32.05 34.41 32.21 34.37L41.61 31.94C41.63 31.93 41.66 31.93 41.68 31.92C41.78 31.87 41.86 31.79 41.9 31.68C41.91 31.66 41.91 31.65 41.91 31.63C41.92 31.58 41.92 31.52 41.91 31.46C40.93 26.81 38.73 23.04 35.28 20.15C35.17 20.06 35.05 19.96 34.94 19.88C34.6 19.61 34.26 19.36 33.9 19.12C33.64 18.94 33.37 18.77 33.1 18.61C32.93 18.51 32.76 18.41 32.59 18.31C31.39 17.64 30.1 17.1 28.72 16.69C28.14 16.52 27.55 16.37 26.94 16.24C26.75 16.2 26.55 16.16 26.36 16.13C26.07 16.08 25.78 16.03 25.49 15.99C25.01 15.92 24.51 15.86 24.01 15.82C23.35 15.76 22.68 15.73 21.99 15.71C21.97 15.71 21.96 15.71 21.94 15.71C21.78 15.71 21.62 15.71 21.46 15.71H21.41C18.45 15.71 15.66 16.2 13.05 17.19C10.44 18.18 8.16 19.61 6.21 21.47C4.26 23.34 2.74 25.58 1.64 28.22C0.55 30.85 0 33.81 0 37.11V38.1C0 38.92 0.04 39.73 0.1 40.51C0.14 40.9 0.18 41.28 0.23 41.66C0.31 42.23 0.4 42.79 0.52 43.33C0.6 43.69 0.68 44.05 0.78 44.4C0.88 44.75 0.98 45.1 1.09 45.44C1.26 45.95 1.44 46.45 1.65 46.93C1.79 47.25 1.93 47.57 2.08 47.88C3.13 50.05 4.5 51.9 6.18 53.44C6.3 53.55 6.42 53.66 6.54 53.77C6.79 53.98 7.04 54.19 7.29 54.39C7.55 54.59 7.81 54.78 8.08 54.97C9.01 55.62 10.01 56.2 11.08 56.7C11.69 56.98 12.32 57.24 12.97 57.48C15.58 58.41 18.39 58.88 21.41 58.88C25.77 58.88 29.48 58.05 32.54 56.38C32.79 56.24 33.04 56.1 33.29 55.95C33.53 55.8 33.77 55.64 34.01 55.48C34.48 55.15 34.93 54.81 35.37 54.44C35.69 54.17 36 53.89 36.29 53.61C39.16 50.85 41.03 47.36 41.92 43.14C41.96 42.95 41.86 42.76 41.69 42.68C41.67 42.67 41.65 42.66 41.62 42.66L32.2 40.31C31.97 40.25 31.75 40.4 31.7 40.63C31.17 43.13 30.12 45.12 28.53 46.63C26.86 48.22 24.43 49.02 21.24 49.02C19.76 49.02 18.36 48.79 17.04 48.32C15.72 47.85 14.57 47.16 13.58 46.22C13.33 45.99 13.1 45.74 12.88 45.48C12.44 44.96 12.05 44.37 11.71 43.73C11.54 43.41 11.38 43.07 11.24 42.72C11.18 42.57 11.12 42.41 11.07 42.26C10.83 41.59 10.65 40.88 10.54 40.12C10.43 39.42 10.38 38.68 10.38 37.9V37.41C10.37 36.56 10.43 35.8 10.54 35.08Z" fill="#184FD6"/>
<path d="M182.08 91.1899H171.6V147.05H182.08V91.1899Z" fill="#184FD6"/>
<path d="M194.1 96.4399V99.9899H193.07V91.3699H196.15C196.59 91.3699 196.98 91.4299 197.31 91.5599C197.64 91.6899 197.91 91.8599 198.13 92.0699C198.35 92.2799 198.51 92.5299 198.62 92.8099C198.73 93.0899 198.79 93.3899 198.79 93.6999V94.0699C198.79 94.3799 198.73 94.6799 198.62 94.9699C198.51 95.2599 198.34 95.5099 198.12 95.7299C197.9 95.9499 197.62 96.1199 197.3 96.2499C196.97 96.3799 196.59 96.4399 196.15 96.4399H194.1ZM194.1 95.4799H196.02C197.17 95.4799 197.74 94.9899 197.74 93.9999V93.7799C197.74 93.3499 197.6 92.9899 197.32 92.7299C197.04 92.4599 196.6 92.3299 196.02 92.3299H194.1V95.4799Z" fill="black"/>
<path d="M200.78 99.0999H202.92V94.7699H201V93.8799H203.88V99.0999H205.87V99.9899H200.77V99.0999H200.78ZM202.53 92.0499C202.53 91.8099 202.61 91.6099 202.78 91.4399C202.95 91.2699 203.15 91.1899 203.39 91.1899C203.63 91.1899 203.83 91.2699 204 91.4399C204.17 91.6099 204.25 91.8099 204.25 92.0499C204.25 92.2899 204.17 92.4899 204 92.6599C203.83 92.8299 203.63 92.9099 203.39 92.9099C203.15 92.9099 202.95 92.8299 202.78 92.6599C202.61 92.4899 202.53 92.2899 202.53 92.0499Z" fill="black"/>
<path d="M207.96 93.8699H209.88V91.3599H210.84V93.8699H213.2V94.7599H210.84V98.7199C210.84 98.9699 210.95 99.0899 211.17 99.0899H212.91V99.9799H210.83C210.55 99.9799 210.32 99.8899 210.15 99.7099C209.97 99.5299 209.89 99.2999 209.89 99.0199V94.7599H207.97V93.8699H207.96Z" fill="black"/>
<path d="M220.13 98.95H219.98C219.78 99.36 219.51 99.66 219.16 99.86C218.81 100.06 218.44 100.16 218.06 100.16C217.66 100.16 217.28 100.09 216.94 99.96C216.6 99.82 216.29 99.62 216.04 99.36C215.78 99.09 215.58 98.77 215.43 98.38C215.28 97.99 215.21 97.55 215.21 97.04V96.84C215.21 96.34 215.28 95.9 215.43 95.51C215.58 95.12 215.78 94.8 216.04 94.53C216.3 94.26 216.6 94.06 216.94 93.92C217.28 93.78 217.65 93.71 218.04 93.71C218.46 93.71 218.84 93.8 219.18 93.99C219.52 94.18 219.79 94.46 219.99 94.85H220.14V93.89H221.1V98.74C221.1 98.99 221.21 99.11 221.43 99.11H221.74V100H221.09C220.81 100 220.58 99.91 220.41 99.73C220.23 99.55 220.15 99.32 220.15 99.04V98.95H220.13ZM218.16 99.24C218.45 99.24 218.71 99.19 218.95 99.08C219.19 98.97 219.4 98.82 219.57 98.62C219.74 98.42 219.88 98.19 219.98 97.91C220.08 97.63 220.13 97.33 220.13 96.99V96.84C220.13 96.51 220.08 96.21 219.98 95.94C219.88 95.66 219.74 95.43 219.57 95.23C219.39 95.03 219.18 94.88 218.94 94.77C218.7 94.66 218.44 94.6 218.16 94.6C217.87 94.6 217.61 94.65 217.37 94.76C217.13 94.87 216.92 95.02 216.75 95.21C216.57 95.4 216.44 95.64 216.34 95.91C216.24 96.18 216.19 96.49 216.19 96.82V97.02C216.19 97.72 216.37 98.26 216.74 98.65C217.11 99.05 217.58 99.24 218.16 99.24Z" fill="black"/>
<path d="M227.88 99.05H227.73C227.53 99.42 227.26 99.7 226.92 99.88C226.58 100.06 226.21 100.16 225.81 100.16C225.4 100.16 225.01 100.09 224.65 99.95C224.29 99.81 223.97 99.61 223.7 99.35C223.42 99.09 223.21 98.76 223.05 98.37C222.89 97.98 222.81 97.53 222.81 97.03V96.83C222.81 96.34 222.89 95.9 223.06 95.51C223.22 95.12 223.44 94.79 223.71 94.53C223.98 94.26 224.3 94.06 224.66 93.92C225.02 93.78 225.4 93.71 225.79 93.71C226.23 93.71 226.62 93.81 226.95 94C227.28 94.19 227.54 94.47 227.73 94.84H227.88V93.88H228.84V101.49C228.84 101.77 228.75 102 228.58 102.18C228.4 102.36 228.18 102.45 227.9 102.45H223.92V101.56H227.55C227.77 101.56 227.88 101.44 227.88 101.19V99.05ZM225.83 99.24C226.12 99.24 226.38 99.19 226.63 99.08C226.88 98.97 227.09 98.82 227.28 98.62C227.46 98.42 227.61 98.19 227.72 97.91C227.83 97.63 227.88 97.33 227.88 96.99V96.84C227.88 96.51 227.83 96.21 227.72 95.94C227.61 95.66 227.47 95.43 227.28 95.23C227.1 95.03 226.88 94.88 226.63 94.77C226.38 94.66 226.11 94.6 225.84 94.6C225.55 94.6 225.28 94.65 225.03 94.76C224.78 94.87 224.56 95.02 224.38 95.22C224.2 95.42 224.05 95.65 223.95 95.92C223.85 96.19 223.8 96.49 223.8 96.82V97.02C223.8 97.36 223.85 97.67 223.95 97.94C224.05 98.21 224.2 98.44 224.38 98.64C224.56 98.83 224.78 98.98 225.03 99.08C225.27 99.19 225.54 99.24 225.83 99.24Z" fill="black"/>
<path d="M235.13 93.8699H236.09V99.9799H235.13V98.8699H234.98C234.78 99.2599 234.52 99.5799 234.2 99.8099C233.88 100.04 233.47 100.15 232.98 100.15C232.64 100.15 232.33 100.09 232.05 99.9799C231.77 99.8699 231.52 99.6999 231.32 99.4799C231.12 99.2599 230.96 98.9799 230.85 98.6599C230.74 98.3299 230.68 97.9499 230.68 97.5199V93.8799H231.64V97.3999C231.64 98.0399 231.77 98.5099 232.03 98.7999C232.29 99.0999 232.69 99.2399 233.24 99.2399C233.82 99.2399 234.28 99.0399 234.61 98.6399C234.94 98.2399 235.11 97.7099 235.11 97.0499V93.8699H235.13Z" fill="black"/>
<path d="M237.96 93.87H240.18V94.68H240.33C240.49 94.34 240.71 94.1 240.99 93.94C241.28 93.78 241.61 93.7 241.97 93.7C242.59 93.7 243.08 93.9 243.46 94.3C243.84 94.7 244.04 95.29 244.06 96.06L243.05 96.21C243.05 95.64 242.91 95.24 242.64 94.98C242.37 94.73 242.04 94.6 241.64 94.6C241.39 94.6 241.17 94.65 240.98 94.75C240.8 94.85 240.64 94.98 240.52 95.16C240.4 95.33 240.31 95.53 240.25 95.76C240.19 95.99 240.16 96.24 240.16 96.5V99.09H241.71V99.98H237.79V99.1H239.19V94.77H237.93V93.87H237.96Z" fill="black"/>
<path d="M250.2 93.8699H251.16V99.9799H250.2V98.8699H250.05C249.85 99.2599 249.59 99.5799 249.27 99.8099C248.95 100.04 248.54 100.15 248.05 100.15C247.71 100.15 247.4 100.09 247.12 99.9799C246.84 99.8699 246.59 99.6999 246.39 99.4799C246.19 99.2599 246.03 98.9799 245.92 98.6599C245.81 98.3299 245.75 97.9499 245.75 97.5199V93.8799H246.71V97.3999C246.71 98.0399 246.84 98.5099 247.1 98.7999C247.36 99.0999 247.76 99.2399 248.31 99.2399C248.89 99.2399 249.35 99.0399 249.68 98.6399C250.01 98.2399 250.18 97.7099 250.18 97.0499V93.8699H250.2Z" fill="black"/>
<path d="M261.97 99.9799H260.94V91.3599H261.97V95.1799H262.25L265.56 91.3599H266.84V91.4299L263.27 95.5899V95.7399L266.99 99.8999V99.9699H265.68L262.24 96.1299H261.96V99.9799H261.97Z" fill="black"/>
<path d="M268.39 93.8699H270.27V92.3199C270.27 92.0399 270.36 91.8099 270.53 91.6299C270.71 91.4499 270.93 91.3599 271.21 91.3599H273.62V92.2499H271.55C271.33 92.2499 271.22 92.3699 271.22 92.6199V93.8799H273.77V94.7699H271.22V99.9899H270.26V94.7699H268.38V93.8699H268.39Z" fill="black"/>
<path d="M275.78 93.8699H277.7V91.3599H278.66V93.8699H281.02V94.7599H278.66V98.7199C278.66 98.9699 278.77 99.0899 278.99 99.0899H280.73V99.9799H278.65C278.37 99.9799 278.14 99.8899 277.97 99.7099C277.79 99.5299 277.71 99.2999 277.71 99.0199V94.7599H275.79V93.8699H275.78Z" fill="black"/>
<path d="M285.36 99.2899C285.36 99.0499 285.44 98.8499 285.61 98.6799C285.78 98.5099 285.98 98.4299 286.22 98.4299C286.46 98.4299 286.66 98.5099 286.83 98.6799C287 98.8499 287.08 99.0499 287.08 99.2899C287.08 99.5299 287 99.7299 286.83 99.8999C286.66 100.07 286.46 100.15 286.22 100.15C285.98 100.15 285.78 100.07 285.61 99.8999C285.44 99.7299 285.36 99.5299 285.36 99.2899Z" fill="black"/>
<path d="M195.68 114.93C195.24 114.93 194.85 114.87 194.5 114.75C194.15 114.63 193.84 114.47 193.59 114.26C193.34 114.05 193.14 113.8 193 113.52C192.86 113.24 192.8 112.93 192.8 112.59V112.44C192.8 112.14 192.85 111.88 192.94 111.65C193.03 111.42 193.15 111.22 193.3 111.05C193.45 110.88 193.62 110.73 193.81 110.62C194 110.51 194.2 110.42 194.41 110.36V110.21C194.22 110.15 194.04 110.07 193.88 109.95C193.72 109.83 193.57 109.7 193.44 109.54C193.31 109.38 193.21 109.21 193.14 109C193.07 108.8 193.03 108.58 193.03 108.34V108.19C193.03 107.86 193.1 107.56 193.23 107.29C193.36 107.02 193.55 106.78 193.79 106.58C194.03 106.38 194.32 106.23 194.65 106.12C194.98 106.01 195.35 105.95 195.76 105.95H195.83C196.23 105.95 196.6 106.01 196.94 106.12C197.28 106.23 197.57 106.38 197.81 106.58C198.05 106.78 198.24 107.01 198.37 107.29C198.5 107.57 198.57 107.87 198.57 108.19V108.34C198.57 108.58 198.53 108.8 198.46 109C198.39 109.2 198.29 109.38 198.16 109.54C198.03 109.7 197.88 109.83 197.72 109.95C197.55 110.07 197.38 110.15 197.2 110.21V110.36C197.41 110.42 197.6 110.5 197.8 110.62C197.99 110.74 198.16 110.88 198.31 111.05C198.46 111.22 198.58 111.42 198.67 111.65C198.76 111.88 198.81 112.14 198.81 112.44V112.59C198.81 112.93 198.74 113.24 198.61 113.52C198.47 113.8 198.28 114.05 198.03 114.26C197.78 114.47 197.47 114.63 197.12 114.75C196.77 114.87 196.37 114.93 195.94 114.93H195.68ZM195.86 113.99C196.42 113.99 196.87 113.85 197.22 113.56C197.57 113.27 197.74 112.9 197.74 112.44V112.37C197.74 111.86 197.56 111.47 197.2 111.19C196.84 110.91 196.38 110.77 195.81 110.77H195.74C195.17 110.77 194.71 110.91 194.35 111.19C193.99 111.47 193.81 111.86 193.81 112.37V112.44C193.81 112.9 193.98 113.27 194.33 113.56C194.68 113.85 195.13 113.99 195.69 113.99H195.86ZM195.79 109.81C196.31 109.81 196.73 109.67 197.05 109.4C197.37 109.13 197.53 108.79 197.53 108.38V108.31C197.53 107.89 197.37 107.55 197.06 107.29C196.75 107.03 196.32 106.9 195.8 106.9C195.27 106.9 194.85 107.03 194.54 107.29C194.23 107.55 194.07 107.89 194.07 108.31V108.38C194.07 108.79 194.23 109.13 194.55 109.4C194.86 109.67 195.27 109.81 195.79 109.81Z" fill="black"/>
<path d="M200.3 109.49C200.3 108.37 200.57 107.51 201.1 106.89C201.63 106.27 202.38 105.97 203.33 105.97C204.28 105.97 205.02 106.28 205.56 106.89C206.09 107.51 206.36 108.37 206.36 109.49V111.41C206.36 112.56 206.09 113.43 205.56 114.03C205.03 114.63 204.28 114.93 203.33 114.93C202.38 114.93 201.63 114.63 201.1 114.03C200.57 113.43 200.3 112.56 200.3 111.41V109.49ZM203.33 113.99C203.99 113.99 204.49 113.76 204.83 113.29C205.16 112.83 205.33 112.17 205.33 111.33V109.56C205.33 109.17 205.29 108.81 205.21 108.48C205.13 108.15 205 107.88 204.83 107.64C204.66 107.41 204.45 107.22 204.2 107.09C203.95 106.96 203.66 106.89 203.33 106.89C202.99 106.89 202.7 106.96 202.46 107.09C202.21 107.22 202.01 107.4 201.84 107.64C201.67 107.87 201.55 108.15 201.46 108.48C201.38 108.8 201.34 109.16 201.34 109.56V111.33C201.34 112.18 201.51 112.83 201.84 113.29C202.16 113.76 202.66 113.99 203.33 113.99ZM202.54 110.45C202.54 110.24 202.62 110.05 202.77 109.9C202.93 109.74 203.11 109.67 203.32 109.67C203.53 109.67 203.72 109.75 203.87 109.9C204.03 110.06 204.1 110.24 204.1 110.45C204.1 110.66 204.02 110.85 203.87 111C203.71 111.16 203.53 111.23 203.32 111.23C203.11 111.23 202.92 111.15 202.77 111C202.62 110.85 202.54 110.66 202.54 110.45Z" fill="black"/>
<path d="M207.83 109.49C207.83 108.37 208.1 107.51 208.63 106.89C209.16 106.27 209.91 105.97 210.86 105.97C211.81 105.97 212.55 106.28 213.09 106.89C213.62 107.51 213.89 108.37 213.89 109.49V111.41C213.89 112.56 213.62 113.43 213.09 114.03C212.56 114.63 211.81 114.93 210.86 114.93C209.91 114.93 209.16 114.63 208.63 114.03C208.1 113.43 207.83 112.56 207.83 111.41V109.49ZM210.86 113.99C211.52 113.99 212.02 113.76 212.36 113.29C212.69 112.83 212.86 112.17 212.86 111.33V109.56C212.86 109.17 212.82 108.81 212.74 108.48C212.66 108.15 212.53 107.88 212.36 107.64C212.19 107.41 211.98 107.22 211.73 107.09C211.48 106.96 211.19 106.89 210.86 106.89C210.52 106.89 210.23 106.96 209.99 107.09C209.74 107.22 209.54 107.4 209.37 107.64C209.2 107.87 209.08 108.15 208.99 108.48C208.91 108.8 208.87 109.16 208.87 109.56V111.33C208.87 112.18 209.04 112.83 209.37 113.29C209.7 113.76 210.2 113.99 210.86 113.99ZM210.07 110.45C210.07 110.24 210.15 110.05 210.3 109.9C210.46 109.74 210.64 109.67 210.85 109.67C211.06 109.67 211.25 109.75 211.4 109.9C211.56 110.06 211.63 110.24 211.63 110.45C211.63 110.66 211.55 110.85 211.4 111C211.24 111.16 211.06 111.23 210.85 111.23C210.64 111.23 210.45 111.15 210.3 111C210.15 110.85 210.07 110.66 210.07 110.45Z" fill="black"/>
<path d="M215.37 109.49C215.37 108.37 215.64 107.51 216.17 106.89C216.7 106.27 217.45 105.97 218.4 105.97C219.35 105.97 220.09 106.28 220.63 106.89C221.16 107.51 221.43 108.37 221.43 109.49V111.41C221.43 112.56 221.16 113.43 220.63 114.03C220.1 114.63 219.35 114.93 218.4 114.93C217.45 114.93 216.7 114.63 216.17 114.03C215.64 113.43 215.37 112.56 215.37 111.41V109.49ZM218.4 113.99C219.06 113.99 219.56 113.76 219.9 113.29C220.23 112.83 220.4 112.17 220.4 111.33V109.56C220.4 109.17 220.36 108.81 220.28 108.48C220.2 108.15 220.07 107.88 219.9 107.64C219.73 107.41 219.52 107.22 219.27 107.09C219.02 106.96 218.73 106.89 218.4 106.89C218.06 106.89 217.77 106.96 217.53 107.09C217.28 107.22 217.08 107.4 216.91 107.64C216.74 107.87 216.62 108.15 216.53 108.48C216.45 108.8 216.41 109.16 216.41 109.56V111.33C216.41 112.18 216.58 112.83 216.91 113.29C217.23 113.76 217.73 113.99 218.4 113.99ZM217.61 110.45C217.61 110.24 217.69 110.05 217.84 109.9C218 109.74 218.18 109.67 218.39 109.67C218.6 109.67 218.79 109.75 218.94 109.9C219.1 110.06 219.17 110.24 219.17 110.45C219.17 110.66 219.09 110.85 218.94 111C218.78 111.16 218.6 111.23 218.39 111.23C218.18 111.23 217.99 111.15 217.84 111C217.69 110.85 217.61 110.66 217.61 110.45Z" fill="black"/>
<path d="M235.5 108.63C235.5 108.35 235.44 108.1 235.33 107.89C235.22 107.68 235.07 107.5 234.88 107.36C234.69 107.22 234.47 107.11 234.23 107.04C233.98 106.97 233.73 106.93 233.45 106.93C233.21 106.93 232.99 106.96 232.77 107.02C232.56 107.08 232.37 107.17 232.2 107.28C232.03 107.4 231.9 107.54 231.8 107.7C231.7 107.87 231.65 108.06 231.65 108.28V108.35C231.65 108.59 231.7 108.79 231.8 108.96C231.9 109.13 232.04 109.27 232.24 109.39C232.43 109.51 232.67 109.61 232.96 109.69C233.25 109.77 233.58 109.84 233.97 109.89C234.87 110.03 235.54 110.29 235.96 110.68C236.39 111.07 236.6 111.59 236.6 112.25V112.4C236.6 112.77 236.54 113.11 236.41 113.42C236.28 113.73 236.09 113.99 235.84 114.21C235.59 114.43 235.28 114.6 234.91 114.73C234.54 114.85 234.11 114.91 233.63 114.91C233.08 114.91 232.59 114.83 232.17 114.67C231.75 114.51 231.39 114.29 231.11 114.01C230.83 113.73 230.61 113.39 230.46 113.01C230.31 112.63 230.24 112.21 230.24 111.76V111.39H231.27V111.69C231.27 112.45 231.48 113.01 231.89 113.39C232.3 113.77 232.88 113.96 233.62 113.96C234.26 113.96 234.74 113.82 235.07 113.54C235.39 113.26 235.56 112.88 235.56 112.41V112.34C235.56 111.89 235.39 111.54 235.06 111.31C234.73 111.07 234.19 110.9 233.44 110.79C233 110.73 232.61 110.64 232.26 110.53C231.91 110.41 231.61 110.26 231.37 110.06C231.12 109.87 230.93 109.64 230.8 109.36C230.67 109.09 230.6 108.77 230.6 108.4V108.25C230.6 107.91 230.67 107.61 230.81 107.33C230.95 107.05 231.14 106.81 231.39 106.6C231.64 106.4 231.94 106.24 232.29 106.13C232.64 106.02 233.02 105.96 233.44 105.96C233.92 105.96 234.36 106.03 234.74 106.17C235.12 106.31 235.44 106.5 235.71 106.73C235.97 106.96 236.17 107.24 236.31 107.55C236.45 107.87 236.51 108.2 236.51 108.54V109.06H235.48V108.63H235.5Z" fill="black"/>
<path d="M243.68 113.87V114.76H238.36V113.23L242.72 109.68V109.53H238.44V108.64H243.54V110.12L239.16 113.72V113.87H243.68Z" fill="black"/>
<path d="M245.78 108.65H247.66V107.1C247.66 106.82 247.75 106.59 247.92 106.41C248.1 106.23 248.32 106.14 248.6 106.14H251.01V107.03H248.94C248.72 107.03 248.61 107.15 248.61 107.4V108.66H251.16V109.55H248.61V114.77H247.65V109.55H245.77V108.65H245.78Z" fill="black"/>
<path d="M257.01 114.76H255.11L252.98 108.65H254.11L255.98 114.31H256.13L258 108.65H259.13L257.01 114.76Z" fill="black"/>
<path d="M265.35 113.72H265.2C265 114.13 264.73 114.43 264.38 114.63C264.03 114.83 263.66 114.93 263.28 114.93C262.88 114.93 262.5 114.86 262.16 114.73C261.82 114.59 261.51 114.39 261.26 114.13C261 113.86 260.8 113.54 260.65 113.15C260.5 112.76 260.43 112.32 260.43 111.81V111.61C260.43 111.11 260.5 110.67 260.65 110.28C260.8 109.89 261 109.57 261.26 109.3C261.52 109.03 261.82 108.83 262.16 108.69C262.5 108.55 262.87 108.48 263.26 108.48C263.68 108.48 264.06 108.57 264.4 108.76C264.74 108.94 265.01 109.23 265.21 109.62H265.36V108.66H266.32V113.51C266.32 113.76 266.43 113.88 266.65 113.88H266.96V114.77H266.31C266.03 114.77 265.8 114.68 265.63 114.5C265.45 114.32 265.37 114.09 265.37 113.81V113.72H265.35ZM263.38 114.02C263.67 114.02 263.93 113.97 264.17 113.86C264.41 113.75 264.62 113.6 264.79 113.4C264.96 113.2 265.1 112.97 265.2 112.69C265.3 112.41 265.35 112.11 265.35 111.77V111.62C265.35 111.29 265.3 110.99 265.2 110.72C265.1 110.44 264.96 110.21 264.79 110.01C264.61 109.81 264.4 109.66 264.16 109.55C263.92 109.44 263.66 109.38 263.38 109.38C263.09 109.38 262.83 109.43 262.59 109.54C262.35 109.65 262.14 109.8 261.97 109.99C261.79 110.18 261.66 110.42 261.56 110.69C261.46 110.97 261.41 111.27 261.41 111.6V111.8C261.41 112.5 261.59 113.04 261.96 113.43C262.32 113.82 262.79 114.02 263.38 114.02ZM264.69 106.29L263.66 107.74H262.77L263.58 106.29H264.69Z" fill="black"/>
<path d="M268.1 108.65H270.32V109.46H270.47C270.63 109.12 270.85 108.88 271.13 108.72C271.42 108.56 271.75 108.48 272.11 108.48C272.73 108.48 273.22 108.68 273.6 109.08C273.98 109.48 274.18 110.07 274.2 110.84L273.19 110.99C273.19 110.42 273.05 110.02 272.78 109.76C272.51 109.51 272.18 109.38 271.78 109.38C271.53 109.38 271.31 109.43 271.12 109.53C270.94 109.63 270.78 109.76 270.66 109.94C270.54 110.11 270.45 110.31 270.39 110.54C270.33 110.77 270.3 111.02 270.3 111.28V113.87H271.85V114.76H267.93V113.87H269.33V109.54H268.07V108.65H268.1Z" fill="black"/>
<path d="M192.97 120.91H198.73V122.46L193.56 128.42V128.57H198.88V129.53H192.67V127.98L197.84 122.02V121.87H192.96V120.91H192.97Z" fill="black"/>
<path d="M201.9 125C201.9 125.3 202.02 125.52 202.28 125.68C202.53 125.84 202.99 125.94 203.65 125.99C204.36 126.05 204.91 126.22 205.28 126.5C205.65 126.78 205.84 127.2 205.84 127.74V127.81C205.84 128.11 205.78 128.37 205.66 128.6C205.54 128.83 205.38 129.03 205.17 129.2C204.96 129.36 204.71 129.49 204.41 129.58C204.11 129.67 203.78 129.71 203.43 129.71C202.95 129.71 202.55 129.65 202.2 129.52C201.86 129.39 201.58 129.22 201.35 129.02C201.12 128.81 200.95 128.57 200.84 128.31C200.72 128.04 200.66 127.77 200.64 127.5L201.55 127.28C201.59 127.75 201.77 128.12 202.09 128.41C202.41 128.69 202.84 128.83 203.37 128.83C203.82 128.83 204.18 128.74 204.46 128.57C204.73 128.39 204.87 128.15 204.87 127.83C204.87 127.48 204.73 127.24 204.46 127.09C204.19 126.94 203.75 126.85 203.14 126.81C202.43 126.76 201.89 126.6 201.51 126.32C201.13 126.04 200.94 125.63 200.94 125.1V125C200.94 124.71 201 124.46 201.12 124.24C201.24 124.02 201.41 123.84 201.62 123.69C201.83 123.54 202.07 123.43 202.33 123.36C202.59 123.29 202.87 123.25 203.15 123.25C203.55 123.25 203.91 123.31 204.21 123.42C204.51 123.53 204.77 123.67 204.97 123.85C205.18 124.03 205.33 124.23 205.44 124.46C205.55 124.69 205.62 124.92 205.66 125.15L204.75 125.37C204.71 124.98 204.55 124.67 204.28 124.45C204.01 124.23 203.65 124.12 203.2 124.12C203.03 124.12 202.86 124.14 202.7 124.18C202.54 124.22 202.4 124.27 202.28 124.35C202.16 124.42 202.06 124.52 201.98 124.63C201.94 124.73 201.9 124.85 201.9 125Z" fill="black"/>
<path d="M213.93 126.55C213.93 127.06 213.85 127.51 213.68 127.9C213.51 128.29 213.29 128.62 213.01 128.88C212.73 129.15 212.4 129.35 212.03 129.49C211.66 129.63 211.27 129.7 210.87 129.7C210.46 129.7 210.07 129.63 209.7 129.49C209.33 129.35 209.01 129.15 208.73 128.88C208.45 128.61 208.23 128.29 208.06 127.9C207.89 127.51 207.81 127.06 207.81 126.55V126.4C207.81 125.9 207.89 125.45 208.06 125.06C208.23 124.67 208.45 124.34 208.74 124.07C209.02 123.8 209.35 123.59 209.72 123.45C210.09 123.31 210.48 123.24 210.88 123.24C211.28 123.24 211.67 123.31 212.04 123.45C212.41 123.59 212.74 123.79 213.02 124.07C213.3 124.34 213.53 124.67 213.7 125.06C213.87 125.45 213.95 125.9 213.95 126.4V126.55H213.93ZM210.86 128.79C211.16 128.79 211.43 128.74 211.68 128.64C211.93 128.54 212.15 128.39 212.34 128.19C212.53 127.99 212.68 127.76 212.78 127.48C212.89 127.21 212.94 126.9 212.94 126.55V126.4C212.94 126.07 212.89 125.77 212.78 125.5C212.67 125.22 212.53 124.99 212.34 124.79C212.15 124.59 211.93 124.44 211.68 124.33C211.43 124.22 211.15 124.16 210.87 124.16C210.58 124.16 210.31 124.22 210.06 124.33C209.81 124.44 209.58 124.59 209.39 124.79C209.2 124.99 209.05 125.22 208.95 125.5C208.84 125.77 208.79 126.08 208.79 126.4V126.55C208.79 126.89 208.84 127.2 208.95 127.48C209.06 127.76 209.2 127.99 209.39 128.19C209.58 128.39 209.8 128.54 210.05 128.64C210.29 128.74 210.57 128.79 210.86 128.79Z" fill="black"/>
<path d="M215.7 128.65H217.92V121.8H215.78V120.91H218.88V128.64H221.1V129.53H215.71V128.65H215.7Z" fill="black"/>
<path d="M223.03 123.43H224.95V120.92H225.91V123.43H228.27V124.32H225.91V128.28C225.91 128.53 226.02 128.65 226.24 128.65H227.98V129.54H225.9C225.62 129.54 225.39 129.45 225.22 129.27C225.04 129.09 224.96 128.86 224.96 128.58V124.32H223.04V123.43H223.03Z" fill="black"/>
<path d="M242.67 123.43H243.63V129.54H242.67V128.43H242.52C242.32 128.82 242.06 129.14 241.74 129.37C241.42 129.6 241.01 129.71 240.52 129.71C240.18 129.71 239.87 129.65 239.59 129.54C239.31 129.43 239.06 129.26 238.86 129.04C238.66 128.82 238.5 128.54 238.39 128.22C238.28 127.89 238.22 127.51 238.22 127.08V123.44H239.18V126.96C239.18 127.6 239.31 128.07 239.57 128.36C239.83 128.66 240.23 128.8 240.78 128.8C241.36 128.8 241.82 128.6 242.15 128.2C242.48 127.8 242.65 127.27 242.65 126.61V123.43H242.67Z" fill="black"/>
<path d="M245.63 123.43H247.55V120.92H248.51V123.43H250.87V124.32H248.51V128.28C248.51 128.53 248.62 128.65 248.84 128.65H250.58V129.54H248.5C248.22 129.54 247.99 129.45 247.82 129.27C247.64 129.09 247.56 128.86 247.56 128.58V124.32H245.64V123.43H245.63Z" fill="black"/>
<path d="M259.09 127.37C259.02 127.71 258.91 128.02 258.75 128.31C258.59 128.6 258.39 128.85 258.14 129.05C257.89 129.26 257.61 129.42 257.28 129.54C256.95 129.66 256.59 129.71 256.18 129.71C255.75 129.71 255.35 129.64 254.97 129.5C254.59 129.36 254.25 129.16 253.97 128.89C253.68 128.62 253.45 128.3 253.29 127.91C253.12 127.52 253.04 127.08 253.04 126.58V126.43C253.04 125.94 253.12 125.49 253.29 125.1C253.46 124.71 253.69 124.37 253.97 124.1C254.26 123.83 254.59 123.62 254.97 123.47C255.35 123.32 255.76 123.25 256.18 123.25C256.57 123.25 256.92 123.31 257.25 123.42C257.58 123.54 257.87 123.7 258.12 123.91C258.37 124.12 258.58 124.37 258.74 124.65C258.9 124.94 259.01 125.25 259.07 125.59L258.11 125.81C258.09 125.6 258.03 125.39 257.93 125.19C257.84 124.99 257.71 124.81 257.55 124.66C257.39 124.51 257.19 124.39 256.97 124.3C256.74 124.21 256.47 124.16 256.17 124.16C255.87 124.16 255.6 124.22 255.34 124.33C255.08 124.44 254.85 124.6 254.66 124.8C254.46 125 254.31 125.24 254.2 125.52C254.09 125.8 254.03 126.1 254.03 126.43V126.58C254.03 126.92 254.09 127.23 254.2 127.51C254.31 127.79 254.46 128.02 254.66 128.21C254.86 128.4 255.09 128.54 255.35 128.65C255.61 128.75 255.9 128.8 256.2 128.8C256.5 128.8 256.77 128.75 256.99 128.66C257.22 128.57 257.41 128.44 257.57 128.29C257.73 128.14 257.86 127.96 257.95 127.77C258.04 127.57 258.11 127.37 258.14 127.15L259.09 127.37Z" fill="black"/>
<path d="M265.35 128.5H265.2C265 128.91 264.73 129.21 264.38 129.41C264.03 129.61 263.66 129.71 263.28 129.71C262.88 129.71 262.5 129.64 262.16 129.51C261.82 129.37 261.51 129.17 261.26 128.91C261 128.64 260.8 128.32 260.65 127.93C260.5 127.54 260.43 127.1 260.43 126.59V126.39C260.43 125.89 260.5 125.45 260.65 125.06C260.8 124.67 261 124.35 261.26 124.08C261.52 123.81 261.82 123.61 262.16 123.47C262.5 123.33 262.87 123.26 263.26 123.26C263.68 123.26 264.06 123.35 264.4 123.54C264.74 123.72 265.01 124.01 265.21 124.4H265.36V123.44H266.32V128.29C266.32 128.54 266.43 128.66 266.65 128.66H266.96V129.55H266.31C266.03 129.55 265.8 129.46 265.63 129.28C265.45 129.1 265.37 128.87 265.37 128.59V128.5H265.35ZM263.38 128.79C263.67 128.79 263.93 128.74 264.17 128.63C264.41 128.52 264.62 128.37 264.79 128.17C264.96 127.97 265.1 127.74 265.2 127.46C265.3 127.18 265.35 126.88 265.35 126.54V126.39C265.35 126.06 265.3 125.76 265.2 125.49C265.1 125.21 264.96 124.98 264.79 124.78C264.61 124.58 264.4 124.43 264.16 124.32C263.92 124.21 263.66 124.15 263.38 124.15C263.09 124.15 262.83 124.2 262.59 124.31C262.35 124.42 262.14 124.57 261.97 124.76C261.79 124.95 261.66 125.19 261.56 125.46C261.46 125.74 261.41 126.04 261.41 126.37V126.57C261.41 127.27 261.59 127.81 261.96 128.2C262.32 128.6 262.79 128.79 263.38 128.79Z" fill="black"/>
<path d="M278.23 128.57V121.37H278.08L276.66 124.61H275.64V124.54L277.25 120.92H279.26V128.58H281.7V129.54H275.79V128.58H278.23V128.57Z" fill="black"/>
<path d="M285.36 128.84C285.36 128.6 285.44 128.4 285.61 128.23C285.78 128.06 285.98 127.98 286.22 127.98C286.46 127.98 286.66 128.06 286.83 128.23C287 128.4 287.08 128.6 287.08 128.84C287.08 129.08 287 129.28 286.83 129.45C286.66 129.62 286.46 129.7 286.22 129.7C285.98 129.7 285.78 129.62 285.61 129.45C285.44 129.29 285.36 129.08 285.36 128.84Z" fill="black"/>
<path d="M193.22 139.3H195.09V137.43H196.49V139.3H198.36V140.7H196.49V142.57H195.09V140.7H193.22V139.3Z" fill="black"/>
<path d="M202.49 140.61V138.05L204.63 137.46V137.24H200.35V135.69H205.96V138.4L203.67 139.07V139.29H203.97C204.27 139.29 204.57 139.34 204.87 139.43C205.17 139.52 205.43 139.67 205.65 139.87C205.88 140.07 206.06 140.31 206.2 140.6C206.34 140.89 206.41 141.23 206.41 141.63V141.78C206.41 142.17 206.35 142.52 206.22 142.85C206.09 143.18 205.9 143.46 205.65 143.71C205.4 143.95 205.09 144.14 204.72 144.28C204.35 144.42 203.93 144.49 203.45 144.49C202.97 144.49 202.53 144.41 202.13 144.26C201.74 144.1 201.4 143.89 201.13 143.62C200.85 143.35 200.64 143.04 200.5 142.68C200.35 142.33 200.28 141.95 200.28 141.56V141.04H201.91V141.48C201.91 141.87 202.04 142.21 202.29 142.5C202.54 142.79 202.93 142.93 203.44 142.93C203.87 142.93 204.21 142.82 204.44 142.6C204.67 142.38 204.79 142.09 204.79 141.73C204.79 141.34 204.66 141.06 204.41 140.89C204.16 140.71 203.84 140.63 203.46 140.63H202.49V140.61Z" fill="black"/>
<path d="M212.15 138.13C212.15 137.84 212.05 137.59 211.84 137.39C211.63 137.18 211.3 137.08 210.86 137.08C210.42 137.08 210.07 137.21 209.81 137.47C209.55 137.73 209.42 138.07 209.42 138.49V139.6H209.64C209.78 139.31 210.01 139.08 210.32 138.9C210.63 138.72 210.99 138.64 211.38 138.64C211.73 138.64 212.07 138.7 212.38 138.83C212.69 138.96 212.96 139.14 213.19 139.37C213.42 139.6 213.6 139.89 213.73 140.23C213.86 140.57 213.93 140.95 213.93 141.38V141.53C213.93 141.96 213.86 142.37 213.71 142.73C213.57 143.1 213.36 143.41 213.09 143.67C212.82 143.93 212.5 144.14 212.12 144.29C211.74 144.44 211.32 144.51 210.85 144.51C210.42 144.51 210.02 144.44 209.65 144.3C209.28 144.16 208.95 143.97 208.68 143.72C208.4 143.47 208.19 143.17 208.03 142.82C207.87 142.47 207.79 142.09 207.79 141.67V138.53C207.79 138.08 207.87 137.67 208.04 137.3C208.2 136.93 208.43 136.62 208.7 136.36C208.98 136.1 209.3 135.9 209.67 135.76C210.04 135.62 210.42 135.55 210.83 135.55C211.24 135.55 211.62 135.61 211.98 135.73C212.34 135.85 212.65 136.02 212.92 136.25C213.19 136.48 213.4 136.75 213.55 137.07C213.7 137.39 213.78 137.76 213.78 138.16H212.15V138.13ZM210.86 142.93C211.28 142.93 211.62 142.8 211.89 142.55C212.16 142.3 212.3 141.97 212.3 141.55C212.3 141.13 212.16 140.8 211.89 140.55C211.62 140.3 211.27 140.17 210.86 140.17C210.44 140.17 210.1 140.3 209.83 140.55C209.56 140.8 209.42 141.13 209.42 141.55C209.42 141.97 209.56 142.3 209.83 142.55C210.1 142.8 210.44 142.93 210.86 142.93Z" fill="black"/>
<path d="M229.02 142.76V144.31H222.96V142.61C222.96 142.16 223.03 141.77 223.16 141.45C223.3 141.13 223.49 140.86 223.74 140.64C223.99 140.42 224.29 140.24 224.64 140.09C224.99 139.95 225.39 139.83 225.83 139.73C226.16 139.66 226.43 139.57 226.64 139.48C226.85 139.39 227.02 139.28 227.14 139.16C227.26 139.04 227.35 138.91 227.39 138.77C227.44 138.63 227.46 138.46 227.46 138.28C227.46 137.93 227.33 137.65 227.08 137.42C226.83 137.19 226.48 137.08 226.04 137.08C225.57 137.08 225.2 137.22 224.92 137.5C224.64 137.78 224.5 138.18 224.5 138.68V139.22H222.87V138.53C222.87 138.13 222.94 137.74 223.09 137.38C223.23 137.02 223.44 136.69 223.71 136.42C223.98 136.15 224.3 135.93 224.69 135.77C225.08 135.61 225.51 135.53 226 135.53C226.52 135.53 226.97 135.61 227.35 135.76C227.74 135.91 228.06 136.11 228.32 136.36C228.58 136.61 228.77 136.89 228.9 137.22C229.03 137.54 229.09 137.88 229.09 138.22V138.37C229.09 139.09 228.89 139.69 228.48 140.17C228.07 140.65 227.41 140.99 226.49 141.2C226.1 141.29 225.79 141.38 225.54 141.48C225.29 141.57 225.09 141.68 224.95 141.79C224.81 141.9 224.71 142.03 224.66 142.17C224.61 142.31 224.58 142.46 224.58 142.63V142.78H229.02V142.76Z" fill="black"/>
<path d="M230.29 139.04C230.29 137.92 230.57 137.06 231.13 136.44C231.69 135.82 232.47 135.52 233.46 135.52C234.45 135.52 235.23 135.83 235.79 136.44C236.35 137.06 236.63 137.92 236.63 139.04V140.96C236.63 142.11 236.35 142.98 235.79 143.58C235.23 144.18 234.45 144.48 233.46 144.48C232.47 144.48 231.69 144.18 231.13 143.58C230.57 142.98 230.29 142.11 230.29 140.96V139.04ZM233.47 143C233.77 143 234.01 142.95 234.21 142.86C234.41 142.77 234.57 142.63 234.69 142.46C234.81 142.29 234.9 142.08 234.95 141.84C235 141.6 235.02 141.34 235.02 141.05V138.93C235.02 138.66 234.99 138.41 234.93 138.17C234.87 137.93 234.78 137.73 234.66 137.55C234.54 137.38 234.38 137.24 234.18 137.14C233.98 137.04 233.74 136.99 233.47 136.99C233.19 136.99 232.95 137.04 232.76 137.14C232.56 137.24 232.4 137.38 232.28 137.55C232.16 137.72 232.07 137.93 232.01 138.17C231.95 138.41 231.92 138.66 231.92 138.93V141.05C231.92 141.34 231.94 141.6 231.99 141.84C232.04 142.08 232.13 142.28 232.25 142.46C232.37 142.63 232.53 142.77 232.73 142.86C232.93 142.95 233.17 143 233.47 143ZM232.43 140C232.43 139.72 232.53 139.48 232.74 139.27C232.95 139.06 233.19 138.96 233.47 138.96C233.75 138.96 233.99 139.06 234.2 139.27C234.4 139.48 234.51 139.72 234.51 140C234.51 140.28 234.41 140.52 234.2 140.73C233.99 140.93 233.75 141.04 233.47 141.04C233.19 141.04 232.95 140.94 232.74 140.73C232.54 140.52 232.43 140.28 232.43 140Z" fill="black"/>
<path d="M245.58 140.47V135.69H251.34V137.24H247.2V139.58H247.42C247.53 139.26 247.75 138.98 248.07 138.75C248.39 138.52 248.81 138.4 249.34 138.4C249.74 138.4 250.1 138.47 250.42 138.61C250.74 138.75 251.01 138.94 251.23 139.19C251.45 139.44 251.62 139.73 251.74 140.08C251.86 140.42 251.92 140.8 251.92 141.21V141.28C251.92 141.71 251.85 142.13 251.7 142.51C251.56 142.9 251.35 143.23 251.07 143.53C250.79 143.82 250.46 144.05 250.05 144.23C249.65 144.4 249.18 144.49 248.66 144.49C248.13 144.49 247.67 144.42 247.27 144.27C246.87 144.13 246.53 143.93 246.25 143.67C245.97 143.41 245.77 143.1 245.62 142.75C245.48 142.39 245.4 142 245.4 141.59V141.29H247.03V141.44C247.03 141.88 247.16 142.23 247.43 142.52C247.7 142.81 248.09 142.94 248.61 142.94C249.13 142.94 249.54 142.8 249.84 142.52C250.14 142.24 250.29 141.85 250.29 141.36C250.29 140.89 250.18 140.54 249.96 140.31C249.74 140.08 249.45 139.96 249.09 139.96C248.85 139.96 248.66 140.01 248.51 140.11C248.36 140.21 248.27 140.33 248.23 140.47H245.58V140.47Z" fill="black"/>
<path d="M255.56 142.76V136.51H255.34L254.53 139.46H252.98V139.31L254.01 135.69H257.19V142.76H259.33V144.31H253.12V142.76H255.56V142.76Z" fill="black"/>
<path d="M263.09 142.76V136.51H262.87L262.06 139.46H260.51V139.31L261.54 135.69H264.72V142.76H266.86V144.31H260.65V142.76H263.09V142.76Z" fill="black"/>
<path d="M279.97 138.13C279.97 137.84 279.87 137.59 279.66 137.39C279.45 137.18 279.12 137.08 278.68 137.08C278.24 137.08 277.89 137.21 277.63 137.47C277.37 137.73 277.24 138.07 277.24 138.49V139.6H277.46C277.6 139.31 277.83 139.08 278.14 138.9C278.45 138.72 278.81 138.64 279.2 138.64C279.55 138.64 279.89 138.7 280.2 138.83C280.51 138.96 280.78 139.14 281.01 139.37C281.24 139.6 281.42 139.89 281.55 140.23C281.68 140.57 281.75 140.95 281.75 141.38V141.53C281.75 141.96 281.68 142.37 281.53 142.73C281.39 143.1 281.18 143.41 280.91 143.67C280.64 143.93 280.32 144.14 279.94 144.29C279.56 144.44 279.14 144.51 278.67 144.51C278.24 144.51 277.84 144.44 277.47 144.3C277.1 144.16 276.77 143.97 276.5 143.72C276.23 143.47 276.01 143.17 275.85 142.82C275.69 142.47 275.61 142.09 275.61 141.67V138.53C275.61 138.08 275.69 137.67 275.86 137.3C276.02 136.93 276.25 136.62 276.52 136.36C276.8 136.1 277.12 135.9 277.49 135.76C277.86 135.62 278.24 135.55 278.65 135.55C279.06 135.55 279.44 135.61 279.8 135.73C280.16 135.85 280.47 136.02 280.74 136.25C281.01 136.48 281.22 136.75 281.37 137.07C281.52 137.39 281.6 137.76 281.6 138.16H279.97V138.13ZM278.68 142.93C279.1 142.93 279.44 142.8 279.71 142.55C279.98 142.3 280.12 141.97 280.12 141.55C280.12 141.13 279.98 140.8 279.71 140.55C279.44 140.3 279.09 140.17 278.68 140.17C278.27 140.17 277.92 140.3 277.65 140.55C277.38 140.8 277.24 141.13 277.24 141.55C277.24 141.97 277.38 142.3 277.65 142.55C277.92 142.8 278.26 142.93 278.68 142.93Z" fill="black"/>
<path d="M283.26 140.47V135.69H289.02V137.24H284.88V139.58H285.1C285.21 139.26 285.43 138.98 285.75 138.75C286.07 138.52 286.49 138.4 287.02 138.4C287.42 138.4 287.78 138.47 288.1 138.61C288.42 138.75 288.69 138.94 288.91 139.19C289.13 139.44 289.3 139.73 289.42 140.08C289.54 140.42 289.6 140.8 289.6 141.21V141.28C289.6 141.71 289.53 142.13 289.38 142.51C289.24 142.9 289.03 143.23 288.75 143.53C288.47 143.82 288.14 144.05 287.73 144.23C287.33 144.4 286.86 144.49 286.34 144.49C285.81 144.49 285.35 144.42 284.95 144.27C284.55 144.13 284.21 143.93 283.93 143.67C283.66 143.41 283.45 143.1 283.3 142.75C283.16 142.39 283.08 142 283.08 141.59V141.29H284.71V141.44C284.71 141.88 284.84 142.23 285.11 142.52C285.38 142.81 285.77 142.94 286.29 142.94C286.81 142.94 287.22 142.8 287.52 142.52C287.82 142.24 287.97 141.85 287.97 141.36C287.97 140.89 287.86 140.54 287.64 140.31C287.42 140.08 287.13 139.96 286.77 139.96C286.53 139.96 286.34 140.01 286.19 140.11C286.04 140.21 285.95 140.33 285.91 140.47H283.26V140.47Z" fill="black"/>
<path d="M300.77 142.76V136.51H300.55L299.74 139.46H298.19V139.31L299.22 135.69H302.4V142.76H304.54V144.31H298.33V142.76H300.77V142.76Z" fill="black"/>
<path d="M305.65 139.04C305.65 137.92 305.93 137.06 306.49 136.44C307.05 135.82 307.83 135.52 308.82 135.52C309.81 135.52 310.59 135.83 311.15 136.44C311.71 137.06 311.99 137.92 311.99 139.04V140.96C311.99 142.11 311.71 142.98 311.15 143.58C310.59 144.18 309.81 144.48 308.82 144.48C307.83 144.48 307.05 144.18 306.49 143.58C305.93 142.98 305.65 142.11 305.65 140.96V139.04ZM308.82 143C309.12 143 309.36 142.95 309.56 142.86C309.76 142.77 309.92 142.63 310.04 142.46C310.16 142.29 310.25 142.08 310.3 141.84C310.35 141.6 310.37 141.34 310.37 141.05V138.93C310.37 138.66 310.34 138.41 310.28 138.17C310.22 137.93 310.13 137.73 310.01 137.55C309.89 137.38 309.73 137.24 309.53 137.14C309.33 137.04 309.09 136.99 308.82 136.99C308.54 136.99 308.3 137.04 308.11 137.14C307.91 137.24 307.75 137.38 307.63 137.55C307.51 137.72 307.42 137.93 307.36 138.17C307.3 138.41 307.27 138.66 307.27 138.93V141.05C307.27 141.34 307.29 141.6 307.34 141.84C307.39 142.08 307.48 142.28 307.6 142.46C307.72 142.63 307.88 142.77 308.08 142.86C308.28 142.95 308.53 143 308.82 143ZM307.79 140C307.79 139.72 307.89 139.48 308.1 139.27C308.31 139.06 308.55 138.96 308.83 138.96C309.11 138.96 309.35 139.06 309.56 139.27C309.76 139.48 309.87 139.72 309.87 140C309.87 140.28 309.77 140.52 309.56 140.73C309.35 140.93 309.11 141.04 308.83 141.04C308.55 141.04 308.31 140.94 308.1 140.73C307.89 140.52 307.79 140.28 307.79 140Z" fill="black"/>
<path d="M10.2502 91.1899H0.220215V171.92H10.2502V91.1899Z" fill="#184FD6"/>
<path d="M24.1202 107.18H21.2402V95.85H24.1202V97.54H24.5302C24.7902 96.9 25.2102 96.41 25.7902 96.06C26.3702 95.71 27.0502 95.53 27.8202 95.53C28.3702 95.53 28.8802 95.62 29.3602 95.79C29.8402 95.96 30.2602 96.24 30.6302 96.6C31.0002 96.97 31.2802 97.43 31.4902 97.99C31.7002 98.55 31.8002 99.22 31.8002 100V107.17H28.9202V100.73C28.9202 99.92 28.7302 99.29 28.3402 98.82C27.9502 98.36 27.3902 98.12 26.6602 98.12C25.8102 98.12 25.1702 98.41 24.7502 98.98C24.3302 99.55 24.1202 100.32 24.1202 101.27V107.18V107.18Z" fill="black"/>
<path d="M42.9002 95.8498H45.7802V109.96C45.7802 110.48 45.6202 110.9 45.2902 111.24C44.9602 111.57 44.5402 111.74 44.0202 111.74H37.2802V109H42.2802C42.6902 109 42.9002 108.77 42.9002 108.32V105.53H42.4902C41.9902 106.84 40.9102 107.49 39.2502 107.49C38.6902 107.49 38.1602 107.4 37.6702 107.22C37.1802 107.04 36.7602 106.76 36.3902 106.37C36.0202 105.99 35.7402 105.51 35.5302 104.94C35.3202 104.37 35.2202 103.7 35.2202 102.92V95.8398H38.1002V102.33C38.1002 103.14 38.2902 103.76 38.6702 104.21C39.0502 104.66 39.6202 104.88 40.3802 104.88C41.2502 104.88 41.8802 104.6 42.2902 104.05C42.6902 103.49 42.9002 102.74 42.9002 101.78V95.8498V95.8498Z" fill="black"/>
<path d="M49.4004 104.44H53.2404V98.5899H49.6804V95.8499H56.1204V104.44H59.4004V107.18H49.4004V104.44Z" fill="black"/>
<path d="M61.4902 95.8499H64.8502V91.1899H67.7302V95.8499H71.8202V98.5899H67.7302V103.75C67.7302 104.21 67.9402 104.44 68.3502 104.44H71.4102V107.18H66.6102C66.0902 107.18 65.6702 107.01 65.3402 106.68C65.0102 106.35 64.8502 105.92 64.8502 105.4V98.5999H61.4902V95.8499V95.8499Z" fill="black"/>
<path d="M74.9902 95.8499H78.1002L80.7702 105.81H81.1802L83.8502 95.8499H86.9602L83.7202 107.18H78.2402L74.9902 95.8499Z" fill="black"/>
<path d="M97.0901 105.53C96.7901 106.25 96.3601 106.75 95.8101 107.05C95.2601 107.35 94.6201 107.5 93.8901 107.5C93.2001 107.5 92.5601 107.37 91.9601 107.11C91.3601 106.85 90.8301 106.47 90.3701 105.97C89.9101 105.47 89.5501 104.86 89.2901 104.14C89.0201 103.42 88.8901 102.61 88.8901 101.7V101.33C88.8901 100.43 89.0201 99.63 89.2801 98.91C89.5401 98.19 89.8901 97.59 90.3301 97.08C90.7701 96.58 91.2901 96.19 91.8701 95.93C92.4601 95.66 93.0801 95.53 93.7501 95.53C94.5601 95.53 95.2101 95.67 95.7001 95.94C96.1901 96.21 96.5901 96.64 96.8801 97.22H97.2901V95.85H100.17V103.75C100.17 104.21 100.38 104.44 100.79 104.44H101.22V107.18H99.2601C98.7401 107.18 98.3201 107.03 97.9901 106.72C97.6601 106.42 97.5001 106.02 97.5001 105.53H97.0901V105.53ZM94.5301 104.75C95.3701 104.75 96.0401 104.47 96.5401 103.92C97.0401 103.36 97.2901 102.61 97.2901 101.65V101.38C97.2901 100.42 97.0401 99.66 96.5401 99.11C96.0401 98.55 95.3701 98.28 94.5301 98.28C93.6901 98.28 93.0201 98.56 92.5201 99.11C92.0201 99.67 91.7701 100.42 91.7701 101.38V101.65C91.7701 102.61 92.0201 103.37 92.5201 103.92C93.0301 104.48 93.7001 104.75 94.5301 104.75Z" fill="black"/>
<path d="M22.9302 122.1H23.1402L25.4702 119.56H26.6502V119.63L24.1102 122.42V122.64L26.9402 125.58V125.65H25.7602L23.1602 122.97H22.9302V125.65H21.9702V117.03H22.9302V122.1V122.1Z" fill="black"/>
<path d="M29.6004 122.91C29.6204 123.52 29.8104 124.01 30.1704 124.38C30.5204 124.75 31.0204 124.93 31.6504 124.93C31.9404 124.93 32.1904 124.9 32.4004 124.83C32.6104 124.76 32.8004 124.67 32.9504 124.56C33.1004 124.45 33.2204 124.31 33.3204 124.16C33.4104 124.01 33.4904 123.85 33.5504 123.67L34.4604 123.92C34.2904 124.49 33.9704 124.95 33.5104 125.31C33.0504 125.67 32.4204 125.85 31.6304 125.85C31.1904 125.85 30.7904 125.77 30.4304 125.62C30.0604 125.47 29.7504 125.25 29.4904 124.97C29.2304 124.69 29.0204 124.36 28.8704 123.97C28.7204 123.58 28.6504 123.16 28.6504 122.69V122.39C28.6504 121.96 28.7304 121.57 28.8804 121.2C29.0304 120.83 29.2404 120.51 29.5104 120.25C29.7804 119.98 30.1004 119.77 30.4604 119.62C30.8304 119.47 31.2204 119.39 31.6504 119.39C32.1504 119.39 32.5804 119.48 32.9504 119.67C33.3204 119.85 33.6104 120.08 33.8504 120.35C34.0804 120.62 34.2604 120.92 34.3704 121.24C34.4804 121.56 34.5404 121.86 34.5404 122.13V122.92H29.6004V122.91ZM31.6404 120.3C31.3704 120.3 31.1204 120.34 30.8804 120.43C30.6504 120.52 30.4404 120.64 30.2604 120.79C30.0804 120.95 29.9404 121.13 29.8304 121.34C29.7204 121.55 29.6504 121.78 29.6104 122.02H33.5504C33.5304 121.76 33.4704 121.52 33.3604 121.31C33.2504 121.1 33.1104 120.92 32.9304 120.77C32.7504 120.62 32.5504 120.51 32.3304 120.43C32.1104 120.35 31.8804 120.3 31.6404 120.3Z" fill="black"/>
<path d="M41.1603 124.74H41.0103C40.9103 124.93 40.7903 125.09 40.6303 125.23C40.4803 125.37 40.3103 125.48 40.1403 125.57C39.9603 125.66 39.7803 125.73 39.5803 125.77C39.3803 125.81 39.1903 125.84 39.0103 125.84C38.6003 125.84 38.2203 125.77 37.8603 125.63C37.5103 125.49 37.2003 125.29 36.9303 125.03C36.6603 124.77 36.4503 124.44 36.3003 124.05C36.1503 123.66 36.0703 123.21 36.0703 122.71V122.51C36.0703 122.02 36.1503 121.58 36.3003 121.19C36.4603 120.8 36.6703 120.47 36.9303 120.21C37.1903 119.94 37.5003 119.74 37.8503 119.6C38.2003 119.46 38.5803 119.39 38.9703 119.39C39.3903 119.39 39.7803 119.48 40.1503 119.67C40.5203 119.85 40.8003 120.14 40.9903 120.53H41.1403V117.06H42.1003V125.68H41.1403V124.74H41.1603ZM39.1103 124.93C39.4003 124.93 39.6603 124.88 39.9103 124.77C40.1603 124.66 40.3703 124.51 40.5603 124.31C40.7503 124.11 40.8903 123.88 41.0003 123.6C41.1103 123.33 41.1603 123.02 41.1603 122.68V122.53C41.1603 122.2 41.1103 121.9 41.0003 121.63C40.8903 121.36 40.7503 121.12 40.5603 120.92C40.3803 120.72 40.1603 120.57 39.9103 120.46C39.6603 120.35 39.3903 120.29 39.1203 120.29C38.8303 120.29 38.5603 120.34 38.3103 120.45C38.0603 120.56 37.8403 120.71 37.6603 120.91C37.4803 121.11 37.3303 121.34 37.2303 121.61C37.1303 121.88 37.0803 122.18 37.0803 122.51V122.71C37.0803 123.05 37.1303 123.36 37.2303 123.63C37.3303 123.9 37.4803 124.13 37.6603 124.33C37.8403 124.52 38.0603 124.67 38.3103 124.77C38.5603 124.87 38.8203 124.93 39.1103 124.93Z" fill="black"/>
<path d="M48.6901 124.74H48.5401C48.4401 124.93 48.3201 125.09 48.1601 125.23C48.0101 125.37 47.8401 125.48 47.6701 125.57C47.4901 125.66 47.3101 125.73 47.1101 125.77C46.9101 125.81 46.7201 125.84 46.5401 125.84C46.1301 125.84 45.7501 125.77 45.3901 125.63C45.0401 125.49 44.7301 125.29 44.4601 125.03C44.1901 124.77 43.9801 124.44 43.8301 124.05C43.6801 123.66 43.6001 123.21 43.6001 122.71V122.51C43.6001 122.02 43.6801 121.58 43.8301 121.19C43.9901 120.8 44.2001 120.47 44.4601 120.21C44.7201 119.94 45.0301 119.74 45.3801 119.6C45.7301 119.46 46.1101 119.39 46.5001 119.39C46.9201 119.39 47.3101 119.48 47.6801 119.67C48.0501 119.85 48.3301 120.14 48.5201 120.53H48.6701V117.06H49.6301V125.68H48.6701V124.74H48.6901ZM46.6501 124.93C46.9401 124.93 47.2001 124.88 47.4501 124.77C47.7001 124.66 47.9101 124.51 48.1001 124.31C48.2901 124.11 48.4301 123.88 48.5401 123.6C48.6501 123.33 48.7001 123.02 48.7001 122.68V122.53C48.7001 122.2 48.6501 121.9 48.5401 121.63C48.4301 121.36 48.2901 121.12 48.1001 120.92C47.9201 120.72 47.7001 120.57 47.4501 120.46C47.2001 120.35 46.9301 120.29 46.6601 120.29C46.3701 120.29 46.1001 120.34 45.8501 120.45C45.6001 120.56 45.3801 120.71 45.2001 120.91C45.0201 121.11 44.8701 121.34 44.7701 121.61C44.6701 121.88 44.6201 122.18 44.6201 122.51V122.71C44.6201 123.05 44.6701 123.36 44.7701 123.63C44.8701 123.9 45.0201 124.13 45.2001 124.33C45.3801 124.52 45.6001 124.67 45.8501 124.77C46.1001 124.87 46.3501 124.93 46.6501 124.93Z" fill="black"/>
<path d="M59.8901 122.03H63.5801V122.92H59.8901V122.03Z" fill="black"/>
<path d="M75.3704 121.14C75.3704 121.44 75.4904 121.66 75.7504 121.82C76.0004 121.98 76.4604 122.08 77.1204 122.13C77.8304 122.19 78.3804 122.36 78.7504 122.64C79.1204 122.92 79.3103 123.34 79.3103 123.88V123.95C79.3103 124.25 79.2503 124.51 79.1303 124.74C79.0103 124.97 78.8504 125.17 78.6404 125.34C78.4304 125.5 78.1803 125.63 77.8803 125.72C77.5803 125.81 77.2504 125.85 76.9004 125.85C76.4204 125.85 76.0203 125.79 75.6703 125.66C75.3303 125.53 75.0504 125.36 74.8204 125.16C74.5904 124.95 74.4203 124.71 74.3103 124.45C74.1903 124.18 74.1304 123.91 74.1104 123.64L75.0203 123.42C75.0603 123.89 75.2403 124.26 75.5603 124.55C75.8803 124.83 76.3103 124.97 76.8403 124.97C77.2903 124.97 77.6504 124.88 77.9304 124.71C78.2004 124.53 78.3403 124.29 78.3403 123.96C78.3403 123.62 78.2004 123.37 77.9304 123.22C77.6604 123.07 77.2204 122.98 76.6104 122.94C75.9004 122.89 75.3604 122.73 74.9804 122.45C74.6004 122.17 74.4104 121.76 74.4104 121.23V121.16C74.4104 120.87 74.4703 120.62 74.5903 120.4C74.7103 120.18 74.8803 120 75.0903 119.85C75.3003 119.7 75.5404 119.59 75.8004 119.52C76.0604 119.45 76.3404 119.41 76.6204 119.41C77.0204 119.41 77.3804 119.47 77.6804 119.58C77.9804 119.69 78.2404 119.83 78.4404 120.01C78.6504 120.19 78.8004 120.39 78.9104 120.62C79.0204 120.85 79.0903 121.08 79.1303 121.31L78.2204 121.53C78.1804 121.14 78.0204 120.83 77.7504 120.61C77.4704 120.39 77.1203 120.28 76.6703 120.28C76.5003 120.28 76.3303 120.3 76.1703 120.34C76.0103 120.38 75.8704 120.43 75.7504 120.51C75.6304 120.58 75.5303 120.68 75.4503 120.79C75.4103 120.86 75.3704 120.99 75.3704 121.14Z" fill="black"/>
<path d="M87.0104 124.79V125.68H81.6904V124.15L86.0504 120.6V120.45H81.7704V119.56H86.8704V121.04L82.4904 124.64V124.79H87.0104Z" fill="black"/>
<path d="M94.9403 122.69C94.9403 123.2 94.8603 123.65 94.6903 124.04C94.5203 124.43 94.3003 124.76 94.0203 125.02C93.7403 125.29 93.4103 125.49 93.0403 125.63C92.6703 125.77 92.2803 125.84 91.8803 125.84C91.4703 125.84 91.0803 125.77 90.7103 125.63C90.3403 125.49 90.0203 125.29 89.7403 125.02C89.4603 124.75 89.2403 124.43 89.0703 124.04C88.9003 123.65 88.8203 123.2 88.8203 122.69V122.54C88.8203 122.04 88.9003 121.59 89.0703 121.2C89.2403 120.81 89.4603 120.48 89.7503 120.21C90.0303 119.94 90.3603 119.73 90.7303 119.59C91.1003 119.45 91.4903 119.38 91.8903 119.38C92.2903 119.38 92.6803 119.45 93.0503 119.59C93.4203 119.73 93.7503 119.93 94.0303 120.21C94.3103 120.48 94.5403 120.81 94.7103 121.2C94.8803 121.59 94.9603 122.04 94.9603 122.54V122.69H94.9403ZM91.8703 124.93C92.1703 124.93 92.4403 124.88 92.6903 124.78C92.9403 124.68 93.1603 124.53 93.3503 124.33C93.5403 124.13 93.6903 123.9 93.7903 123.62C93.9003 123.35 93.9503 123.04 93.9503 122.69V122.54C93.9503 122.21 93.9003 121.91 93.7903 121.64C93.6803 121.37 93.5403 121.13 93.3503 120.93C93.1603 120.73 92.9403 120.58 92.6903 120.47C92.4403 120.36 92.1603 120.3 91.8803 120.3C91.5903 120.3 91.3203 120.36 91.0703 120.47C90.8203 120.58 90.5903 120.73 90.4003 120.93C90.2103 121.13 90.0603 121.36 89.9603 121.64C89.8503 121.92 89.8003 122.22 89.8003 122.54V122.69C89.8003 123.03 89.8503 123.34 89.9603 123.62C90.0703 123.9 90.2103 124.13 90.4003 124.33C90.5903 124.53 90.8103 124.68 91.0603 124.78C91.3103 124.88 91.5803 124.93 91.8703 124.93Z" fill="black"/>
<path d="M102.59 125.67H101.63V121.29C101.63 121 101.56 120.77 101.43 120.58C101.3 120.4 101.09 120.3 100.8 120.3C100.53 120.3 100.31 120.4 100.14 120.6C99.9702 120.8 99.8902 121.11 99.8902 121.53V125.67H98.9302V121.24C98.9302 120.97 98.8602 120.75 98.7102 120.57C98.5602 120.39 98.3702 120.31 98.1202 120.31C97.8202 120.31 97.6002 120.42 97.4402 120.63C97.2802 120.84 97.2002 121.12 97.2002 121.47V125.68H96.2402V119.57H97.2002V120.24H97.3502C97.4602 119.95 97.6102 119.74 97.8202 119.61C98.0202 119.47 98.2702 119.41 98.5502 119.41C98.8502 119.41 99.0902 119.49 99.2802 119.64C99.4702 119.8 99.6102 120 99.6802 120.24H99.8302C100.11 119.68 100.55 119.4 101.16 119.4C101.62 119.4 101.97 119.55 102.22 119.84C102.47 120.13 102.6 120.51 102.6 120.98V125.67H102.59Z" fill="black"/>
<path d="M104.99 125.67H104.03V117.05H104.99V120.52H105.14C105.35 120.15 105.65 119.87 106.03 119.68C106.41 119.49 106.82 119.39 107.26 119.39C107.64 119.39 107.99 119.46 108.33 119.6C108.67 119.74 108.96 119.94 109.22 120.2C109.48 120.46 109.68 120.79 109.84 121.17C109.99 121.56 110.07 121.99 110.07 122.49V122.74C110.07 123.24 110 123.68 109.85 124.07C109.7 124.46 109.5 124.78 109.24 125.04C108.98 125.3 108.68 125.5 108.34 125.64C108 125.78 107.63 125.84 107.24 125.84C107.04 125.84 106.84 125.82 106.64 125.77C106.43 125.72 106.24 125.66 106.06 125.56C105.88 125.47 105.7 125.35 105.55 125.22C105.39 125.08 105.26 124.92 105.16 124.73H105.01V125.67H104.99ZM107.03 124.93C107.33 124.93 107.6 124.88 107.84 124.78C108.08 124.68 108.3 124.53 108.49 124.34C108.67 124.15 108.82 123.92 108.92 123.65C109.02 123.38 109.07 123.08 109.07 122.74V122.49C109.07 122.16 109.02 121.86 108.92 121.6C108.82 121.33 108.67 121.1 108.49 120.91C108.31 120.72 108.09 120.57 107.84 120.46C107.59 120.35 107.32 120.3 107.03 120.3C106.74 120.3 106.48 120.36 106.23 120.47C105.98 120.58 105.77 120.73 105.58 120.93C105.4 121.13 105.25 121.36 105.14 121.64C105.03 121.92 104.98 122.22 104.98 122.54V122.69C104.98 123.03 105.03 123.33 105.14 123.61C105.25 123.89 105.39 124.12 105.58 124.32C105.77 124.52 105.98 124.67 106.23 124.78C106.48 124.88 106.74 124.93 107.03 124.93Z" fill="black"/>
<path d="M116.22 124.64H116.07C115.87 125.05 115.6 125.35 115.25 125.55C114.9 125.75 114.53 125.85 114.15 125.85C113.75 125.85 113.37 125.78 113.03 125.65C112.69 125.51 112.38 125.31 112.13 125.05C111.87 124.78 111.67 124.46 111.52 124.07C111.37 123.68 111.3 123.24 111.3 122.73V122.53C111.3 122.03 111.37 121.59 111.52 121.2C111.67 120.81 111.87 120.49 112.13 120.22C112.39 119.95 112.69 119.75 113.03 119.61C113.37 119.47 113.74 119.4 114.13 119.4C114.55 119.4 114.93 119.49 115.27 119.68C115.61 119.86 115.88 120.15 116.08 120.54H116.23V119.58H117.19V124.43C117.19 124.68 117.3 124.8 117.52 124.8H117.83V125.69H117.18C116.9 125.69 116.67 125.6 116.5 125.42C116.32 125.24 116.24 125.01 116.24 124.73V124.64H116.22ZM114.25 124.93C114.54 124.93 114.8 124.88 115.04 124.77C115.28 124.66 115.49 124.51 115.66 124.31C115.83 124.11 115.97 123.88 116.07 123.6C116.17 123.33 116.22 123.02 116.22 122.68V122.53C116.22 122.2 116.17 121.9 116.07 121.63C115.97 121.36 115.83 121.12 115.66 120.92C115.48 120.72 115.27 120.57 115.03 120.46C114.79 120.35 114.53 120.29 114.25 120.29C113.96 120.29 113.7 120.34 113.46 120.45C113.22 120.56 113.01 120.71 112.84 120.9C112.66 121.09 112.53 121.33 112.43 121.6C112.33 121.88 112.28 122.18 112.28 122.5V122.7C112.28 123.4 112.46 123.94 112.83 124.33C113.19 124.74 113.66 124.93 114.25 124.93Z" fill="black"/>
<path d="M119.11 119.57H121.03V117.06H121.99V119.57H124.35V120.46H121.99V124.42C121.99 124.67 122.1 124.79 122.32 124.79H124.06V125.68H121.98C121.7 125.68 121.47 125.59 121.3 125.41C121.12 125.23 121.04 125 121.04 124.72V120.46H119.12V119.57H119.11Z" fill="black"/>
<path d="M23.6003 139.49V132.29H23.4503L22.0303 135.53H21.0103V135.46L22.6203 131.84H24.6303V139.5H27.0703V140.46H21.1603V139.5H23.6003V139.49Z" fill="black"/>
<path d="M31.13 139.49V132.29H30.98L29.56 135.53H28.54V135.46L30.15 131.84H32.16V139.5H34.6V140.46H28.7V139.5H31.13V139.49Z" fill="black"/>
<path d="M38.2603 135.03C38.2603 134.79 38.3403 134.59 38.5103 134.42C38.6803 134.25 38.8803 134.17 39.1203 134.17C39.3603 134.17 39.5603 134.25 39.7303 134.42C39.9003 134.59 39.9803 134.79 39.9803 135.03C39.9803 135.27 39.9003 135.47 39.7303 135.64C39.5603 135.81 39.3603 135.89 39.1203 135.89C38.8803 135.89 38.6803 135.81 38.5103 135.64C38.3503 135.47 38.2603 135.27 38.2603 135.03ZM38.2603 139.76C38.2603 139.52 38.3403 139.32 38.5103 139.15C38.6803 138.98 38.8803 138.9 39.1203 138.9C39.3603 138.9 39.5603 138.98 39.7303 139.15C39.9003 139.32 39.9803 139.52 39.9803 139.76C39.9803 140 39.9003 140.2 39.7303 140.37C39.5603 140.54 39.3603 140.62 39.1203 140.62C38.8803 140.62 38.6803 140.54 38.5103 140.37C38.3503 140.2 38.2603 140 38.2603 139.76Z" fill="black"/>
<path d="M45.8104 136.16V134.73L48.6204 132.93V132.78H43.7404V131.82H49.5004V133.4L46.6904 135.2V135.35H47.1804C47.5104 135.35 47.8204 135.4 48.1304 135.51C48.4304 135.62 48.7004 135.77 48.9404 135.98C49.1704 136.19 49.3604 136.44 49.5104 136.74C49.6504 137.04 49.7304 137.39 49.7304 137.78V138C49.7304 138.37 49.6604 138.71 49.5104 139.03C49.3604 139.35 49.1604 139.63 48.8904 139.86C48.6304 140.09 48.3204 140.28 47.9604 140.41C47.6004 140.55 47.2104 140.61 46.8004 140.61C46.3204 140.61 45.8804 140.54 45.4904 140.39C45.1004 140.24 44.7804 140.04 44.5104 139.78C44.2404 139.52 44.0304 139.22 43.8904 138.87C43.7504 138.52 43.6704 138.15 43.6704 137.76V137.1H44.7004V137.69C44.7004 138 44.7504 138.28 44.8504 138.52C44.9504 138.76 45.1004 138.97 45.2804 139.14C45.4604 139.31 45.6804 139.44 45.9404 139.53C46.1904 139.62 46.4704 139.67 46.7604 139.67C47.0304 139.67 47.2804 139.62 47.5204 139.53C47.7504 139.44 47.9604 139.31 48.1304 139.15C48.3004 138.99 48.4404 138.8 48.5404 138.58C48.6404 138.36 48.6904 138.13 48.6904 137.88V137.81C48.6904 137.29 48.5304 136.89 48.2004 136.6C47.8704 136.31 47.4604 136.16 46.9704 136.16H45.8104V136.16Z" fill="black"/>
<path d="M51.1704 135.18C51.1704 134.06 51.4404 133.2 51.9704 132.58C52.5004 131.96 53.2504 131.66 54.2004 131.66C55.1504 131.66 55.8904 131.97 56.4304 132.58C56.9604 133.2 57.2304 134.06 57.2304 135.18V137.1C57.2304 138.25 56.9604 139.12 56.4304 139.72C55.9004 140.32 55.1504 140.62 54.2004 140.62C53.2504 140.62 52.5004 140.32 51.9704 139.72C51.4404 139.12 51.1704 138.25 51.1704 137.1V135.18ZM54.2004 139.68C54.8604 139.68 55.3604 139.45 55.7004 138.98C56.0304 138.52 56.2004 137.86 56.2004 137.02V135.25C56.2004 134.86 56.1604 134.5 56.0804 134.17C56.0004 133.85 55.8704 133.57 55.7004 133.33C55.5304 133.1 55.3204 132.91 55.0704 132.78C54.8204 132.65 54.5304 132.58 54.2004 132.58C53.8604 132.58 53.5704 132.65 53.3304 132.78C53.0804 132.91 52.8804 133.09 52.7104 133.33C52.5404 133.56 52.4204 133.84 52.3304 134.17C52.2504 134.49 52.2104 134.85 52.2104 135.25V137.02C52.2104 137.87 52.3804 138.52 52.7104 138.98C53.0304 139.45 53.5304 139.68 54.2004 139.68ZM53.4104 136.14C53.4104 135.93 53.4904 135.74 53.6404 135.59C53.8004 135.43 53.9804 135.36 54.1904 135.36C54.4004 135.36 54.5904 135.44 54.7404 135.59C54.9004 135.75 54.9704 135.93 54.9704 136.14C54.9704 136.35 54.8904 136.54 54.7404 136.69C54.5804 136.85 54.4004 136.92 54.1904 136.92C53.9804 136.92 53.7904 136.84 53.6404 136.69C53.4904 136.54 53.4104 136.35 53.4104 136.14Z" fill="black"/>
<path d="M67.4204 136.8H71.1104V137.69H67.4204V136.8Z" fill="black"/>
<path d="M87.2701 139.49V140.45H81.4301V138.97C81.4301 138.58 81.5001 138.23 81.6301 137.94C81.7601 137.65 81.9501 137.4 82.1901 137.19C82.4301 136.98 82.7301 136.81 83.0701 136.67C83.4101 136.53 83.8001 136.41 84.2401 136.31C84.9701 136.15 85.5001 135.91 85.8201 135.61C86.1401 135.31 86.3101 134.93 86.3101 134.49V134.42C86.3101 134.2 86.2701 133.98 86.2001 133.77C86.1301 133.56 86.0101 133.36 85.8601 133.19C85.7001 133.02 85.5001 132.88 85.2601 132.78C85.0201 132.68 84.7301 132.63 84.3901 132.63C83.7601 132.63 83.2701 132.82 82.9201 133.21C82.5701 133.6 82.4001 134.11 82.4001 134.75V135.29H81.3701V134.67C81.3701 134.28 81.4401 133.9 81.5701 133.54C81.7001 133.18 81.8901 132.86 82.1501 132.58C82.4001 132.3 82.7201 132.08 83.1001 131.91C83.4801 131.75 83.9101 131.66 84.4101 131.66C84.9101 131.66 85.3501 131.74 85.7201 131.89C86.0901 132.04 86.4001 132.24 86.6401 132.49C86.8901 132.74 87.0701 133.02 87.1901 133.34C87.3101 133.66 87.3701 133.98 87.3701 134.31V134.53C87.3701 135.19 87.1601 135.75 86.7501 136.21C86.3401 136.67 85.6801 137 84.7801 137.2C83.9901 137.37 83.4101 137.6 83.0401 137.88C82.6701 138.16 82.4901 138.58 82.4901 139.12V139.49H87.2701Z" fill="black"/>
<path d="M88.8501 135.18C88.8501 134.06 89.1201 133.2 89.6501 132.58C90.1801 131.96 90.9301 131.66 91.8801 131.66C92.8301 131.66 93.5701 131.97 94.1101 132.58C94.6401 133.2 94.9101 134.06 94.9101 135.18V137.1C94.9101 138.25 94.6401 139.12 94.1101 139.72C93.5801 140.32 92.8301 140.62 91.8801 140.62C90.9301 140.62 90.1801 140.32 89.6501 139.72C89.1201 139.12 88.8501 138.25 88.8501 137.1V135.18ZM91.8701 139.68C92.5301 139.68 93.0301 139.45 93.3701 138.98C93.7001 138.52 93.8701 137.86 93.8701 137.02V135.25C93.8701 134.86 93.8301 134.5 93.7501 134.17C93.6701 133.85 93.5401 133.57 93.3701 133.33C93.2001 133.1 92.9901 132.91 92.7401 132.78C92.4901 132.65 92.2001 132.58 91.8701 132.58C91.5301 132.58 91.2401 132.65 91.0001 132.78C90.7501 132.91 90.5501 133.09 90.3801 133.33C90.2101 133.56 90.0901 133.84 90.0001 134.17C89.9201 134.49 89.8801 134.85 89.8801 135.25V137.02C89.8801 137.87 90.0501 138.52 90.3801 138.98C90.7101 139.45 91.2101 139.68 91.8701 139.68ZM91.0901 136.14C91.0901 135.93 91.1701 135.74 91.3201 135.59C91.4801 135.43 91.6601 135.36 91.8701 135.36C92.0801 135.36 92.2701 135.44 92.4201 135.59C92.5801 135.75 92.6501 135.93 92.6501 136.14C92.6501 136.35 92.5701 136.54 92.4201 136.69C92.2601 136.85 92.0801 136.92 91.8701 136.92C91.6601 136.92 91.4701 136.84 91.3201 136.69C91.1601 136.54 91.0901 136.35 91.0901 136.14Z" fill="black"/>
<path d="M98.5503 135.03C98.5503 134.79 98.6303 134.59 98.8003 134.42C98.9703 134.25 99.1703 134.17 99.4103 134.17C99.6503 134.17 99.8503 134.25 100.02 134.42C100.19 134.59 100.27 134.79 100.27 135.03C100.27 135.27 100.19 135.47 100.02 135.64C99.8503 135.81 99.6503 135.89 99.4103 135.89C99.1703 135.89 98.9703 135.81 98.8003 135.64C98.6303 135.47 98.5503 135.27 98.5503 135.03ZM98.5503 139.76C98.5503 139.52 98.6303 139.32 98.8003 139.15C98.9703 138.98 99.1703 138.9 99.4103 138.9C99.6503 138.9 99.8503 138.98 100.02 139.15C100.19 139.32 100.27 139.52 100.27 139.76C100.27 140 100.19 140.2 100.02 140.37C99.8503 140.54 99.6503 140.62 99.4103 140.62C99.1703 140.62 98.9703 140.54 98.8003 140.37C98.6303 140.2 98.5503 140 98.5503 139.76Z" fill="black"/>
<path d="M103.92 135.18C103.92 134.06 104.19 133.2 104.72 132.58C105.25 131.96 106 131.66 106.95 131.66C107.9 131.66 108.64 131.97 109.18 132.58C109.71 133.2 109.98 134.06 109.98 135.18V137.1C109.98 138.25 109.71 139.12 109.18 139.72C108.65 140.32 107.9 140.62 106.95 140.62C106 140.62 105.25 140.32 104.72 139.72C104.19 139.12 103.92 138.25 103.92 137.1V135.18ZM106.95 139.68C107.61 139.68 108.11 139.45 108.45 138.98C108.78 138.52 108.95 137.86 108.95 137.02V135.25C108.95 134.86 108.91 134.5 108.83 134.17C108.75 133.85 108.62 133.57 108.45 133.33C108.28 133.1 108.07 132.91 107.82 132.78C107.57 132.65 107.28 132.58 106.95 132.58C106.61 132.58 106.32 132.65 106.08 132.78C105.83 132.91 105.63 133.09 105.46 133.33C105.29 133.56 105.17 133.84 105.08 134.17C105 134.49 104.96 134.85 104.96 135.25V137.02C104.96 137.87 105.13 138.52 105.46 138.98C105.78 139.45 106.28 139.68 106.95 139.68ZM106.16 136.14C106.16 135.93 106.24 135.74 106.39 135.59C106.55 135.43 106.73 135.36 106.94 135.36C107.15 135.36 107.34 135.44 107.49 135.59C107.65 135.75 107.72 135.93 107.72 136.14C107.72 136.35 107.64 136.54 107.49 136.69C107.33 136.85 107.15 136.92 106.94 136.92C106.73 136.92 106.54 136.84 106.39 136.69C106.24 136.54 106.16 136.35 106.16 136.14Z" fill="black"/>
<path d="M111.45 135.18C111.45 134.06 111.72 133.2 112.25 132.58C112.78 131.96 113.53 131.66 114.48 131.66C115.43 131.66 116.17 131.97 116.71 132.58C117.24 133.2 117.51 134.06 117.51 135.18V137.1C117.51 138.25 117.24 139.12 116.71 139.72C116.18 140.32 115.43 140.62 114.48 140.62C113.53 140.62 112.78 140.32 112.25 139.72C111.72 139.12 111.45 138.25 111.45 137.1V135.18ZM114.48 139.68C115.14 139.68 115.64 139.45 115.98 138.98C116.31 138.52 116.48 137.86 116.48 137.02V135.25C116.48 134.86 116.44 134.5 116.36 134.17C116.28 133.85 116.15 133.57 115.98 133.33C115.81 133.1 115.6 132.91 115.35 132.78C115.1 132.65 114.81 132.58 114.48 132.58C114.14 132.58 113.85 132.65 113.61 132.78C113.36 132.91 113.16 133.09 112.99 133.33C112.82 133.56 112.7 133.84 112.61 134.17C112.53 134.49 112.49 134.85 112.49 135.25V137.02C112.49 137.87 112.66 138.52 112.99 138.98C113.32 139.45 113.82 139.68 114.48 139.68ZM113.69 136.14C113.69 135.93 113.77 135.74 113.92 135.59C114.08 135.43 114.26 135.36 114.47 135.36C114.68 135.36 114.87 135.44 115.02 135.59C115.18 135.75 115.25 135.93 115.25 136.14C115.25 136.35 115.17 136.54 115.02 136.69C114.86 136.85 114.68 136.92 114.47 136.92C114.26 136.92 114.07 136.84 113.92 136.69C113.77 136.54 113.69 136.35 113.69 136.14Z" fill="black"/>
<path d="M24.9904 155.22H23.0905L20.9604 149.11H22.0905L23.9604 154.77H24.1105L25.9804 149.11H27.1105L24.9904 155.22Z" fill="black"/>
<path d="M33.3302 154.19H33.1802C32.9802 154.6 32.7102 154.9 32.3602 155.1C32.0102 155.3 31.6402 155.4 31.2602 155.4C30.8602 155.4 30.4802 155.33 30.1402 155.2C29.8002 155.06 29.4902 154.86 29.2402 154.6C28.9802 154.33 28.7802 154.01 28.6302 153.62C28.4802 153.23 28.4102 152.79 28.4102 152.28V152.08C28.4102 151.58 28.4802 151.14 28.6302 150.75C28.7802 150.36 28.9802 150.04 29.2402 149.77C29.5002 149.5 29.8002 149.3 30.1402 149.16C30.4802 149.02 30.8502 148.95 31.2402 148.95C31.6602 148.95 32.0402 149.04 32.3802 149.23C32.7202 149.41 32.9902 149.7 33.1902 150.09H33.3402V149.13H34.3002V153.98C34.3002 154.23 34.4102 154.35 34.6302 154.35H34.9402V155.24H34.2902C34.0102 155.24 33.7802 155.15 33.6102 154.97C33.4302 154.79 33.3502 154.56 33.3502 154.28V154.19H33.3302ZM31.3602 154.48C31.6502 154.48 31.9102 154.43 32.1502 154.32C32.3902 154.21 32.6002 154.06 32.7702 153.86C32.9402 153.66 33.0802 153.43 33.1802 153.15C33.2802 152.88 33.3302 152.57 33.3302 152.23V152.08C33.3302 151.75 33.2802 151.45 33.1802 151.18C33.0802 150.9 32.9402 150.67 32.7702 150.47C32.5902 150.27 32.3802 150.12 32.1402 150.01C31.9002 149.9 31.6402 149.84 31.3602 149.84C31.0702 149.84 30.8102 149.89 30.5702 150C30.3302 150.11 30.1202 150.26 29.9502 150.45C29.7702 150.64 29.6402 150.88 29.5402 151.15C29.4402 151.43 29.3902 151.73 29.3902 152.06V152.26C29.3902 152.96 29.5702 153.5 29.9402 153.89C30.3002 154.29 30.7702 154.48 31.3602 154.48Z" fill="black"/>
<path d="M37.7004 150.69C37.7004 150.99 37.8204 151.21 38.0804 151.37C38.3304 151.53 38.7904 151.63 39.4504 151.68C40.1604 151.74 40.7104 151.91 41.0804 152.19C41.4504 152.47 41.6404 152.89 41.6404 153.43V153.5C41.6404 153.8 41.5804 154.06 41.4604 154.29C41.3404 154.52 41.1804 154.72 40.9704 154.89C40.7604 155.05 40.5104 155.18 40.2104 155.27C39.9104 155.36 39.5804 155.4 39.2304 155.4C38.7504 155.4 38.3504 155.34 38.0004 155.21C37.6604 155.08 37.3804 154.91 37.1504 154.71C36.9204 154.5 36.7504 154.26 36.6404 154C36.5204 153.73 36.4604 153.46 36.4404 153.19L37.3504 152.97C37.3904 153.44 37.5704 153.81 37.8904 154.1C38.2104 154.38 38.6404 154.52 39.1704 154.52C39.6204 154.52 39.9804 154.43 40.2604 154.26C40.5304 154.08 40.6704 153.84 40.6704 153.52C40.6704 153.17 40.5304 152.93 40.2604 152.78C39.9904 152.63 39.5504 152.54 38.9404 152.5C38.2304 152.45 37.6904 152.29 37.3104 152.01C36.9304 151.73 36.7404 151.32 36.7404 150.79V150.72C36.7404 150.43 36.8004 150.18 36.9204 149.96C37.0404 149.74 37.2104 149.56 37.4204 149.41C37.6304 149.26 37.8704 149.15 38.1304 149.08C38.3904 149.01 38.6704 148.97 38.9504 148.97C39.3504 148.97 39.7104 149.03 40.0104 149.14C40.3104 149.25 40.5704 149.39 40.7704 149.57C40.9804 149.75 41.1304 149.95 41.2404 150.18C41.3504 150.41 41.4204 150.64 41.4604 150.87L40.5504 151.09C40.5104 150.7 40.3504 150.39 40.0804 150.17C39.8004 149.95 39.4504 149.84 39.0004 149.84C38.8304 149.84 38.6604 149.86 38.5004 149.9C38.3404 149.94 38.2004 149.99 38.0804 150.07C37.9604 150.14 37.8604 150.24 37.7804 150.35C37.7304 150.42 37.7004 150.54 37.7004 150.69Z" fill="black"/>
<path d="M48.4 154.19H48.25C48.05 154.6 47.78 154.9 47.43 155.1C47.08 155.3 46.71 155.4 46.33 155.4C45.93 155.4 45.55 155.33 45.21 155.2C44.87 155.06 44.56 154.86 44.31 154.6C44.05 154.33 43.85 154.01 43.7 153.62C43.55 153.23 43.48 152.79 43.48 152.28V152.08C43.48 151.58 43.55 151.14 43.7 150.75C43.85 150.36 44.05 150.04 44.31 149.77C44.57 149.5 44.87 149.3 45.21 149.16C45.55 149.02 45.92 148.95 46.31 148.95C46.73 148.95 47.11 149.04 47.45 149.23C47.79 149.41 48.06 149.7 48.26 150.09H48.41V149.13H49.37V153.98C49.37 154.23 49.48 154.35 49.7 154.35H50V155.24H49.35C49.07 155.24 48.84 155.15 48.67 154.97C48.49 154.79 48.41 154.56 48.41 154.28V154.19H48.4ZM46.43 154.48C46.72 154.48 46.98 154.43 47.22 154.32C47.46 154.21 47.67 154.06 47.84 153.86C48.01 153.66 48.15 153.43 48.25 153.15C48.35 152.88 48.4 152.57 48.4 152.23V152.08C48.4 151.75 48.35 151.45 48.25 151.18C48.15 150.9 48.01 150.67 47.84 150.47C47.66 150.27 47.45 150.12 47.21 150.01C46.97 149.9 46.71 149.84 46.43 149.84C46.14 149.84 45.88 149.89 45.64 150C45.4 150.11 45.19 150.26 45.02 150.45C44.84 150.64 44.71 150.88 44.61 151.15C44.51 151.43 44.46 151.73 44.46 152.06V152.26C44.46 152.96 44.64 153.5 45.01 153.89C45.37 154.29 45.84 154.48 46.43 154.48ZM47.74 146.75L46.71 148.2H45.82L46.63 146.75H47.74Z" fill="black"/>
<path d="M51.1602 149.12H53.3802V149.93H53.5302C53.6902 149.59 53.9102 149.35 54.1902 149.19C54.4802 149.03 54.8102 148.95 55.1702 148.95C55.7902 148.95 56.2802 149.15 56.6602 149.55C57.0402 149.95 57.2402 150.54 57.2602 151.31L56.2502 151.46C56.2502 150.89 56.1102 150.49 55.8402 150.23C55.5702 149.98 55.2402 149.85 54.8402 149.85C54.5902 149.85 54.3702 149.9 54.1802 150C54.0002 150.1 53.8402 150.23 53.7202 150.41C53.6002 150.58 53.5102 150.78 53.4502 151.01C53.3902 151.24 53.3602 151.49 53.3602 151.75V154.34H54.9102V155.23H50.9902V154.34H52.3902V150H51.1302V149.12H51.1602Z" fill="black"/>
<path d="M60 155.22H59.04V149.11H60V150.14H60.15C60.53 149.34 61.18 148.93 62.12 148.93C62.83 148.93 63.39 149.15 63.81 149.59C64.23 150.03 64.44 150.69 64.44 151.57V155.21H63.48V151.76C63.48 151.12 63.34 150.64 63.05 150.32C62.76 150 62.37 149.84 61.88 149.84C61.3 149.84 60.84 150.04 60.51 150.44C60.18 150.84 60.01 151.37 60.01 152.03V155.22H60Z" fill="black"/>
<path d="M71.0001 154.19H70.8501C70.6501 154.6 70.3801 154.9 70.0301 155.1C69.6801 155.3 69.3101 155.4 68.9301 155.4C68.5301 155.4 68.1501 155.33 67.8101 155.2C67.4701 155.06 67.1601 154.86 66.9101 154.6C66.6501 154.33 66.4501 154.01 66.3001 153.62C66.1501 153.23 66.0801 152.79 66.0801 152.28V152.08C66.0801 151.58 66.1501 151.14 66.3001 150.75C66.4501 150.36 66.6501 150.04 66.9101 149.77C67.1701 149.5 67.4701 149.3 67.8101 149.16C68.1501 149.02 68.5201 148.95 68.9101 148.95C69.3301 148.95 69.7101 149.04 70.0501 149.23C70.3901 149.41 70.6601 149.7 70.8601 150.09H71.0001V149.13H71.9601V153.98C71.9601 154.23 72.0701 154.35 72.2901 154.35H72.6001V155.24H71.9501C71.6701 155.24 71.4401 155.15 71.2701 154.97C71.0901 154.79 71.0101 154.56 71.0101 154.28V154.19H71.0001ZM69.0301 154.48C69.3201 154.48 69.5801 154.43 69.8201 154.32C70.0601 154.21 70.2701 154.06 70.4401 153.86C70.6101 153.66 70.7501 153.43 70.8501 153.15C70.9501 152.88 71.0001 152.57 71.0001 152.23V152.08C71.0001 151.75 70.9501 151.45 70.8501 151.18C70.7501 150.9 70.6101 150.67 70.4401 150.47C70.2601 150.27 70.0501 150.12 69.8101 150.01C69.5701 149.9 69.3101 149.84 69.0301 149.84C68.7401 149.84 68.4801 149.89 68.2401 150C68.0001 150.11 67.7901 150.26 67.6201 150.45C67.4401 150.64 67.3101 150.88 67.2101 151.15C67.1101 151.43 67.0601 151.73 67.0601 152.06V152.26C67.0601 152.96 67.2401 153.5 67.6101 153.89C67.9801 154.29 68.4501 154.48 69.0301 154.48Z" fill="black"/>
<path d="M74.8501 157.69H73.8901V149.12H74.8501V150.08H75.0001C75.2101 149.71 75.5101 149.43 75.8901 149.24C76.2701 149.05 76.6801 148.95 77.1201 148.95C77.5001 148.95 77.8501 149.02 78.1901 149.16C78.5301 149.3 78.8201 149.5 79.0801 149.76C79.3401 150.02 79.5401 150.35 79.7001 150.73C79.8501 151.12 79.9301 151.55 79.9301 152.05V152.3C79.9301 152.8 79.8601 153.24 79.7101 153.63C79.5601 154.02 79.3601 154.34 79.1001 154.6C78.8401 154.86 78.5401 155.06 78.2001 155.2C77.8601 155.34 77.4901 155.4 77.1001 155.4C76.9001 155.4 76.7001 155.38 76.5001 155.33C76.2901 155.29 76.1001 155.22 75.9201 155.12C75.7401 155.02 75.5601 154.91 75.4101 154.77C75.2501 154.63 75.1201 154.47 75.0201 154.28H74.8701V157.69H74.8501ZM76.8901 154.48C77.1901 154.48 77.4601 154.43 77.7001 154.33C77.9501 154.23 78.1601 154.08 78.3501 153.89C78.5301 153.7 78.6801 153.47 78.7801 153.2C78.8801 152.93 78.9301 152.63 78.9301 152.29V152.04C78.9301 151.71 78.8801 151.41 78.7801 151.15C78.6801 150.88 78.5301 150.65 78.3501 150.46C78.1701 150.27 77.9501 150.12 77.7001 150.01C77.4501 149.9 77.1801 149.85 76.8901 149.85C76.6001 149.85 76.3401 149.91 76.0901 150.02C75.8401 150.13 75.6301 150.28 75.4401 150.48C75.2601 150.68 75.1101 150.91 75.0001 151.19C74.8901 151.46 74.8401 151.77 74.8401 152.09V152.24C74.8401 152.58 74.8901 152.88 75.0001 153.16C75.1101 153.43 75.2501 153.67 75.4401 153.87C75.6301 154.07 75.8401 154.22 76.0901 154.33C76.3401 154.43 76.6001 154.48 76.8901 154.48Z" fill="black"/>
<path d="M93.2404 145.3L94.1004 145.57L90.5204 156.53L89.6504 156.26L93.2404 145.3Z" fill="black"/>
<path d="M105.21 155.22H104.25V146.6H105.21V150.22H105.36C105.55 149.83 105.81 149.51 106.15 149.28C106.49 149.05 106.91 148.94 107.4 148.94C108.07 148.94 108.6 149.16 109.02 149.6C109.43 150.04 109.64 150.7 109.64 151.58V155.22H108.68V151.77C108.68 151.13 108.54 150.65 108.25 150.33C107.96 150.01 107.57 149.85 107.08 149.85C106.5 149.85 106.04 150.05 105.71 150.45C105.38 150.85 105.21 151.38 105.21 152.04V155.22V155.22Z" fill="black"/>
<path d="M112.49 152.47C112.51 153.08 112.7 153.57 113.06 153.93C113.41 154.3 113.91 154.48 114.54 154.48C114.83 154.48 115.08 154.45 115.29 154.38C115.5 154.31 115.69 154.22 115.84 154.11C115.99 154 116.11 153.86 116.21 153.71C116.3 153.56 116.38 153.4 116.44 153.22L117.35 153.47C117.18 154.04 116.86 154.5 116.4 154.86C115.94 155.22 115.31 155.4 114.52 155.4C114.08 155.4 113.68 155.32 113.32 155.17C112.95 155.02 112.64 154.8 112.38 154.52C112.12 154.24 111.91 153.91 111.76 153.52C111.61 153.13 111.54 152.71 111.54 152.24V151.94C111.54 151.51 111.62 151.12 111.77 150.75C111.92 150.38 112.13 150.06 112.4 149.8C112.67 149.53 112.99 149.32 113.35 149.17C113.72 149.02 114.11 148.94 114.54 148.94C115.04 148.94 115.47 149.03 115.84 149.22C116.21 149.4 116.5 149.63 116.74 149.9C116.97 150.17 117.15 150.47 117.26 150.79C117.37 151.11 117.43 151.41 117.43 151.68V152.47H112.49V152.47ZM114.53 149.85C114.26 149.85 114.01 149.89 113.77 149.98C113.54 150.07 113.33 150.19 113.15 150.34C112.97 150.5 112.83 150.68 112.72 150.89C112.61 151.1 112.54 151.33 112.5 151.57H116.44C116.42 151.31 116.36 151.07 116.25 150.86C116.14 150.65 116 150.47 115.82 150.32C115.64 150.17 115.44 150.06 115.22 149.98C115 149.9 114.77 149.85 114.53 149.85ZM116 146.75L114.97 148.2H114.08L114.89 146.75H116Z" fill="black"/>
<path d="M119.11 149.12H121.03V146.61H121.99V149.12H124.35V150H121.99V153.96C121.99 154.21 122.1 154.33 122.32 154.33H124.06V155.22H121.98C121.7 155.22 121.47 155.13 121.3 154.95C121.12 154.77 121.04 154.54 121.04 154.26V150H119.12V149.12H119.11Z" fill="black"/>
<path d="M126.79 149.12H128.67V147.57C128.67 147.29 128.76 147.06 128.93 146.88C129.11 146.7 129.33 146.61 129.61 146.61H132.02V147.5H129.95C129.73 147.5 129.62 147.62 129.62 147.87V149.13H132.17V150H129.62V155.22H128.66V150H126.78V149.12H126.79Z" fill="black"/>
<path d="M140.15 152.24C140.15 152.75 140.07 153.2 139.9 153.59C139.73 153.98 139.51 154.31 139.23 154.57C138.95 154.84 138.62 155.04 138.25 155.18C137.88 155.32 137.49 155.39 137.09 155.39C136.68 155.39 136.29 155.32 135.92 155.18C135.55 155.04 135.23 154.84 134.95 154.57C134.67 154.3 134.45 153.98 134.28 153.59C134.11 153.2 134.03 152.75 134.03 152.24V152.09C134.03 151.59 134.11 151.14 134.28 150.75C134.45 150.36 134.67 150.03 134.96 149.76C135.24 149.49 135.57 149.28 135.94 149.14C136.31 149 136.7 148.93 137.1 148.93C137.5 148.93 137.89 149 138.26 149.14C138.63 149.28 138.96 149.48 139.24 149.76C139.52 150.03 139.75 150.36 139.92 150.75C140.09 151.14 140.17 151.59 140.17 152.09V152.24H140.15ZM137.09 154.48C137.39 154.48 137.66 154.43 137.91 154.33C138.16 154.23 138.38 154.08 138.57 153.88C138.76 153.68 138.91 153.45 139.01 153.17C139.12 152.89 139.17 152.59 139.17 152.24V152.09C139.17 151.76 139.12 151.46 139.01 151.19C138.9 150.91 138.76 150.68 138.57 150.48C138.38 150.28 138.16 150.13 137.91 150.02C137.66 149.91 137.38 149.85 137.1 149.85C136.81 149.85 136.54 149.91 136.29 150.02C136.04 150.13 135.81 150.28 135.62 150.48C135.43 150.68 135.28 150.91 135.18 151.19C135.07 151.46 135.02 151.77 135.02 152.09V152.24C135.02 152.58 135.07 152.89 135.18 153.17C135.29 153.44 135.43 153.68 135.62 153.88C135.81 154.08 136.03 154.23 136.28 154.33C136.52 154.43 136.79 154.48 137.09 154.48ZM137.6 146.75L136.57 148.2H135.68L136.49 146.75H137.6ZM139.38 146.75L138.35 148.2H137.46L138.27 146.75H139.38Z" fill="black"/>
<path d="M26.7302 169.11V170H21.4102V168.47L25.7702 164.92V164.77H21.4902V163.88H26.5902V165.36L22.2102 168.96V169.11H26.7302V169.11Z" fill="black"/>
<path d="M33.3302 168.96H33.1802C32.9802 169.37 32.7102 169.67 32.3602 169.87C32.0102 170.07 31.6402 170.17 31.2602 170.17C30.8602 170.17 30.4802 170.1 30.1402 169.97C29.8002 169.83 29.4902 169.63 29.2402 169.37C28.9802 169.1 28.7802 168.78 28.6302 168.39C28.4802 168 28.4102 167.56 28.4102 167.05V166.85C28.4102 166.35 28.4802 165.91 28.6302 165.52C28.7802 165.13 28.9802 164.81 29.2402 164.54C29.5002 164.27 29.8002 164.07 30.1402 163.93C30.4802 163.79 30.8502 163.72 31.2402 163.72C31.6602 163.72 32.0402 163.81 32.3802 164C32.7202 164.18 32.9902 164.47 33.1902 164.86H33.3402V163.9H34.3002V168.75C34.3002 169 34.4102 169.12 34.6302 169.12H34.9402V170H34.2902C34.0102 170 33.7802 169.91 33.6102 169.73C33.4302 169.55 33.3502 169.32 33.3502 169.04V168.96H33.3302ZM31.3602 169.26C31.6502 169.26 31.9102 169.21 32.1502 169.1C32.3902 168.99 32.6002 168.84 32.7702 168.64C32.9402 168.44 33.0802 168.21 33.1802 167.93C33.2802 167.66 33.3302 167.35 33.3302 167.01V166.86C33.3302 166.53 33.2802 166.23 33.1802 165.96C33.0802 165.69 32.9402 165.45 32.7702 165.25C32.5902 165.05 32.3802 164.9 32.1402 164.79C31.9002 164.68 31.6402 164.62 31.3602 164.62C31.0702 164.62 30.8102 164.67 30.5702 164.78C30.3302 164.89 30.1202 165.04 29.9502 165.23C29.7702 165.42 29.6402 165.66 29.5402 165.93C29.4402 166.2 29.3902 166.51 29.3902 166.84V167.04C29.3902 167.74 29.5702 168.28 29.9402 168.67C30.3002 169.07 30.7702 169.26 31.3602 169.26ZM32.6702 161.53L31.6402 162.98H30.7502L31.5602 161.53H32.6702Z" fill="black"/>
<path d="M36.0802 163.89H38.3002V164.7H38.4502C38.6102 164.36 38.8302 164.12 39.1102 163.96C39.4002 163.8 39.7302 163.72 40.0902 163.72C40.7102 163.72 41.2002 163.92 41.5802 164.32C41.9602 164.72 42.1602 165.31 42.1802 166.08L41.1702 166.23C41.1702 165.66 41.0302 165.26 40.7602 165C40.4902 164.75 40.1602 164.62 39.7602 164.62C39.5102 164.62 39.2902 164.67 39.1002 164.77C38.9202 164.87 38.7602 165 38.6402 165.18C38.5202 165.35 38.4302 165.55 38.3702 165.78C38.3102 166.01 38.2802 166.26 38.2802 166.52V169.11H39.8302V170H35.9102V169.11H37.3102V164.78H36.0502V163.89H36.0802Z" fill="black"/>
<path d="M47.6003 170H45.7003L43.5703 163.89H44.7003L46.5703 169.55H46.7203L48.5903 163.89H49.7203L47.6003 170Z" fill="black"/>
<path d="M55.9303 168.96H55.7803C55.5803 169.37 55.3103 169.67 54.9603 169.87C54.6103 170.07 54.2403 170.17 53.8603 170.17C53.4603 170.17 53.0803 170.1 52.7403 169.97C52.4003 169.83 52.0903 169.63 51.8403 169.37C51.5803 169.1 51.3803 168.78 51.2303 168.39C51.0803 168 51.0103 167.56 51.0103 167.05V166.85C51.0103 166.35 51.0803 165.91 51.2303 165.52C51.3803 165.13 51.5803 164.81 51.8403 164.54C52.1003 164.27 52.4003 164.07 52.7403 163.93C53.0803 163.79 53.4503 163.72 53.8403 163.72C54.2603 163.72 54.6403 163.81 54.9803 164C55.3203 164.18 55.5903 164.47 55.7903 164.86H55.9403V163.9H56.9003V168.75C56.9003 169 57.0103 169.12 57.2303 169.12H57.5403V170H56.8903C56.6103 170 56.3803 169.91 56.2103 169.73C56.0303 169.55 55.9503 169.32 55.9503 169.04V168.96H55.9303ZM53.9603 169.26C54.2503 169.26 54.5103 169.21 54.7503 169.1C54.9903 168.99 55.2003 168.84 55.3703 168.64C55.5403 168.44 55.6803 168.21 55.7803 167.93C55.8803 167.66 55.9303 167.35 55.9303 167.01V166.86C55.9303 166.53 55.8803 166.23 55.7803 165.96C55.6803 165.69 55.5403 165.45 55.3703 165.25C55.2003 165.05 54.9803 164.9 54.7403 164.79C54.5003 164.68 54.2403 164.62 53.9603 164.62C53.6703 164.62 53.4103 164.67 53.1703 164.78C52.9303 164.89 52.7203 165.04 52.5503 165.23C52.3703 165.42 52.2403 165.66 52.1403 165.93C52.0403 166.2 51.9903 166.51 51.9903 166.84V167.04C51.9903 167.74 52.1703 168.28 52.5403 168.67C52.9103 169.07 53.3803 169.26 53.9603 169.26Z" fill="black"/>
<path d="M68.4102 164.58C68.4102 164.34 68.4902 164.14 68.6602 163.97C68.8302 163.8 69.0301 163.72 69.2701 163.72C69.5101 163.72 69.7101 163.8 69.8801 163.97C70.0501 164.14 70.1301 164.34 70.1301 164.58C70.1301 164.82 70.0501 165.02 69.8801 165.19C69.7101 165.36 69.5101 165.44 69.2701 165.44C69.0301 165.44 68.8302 165.36 68.6602 165.19C68.4902 165.02 68.4102 164.82 68.4102 164.58ZM68.4102 169.31C68.4102 169.07 68.4902 168.87 68.6602 168.7C68.8302 168.53 69.0301 168.45 69.2701 168.45C69.5101 168.45 69.7101 168.53 69.8801 168.7C70.0501 168.87 70.1301 169.07 70.1301 169.31C70.1301 169.55 70.0501 169.75 69.8801 169.92C69.7101 170.09 69.5101 170.17 69.2701 170.17C69.0301 170.17 68.8302 170.09 68.6602 169.92C68.4902 169.75 68.4102 169.55 68.4102 169.31Z" fill="black"/>
<path d="M79.7605 171.01V171.92H79.3204C78.7504 171.92 78.2004 171.81 77.6704 171.6C77.1404 171.39 76.6804 171.08 76.2804 170.67C75.8804 170.26 75.5604 169.77 75.3204 169.2C75.0804 168.63 74.9604 167.97 74.9604 167.24V164.14C74.9604 163.42 75.0804 162.77 75.3204 162.19C75.5604 161.61 75.8804 161.12 76.2804 160.71C76.6804 160.3 77.1504 159.99 77.6704 159.78C78.2004 159.57 78.7504 159.46 79.3204 159.46H79.7605V160.37H79.3204C78.8804 160.37 78.4505 160.46 78.0405 160.63C77.6305 160.81 77.2704 161.06 76.9604 161.39C76.6504 161.72 76.4004 162.12 76.2104 162.59C76.0204 163.06 75.9305 163.59 75.9305 164.18V167.18C75.9305 167.77 76.0204 168.3 76.2104 168.77C76.4004 169.24 76.6504 169.64 76.9604 169.97C77.2704 170.3 77.6305 170.55 78.0405 170.73C78.4505 170.91 78.8804 170.99 79.3204 170.99H79.7605V171.01Z" fill="black"/>
<path d="M56.3504 91.1899H53.4604V94.0799H56.3504V91.1899Z" fill="black"/>
</g>
<defs>
<clipPath id="clip0_552_967">
<rect width="312" height="171.92" fill="white"/>
</clipPath>
</defs>
</svg>
