<?xml version="1.0" encoding="utf-8"?>
<!-- Generator: Adobe Illustrator 26.3.1, SVG Export Plug-In . SVG Version: 6.00 Build 0)  -->
<svg version="1.1" id="Layer_1" xmlns="http://www.w3.org/2000/svg" xmlns:xlink="http://www.w3.org/1999/xlink" x="0px" y="0px"
	 viewBox="0 0 312 171.92" style="enable-background:new 0 0 312 171.92;" xml:space="preserve">
<style type="text/css">
	.st0{fill:#1D1D1E;}
	.st1{fill:#184FD6;}
</style>
<g>
	<g>
		<path class="st0" d="M272.91,8.28c-0.3-0.77-0.72-1.42-1.24-1.95c-0.52-0.53-1.11-0.93-1.79-1.21c-0.68-0.28-1.39-0.42-2.15-0.42
			c-0.89,0-1.72,0.2-2.47,0.58c-0.76,0.39-1.35,0.95-1.78,1.7h-0.3V5.05h-1.93v15.67h1.93v-5.28h0.3c0.21,0.38,0.48,0.7,0.79,0.98
			c0.32,0.27,0.66,0.5,1.03,0.69c0.37,0.19,0.76,0.33,1.17,0.42c0.41,0.09,0.81,0.13,1.21,0.13c0.77,0,1.51-0.13,2.2-0.41
			c0.69-0.27,1.3-0.67,1.82-1.2c0.52-0.53,0.93-1.18,1.22-1.95c0.3-0.77,0.45-1.66,0.45-2.67v-0.5
			C273.36,9.94,273.21,9.06,272.91,8.28z M271.39,11.43c0,0.68-0.11,1.29-0.31,1.83c-0.21,0.55-0.49,1.01-0.87,1.38
			c-0.37,0.38-0.8,0.67-1.3,0.88c-0.49,0.21-1.04,0.31-1.63,0.31c-0.58,0-1.11-0.11-1.61-0.32c-0.49-0.21-0.93-0.52-1.3-0.91
			c-0.37-0.4-0.66-0.87-0.88-1.42c-0.22-0.55-0.32-1.16-0.32-1.84v-0.3c0-0.66,0.11-1.26,0.32-1.81c0.21-0.55,0.51-1.03,0.88-1.42
			c0.37-0.4,0.8-0.7,1.3-0.93c0.49-0.23,1.03-0.34,1.61-0.34c0.58,0,1.12,0.11,1.62,0.32c0.5,0.21,0.94,0.51,1.31,0.9
			c0.37,0.39,0.66,0.85,0.87,1.38c0.21,0.54,0.31,1.13,0.31,1.79V11.43z"/>
		<polygon class="st0" points="276.11,15.53 280.41,15.53 280.41,6.83 276.55,6.83 276.55,5.05 282.34,5.05 282.34,15.53 
			286.35,15.53 286.35,17.31 276.11,17.31 		"/>
		<path class="st0" d="M296.79,6.82V5.05h-4.74V0h-1.93v5.05h-3.86v1.78h3.86v8.56c0,0.56,0.17,1.02,0.53,1.38
			c0.36,0.36,0.81,0.55,1.37,0.55h4.18v-1.78h-3.49c-0.44,0-0.66-0.25-0.66-0.74V6.82H296.79z"/>
		<path class="st0" d="M311.38,15.53c-0.45,0-0.67-0.25-0.67-0.74V5.05h-1.93v1.93h-0.3c-0.4-0.78-0.93-1.35-1.62-1.72
			c-0.68-0.37-1.45-0.56-2.29-0.56c-0.77,0-1.51,0.14-2.2,0.42c-0.69,0.28-1.3,0.69-1.82,1.22c-0.52,0.54-0.93,1.19-1.23,1.97
			c-0.3,0.77-0.44,1.66-0.44,2.67v0.4c0,1.02,0.15,1.92,0.44,2.7c0.3,0.77,0.71,1.43,1.23,1.97c0.52,0.53,1.13,0.94,1.82,1.21
			c0.69,0.27,1.44,0.41,2.25,0.41c0.77,0,1.51-0.2,2.21-0.59c0.7-0.4,1.25-1,1.64-1.83h0.3v0.15c0,0.56,0.18,1.02,0.53,1.38
			c0.35,0.36,0.81,0.55,1.37,0.55H312v-1.78H311.38z M308.79,11.32c0,0.68-0.1,1.29-0.3,1.84c-0.2,0.55-0.47,1.03-0.81,1.42
			c-0.35,0.4-0.76,0.7-1.25,0.91c-0.49,0.22-1.02,0.32-1.59,0.32c-1.17,0-2.12-0.39-2.86-1.17c-0.73-0.78-1.1-1.88-1.1-3.28v-0.4
			c0-0.66,0.1-1.27,0.3-1.82c0.2-0.55,0.47-1.02,0.83-1.41c0.35-0.39,0.77-0.69,1.25-0.9c0.47-0.22,1-0.32,1.58-0.32
			c0.56,0,1.08,0.11,1.57,0.34c0.49,0.22,0.91,0.53,1.26,0.93c0.35,0.4,0.63,0.87,0.83,1.42c0.2,0.55,0.3,1.16,0.3,1.81V11.32z"/>
		<g>
			<path class="st0" d="M272.91,29c-0.3-0.77-0.72-1.43-1.24-1.95c-0.52-0.53-1.11-0.93-1.79-1.21s-1.39-0.42-2.15-0.42
				c-0.89,0-1.72,0.19-2.47,0.58c-0.76,0.39-1.35,0.95-1.78,1.69h-0.3v-4.74h-1.93v15.08h1.93v-1.88h0.3
				c0.21,0.38,0.48,0.7,0.79,0.98c0.32,0.27,0.66,0.5,1.03,0.69c0.37,0.19,0.76,0.33,1.17,0.42c0.41,0.09,0.81,0.14,1.21,0.14
				c0.77,0,1.51-0.14,2.2-0.41c0.69-0.27,1.3-0.67,1.82-1.2c0.52-0.53,0.93-1.18,1.22-1.95c0.3-0.78,0.45-1.66,0.45-2.67v-0.49
				C273.36,30.65,273.21,29.77,272.91,29z M271.39,32.14c0,0.68-0.11,1.29-0.31,1.83c-0.21,0.54-0.49,1-0.87,1.38
				c-0.37,0.38-0.8,0.67-1.3,0.88s-1.04,0.31-1.63,0.31c-0.58,0-1.11-0.11-1.61-0.32c-0.49-0.21-0.93-0.52-1.3-0.92
				c-0.37-0.4-0.66-0.87-0.88-1.42c-0.22-0.55-0.32-1.17-0.32-1.84v-0.3c0-0.66,0.11-1.27,0.32-1.82c0.21-0.55,0.51-1.02,0.88-1.42
				c0.37-0.4,0.8-0.71,1.3-0.93c0.49-0.22,1.03-0.33,1.61-0.33c0.58,0,1.12,0.11,1.62,0.32c0.5,0.21,0.94,0.51,1.31,0.9
				c0.37,0.39,0.66,0.85,0.87,1.38c0.21,0.54,0.31,1.13,0.31,1.8V32.14z"/>
			<path class="st0" d="M287.77,36.24c-0.45,0-0.67-0.25-0.67-0.74v-9.74h-1.93v1.93h-0.3c-0.4-0.77-0.94-1.35-1.62-1.72
				c-0.68-0.37-1.45-0.56-2.29-0.56c-0.77,0-1.51,0.14-2.2,0.42c-0.69,0.28-1.3,0.69-1.81,1.23c-0.52,0.53-0.93,1.19-1.23,1.97
				c-0.3,0.77-0.45,1.66-0.45,2.67v0.4c0,1.02,0.15,1.92,0.45,2.7c0.3,0.77,0.7,1.43,1.23,1.97c0.52,0.54,1.12,0.94,1.81,1.21
				c0.69,0.27,1.44,0.41,2.25,0.41c0.77,0,1.51-0.2,2.21-0.59c0.7-0.4,1.25-1,1.64-1.83h0.3v0.15c0,0.56,0.18,1.02,0.53,1.38
				c0.36,0.36,0.81,0.54,1.37,0.54h1.31v-1.78H287.77z M285.17,32.04c0,0.68-0.1,1.29-0.3,1.84c-0.2,0.55-0.47,1.02-0.81,1.42
				c-0.35,0.4-0.76,0.7-1.25,0.92c-0.49,0.21-1.02,0.32-1.6,0.32c-1.17,0-2.12-0.39-2.85-1.17c-0.74-0.78-1.1-1.87-1.1-3.28v-0.4
				c0-0.66,0.1-1.27,0.3-1.81c0.2-0.55,0.47-1.02,0.83-1.41c0.36-0.39,0.77-0.69,1.25-0.9c0.48-0.21,1-0.32,1.58-0.32
				c0.56,0,1.08,0.11,1.57,0.33c0.49,0.22,0.91,0.53,1.26,0.93c0.36,0.4,0.63,0.87,0.83,1.42c0.2,0.55,0.3,1.16,0.3,1.82V32.04z"/>
			<path class="st0" d="M301.68,26.62c-0.76-0.81-1.76-1.21-2.99-1.21c-0.74,0-1.4,0.16-1.98,0.48c-0.58,0.32-1.02,0.82-1.34,1.49
				h-0.3v-1.63h-4.45v1.78h2.52v8.7h-2.82v1.78h7.86v-1.78h-3.12v-5.19c0-0.53,0.06-1.02,0.17-1.48c0.11-0.46,0.3-0.87,0.54-1.21
				c0.25-0.34,0.56-0.62,0.93-0.81c0.37-0.2,0.81-0.3,1.32-0.3c0.79,0,1.46,0.25,2,0.75c0.54,0.51,0.81,1.32,0.81,2.46l2.03-0.3
				C302.84,28.61,302.43,27.43,301.68,26.62z"/>
		</g>
		<rect x="279.8" y="0" class="st0" width="2.85" height="2.85"/>
		<rect x="279.8" y="20.4" class="st0" width="2.85" height="2.85"/>
	</g>
	<g>
		<path class="st1" d="M91.07,47.81h-1.16c-1.48,0-2.22-0.82-2.22-2.47V17.26c0-0.23-0.18-0.41-0.41-0.41h-9.56
			c-0.23,0-0.41,0.18-0.41,0.41v4.12c0,0.23-0.18,0.41-0.41,0.41h-0.83c-0.15,0-0.29-0.09-0.36-0.22c-1.03-1.97-2.41-3.44-4.13-4.39
			c-1.78-0.99-4.13-1.48-7.04-1.48c-2.42,0-4.68,0.48-6.79,1.44c-2.11,0.96-3.97,2.35-5.56,4.16c-1.59,1.81-2.86,4.01-3.79,6.59
			c-0.93,2.58-1.4,5.49-1.4,8.73v1.32c0,3.29,0.48,6.23,1.44,8.81c0.96,2.58,2.26,4.78,3.91,6.59c1.65,1.81,3.55,3.18,5.72,4.12
			c2.17,0.93,4.49,1.4,6.96,1.4c2.64,0,4.94-0.54,6.92-1.61c1.91-1.04,3.41-2.78,4.5-5.23c0.07-0.15,0.21-0.25,0.37-0.25h0.82
			c0.22,0,0.4,0.17,0.41,0.38c0.08,1.58,0.67,2.88,1.76,3.9c1.18,1.1,2.7,1.65,4.57,1.65h6.67c0.23,0,0.41-0.18,0.41-0.41v-9.06
			C91.48,48,91.3,47.81,91.07,47.81z M77.32,37.77c0,3.46-0.91,6.19-2.72,8.19c-1.81,2-4.23,3.01-7.25,3.01
			c-3.02,0-5.43-1-7.25-3.01c-1.81-2-2.72-4.73-2.72-8.19v-0.99c0-3.46,0.91-6.19,2.72-8.19c1.81-2,4.23-3.01,7.25-3.01
			c3.02,0,5.43,1,7.25,3.01c1.81,2,2.72,4.73,2.72,8.19V37.77z"/>
		<path class="st1" d="M107.25,32.46c0.58-1.45,1.36-2.69,2.35-3.71c0.99-1.02,2.14-1.8,3.46-2.35c1.32-0.55,2.72-0.82,4.2-0.82
			c3.18,0,5.65,0.88,7.41,2.64c1.65,1.65,2.67,3.59,3.06,5.81c0.04,0.24,0.27,0.39,0.51,0.33l9.4-2.43c0.21-0.05,0.34-0.27,0.3-0.48
			c-0.98-4.65-3.19-8.42-6.63-11.31c-3.54-2.96-8.17-4.45-13.88-4.45c-2.96,0-5.75,0.49-8.36,1.48c-2.61,0.99-4.89,2.42-6.83,4.28
			c-1.95,1.87-3.47,4.12-4.57,6.75c-1.1,2.64-1.65,5.6-1.65,8.89v0.99c0,3.29,0.55,6.23,1.65,8.81c1.1,2.58,2.61,4.75,4.53,6.51
			c1.92,1.76,4.19,3.1,6.79,4.03c2.61,0.93,5.42,1.4,8.44,1.4c5.82,0,10.47-1.48,13.96-4.45c3.39-2.89,5.58-6.65,6.55-11.31
			c0.04-0.21-0.09-0.43-0.3-0.48l-9.41-2.35c-0.23-0.06-0.45,0.09-0.5,0.32c-0.53,2.49-1.58,4.49-3.17,6
			c-1.68,1.59-4.1,2.39-7.29,2.39c-1.48,0-2.88-0.23-4.2-0.7c-1.32-0.47-2.47-1.17-3.46-2.1c-0.99-0.93-1.77-2.1-2.35-3.5
			c-0.58-1.4-0.86-3.01-0.86-4.82v-0.49C106.39,35.54,106.68,33.91,107.25,32.46z"/>
		<path class="st1" d="M178.77,47.81h-11.04c-0.23,0-0.41-0.18-0.41-0.41V17.26c0-0.23-0.18-0.41-0.41-0.41h-22.4
			c-0.23,0-0.41,0.18-0.41,0.41v9.06c0,0.23,0.18,0.41,0.41,0.41h12.03c0.23,0,0.41,0.18,0.41,0.41V47.4c0,0.23-0.18,0.41-0.41,0.41
			h-13.02c-0.23,0-0.41,0.18-0.41,0.41v9.06c0,0.23,0.18,0.41,0.41,0.41h35.25c0.23,0,0.41-0.18,0.41-0.41v-9.06
			C179.18,48,179,47.81,178.77,47.81z"/>
		<path class="st1" d="M207.17,37.63c-0.05-0.07-0.08-0.16-0.08-0.24v-1.22c0-0.08,0.03-0.17,0.07-0.24l13.05-18.52
			c0.03-0.04,0.05-0.1,0.05-0.15v0c0-0.23-0.18-0.41-0.41-0.41h-10.75c-0.13,0-0.25,0.06-0.33,0.17l-10.62,14.65
			c-0.08,0.11-0.2,0.17-0.33,0.17h-1.36c-0.23,0-0.41-0.18-0.41-0.41V0.46c0-0.23-0.18-0.41-0.41-0.41h-9.56
			c-0.23,0-0.41,0.18-0.41,0.41v56.82c0,0.23,0.18,0.41,0.41,0.41h9.56c0.23,0,0.41-0.18,0.41-0.41V42.13
			c0-0.23,0.18-0.41,0.41-0.41h1.36c0.13,0,0.25,0.06,0.33,0.17l11.45,15.64c0.08,0.11,0.2,0.17,0.33,0.17h11.24
			c0.23,0,0.41-0.18,0.41-0.41c0-0.06-0.02-0.11-0.05-0.15L207.17,37.63z"/>
		<path class="st1" d="M262.35,47.81h-11.04c-0.23,0-0.41-0.18-0.41-0.41V17.26c0-0.23-0.18-0.41-0.41-0.41h-22.4
			c-0.23,0-0.41,0.18-0.41,0.41v9.06c0,0.23,0.18,0.41,0.41,0.41h12.03c0.23,0,0.41,0.18,0.41,0.41V47.4c0,0.23-0.18,0.41-0.41,0.41
			H227.1c-0.23,0-0.41,0.18-0.41,0.41v9.06c0,0.23,0.18,0.41,0.41,0.41h35.25c0.23,0,0.41-0.18,0.41-0.41v-9.06
			C262.76,48,262.58,47.81,262.35,47.81z"/>
		<path class="st1" d="M240.35,11.01h10.14c0.23,0,0.41-0.18,0.41-0.41V0.46c0-0.23-0.18-0.41-0.41-0.41h-10.14
			c-0.23,0-0.41,0.18-0.41,0.41V10.6C239.94,10.83,240.13,11.01,240.35,11.01z"/>
		<path class="st1" d="M278.73,47.82h-9.02c-0.23,0-0.41,0.18-0.41,0.41v9.02c0,0.23,0.18,0.41,0.41,0.41h9.02
			c0.23,0,0.41-0.18,0.41-0.41v-9.02C279.14,48.01,278.96,47.82,278.73,47.82z"/>
		<path class="st1" d="M156.51,11.01h10.14c0.23,0,0.41-0.18,0.41-0.41V0.46c0-0.23-0.18-0.41-0.41-0.41h-10.14
			c-0.23,0-0.41,0.18-0.41,0.41V10.6C156.1,10.83,156.28,11.01,156.51,11.01z"/>
		<path class="st1" d="M10.54,35.08c0.11-0.73,0.28-1.41,0.5-2.07c0.06-0.19,0.13-0.37,0.2-0.55c0.14-0.36,0.3-0.71,0.47-1.05
			c0.51-1.01,1.13-1.89,1.88-2.65l0,0c0.25-0.25,0.5-0.49,0.77-0.72c0.4-0.34,0.82-0.64,1.27-0.91c0.3-0.18,0.61-0.35,0.92-0.5
			c0.16-0.08,0.32-0.15,0.49-0.22c0.25-0.1,0.5-0.2,0.75-0.28c0.67-0.23,1.37-0.38,2.09-0.46c0.45-0.05,0.9-0.08,1.36-0.08
			c3.18,0,5.66,0.88,7.41,2.64h0c0.41,0.41,0.79,0.84,1.12,1.29c0.42,0.56,0.77,1.15,1.07,1.77c0.18,0.37,0.33,0.75,0.46,1.14
			c0.09,0.26,0.17,0.53,0.23,0.79c0.07,0.27,0.13,0.54,0.18,0.82c0.01,0.08,0.05,0.14,0.09,0.2c0.1,0.11,0.25,0.17,0.41,0.13
			l9.4-2.43c0.02-0.01,0.05-0.01,0.07-0.02c0.1-0.05,0.18-0.13,0.22-0.24c0.01-0.02,0.01-0.03,0.01-0.05c0.01-0.05,0.01-0.11,0-0.17
			c-0.98-4.65-3.18-8.42-6.63-11.31c-0.11-0.09-0.23-0.19-0.34-0.27c-0.34-0.27-0.68-0.52-1.04-0.76c-0.26-0.18-0.53-0.35-0.8-0.51
			c-0.17-0.1-0.34-0.2-0.51-0.3c-1.2-0.67-2.49-1.21-3.87-1.62c-0.58-0.17-1.17-0.32-1.78-0.45c-0.19-0.04-0.39-0.08-0.58-0.11
			c-0.29-0.05-0.58-0.1-0.87-0.14c-0.48-0.07-0.98-0.13-1.48-0.17c-0.66-0.06-1.33-0.09-2.02-0.11c-0.02,0-0.03,0-0.05,0
			c-0.16,0-0.32,0-0.48,0h-0.05c-2.96,0-5.75,0.49-8.36,1.48c-2.61,0.99-4.89,2.42-6.84,4.28c-1.95,1.87-3.47,4.11-4.57,6.75
			C0.55,30.85,0,33.81,0,37.11v0.99c0,0.82,0.04,1.63,0.1,2.41c0.04,0.39,0.08,0.77,0.13,1.15c0.08,0.57,0.17,1.13,0.29,1.67
			c0.08,0.36,0.16,0.72,0.26,1.07c0.1,0.35,0.2,0.7,0.31,1.04c0.17,0.51,0.35,1.01,0.56,1.49c0.14,0.32,0.28,0.64,0.43,0.95
			c1.05,2.17,2.42,4.02,4.1,5.56c0.12,0.11,0.24,0.22,0.36,0.33c0.25,0.21,0.5,0.42,0.75,0.62c0.26,0.2,0.52,0.39,0.79,0.58
			c0.93,0.65,1.93,1.23,3,1.73c0.61,0.28,1.24,0.54,1.89,0.78c2.61,0.93,5.42,1.4,8.44,1.4c4.36,0,8.07-0.83,11.13-2.5
			c0.25-0.14,0.5-0.28,0.75-0.43c0.24-0.15,0.48-0.31,0.72-0.47c0.47-0.33,0.92-0.67,1.36-1.04c0.32-0.27,0.63-0.55,0.92-0.83
			c2.87-2.76,4.74-6.25,5.63-10.47c0.04-0.19-0.06-0.38-0.23-0.46c-0.02-0.01-0.04-0.02-0.07-0.02l-9.42-2.35
			c-0.23-0.06-0.45,0.09-0.5,0.32c-0.53,2.5-1.58,4.49-3.17,6c-1.67,1.59-4.1,2.39-7.29,2.39c-1.48,0-2.88-0.23-4.2-0.7
			c-1.32-0.47-2.47-1.16-3.46-2.1c-0.25-0.23-0.48-0.48-0.7-0.74c-0.44-0.52-0.83-1.11-1.17-1.75c-0.17-0.32-0.33-0.66-0.47-1.01
			c-0.06-0.15-0.12-0.31-0.17-0.46c-0.24-0.67-0.42-1.38-0.53-2.14c-0.11-0.7-0.16-1.44-0.16-2.22v-0.49
			C10.37,36.56,10.43,35.8,10.54,35.08z"/>
	</g>
</g>
<g>
	<rect x="171.6" y="91.19" class="st1" width="10.48" height="55.86"/>
	<path d="M194.1,96.44v3.55h-1.03v-8.62h3.08c0.44,0,0.83,0.06,1.16,0.19c0.33,0.13,0.6,0.3,0.82,0.51
		c0.22,0.21,0.38,0.46,0.49,0.74c0.11,0.28,0.17,0.58,0.17,0.89v0.37c0,0.31-0.06,0.61-0.17,0.9c-0.11,0.29-0.28,0.54-0.5,0.76
		c-0.22,0.22-0.5,0.39-0.82,0.52c-0.33,0.13-0.71,0.19-1.15,0.19H194.1z M194.1,95.48h1.92c1.15,0,1.72-0.49,1.72-1.48v-0.22
		c0-0.43-0.14-0.79-0.42-1.05c-0.28-0.27-0.72-0.4-1.3-0.4h-1.92V95.48z"/>
	<path d="M200.78,99.1h2.14v-4.33H201v-0.89h2.88v5.22h1.99v0.89h-5.1V99.1z M202.53,92.05c0-0.24,0.08-0.44,0.25-0.61
		c0.17-0.17,0.37-0.25,0.61-0.25c0.24,0,0.44,0.08,0.61,0.25c0.17,0.17,0.25,0.37,0.25,0.61c0,0.24-0.08,0.44-0.25,0.61
		c-0.17,0.17-0.37,0.25-0.61,0.25c-0.24,0-0.44-0.08-0.61-0.25C202.61,92.49,202.53,92.29,202.53,92.05z"/>
	<path d="M207.96,93.87h1.92v-2.51h0.96v2.51h2.36v0.89h-2.36v3.96c0,0.25,0.11,0.37,0.33,0.37h1.74v0.89h-2.08
		c-0.28,0-0.51-0.09-0.68-0.27c-0.18-0.18-0.26-0.41-0.26-0.69v-4.26h-1.92V93.87z"/>
	<path d="M220.13,98.95h-0.15c-0.2,0.41-0.47,0.71-0.82,0.91c-0.35,0.2-0.72,0.3-1.1,0.3c-0.4,0-0.78-0.07-1.12-0.2
		c-0.34-0.14-0.65-0.34-0.9-0.6c-0.26-0.27-0.46-0.59-0.61-0.98c-0.15-0.39-0.22-0.83-0.22-1.34v-0.2c0-0.5,0.07-0.94,0.22-1.33
		c0.15-0.39,0.35-0.71,0.61-0.98c0.26-0.27,0.56-0.47,0.9-0.61c0.34-0.14,0.71-0.21,1.1-0.21c0.42,0,0.8,0.09,1.14,0.28
		s0.61,0.47,0.81,0.86h0.15v-0.96h0.96v4.85c0,0.25,0.11,0.37,0.33,0.37h0.31v0.89h-0.65c-0.28,0-0.51-0.09-0.68-0.27
		c-0.18-0.18-0.26-0.41-0.26-0.69V98.95z M218.16,99.24c0.29,0,0.55-0.05,0.79-0.16c0.24-0.11,0.45-0.26,0.62-0.46
		c0.17-0.2,0.31-0.43,0.41-0.71s0.15-0.58,0.15-0.92v-0.15c0-0.33-0.05-0.63-0.15-0.9c-0.1-0.28-0.24-0.51-0.41-0.71
		c-0.18-0.2-0.39-0.35-0.63-0.46c-0.24-0.11-0.5-0.17-0.78-0.17c-0.29,0-0.55,0.05-0.79,0.16c-0.24,0.11-0.45,0.26-0.62,0.45
		c-0.18,0.19-0.31,0.43-0.41,0.7s-0.15,0.58-0.15,0.91v0.2c0,0.7,0.18,1.24,0.55,1.63C217.11,99.05,217.58,99.24,218.16,99.24z"/>
	<path d="M227.88,99.05h-0.15c-0.2,0.37-0.47,0.65-0.81,0.83c-0.34,0.18-0.71,0.28-1.11,0.28c-0.41,0-0.8-0.07-1.16-0.21
		c-0.36-0.14-0.68-0.34-0.95-0.6c-0.28-0.26-0.49-0.59-0.65-0.98c-0.16-0.39-0.24-0.84-0.24-1.34v-0.2c0-0.49,0.08-0.93,0.25-1.32
		c0.16-0.39,0.38-0.72,0.65-0.98c0.27-0.27,0.59-0.47,0.95-0.61c0.36-0.14,0.74-0.21,1.13-0.21c0.44,0,0.83,0.1,1.16,0.29
		c0.33,0.19,0.59,0.47,0.78,0.84h0.15v-0.96h0.96v7.61c0,0.28-0.09,0.51-0.26,0.69c-0.18,0.18-0.4,0.27-0.68,0.27h-3.98v-0.89h3.63
		c0.22,0,0.33-0.12,0.33-0.37V99.05z M225.83,99.24c0.29,0,0.55-0.05,0.8-0.16c0.25-0.11,0.46-0.26,0.65-0.46
		c0.18-0.2,0.33-0.43,0.44-0.71c0.11-0.28,0.16-0.58,0.16-0.92v-0.15c0-0.33-0.05-0.63-0.16-0.9c-0.11-0.28-0.25-0.51-0.44-0.71
		c-0.18-0.2-0.4-0.35-0.65-0.46c-0.25-0.11-0.52-0.17-0.79-0.17c-0.29,0-0.56,0.05-0.81,0.16c-0.25,0.11-0.47,0.26-0.65,0.46
		c-0.18,0.2-0.33,0.43-0.43,0.7c-0.1,0.27-0.15,0.57-0.15,0.9v0.2c0,0.34,0.05,0.65,0.15,0.92c0.1,0.27,0.25,0.5,0.43,0.7
		c0.18,0.19,0.4,0.34,0.65,0.44C225.27,99.19,225.54,99.24,225.83,99.24z"/>
	<path d="M235.13,93.87h0.96v6.11h-0.96v-1.11h-0.15c-0.2,0.39-0.46,0.71-0.78,0.94c-0.32,0.23-0.73,0.34-1.22,0.34
		c-0.34,0-0.65-0.06-0.93-0.17c-0.28-0.11-0.53-0.28-0.73-0.5c-0.2-0.22-0.36-0.5-0.47-0.82c-0.11-0.33-0.17-0.71-0.17-1.14v-3.64
		h0.96v3.52c0,0.64,0.13,1.11,0.39,1.4c0.26,0.3,0.66,0.44,1.21,0.44c0.58,0,1.04-0.2,1.37-0.6c0.33-0.4,0.5-0.93,0.5-1.59V93.87z"
		/>
	<path d="M237.96,93.87h2.22v0.81h0.15c0.16-0.34,0.38-0.58,0.66-0.74c0.29-0.16,0.62-0.24,0.98-0.24c0.62,0,1.11,0.2,1.49,0.6
		c0.38,0.4,0.58,0.99,0.6,1.76l-1.01,0.15c0-0.57-0.14-0.97-0.41-1.23c-0.27-0.25-0.6-0.38-1-0.38c-0.25,0-0.47,0.05-0.66,0.15
		c-0.18,0.1-0.34,0.23-0.46,0.41c-0.12,0.17-0.21,0.37-0.27,0.6c-0.06,0.23-0.09,0.48-0.09,0.74v2.59h1.55v0.89h-3.92V99.1h1.4
		v-4.33h-1.26V93.87z"/>
	<path d="M250.2,93.87h0.96v6.11h-0.96v-1.11h-0.15c-0.2,0.39-0.46,0.71-0.78,0.94c-0.32,0.23-0.73,0.34-1.22,0.34
		c-0.34,0-0.65-0.06-0.93-0.17c-0.28-0.11-0.53-0.28-0.73-0.5c-0.2-0.22-0.36-0.5-0.47-0.82c-0.11-0.33-0.17-0.71-0.17-1.14v-3.64
		h0.96v3.52c0,0.64,0.13,1.11,0.39,1.4c0.26,0.3,0.66,0.44,1.21,0.44c0.58,0,1.04-0.2,1.37-0.6c0.33-0.4,0.5-0.93,0.5-1.59V93.87z"
		/>
	<path d="M261.97,99.98h-1.03v-8.62h1.03v3.82h0.28l3.31-3.82h1.28v0.07l-3.57,4.16v0.15l3.72,4.16v0.07h-1.31l-3.44-3.84h-0.28
		V99.98z"/>
	<path d="M268.39,93.87h1.88v-1.55c0-0.28,0.09-0.51,0.26-0.69c0.18-0.18,0.4-0.27,0.68-0.27h2.41v0.89h-2.07
		c-0.22,0-0.33,0.12-0.33,0.37v1.26h2.55v0.89h-2.55v5.22h-0.96v-5.22h-1.88V93.87z"/>
	<path d="M275.78,93.87h1.92v-2.51h0.96v2.51h2.36v0.89h-2.36v3.96c0,0.25,0.11,0.37,0.33,0.37h1.74v0.89h-2.08
		c-0.28,0-0.51-0.09-0.68-0.27c-0.18-0.18-0.26-0.41-0.26-0.69v-4.26h-1.92V93.87z"/>
	<path d="M285.36,99.29c0-0.24,0.08-0.44,0.25-0.61c0.17-0.17,0.37-0.25,0.61-0.25c0.24,0,0.44,0.08,0.61,0.25
		c0.17,0.17,0.25,0.37,0.25,0.61c0,0.24-0.08,0.44-0.25,0.61c-0.17,0.17-0.37,0.25-0.61,0.25c-0.24,0-0.44-0.08-0.61-0.25
		C285.44,99.73,285.36,99.53,285.36,99.29z"/>
	<path d="M195.68,114.93c-0.44,0-0.83-0.06-1.18-0.18c-0.35-0.12-0.66-0.28-0.91-0.49c-0.25-0.21-0.45-0.46-0.59-0.74
		c-0.14-0.28-0.2-0.59-0.2-0.93v-0.15c0-0.3,0.05-0.56,0.14-0.79c0.09-0.23,0.21-0.43,0.36-0.6c0.15-0.17,0.32-0.32,0.51-0.43
		c0.19-0.11,0.39-0.2,0.6-0.26v-0.15c-0.19-0.06-0.37-0.14-0.53-0.26c-0.16-0.12-0.31-0.25-0.44-0.41c-0.13-0.16-0.23-0.33-0.3-0.54
		c-0.07-0.2-0.11-0.42-0.11-0.66v-0.15c0-0.33,0.07-0.63,0.2-0.9c0.13-0.27,0.32-0.51,0.56-0.71c0.24-0.2,0.53-0.35,0.86-0.46
		c0.33-0.11,0.7-0.17,1.11-0.17h0.07c0.4,0,0.77,0.06,1.11,0.17c0.34,0.11,0.63,0.26,0.87,0.46c0.24,0.2,0.43,0.43,0.56,0.71
		c0.13,0.28,0.2,0.58,0.2,0.9v0.15c0,0.24-0.04,0.46-0.11,0.66c-0.07,0.2-0.17,0.38-0.3,0.54c-0.13,0.16-0.28,0.29-0.44,0.41
		c-0.17,0.12-0.34,0.2-0.52,0.26v0.15c0.21,0.06,0.4,0.14,0.6,0.26c0.19,0.12,0.36,0.26,0.51,0.43c0.15,0.17,0.27,0.37,0.36,0.6
		c0.09,0.23,0.14,0.49,0.14,0.79v0.15c0,0.34-0.07,0.65-0.2,0.93c-0.14,0.28-0.33,0.53-0.58,0.74c-0.25,0.21-0.56,0.37-0.91,0.49
		c-0.35,0.12-0.75,0.18-1.18,0.18H195.68z M195.86,113.99c0.56,0,1.01-0.14,1.36-0.43c0.35-0.29,0.52-0.66,0.52-1.12v-0.07
		c0-0.51-0.18-0.9-0.54-1.18c-0.36-0.28-0.82-0.42-1.39-0.42h-0.07c-0.57,0-1.03,0.14-1.39,0.42c-0.36,0.28-0.54,0.67-0.54,1.18
		v0.07c0,0.46,0.17,0.83,0.52,1.12c0.35,0.29,0.8,0.43,1.36,0.43H195.86z M195.79,109.81c0.52,0,0.94-0.14,1.26-0.41
		c0.32-0.27,0.48-0.61,0.48-1.02v-0.07c0-0.42-0.16-0.76-0.47-1.02s-0.74-0.39-1.26-0.39c-0.53,0-0.95,0.13-1.26,0.39
		s-0.47,0.6-0.47,1.02v0.07c0,0.41,0.16,0.75,0.48,1.02C194.86,109.67,195.27,109.81,195.79,109.81z"/>
	<path d="M200.3,109.49c0-1.12,0.27-1.98,0.8-2.6c0.53-0.62,1.28-0.92,2.23-0.92c0.95,0,1.69,0.31,2.23,0.92
		c0.53,0.62,0.8,1.48,0.8,2.6v1.92c0,1.15-0.27,2.02-0.8,2.62c-0.53,0.6-1.28,0.9-2.23,0.9c-0.95,0-1.7-0.3-2.23-0.9
		c-0.53-0.6-0.8-1.47-0.8-2.62V109.49z M203.33,113.99c0.66,0,1.16-0.23,1.5-0.7c0.33-0.46,0.5-1.12,0.5-1.96v-1.77
		c0-0.39-0.04-0.75-0.12-1.08s-0.21-0.6-0.38-0.84c-0.17-0.23-0.38-0.42-0.63-0.55c-0.25-0.13-0.54-0.2-0.87-0.2
		c-0.34,0-0.63,0.07-0.87,0.2c-0.25,0.13-0.45,0.31-0.62,0.55c-0.17,0.23-0.29,0.51-0.38,0.84c-0.08,0.32-0.12,0.68-0.12,1.08v1.77
		c0,0.85,0.17,1.5,0.5,1.96C202.16,113.76,202.66,113.99,203.33,113.99z M202.54,110.45c0-0.21,0.08-0.4,0.23-0.55
		c0.16-0.16,0.34-0.23,0.55-0.23c0.21,0,0.4,0.08,0.55,0.23c0.16,0.16,0.23,0.34,0.23,0.55c0,0.21-0.08,0.4-0.23,0.55
		c-0.16,0.16-0.34,0.23-0.55,0.23c-0.21,0-0.4-0.08-0.55-0.23C202.62,110.85,202.54,110.66,202.54,110.45z"/>
	<path d="M207.83,109.49c0-1.12,0.27-1.98,0.8-2.6c0.53-0.62,1.28-0.92,2.23-0.92c0.95,0,1.69,0.31,2.23,0.92
		c0.53,0.62,0.8,1.48,0.8,2.6v1.92c0,1.15-0.27,2.02-0.8,2.62c-0.53,0.6-1.28,0.9-2.23,0.9c-0.95,0-1.7-0.3-2.23-0.9
		c-0.53-0.6-0.8-1.47-0.8-2.62V109.49z M210.86,113.99c0.66,0,1.16-0.23,1.5-0.7c0.33-0.46,0.5-1.12,0.5-1.96v-1.77
		c0-0.39-0.04-0.75-0.12-1.08s-0.21-0.6-0.38-0.84c-0.17-0.23-0.38-0.42-0.63-0.55c-0.25-0.13-0.54-0.2-0.87-0.2
		c-0.34,0-0.63,0.07-0.87,0.2c-0.25,0.13-0.45,0.31-0.62,0.55c-0.17,0.23-0.29,0.51-0.38,0.84c-0.08,0.32-0.12,0.68-0.12,1.08v1.77
		c0,0.85,0.17,1.5,0.5,1.96C209.7,113.76,210.2,113.99,210.86,113.99z M210.07,110.45c0-0.21,0.08-0.4,0.23-0.55
		c0.16-0.16,0.34-0.23,0.55-0.23c0.21,0,0.4,0.08,0.55,0.23c0.16,0.16,0.23,0.34,0.23,0.55c0,0.21-0.08,0.4-0.23,0.55
		c-0.16,0.16-0.34,0.23-0.55,0.23c-0.21,0-0.4-0.08-0.55-0.23C210.15,110.85,210.07,110.66,210.07,110.45z"/>
	<path d="M215.37,109.49c0-1.12,0.27-1.98,0.8-2.6c0.53-0.62,1.28-0.92,2.23-0.92c0.95,0,1.69,0.31,2.23,0.92
		c0.53,0.62,0.8,1.48,0.8,2.6v1.92c0,1.15-0.27,2.02-0.8,2.62c-0.53,0.6-1.28,0.9-2.23,0.9c-0.95,0-1.7-0.3-2.23-0.9
		c-0.53-0.6-0.8-1.47-0.8-2.62V109.49z M218.4,113.99c0.66,0,1.16-0.23,1.5-0.7c0.33-0.46,0.5-1.12,0.5-1.96v-1.77
		c0-0.39-0.04-0.75-0.12-1.08s-0.21-0.6-0.38-0.84c-0.17-0.23-0.38-0.42-0.63-0.55c-0.25-0.13-0.54-0.2-0.87-0.2
		c-0.34,0-0.63,0.07-0.87,0.2c-0.25,0.13-0.45,0.31-0.62,0.55c-0.17,0.23-0.29,0.51-0.38,0.84c-0.08,0.32-0.12,0.68-0.12,1.08v1.77
		c0,0.85,0.17,1.5,0.5,1.96C217.23,113.76,217.73,113.99,218.4,113.99z M217.61,110.45c0-0.21,0.08-0.4,0.23-0.55
		c0.16-0.16,0.34-0.23,0.55-0.23c0.21,0,0.4,0.08,0.55,0.23c0.16,0.16,0.23,0.34,0.23,0.55c0,0.21-0.08,0.4-0.23,0.55
		c-0.16,0.16-0.34,0.23-0.55,0.23c-0.21,0-0.4-0.08-0.55-0.23C217.69,110.85,217.61,110.66,217.61,110.45z"/>
	<path d="M235.5,108.63c0-0.28-0.06-0.53-0.17-0.74c-0.11-0.21-0.26-0.39-0.45-0.53c-0.19-0.14-0.41-0.25-0.65-0.32
		c-0.25-0.07-0.5-0.11-0.78-0.11c-0.24,0-0.46,0.03-0.68,0.09c-0.21,0.06-0.4,0.15-0.57,0.26c-0.17,0.12-0.3,0.26-0.4,0.42
		c-0.1,0.17-0.15,0.36-0.15,0.58v0.07c0,0.24,0.05,0.44,0.15,0.61c0.1,0.17,0.24,0.31,0.44,0.43c0.19,0.12,0.43,0.22,0.72,0.3
		c0.29,0.08,0.62,0.15,1.01,0.2c0.9,0.14,1.57,0.4,1.99,0.79c0.43,0.39,0.64,0.91,0.64,1.57v0.15c0,0.37-0.06,0.71-0.19,1.02
		c-0.13,0.31-0.32,0.57-0.57,0.79c-0.25,0.22-0.56,0.39-0.93,0.52c-0.37,0.12-0.8,0.18-1.28,0.18c-0.55,0-1.04-0.08-1.46-0.24
		c-0.42-0.16-0.78-0.38-1.06-0.66c-0.28-0.28-0.5-0.62-0.65-1c-0.15-0.38-0.22-0.8-0.22-1.25v-0.37h1.03v0.3
		c0,0.76,0.21,1.32,0.62,1.7c0.41,0.38,0.99,0.57,1.73,0.57c0.64,0,1.12-0.14,1.45-0.42c0.32-0.28,0.49-0.66,0.49-1.13v-0.07
		c0-0.45-0.17-0.8-0.5-1.03c-0.33-0.24-0.87-0.41-1.62-0.52c-0.44-0.06-0.83-0.15-1.18-0.26c-0.35-0.12-0.65-0.27-0.89-0.47
		c-0.25-0.19-0.44-0.42-0.57-0.7c-0.13-0.27-0.2-0.59-0.2-0.96v-0.15c0-0.34,0.07-0.64,0.21-0.92c0.14-0.28,0.33-0.52,0.58-0.73
		c0.25-0.2,0.55-0.36,0.9-0.47c0.35-0.11,0.73-0.17,1.15-0.17c0.48,0,0.92,0.07,1.3,0.21c0.38,0.14,0.7,0.33,0.97,0.56
		c0.26,0.23,0.46,0.51,0.6,0.82c0.14,0.32,0.2,0.65,0.2,0.99v0.52h-1.03V108.63z"/>
	<path d="M243.68,113.87v0.89h-5.32v-1.53l4.36-3.55v-0.15h-4.28v-0.89h5.1v1.48l-4.38,3.6v0.15H243.68z"/>
	<path d="M245.78,108.65h1.88v-1.55c0-0.28,0.09-0.51,0.26-0.69c0.18-0.18,0.4-0.27,0.68-0.27h2.41v0.89h-2.07
		c-0.22,0-0.33,0.12-0.33,0.37v1.26h2.55v0.89h-2.55v5.22h-0.96v-5.22h-1.88V108.65z"/>
	<path d="M257.01,114.76h-1.9l-2.13-6.11h1.13l1.87,5.66h0.15l1.87-5.66h1.13L257.01,114.76z"/>
	<path d="M265.35,113.72h-0.15c-0.2,0.41-0.47,0.71-0.82,0.91c-0.35,0.2-0.72,0.3-1.1,0.3c-0.4,0-0.78-0.07-1.12-0.2
		c-0.34-0.14-0.65-0.34-0.9-0.6c-0.26-0.27-0.46-0.59-0.61-0.98c-0.15-0.39-0.22-0.83-0.22-1.34v-0.2c0-0.5,0.07-0.94,0.22-1.33
		c0.15-0.39,0.35-0.71,0.61-0.98c0.26-0.27,0.56-0.47,0.9-0.61c0.34-0.14,0.71-0.21,1.1-0.21c0.42,0,0.8,0.09,1.14,0.28
		c0.34,0.18,0.61,0.47,0.81,0.86h0.15v-0.96h0.96v4.85c0,0.25,0.11,0.37,0.33,0.37h0.31v0.89h-0.65c-0.28,0-0.51-0.09-0.68-0.27
		c-0.18-0.18-0.26-0.41-0.26-0.69V113.72z M263.38,114.02c0.29,0,0.55-0.05,0.79-0.16c0.24-0.11,0.45-0.26,0.62-0.46
		c0.17-0.2,0.31-0.43,0.41-0.71c0.1-0.28,0.15-0.58,0.15-0.92v-0.15c0-0.33-0.05-0.63-0.15-0.9c-0.1-0.28-0.24-0.51-0.41-0.71
		c-0.18-0.2-0.39-0.35-0.63-0.46c-0.24-0.11-0.5-0.17-0.78-0.17c-0.29,0-0.55,0.05-0.79,0.16c-0.24,0.11-0.45,0.26-0.62,0.45
		c-0.18,0.19-0.31,0.43-0.41,0.7c-0.1,0.28-0.15,0.58-0.15,0.91v0.2c0,0.7,0.18,1.24,0.55,1.63
		C262.32,113.82,262.79,114.02,263.38,114.02z M264.69,106.29l-1.03,1.45h-0.89l0.81-1.45H264.69z"/>
	<path d="M268.1,108.65h2.22v0.81h0.15c0.16-0.34,0.38-0.58,0.66-0.74c0.29-0.16,0.62-0.24,0.98-0.24c0.62,0,1.11,0.2,1.49,0.6
		c0.38,0.4,0.58,0.99,0.6,1.76l-1.01,0.15c0-0.57-0.14-0.97-0.41-1.23c-0.27-0.25-0.6-0.38-1-0.38c-0.25,0-0.47,0.05-0.66,0.15
		c-0.18,0.1-0.34,0.23-0.46,0.41c-0.12,0.17-0.21,0.37-0.27,0.6c-0.06,0.23-0.09,0.48-0.09,0.74v2.59h1.55v0.89h-3.92v-0.89h1.4
		v-4.33h-1.26V108.65z"/>
	<path d="M192.97,120.91h5.76v1.55l-5.17,5.96v0.15h5.32v0.96h-6.21v-1.55l5.17-5.96v-0.15h-4.88V120.91z"/>
	<path d="M201.9,125c0,0.3,0.12,0.52,0.38,0.68c0.25,0.16,0.71,0.26,1.37,0.31c0.71,0.06,1.26,0.23,1.63,0.51
		c0.37,0.28,0.56,0.7,0.56,1.24v0.07c0,0.3-0.06,0.56-0.18,0.79c-0.12,0.23-0.28,0.43-0.49,0.6c-0.21,0.16-0.46,0.29-0.76,0.38
		c-0.3,0.09-0.63,0.13-0.98,0.13c-0.48,0-0.88-0.06-1.23-0.19c-0.34-0.13-0.62-0.3-0.85-0.5c-0.23-0.21-0.4-0.45-0.51-0.71
		c-0.12-0.27-0.18-0.54-0.2-0.81l0.91-0.22c0.04,0.47,0.22,0.84,0.54,1.13c0.32,0.28,0.75,0.42,1.28,0.42
		c0.45,0,0.81-0.09,1.09-0.26c0.27-0.18,0.41-0.42,0.41-0.74c0-0.35-0.14-0.59-0.41-0.74c-0.27-0.15-0.71-0.24-1.32-0.28
		c-0.71-0.05-1.25-0.21-1.63-0.49c-0.38-0.28-0.57-0.69-0.57-1.22V125c0-0.29,0.06-0.54,0.18-0.76c0.12-0.22,0.29-0.4,0.5-0.55
		c0.21-0.15,0.45-0.26,0.71-0.33c0.26-0.07,0.54-0.11,0.82-0.11c0.4,0,0.76,0.06,1.06,0.17c0.3,0.11,0.56,0.25,0.76,0.43
		c0.21,0.18,0.36,0.38,0.47,0.61c0.11,0.23,0.18,0.46,0.22,0.69l-0.91,0.22c-0.04-0.39-0.2-0.7-0.47-0.92s-0.63-0.33-1.08-0.33
		c-0.17,0-0.34,0.02-0.5,0.06c-0.16,0.04-0.3,0.09-0.42,0.17c-0.12,0.07-0.22,0.17-0.3,0.28C201.94,124.73,201.9,124.85,201.9,125z"
		/>
	<path d="M213.93,126.55c0,0.51-0.08,0.96-0.25,1.35c-0.17,0.39-0.39,0.72-0.67,0.98c-0.28,0.27-0.61,0.47-0.98,0.61
		c-0.37,0.14-0.76,0.21-1.16,0.21c-0.41,0-0.8-0.07-1.17-0.21c-0.37-0.14-0.69-0.34-0.97-0.61c-0.28-0.27-0.5-0.59-0.67-0.98
		c-0.17-0.39-0.25-0.84-0.25-1.35v-0.15c0-0.5,0.08-0.95,0.25-1.34c0.17-0.39,0.39-0.72,0.68-0.99c0.28-0.27,0.61-0.48,0.98-0.62
		c0.37-0.14,0.76-0.21,1.16-0.21c0.4,0,0.79,0.07,1.16,0.21c0.37,0.14,0.7,0.34,0.98,0.62c0.28,0.27,0.51,0.6,0.68,0.99
		c0.17,0.39,0.25,0.84,0.25,1.34V126.55z M210.86,128.79c0.3,0,0.57-0.05,0.82-0.15c0.25-0.1,0.47-0.25,0.66-0.45
		c0.19-0.2,0.34-0.43,0.44-0.71c0.11-0.27,0.16-0.58,0.16-0.93v-0.15c0-0.33-0.05-0.63-0.16-0.9c-0.11-0.28-0.25-0.51-0.44-0.71
		c-0.19-0.2-0.41-0.35-0.66-0.46c-0.25-0.11-0.53-0.17-0.81-0.17c-0.29,0-0.56,0.06-0.81,0.17c-0.25,0.11-0.48,0.26-0.67,0.46
		c-0.19,0.2-0.34,0.43-0.44,0.71c-0.11,0.27-0.16,0.58-0.16,0.9v0.15c0,0.34,0.05,0.65,0.16,0.93c0.11,0.28,0.25,0.51,0.44,0.71
		c0.19,0.2,0.41,0.35,0.66,0.45C210.29,128.74,210.57,128.79,210.86,128.79z"/>
	<path d="M215.7,128.65h2.22v-6.85h-2.14v-0.89h3.1v7.73h2.22v0.89h-5.39V128.65z"/>
	<path d="M223.03,123.43h1.92v-2.51h0.96v2.51h2.36v0.89h-2.36v3.96c0,0.25,0.11,0.37,0.33,0.37h1.74v0.89h-2.08
		c-0.28,0-0.51-0.09-0.68-0.27c-0.18-0.18-0.26-0.41-0.26-0.69v-4.26h-1.92V123.43z"/>
	<path d="M242.67,123.43h0.96v6.11h-0.96v-1.11h-0.15c-0.2,0.39-0.46,0.71-0.78,0.94c-0.32,0.23-0.73,0.34-1.22,0.34
		c-0.34,0-0.65-0.06-0.93-0.17c-0.28-0.11-0.53-0.28-0.73-0.5c-0.2-0.22-0.36-0.5-0.47-0.82c-0.11-0.33-0.17-0.71-0.17-1.14v-3.64
		h0.96v3.52c0,0.64,0.13,1.11,0.39,1.4c0.26,0.3,0.66,0.44,1.21,0.44c0.58,0,1.04-0.2,1.37-0.6c0.33-0.4,0.5-0.93,0.5-1.59V123.43z"
		/>
	<path d="M245.63,123.43h1.92v-2.51h0.96v2.51h2.36v0.89h-2.36v3.96c0,0.25,0.11,0.37,0.33,0.37h1.74v0.89h-2.08
		c-0.28,0-0.51-0.09-0.68-0.27c-0.18-0.18-0.26-0.41-0.26-0.69v-4.26h-1.92V123.43z"/>
	<path d="M259.09,127.37c-0.07,0.34-0.18,0.65-0.34,0.94c-0.16,0.29-0.36,0.54-0.61,0.74c-0.25,0.21-0.53,0.37-0.86,0.49
		c-0.33,0.12-0.69,0.17-1.1,0.17c-0.43,0-0.83-0.07-1.21-0.21c-0.38-0.14-0.72-0.34-1-0.61c-0.29-0.27-0.52-0.59-0.68-0.98
		c-0.17-0.39-0.25-0.83-0.25-1.33v-0.15c0-0.49,0.08-0.94,0.25-1.33c0.17-0.39,0.4-0.73,0.68-1c0.29-0.27,0.62-0.48,1-0.63
		c0.38-0.15,0.79-0.22,1.21-0.22c0.39,0,0.74,0.06,1.07,0.17c0.33,0.12,0.62,0.28,0.87,0.49c0.25,0.21,0.46,0.46,0.62,0.74
		c0.16,0.29,0.27,0.6,0.33,0.94l-0.96,0.22c-0.02-0.21-0.08-0.42-0.18-0.62c-0.09-0.2-0.22-0.38-0.38-0.53
		c-0.16-0.15-0.36-0.27-0.58-0.36c-0.23-0.09-0.5-0.14-0.8-0.14c-0.3,0-0.57,0.06-0.83,0.17c-0.26,0.11-0.49,0.27-0.68,0.47
		c-0.2,0.2-0.35,0.44-0.46,0.72c-0.11,0.28-0.17,0.58-0.17,0.91v0.15c0,0.34,0.06,0.65,0.17,0.93c0.11,0.28,0.26,0.51,0.46,0.7
		c0.2,0.19,0.43,0.33,0.69,0.44c0.26,0.1,0.55,0.15,0.85,0.15c0.3,0,0.57-0.05,0.79-0.14c0.23-0.09,0.42-0.22,0.58-0.37
		c0.16-0.15,0.29-0.33,0.38-0.52c0.09-0.2,0.16-0.4,0.19-0.62L259.09,127.37z"/>
	<path d="M265.35,128.5h-0.15c-0.2,0.41-0.47,0.71-0.82,0.91c-0.35,0.2-0.72,0.3-1.1,0.3c-0.4,0-0.78-0.07-1.12-0.2
		c-0.34-0.14-0.65-0.34-0.9-0.6c-0.26-0.27-0.46-0.59-0.61-0.98c-0.15-0.39-0.22-0.83-0.22-1.34v-0.2c0-0.5,0.07-0.94,0.22-1.33
		c0.15-0.39,0.35-0.71,0.61-0.98c0.26-0.27,0.56-0.47,0.9-0.61c0.34-0.14,0.71-0.21,1.1-0.21c0.42,0,0.8,0.09,1.14,0.28
		c0.34,0.18,0.61,0.47,0.81,0.86h0.15v-0.96h0.96v4.85c0,0.25,0.11,0.37,0.33,0.37h0.31v0.89h-0.65c-0.28,0-0.51-0.09-0.68-0.27
		c-0.18-0.18-0.26-0.41-0.26-0.69V128.5z M263.38,128.79c0.29,0,0.55-0.05,0.79-0.16c0.24-0.11,0.45-0.26,0.62-0.46
		c0.17-0.2,0.31-0.43,0.41-0.71c0.1-0.28,0.15-0.58,0.15-0.92v-0.15c0-0.33-0.05-0.63-0.15-0.9c-0.1-0.28-0.24-0.51-0.41-0.71
		c-0.18-0.2-0.39-0.35-0.63-0.46c-0.24-0.11-0.5-0.17-0.78-0.17c-0.29,0-0.55,0.05-0.79,0.16c-0.24,0.11-0.45,0.26-0.62,0.45
		c-0.18,0.19-0.31,0.43-0.41,0.7c-0.1,0.28-0.15,0.58-0.15,0.91v0.2c0,0.7,0.18,1.24,0.55,1.63
		C262.32,128.6,262.79,128.79,263.38,128.79z"/>
	<path d="M278.23,128.57v-7.2h-0.15l-1.42,3.24h-1.02v-0.07l1.61-3.62h2.01v7.66h2.44v0.96h-5.91v-0.96H278.23z"/>
	<path d="M285.36,128.84c0-0.24,0.08-0.44,0.25-0.61c0.17-0.17,0.37-0.25,0.61-0.25c0.24,0,0.44,0.08,0.61,0.25
		c0.17,0.17,0.25,0.37,0.25,0.61c0,0.24-0.08,0.44-0.25,0.61c-0.17,0.17-0.37,0.25-0.61,0.25c-0.24,0-0.44-0.08-0.61-0.25
		C285.44,129.29,285.36,129.08,285.36,128.84z"/>
	<path d="M193.22,139.3h1.87v-1.87h1.4v1.87h1.87v1.4h-1.87v1.87h-1.4v-1.87h-1.87V139.3z"/>
	<path d="M202.49,140.61v-2.56l2.14-0.59v-0.22h-4.28v-1.55h5.61v2.71l-2.29,0.67v0.22h0.3c0.3,0,0.6,0.05,0.9,0.14
		c0.3,0.09,0.56,0.24,0.78,0.44c0.23,0.2,0.41,0.44,0.55,0.73c0.14,0.29,0.21,0.63,0.21,1.03v0.15c0,0.39-0.06,0.74-0.19,1.07
		c-0.13,0.33-0.32,0.61-0.57,0.86c-0.25,0.24-0.56,0.43-0.93,0.57c-0.37,0.14-0.79,0.21-1.27,0.21c-0.48,0-0.92-0.08-1.32-0.23
		c-0.39-0.16-0.73-0.37-1-0.64c-0.28-0.27-0.49-0.58-0.63-0.94c-0.15-0.35-0.22-0.73-0.22-1.12v-0.52h1.63v0.44
		c0,0.39,0.13,0.73,0.38,1.02c0.25,0.29,0.64,0.43,1.15,0.43c0.43,0,0.77-0.11,1-0.33c0.23-0.22,0.35-0.51,0.35-0.87
		c0-0.39-0.13-0.67-0.38-0.84c-0.25-0.18-0.57-0.26-0.95-0.26H202.49z"/>
	<path d="M212.15,138.13c0-0.29-0.1-0.54-0.31-0.74c-0.21-0.21-0.54-0.31-0.98-0.31c-0.44,0-0.79,0.13-1.05,0.39
		c-0.26,0.26-0.39,0.6-0.39,1.02v1.11h0.22c0.14-0.29,0.37-0.52,0.68-0.7c0.31-0.18,0.67-0.26,1.06-0.26c0.35,0,0.69,0.06,1,0.19
		c0.31,0.13,0.58,0.31,0.81,0.54c0.23,0.23,0.41,0.52,0.54,0.86c0.13,0.34,0.2,0.72,0.2,1.15v0.15c0,0.43-0.07,0.84-0.22,1.2
		c-0.14,0.37-0.35,0.68-0.62,0.94c-0.27,0.26-0.59,0.47-0.97,0.62c-0.38,0.15-0.8,0.22-1.27,0.22c-0.43,0-0.83-0.07-1.2-0.21
		c-0.37-0.14-0.7-0.33-0.97-0.58c-0.28-0.25-0.49-0.55-0.65-0.9c-0.16-0.35-0.24-0.73-0.24-1.15v-3.14c0-0.45,0.08-0.86,0.25-1.23
		c0.16-0.37,0.39-0.68,0.66-0.94c0.28-0.26,0.6-0.46,0.97-0.6c0.37-0.14,0.75-0.21,1.16-0.21c0.41,0,0.79,0.06,1.15,0.18
		c0.36,0.12,0.67,0.29,0.94,0.52c0.27,0.23,0.48,0.5,0.63,0.82s0.23,0.69,0.23,1.09H212.15z M210.86,142.93
		c0.42,0,0.76-0.13,1.03-0.38c0.27-0.25,0.41-0.58,0.41-1c0-0.42-0.14-0.75-0.41-1c-0.27-0.25-0.62-0.38-1.03-0.38
		c-0.42,0-0.76,0.13-1.03,0.38s-0.41,0.58-0.41,1c0,0.42,0.14,0.75,0.41,1C210.1,142.8,210.44,142.93,210.86,142.93z"/>
	<path d="M229.02,142.76v1.55h-6.06v-1.7c0-0.45,0.07-0.84,0.2-1.16c0.14-0.32,0.33-0.59,0.58-0.81c0.25-0.22,0.55-0.4,0.9-0.55
		c0.35-0.14,0.75-0.26,1.19-0.36c0.33-0.07,0.6-0.16,0.81-0.25c0.21-0.09,0.38-0.2,0.5-0.32c0.12-0.12,0.21-0.25,0.25-0.39
		c0.05-0.14,0.07-0.31,0.07-0.49c0-0.35-0.13-0.63-0.38-0.86c-0.25-0.23-0.6-0.34-1.04-0.34c-0.47,0-0.84,0.14-1.12,0.42
		c-0.28,0.28-0.42,0.68-0.42,1.18v0.54h-1.63v-0.69c0-0.4,0.07-0.79,0.22-1.15c0.14-0.36,0.35-0.69,0.62-0.96
		c0.27-0.27,0.59-0.49,0.98-0.65c0.39-0.16,0.82-0.24,1.31-0.24c0.52,0,0.97,0.08,1.35,0.23c0.39,0.15,0.71,0.35,0.97,0.6
		c0.26,0.25,0.45,0.53,0.58,0.86c0.13,0.32,0.19,0.66,0.19,1v0.15c0,0.72-0.2,1.32-0.61,1.8c-0.41,0.48-1.07,0.82-1.99,1.03
		c-0.39,0.09-0.7,0.18-0.95,0.28c-0.25,0.09-0.45,0.2-0.59,0.31s-0.24,0.24-0.29,0.38c-0.05,0.14-0.08,0.29-0.08,0.46v0.15H229.02z"
		/>
	<path d="M230.29,139.04c0-1.12,0.28-1.98,0.84-2.6c0.56-0.62,1.34-0.92,2.33-0.92c0.99,0,1.77,0.31,2.33,0.92
		c0.56,0.62,0.84,1.48,0.84,2.6v1.92c0,1.15-0.28,2.02-0.84,2.62c-0.56,0.6-1.34,0.9-2.33,0.9c-0.99,0-1.77-0.3-2.33-0.9
		c-0.56-0.6-0.84-1.47-0.84-2.62V139.04z M233.47,143c0.3,0,0.54-0.05,0.74-0.14c0.2-0.09,0.36-0.23,0.48-0.4
		c0.12-0.17,0.21-0.38,0.26-0.62c0.05-0.24,0.07-0.5,0.07-0.79v-2.12c0-0.27-0.03-0.52-0.09-0.76c-0.06-0.24-0.15-0.44-0.27-0.62
		c-0.12-0.17-0.28-0.31-0.48-0.41c-0.2-0.1-0.44-0.15-0.71-0.15c-0.28,0-0.52,0.05-0.71,0.15c-0.2,0.1-0.36,0.24-0.48,0.41
		c-0.12,0.17-0.21,0.38-0.27,0.62c-0.06,0.24-0.09,0.49-0.09,0.76v2.12c0,0.29,0.02,0.55,0.07,0.79c0.05,0.24,0.14,0.44,0.26,0.62
		c0.12,0.17,0.28,0.31,0.48,0.4S233.17,143,233.47,143z M232.43,140c0-0.28,0.1-0.52,0.31-0.73c0.21-0.21,0.45-0.31,0.73-0.31
		c0.28,0,0.52,0.1,0.73,0.31c0.2,0.21,0.31,0.45,0.31,0.73c0,0.28-0.1,0.52-0.31,0.73c-0.21,0.2-0.45,0.31-0.73,0.31
		c-0.28,0-0.52-0.1-0.73-0.31C232.54,140.52,232.43,140.28,232.43,140z"/>
	<path d="M245.58,140.47v-4.78h5.76v1.55h-4.14v2.34h0.22c0.11-0.32,0.33-0.6,0.65-0.83c0.32-0.23,0.74-0.35,1.27-0.35
		c0.4,0,0.76,0.07,1.08,0.21c0.32,0.14,0.59,0.33,0.81,0.58c0.22,0.25,0.39,0.54,0.51,0.89c0.12,0.34,0.18,0.72,0.18,1.13v0.07
		c0,0.43-0.07,0.85-0.22,1.23c-0.14,0.39-0.35,0.72-0.63,1.02c-0.28,0.29-0.61,0.52-1.02,0.7c-0.4,0.17-0.87,0.26-1.39,0.26
		c-0.53,0-0.99-0.07-1.39-0.22c-0.4-0.14-0.74-0.34-1.02-0.6c-0.28-0.26-0.48-0.57-0.63-0.92c-0.14-0.36-0.22-0.75-0.22-1.16v-0.3
		h1.63v0.15c0,0.44,0.13,0.79,0.4,1.08s0.66,0.42,1.18,0.42s0.93-0.14,1.23-0.42c0.3-0.28,0.45-0.67,0.45-1.16
		c0-0.47-0.11-0.82-0.33-1.05c-0.22-0.23-0.51-0.35-0.87-0.35c-0.24,0-0.43,0.05-0.58,0.15c-0.15,0.1-0.24,0.22-0.28,0.36H245.58z"
		/>
	<path d="M255.56,142.76v-6.25h-0.22l-0.81,2.95h-1.55v-0.15l1.03-3.62h3.18v7.07h2.14v1.55h-6.21v-1.55H255.56z"/>
	<path d="M263.09,142.76v-6.25h-0.22l-0.81,2.95h-1.55v-0.15l1.03-3.62h3.18v7.07h2.14v1.55h-6.21v-1.55H263.09z"/>
	<path d="M279.97,138.13c0-0.29-0.1-0.54-0.31-0.74c-0.21-0.21-0.54-0.31-0.98-0.31c-0.44,0-0.79,0.13-1.05,0.39
		c-0.26,0.26-0.39,0.6-0.39,1.02v1.11h0.22c0.14-0.29,0.37-0.52,0.68-0.7c0.31-0.18,0.67-0.26,1.06-0.26c0.35,0,0.69,0.06,1,0.19
		c0.31,0.13,0.58,0.31,0.81,0.54c0.23,0.23,0.41,0.52,0.54,0.86c0.13,0.34,0.2,0.72,0.2,1.15v0.15c0,0.43-0.07,0.84-0.22,1.2
		c-0.14,0.37-0.35,0.68-0.62,0.94c-0.27,0.26-0.59,0.47-0.97,0.62c-0.38,0.15-0.8,0.22-1.27,0.22c-0.43,0-0.83-0.07-1.2-0.21
		c-0.37-0.14-0.7-0.33-0.97-0.58s-0.49-0.55-0.65-0.9c-0.16-0.35-0.24-0.73-0.24-1.15v-3.14c0-0.45,0.08-0.86,0.25-1.23
		c0.16-0.37,0.39-0.68,0.66-0.94c0.28-0.26,0.6-0.46,0.97-0.6c0.37-0.14,0.75-0.21,1.16-0.21c0.41,0,0.79,0.06,1.15,0.18
		c0.36,0.12,0.67,0.29,0.94,0.52c0.27,0.23,0.48,0.5,0.63,0.82c0.15,0.32,0.23,0.69,0.23,1.09H279.97z M278.68,142.93
		c0.42,0,0.76-0.13,1.03-0.38c0.27-0.25,0.41-0.58,0.41-1c0-0.42-0.14-0.75-0.41-1c-0.27-0.25-0.62-0.38-1.03-0.38
		s-0.76,0.13-1.03,0.38s-0.41,0.58-0.41,1c0,0.42,0.14,0.75,0.41,1C277.92,142.8,278.26,142.93,278.68,142.93z"/>
	<path d="M283.26,140.47v-4.78h5.76v1.55h-4.14v2.34h0.22c0.11-0.32,0.33-0.6,0.65-0.83c0.32-0.23,0.74-0.35,1.27-0.35
		c0.4,0,0.76,0.07,1.08,0.21c0.32,0.14,0.59,0.33,0.81,0.58s0.39,0.54,0.51,0.89c0.12,0.34,0.18,0.72,0.18,1.13v0.07
		c0,0.43-0.07,0.85-0.22,1.23c-0.14,0.39-0.35,0.72-0.63,1.02c-0.28,0.29-0.61,0.52-1.02,0.7c-0.4,0.17-0.87,0.26-1.39,0.26
		c-0.53,0-0.99-0.07-1.39-0.22c-0.4-0.14-0.74-0.34-1.02-0.6c-0.27-0.26-0.48-0.57-0.63-0.92c-0.14-0.36-0.22-0.75-0.22-1.16v-0.3
		h1.63v0.15c0,0.44,0.13,0.79,0.4,1.08s0.66,0.42,1.18,0.42c0.52,0,0.93-0.14,1.23-0.42c0.3-0.28,0.45-0.67,0.45-1.16
		c0-0.47-0.11-0.82-0.33-1.05c-0.22-0.23-0.51-0.35-0.87-0.35c-0.24,0-0.43,0.05-0.58,0.15c-0.15,0.1-0.24,0.22-0.28,0.36H283.26z"
		/>
	<path d="M300.77,142.76v-6.25h-0.22l-0.81,2.95h-1.55v-0.15l1.03-3.62h3.18v7.07h2.14v1.55h-6.21v-1.55H300.77z"/>
	<path d="M305.65,139.04c0-1.12,0.28-1.98,0.84-2.6c0.56-0.62,1.34-0.92,2.33-0.92c0.99,0,1.77,0.31,2.33,0.92
		c0.56,0.62,0.84,1.48,0.84,2.6v1.92c0,1.15-0.28,2.02-0.84,2.62c-0.56,0.6-1.34,0.9-2.33,0.9c-0.99,0-1.77-0.3-2.33-0.9
		c-0.56-0.6-0.84-1.47-0.84-2.62V139.04z M308.82,143c0.3,0,0.54-0.05,0.74-0.14c0.2-0.09,0.36-0.23,0.48-0.4
		c0.12-0.17,0.21-0.38,0.26-0.62c0.05-0.24,0.07-0.5,0.07-0.79v-2.12c0-0.27-0.03-0.52-0.09-0.76c-0.06-0.24-0.15-0.44-0.27-0.62
		c-0.12-0.17-0.28-0.31-0.48-0.41c-0.2-0.1-0.44-0.15-0.71-0.15c-0.28,0-0.52,0.05-0.71,0.15c-0.2,0.1-0.36,0.24-0.48,0.41
		c-0.12,0.17-0.21,0.38-0.27,0.62c-0.06,0.24-0.09,0.49-0.09,0.76v2.12c0,0.29,0.02,0.55,0.07,0.79c0.05,0.24,0.14,0.44,0.26,0.62
		c0.12,0.17,0.28,0.31,0.48,0.4S308.53,143,308.82,143z M307.79,140c0-0.28,0.1-0.52,0.31-0.73c0.21-0.21,0.45-0.31,0.73-0.31
		c0.28,0,0.52,0.1,0.73,0.31c0.2,0.21,0.31,0.45,0.31,0.73c0,0.28-0.1,0.52-0.31,0.73c-0.21,0.2-0.45,0.31-0.73,0.31
		c-0.28,0-0.52-0.1-0.73-0.31C307.89,140.52,307.79,140.28,307.79,140z"/>
</g>
<g>
	<rect x="0.22" y="91.19" class="st1" width="10.03" height="80.73"/>
	<path d="M24.12,107.18h-2.88V95.85h2.88v1.69h0.41c0.26-0.64,0.68-1.13,1.26-1.48c0.58-0.35,1.26-0.53,2.03-0.53
		c0.55,0,1.06,0.09,1.54,0.26c0.48,0.17,0.9,0.45,1.27,0.81c0.37,0.37,0.65,0.83,0.86,1.39c0.21,0.56,0.31,1.23,0.31,2.01v7.17
		h-2.88v-6.44c0-0.81-0.19-1.44-0.58-1.91c-0.39-0.46-0.95-0.7-1.68-0.7c-0.85,0-1.49,0.29-1.91,0.86
		c-0.42,0.57-0.63,1.34-0.63,2.29V107.18z"/>
	<path d="M42.9,95.85h2.88v14.11c0,0.52-0.16,0.94-0.49,1.28c-0.33,0.33-0.75,0.5-1.27,0.5h-6.74V109h5c0.41,0,0.62-0.23,0.62-0.68
		v-2.79h-0.41c-0.5,1.31-1.58,1.96-3.24,1.96c-0.56,0-1.09-0.09-1.58-0.27c-0.49-0.18-0.91-0.46-1.28-0.85
		c-0.37-0.38-0.65-0.86-0.86-1.43c-0.21-0.57-0.31-1.24-0.31-2.02v-7.08h2.88v6.49c0,0.81,0.19,1.43,0.57,1.88
		c0.38,0.45,0.95,0.67,1.71,0.67c0.87,0,1.5-0.28,1.91-0.83c0.4-0.56,0.61-1.31,0.61-2.27V95.85z"/>
	<polygon points="49.4,104.44 53.24,104.44 53.24,98.59 49.68,98.59 49.68,95.85 56.12,95.85 56.12,104.44 59.4,104.44 59.4,107.18 
		49.4,107.18 	"/>
	<path d="M61.49,95.85h3.36v-4.66h2.88v4.66h4.09v2.74h-4.09v5.16c0,0.46,0.21,0.69,0.62,0.69h3.06v2.74h-4.8
		c-0.52,0-0.94-0.17-1.27-0.5c-0.33-0.33-0.49-0.76-0.49-1.28v-6.8h-3.36V95.85z"/>
	<path d="M74.99,95.85h3.11l2.67,9.96h0.41l2.67-9.96h3.11l-3.24,11.33h-5.48L74.99,95.85z"/>
	<path d="M97.09,105.53c-0.3,0.72-0.73,1.22-1.28,1.52c-0.55,0.3-1.19,0.45-1.92,0.45c-0.69,0-1.33-0.13-1.93-0.39
		c-0.6-0.26-1.13-0.64-1.59-1.14c-0.46-0.5-0.82-1.11-1.08-1.83c-0.27-0.72-0.4-1.53-0.4-2.44v-0.37c0-0.9,0.13-1.7,0.39-2.42
		c0.26-0.72,0.61-1.32,1.05-1.83c0.44-0.5,0.96-0.89,1.54-1.15c0.59-0.27,1.21-0.4,1.88-0.4c0.81,0,1.46,0.14,1.95,0.41
		c0.49,0.27,0.89,0.7,1.18,1.28h0.41v-1.37h2.88v7.9c0,0.46,0.21,0.69,0.62,0.69h0.43v2.74h-1.96c-0.52,0-0.94-0.15-1.27-0.46
		c-0.33-0.3-0.49-0.7-0.49-1.19H97.09z M94.53,104.75c0.84,0,1.51-0.28,2.01-0.83c0.5-0.56,0.75-1.31,0.75-2.27v-0.27
		c0-0.96-0.25-1.72-0.75-2.27c-0.5-0.56-1.17-0.83-2.01-0.83c-0.84,0-1.51,0.28-2.01,0.83c-0.5,0.56-0.75,1.31-0.75,2.27v0.27
		c0,0.96,0.25,1.72,0.75,2.27C93.03,104.48,93.7,104.75,94.53,104.75z"/>
	<path d="M22.93,122.1h0.21l2.33-2.54h1.18v0.07l-2.54,2.79v0.22l2.83,2.94v0.07h-1.18l-2.6-2.68h-0.23v2.68h-0.96v-8.62h0.96V122.1
		z"/>
	<path d="M29.6,122.91c0.02,0.61,0.21,1.1,0.57,1.47c0.35,0.37,0.85,0.55,1.48,0.55c0.29,0,0.54-0.03,0.75-0.1
		c0.21-0.07,0.4-0.16,0.55-0.27c0.15-0.11,0.27-0.25,0.37-0.4c0.09-0.15,0.17-0.31,0.23-0.49l0.91,0.25
		c-0.17,0.57-0.49,1.03-0.95,1.39c-0.46,0.36-1.09,0.54-1.88,0.54c-0.44,0-0.84-0.08-1.2-0.23c-0.37-0.15-0.68-0.37-0.94-0.65
		c-0.26-0.28-0.47-0.61-0.62-1c-0.15-0.39-0.22-0.81-0.22-1.28v-0.3c0-0.43,0.08-0.82,0.23-1.19c0.15-0.37,0.36-0.69,0.63-0.95
		c0.27-0.27,0.59-0.48,0.95-0.63c0.37-0.15,0.76-0.23,1.19-0.23c0.5,0,0.93,0.09,1.3,0.28c0.37,0.18,0.66,0.41,0.9,0.68
		c0.23,0.27,0.41,0.57,0.52,0.89c0.11,0.32,0.17,0.62,0.17,0.89v0.79H29.6z M31.64,120.3c-0.27,0-0.52,0.04-0.76,0.13
		c-0.23,0.09-0.44,0.21-0.62,0.36c-0.18,0.16-0.32,0.34-0.43,0.55c-0.11,0.21-0.18,0.44-0.22,0.68h3.94
		c-0.02-0.26-0.08-0.5-0.19-0.71c-0.11-0.21-0.25-0.39-0.43-0.54c-0.18-0.15-0.38-0.26-0.6-0.34
		C32.11,120.35,31.88,120.3,31.64,120.3z"/>
	<path d="M41.16,124.74h-0.15c-0.1,0.19-0.22,0.35-0.38,0.49c-0.15,0.14-0.32,0.25-0.49,0.34c-0.18,0.09-0.36,0.16-0.56,0.2
		c-0.2,0.04-0.39,0.07-0.57,0.07c-0.41,0-0.79-0.07-1.15-0.21c-0.35-0.14-0.66-0.34-0.93-0.6c-0.27-0.26-0.48-0.59-0.63-0.98
		c-0.15-0.39-0.23-0.84-0.23-1.34v-0.2c0-0.49,0.08-0.93,0.23-1.32c0.16-0.39,0.37-0.72,0.63-0.98c0.26-0.27,0.57-0.47,0.92-0.61
		c0.35-0.14,0.73-0.21,1.12-0.21c0.42,0,0.81,0.09,1.18,0.28c0.37,0.18,0.65,0.47,0.84,0.86h0.15v-3.47h0.96v8.62h-0.96V124.74z
		 M39.11,124.93c0.29,0,0.55-0.05,0.8-0.16s0.46-0.26,0.65-0.46s0.33-0.43,0.44-0.71c0.11-0.27,0.16-0.58,0.16-0.92v-0.15
		c0-0.33-0.05-0.63-0.16-0.9c-0.11-0.27-0.25-0.51-0.44-0.71c-0.18-0.2-0.4-0.35-0.65-0.46c-0.25-0.11-0.52-0.17-0.79-0.17
		c-0.29,0-0.56,0.05-0.81,0.16c-0.25,0.11-0.47,0.26-0.65,0.46c-0.18,0.2-0.33,0.43-0.43,0.7c-0.1,0.27-0.15,0.57-0.15,0.9v0.2
		c0,0.34,0.05,0.65,0.15,0.92c0.1,0.27,0.25,0.5,0.43,0.7c0.18,0.19,0.4,0.34,0.65,0.44S38.82,124.93,39.11,124.93z"/>
	<path d="M48.69,124.74h-0.15c-0.1,0.19-0.22,0.35-0.38,0.49c-0.15,0.14-0.32,0.25-0.49,0.34c-0.18,0.09-0.36,0.16-0.56,0.2
		c-0.2,0.04-0.39,0.07-0.57,0.07c-0.41,0-0.79-0.07-1.15-0.21c-0.35-0.14-0.66-0.34-0.93-0.6c-0.27-0.26-0.48-0.59-0.63-0.98
		c-0.15-0.39-0.23-0.84-0.23-1.34v-0.2c0-0.49,0.08-0.93,0.23-1.32c0.16-0.39,0.37-0.72,0.63-0.98c0.26-0.27,0.57-0.47,0.92-0.61
		c0.35-0.14,0.73-0.21,1.12-0.21c0.42,0,0.81,0.09,1.18,0.28c0.37,0.18,0.65,0.47,0.84,0.86h0.15v-3.47h0.96v8.62h-0.96V124.74z
		 M46.65,124.93c0.29,0,0.55-0.05,0.8-0.16s0.46-0.26,0.65-0.46s0.33-0.43,0.44-0.71c0.11-0.27,0.16-0.58,0.16-0.92v-0.15
		c0-0.33-0.05-0.63-0.16-0.9c-0.11-0.27-0.25-0.51-0.44-0.71c-0.18-0.2-0.4-0.35-0.65-0.46c-0.25-0.11-0.52-0.17-0.79-0.17
		c-0.29,0-0.56,0.05-0.81,0.16c-0.25,0.11-0.47,0.26-0.65,0.46c-0.18,0.2-0.33,0.43-0.43,0.7c-0.1,0.27-0.15,0.57-0.15,0.9v0.2
		c0,0.34,0.05,0.65,0.15,0.92c0.1,0.27,0.25,0.5,0.43,0.7c0.18,0.19,0.4,0.34,0.65,0.44S46.35,124.93,46.65,124.93z"/>
	<path d="M59.89,122.03h3.69v0.89h-3.69V122.03z"/>
	<path d="M75.37,121.14c0,0.3,0.12,0.52,0.38,0.68c0.25,0.16,0.71,0.26,1.37,0.31c0.71,0.06,1.26,0.23,1.63,0.51
		c0.37,0.28,0.56,0.7,0.56,1.24v0.07c0,0.3-0.06,0.56-0.18,0.79c-0.12,0.23-0.28,0.43-0.49,0.6c-0.21,0.16-0.46,0.29-0.76,0.38
		c-0.3,0.09-0.63,0.13-0.98,0.13c-0.48,0-0.88-0.06-1.23-0.19c-0.34-0.13-0.62-0.3-0.85-0.5c-0.23-0.21-0.4-0.45-0.51-0.71
		c-0.12-0.27-0.18-0.54-0.2-0.81l0.91-0.22c0.04,0.47,0.22,0.84,0.54,1.13c0.32,0.28,0.75,0.42,1.28,0.42
		c0.45,0,0.81-0.09,1.09-0.26c0.27-0.18,0.41-0.42,0.41-0.75c0-0.34-0.14-0.59-0.41-0.74c-0.27-0.15-0.71-0.24-1.32-0.28
		c-0.71-0.05-1.25-0.21-1.63-0.49c-0.38-0.28-0.57-0.69-0.57-1.22v-0.07c0-0.29,0.06-0.54,0.18-0.76c0.12-0.22,0.29-0.4,0.5-0.55
		c0.21-0.15,0.45-0.26,0.71-0.33c0.26-0.07,0.54-0.11,0.82-0.11c0.4,0,0.76,0.06,1.06,0.17c0.3,0.11,0.56,0.25,0.76,0.43
		c0.21,0.18,0.36,0.38,0.47,0.61c0.11,0.23,0.18,0.46,0.22,0.69l-0.91,0.22c-0.04-0.39-0.2-0.7-0.47-0.92
		c-0.28-0.22-0.63-0.33-1.08-0.33c-0.17,0-0.34,0.02-0.5,0.06c-0.16,0.04-0.3,0.09-0.42,0.17c-0.12,0.07-0.22,0.17-0.3,0.28
		C75.41,120.86,75.37,120.99,75.37,121.14z"/>
	<path d="M87.01,124.79v0.89h-5.32v-1.53l4.36-3.55v-0.15h-4.28v-0.89h5.1v1.48l-4.38,3.6v0.15H87.01z"/>
	<path d="M94.94,122.69c0,0.51-0.08,0.96-0.25,1.35c-0.17,0.39-0.39,0.72-0.67,0.98c-0.28,0.27-0.61,0.47-0.98,0.61
		c-0.37,0.14-0.76,0.21-1.16,0.21c-0.41,0-0.8-0.07-1.17-0.21c-0.37-0.14-0.69-0.34-0.97-0.61c-0.28-0.27-0.5-0.59-0.67-0.98
		c-0.17-0.39-0.25-0.84-0.25-1.35v-0.15c0-0.5,0.08-0.95,0.25-1.34c0.17-0.39,0.39-0.72,0.68-0.99c0.28-0.27,0.61-0.48,0.98-0.62
		c0.37-0.14,0.76-0.21,1.16-0.21c0.4,0,0.79,0.07,1.16,0.21c0.37,0.14,0.7,0.34,0.98,0.62c0.28,0.27,0.51,0.6,0.68,0.99
		c0.17,0.39,0.25,0.84,0.25,1.34V122.69z M91.87,124.93c0.3,0,0.57-0.05,0.82-0.15c0.25-0.1,0.47-0.25,0.66-0.45
		c0.19-0.2,0.34-0.43,0.44-0.71c0.11-0.27,0.16-0.58,0.16-0.93v-0.15c0-0.33-0.05-0.63-0.16-0.9c-0.11-0.27-0.25-0.51-0.44-0.71
		c-0.19-0.2-0.41-0.35-0.66-0.46c-0.25-0.11-0.53-0.17-0.81-0.17c-0.29,0-0.56,0.06-0.81,0.17c-0.25,0.11-0.48,0.26-0.67,0.46
		c-0.19,0.2-0.34,0.43-0.44,0.71c-0.11,0.28-0.16,0.58-0.16,0.9v0.15c0,0.34,0.05,0.65,0.16,0.93c0.11,0.28,0.25,0.51,0.44,0.71
		c0.19,0.2,0.41,0.35,0.66,0.45C91.31,124.88,91.58,124.93,91.87,124.93z"/>
	<path d="M102.59,125.67h-0.96v-4.38c0-0.29-0.07-0.52-0.2-0.71c-0.13-0.18-0.34-0.28-0.63-0.28c-0.27,0-0.49,0.1-0.66,0.3
		c-0.17,0.2-0.25,0.51-0.25,0.93v4.14h-0.96v-4.43c0-0.27-0.07-0.49-0.22-0.67c-0.15-0.18-0.34-0.26-0.59-0.26
		c-0.3,0-0.52,0.11-0.68,0.32c-0.16,0.21-0.24,0.49-0.24,0.84v4.21h-0.96v-6.11h0.96v0.67h0.15c0.11-0.29,0.26-0.5,0.47-0.63
		c0.2-0.14,0.45-0.2,0.73-0.2c0.3,0,0.54,0.08,0.73,0.23c0.19,0.16,0.33,0.36,0.4,0.6h0.15c0.28-0.56,0.72-0.84,1.33-0.84
		c0.46,0,0.81,0.15,1.06,0.44c0.25,0.29,0.38,0.67,0.38,1.14V125.67z"/>
	<path d="M104.99,125.67h-0.96v-8.62h0.96v3.47h0.15c0.21-0.37,0.51-0.65,0.89-0.84c0.38-0.19,0.79-0.29,1.23-0.29
		c0.38,0,0.73,0.07,1.07,0.21c0.34,0.14,0.63,0.34,0.89,0.6c0.26,0.26,0.46,0.59,0.62,0.97c0.15,0.39,0.23,0.82,0.23,1.32v0.25
		c0,0.5-0.07,0.94-0.22,1.33c-0.15,0.39-0.35,0.71-0.61,0.97c-0.26,0.26-0.56,0.46-0.9,0.6c-0.34,0.14-0.71,0.2-1.1,0.2
		c-0.2,0-0.4-0.02-0.6-0.07c-0.21-0.05-0.4-0.11-0.58-0.21c-0.18-0.09-0.36-0.21-0.51-0.34c-0.16-0.14-0.29-0.3-0.39-0.49h-0.15
		V125.67z M107.03,124.93c0.3,0,0.57-0.05,0.81-0.15s0.46-0.25,0.65-0.44c0.18-0.19,0.33-0.42,0.43-0.69
		c0.1-0.27,0.15-0.57,0.15-0.91v-0.25c0-0.33-0.05-0.63-0.15-0.89c-0.1-0.27-0.25-0.5-0.43-0.69c-0.18-0.19-0.4-0.34-0.65-0.45
		c-0.25-0.11-0.52-0.16-0.81-0.16s-0.55,0.06-0.8,0.17c-0.25,0.11-0.46,0.26-0.65,0.46c-0.18,0.2-0.33,0.43-0.44,0.71
		c-0.11,0.28-0.16,0.58-0.16,0.9v0.15c0,0.34,0.05,0.64,0.16,0.92c0.11,0.28,0.25,0.51,0.44,0.71s0.4,0.35,0.65,0.46
		C106.48,124.88,106.74,124.93,107.03,124.93z"/>
	<path d="M116.22,124.64h-0.15c-0.2,0.41-0.47,0.71-0.82,0.91c-0.35,0.2-0.72,0.3-1.1,0.3c-0.4,0-0.78-0.07-1.12-0.2
		c-0.34-0.14-0.65-0.34-0.9-0.6c-0.26-0.27-0.46-0.59-0.61-0.98c-0.15-0.39-0.22-0.83-0.22-1.34v-0.2c0-0.5,0.07-0.94,0.22-1.33
		c0.15-0.39,0.35-0.71,0.61-0.98c0.26-0.27,0.56-0.47,0.9-0.61c0.34-0.14,0.71-0.21,1.1-0.21c0.42,0,0.8,0.09,1.14,0.28
		c0.34,0.18,0.61,0.47,0.81,0.86h0.15v-0.96h0.96v4.85c0,0.25,0.11,0.37,0.33,0.37h0.31v0.89h-0.65c-0.28,0-0.51-0.09-0.68-0.27
		c-0.18-0.18-0.26-0.41-0.26-0.69V124.64z M114.25,124.93c0.29,0,0.55-0.05,0.79-0.16s0.45-0.26,0.62-0.46
		c0.17-0.2,0.31-0.43,0.41-0.71c0.1-0.27,0.15-0.58,0.15-0.92v-0.15c0-0.33-0.05-0.63-0.15-0.9c-0.1-0.27-0.24-0.51-0.41-0.71
		c-0.18-0.2-0.39-0.35-0.63-0.46c-0.24-0.11-0.5-0.17-0.78-0.17c-0.29,0-0.55,0.05-0.79,0.16c-0.24,0.11-0.45,0.26-0.62,0.45
		c-0.18,0.19-0.31,0.43-0.41,0.7c-0.1,0.28-0.15,0.58-0.15,0.9v0.2c0,0.7,0.18,1.24,0.55,1.63
		C113.19,124.74,113.66,124.93,114.25,124.93z"/>
	<path d="M119.11,119.57h1.92v-2.51h0.96v2.51h2.36v0.89h-2.36v3.96c0,0.25,0.11,0.37,0.33,0.37h1.74v0.89h-2.08
		c-0.28,0-0.51-0.09-0.68-0.27c-0.18-0.18-0.26-0.41-0.26-0.69v-4.26h-1.92V119.57z"/>
	<path d="M23.6,139.49v-7.2h-0.15l-1.42,3.24h-1.02v-0.07l1.61-3.62h2.01v7.66h2.44v0.96h-5.91v-0.96H23.6z"/>
	<path d="M31.13,139.49v-7.2h-0.15l-1.42,3.24h-1.02v-0.07l1.61-3.62h2.01v7.66h2.44v0.96H28.7v-0.96H31.13z"/>
	<path d="M38.26,135.03c0-0.24,0.08-0.44,0.25-0.61c0.17-0.17,0.37-0.25,0.61-0.25c0.24,0,0.44,0.08,0.61,0.25
		c0.17,0.17,0.25,0.37,0.25,0.61c0,0.24-0.08,0.44-0.25,0.61c-0.17,0.17-0.37,0.25-0.61,0.25c-0.24,0-0.44-0.08-0.61-0.25
		C38.35,135.47,38.26,135.27,38.26,135.03z M38.26,139.76c0-0.24,0.08-0.44,0.25-0.61c0.17-0.17,0.37-0.25,0.61-0.25
		c0.24,0,0.44,0.08,0.61,0.25c0.17,0.17,0.25,0.37,0.25,0.61c0,0.24-0.08,0.44-0.25,0.61c-0.17,0.17-0.37,0.25-0.61,0.25
		c-0.24,0-0.44-0.08-0.61-0.25C38.35,140.2,38.26,140,38.26,139.76z"/>
	<path d="M45.81,136.16v-1.43l2.81-1.8v-0.15h-4.88v-0.96h5.76v1.58l-2.81,1.8v0.15h0.49c0.33,0,0.64,0.05,0.95,0.16
		c0.3,0.11,0.57,0.26,0.81,0.47c0.23,0.21,0.42,0.46,0.57,0.76c0.14,0.3,0.22,0.65,0.22,1.04V138c0,0.37-0.07,0.71-0.22,1.03
		c-0.15,0.32-0.35,0.6-0.62,0.83c-0.26,0.23-0.57,0.42-0.93,0.55c-0.36,0.14-0.75,0.2-1.16,0.2c-0.48,0-0.92-0.07-1.31-0.22
		c-0.39-0.15-0.71-0.35-0.98-0.61c-0.27-0.26-0.48-0.56-0.62-0.91c-0.14-0.35-0.22-0.72-0.22-1.11v-0.66h1.03v0.59
		c0,0.31,0.05,0.59,0.15,0.83c0.1,0.24,0.25,0.45,0.43,0.62c0.18,0.17,0.4,0.3,0.66,0.39c0.25,0.09,0.53,0.14,0.82,0.14
		c0.27,0,0.52-0.05,0.76-0.14c0.23-0.09,0.44-0.22,0.61-0.38c0.17-0.16,0.31-0.35,0.41-0.57c0.1-0.22,0.15-0.45,0.15-0.7v-0.07
		c0-0.52-0.16-0.92-0.49-1.21c-0.33-0.29-0.74-0.44-1.23-0.44H45.81z"/>
	<path d="M51.17,135.18c0-1.12,0.27-1.98,0.8-2.6c0.53-0.62,1.28-0.92,2.23-0.92c0.95,0,1.69,0.31,2.23,0.92
		c0.53,0.62,0.8,1.48,0.8,2.6v1.92c0,1.15-0.27,2.02-0.8,2.62c-0.53,0.6-1.28,0.9-2.23,0.9c-0.95,0-1.7-0.3-2.23-0.9
		c-0.53-0.6-0.8-1.47-0.8-2.62V135.18z M54.2,139.68c0.66,0,1.16-0.23,1.5-0.7c0.33-0.46,0.5-1.12,0.5-1.96v-1.77
		c0-0.39-0.04-0.75-0.12-1.08c-0.08-0.32-0.21-0.6-0.38-0.84c-0.17-0.23-0.38-0.42-0.63-0.55c-0.25-0.13-0.54-0.2-0.87-0.2
		c-0.34,0-0.63,0.07-0.87,0.2c-0.25,0.13-0.45,0.31-0.62,0.55c-0.17,0.23-0.29,0.51-0.38,0.84c-0.08,0.32-0.12,0.68-0.12,1.08v1.77
		c0,0.85,0.17,1.5,0.5,1.96C53.03,139.45,53.53,139.68,54.2,139.68z M53.41,136.14c0-0.21,0.08-0.4,0.23-0.55
		c0.16-0.16,0.34-0.23,0.55-0.23c0.21,0,0.4,0.08,0.55,0.23c0.16,0.16,0.23,0.34,0.23,0.55s-0.08,0.4-0.23,0.55
		c-0.16,0.16-0.34,0.23-0.55,0.23c-0.21,0-0.4-0.08-0.55-0.23C53.49,136.54,53.41,136.35,53.41,136.14z"/>
	<path d="M67.42,136.8h3.69v0.89h-3.69V136.8z"/>
	<path d="M87.27,139.49v0.96h-5.84v-1.48c0-0.39,0.07-0.74,0.2-1.03c0.13-0.29,0.32-0.54,0.56-0.75c0.24-0.21,0.54-0.38,0.88-0.52
		c0.34-0.14,0.73-0.26,1.17-0.36c0.73-0.16,1.26-0.4,1.58-0.7c0.32-0.3,0.49-0.68,0.49-1.12v-0.07c0-0.22-0.04-0.44-0.11-0.65
		c-0.07-0.21-0.19-0.41-0.34-0.58c-0.16-0.17-0.36-0.31-0.6-0.41c-0.24-0.1-0.53-0.15-0.87-0.15c-0.63,0-1.12,0.19-1.47,0.58
		c-0.35,0.39-0.52,0.9-0.52,1.54v0.54h-1.03v-0.62c0-0.39,0.07-0.77,0.2-1.13c0.13-0.36,0.32-0.68,0.58-0.96
		c0.25-0.28,0.57-0.5,0.95-0.67c0.38-0.16,0.81-0.25,1.31-0.25c0.5,0,0.94,0.08,1.31,0.23c0.37,0.15,0.68,0.35,0.92,0.6
		c0.25,0.25,0.43,0.53,0.55,0.85c0.12,0.32,0.18,0.64,0.18,0.97v0.22c0,0.66-0.21,1.22-0.62,1.68c-0.41,0.46-1.07,0.79-1.97,0.99
		c-0.79,0.17-1.37,0.4-1.74,0.68c-0.37,0.28-0.55,0.7-0.55,1.24v0.37H87.27z"/>
	<path d="M88.85,135.18c0-1.12,0.27-1.98,0.8-2.6c0.53-0.62,1.28-0.92,2.23-0.92c0.95,0,1.69,0.31,2.23,0.92
		c0.53,0.62,0.8,1.48,0.8,2.6v1.92c0,1.15-0.27,2.02-0.8,2.62c-0.53,0.6-1.28,0.9-2.23,0.9c-0.95,0-1.7-0.3-2.23-0.9
		c-0.53-0.6-0.8-1.47-0.8-2.62V135.18z M91.87,139.68c0.66,0,1.16-0.23,1.5-0.7c0.33-0.46,0.5-1.12,0.5-1.96v-1.77
		c0-0.39-0.04-0.75-0.12-1.08c-0.08-0.32-0.21-0.6-0.38-0.84c-0.17-0.23-0.38-0.42-0.63-0.55c-0.25-0.13-0.54-0.2-0.87-0.2
		c-0.34,0-0.63,0.07-0.87,0.2c-0.25,0.13-0.45,0.31-0.62,0.55c-0.17,0.23-0.29,0.51-0.38,0.84c-0.08,0.32-0.12,0.68-0.12,1.08v1.77
		c0,0.85,0.17,1.5,0.5,1.96C90.71,139.45,91.21,139.68,91.87,139.68z M91.09,136.14c0-0.21,0.08-0.4,0.23-0.55
		c0.16-0.16,0.34-0.23,0.55-0.23c0.21,0,0.4,0.08,0.55,0.23c0.16,0.16,0.23,0.34,0.23,0.55s-0.08,0.4-0.23,0.55
		c-0.16,0.16-0.34,0.23-0.55,0.23c-0.21,0-0.4-0.08-0.55-0.23C91.16,136.54,91.09,136.35,91.09,136.14z"/>
	<path d="M98.55,135.03c0-0.24,0.08-0.44,0.25-0.61c0.17-0.17,0.37-0.25,0.61-0.25c0.24,0,0.44,0.08,0.61,0.25
		c0.17,0.17,0.25,0.37,0.25,0.61c0,0.24-0.08,0.44-0.25,0.61c-0.17,0.17-0.37,0.25-0.61,0.25c-0.24,0-0.44-0.08-0.61-0.25
		C98.63,135.47,98.55,135.27,98.55,135.03z M98.55,139.76c0-0.24,0.08-0.44,0.25-0.61c0.17-0.17,0.37-0.25,0.61-0.25
		c0.24,0,0.44,0.08,0.61,0.25c0.17,0.17,0.25,0.37,0.25,0.61c0,0.24-0.08,0.44-0.25,0.61c-0.17,0.17-0.37,0.25-0.61,0.25
		c-0.24,0-0.44-0.08-0.61-0.25C98.63,140.2,98.55,140,98.55,139.76z"/>
	<path d="M103.92,135.18c0-1.12,0.27-1.98,0.8-2.6c0.53-0.62,1.28-0.92,2.23-0.92c0.95,0,1.69,0.31,2.23,0.92
		c0.53,0.62,0.8,1.48,0.8,2.6v1.92c0,1.15-0.27,2.02-0.8,2.62c-0.53,0.6-1.28,0.9-2.23,0.9c-0.95,0-1.7-0.3-2.23-0.9
		c-0.53-0.6-0.8-1.47-0.8-2.62V135.18z M106.95,139.68c0.66,0,1.16-0.23,1.5-0.7c0.33-0.46,0.5-1.12,0.5-1.96v-1.77
		c0-0.39-0.04-0.75-0.12-1.08c-0.08-0.32-0.21-0.6-0.38-0.84c-0.17-0.23-0.38-0.42-0.63-0.55c-0.25-0.13-0.54-0.2-0.87-0.2
		c-0.34,0-0.63,0.07-0.87,0.2c-0.25,0.13-0.45,0.31-0.62,0.55c-0.17,0.23-0.29,0.51-0.38,0.84c-0.08,0.32-0.12,0.68-0.12,1.08v1.77
		c0,0.85,0.17,1.5,0.5,1.96C105.78,139.45,106.28,139.68,106.95,139.68z M106.16,136.14c0-0.21,0.08-0.4,0.23-0.55
		c0.16-0.16,0.34-0.23,0.55-0.23c0.21,0,0.4,0.08,0.55,0.23c0.16,0.16,0.23,0.34,0.23,0.55s-0.08,0.4-0.23,0.55
		c-0.16,0.16-0.34,0.23-0.55,0.23c-0.21,0-0.4-0.08-0.55-0.23C106.24,136.54,106.16,136.35,106.16,136.14z"/>
	<path d="M111.45,135.18c0-1.12,0.27-1.98,0.8-2.6c0.53-0.62,1.28-0.92,2.23-0.92c0.95,0,1.69,0.31,2.23,0.92
		c0.53,0.62,0.8,1.48,0.8,2.6v1.92c0,1.15-0.27,2.02-0.8,2.62c-0.53,0.6-1.28,0.9-2.23,0.9c-0.95,0-1.7-0.3-2.23-0.9
		c-0.53-0.6-0.8-1.47-0.8-2.62V135.18z M114.48,139.68c0.66,0,1.16-0.23,1.5-0.7c0.33-0.46,0.5-1.12,0.5-1.96v-1.77
		c0-0.39-0.04-0.75-0.12-1.08c-0.08-0.32-0.21-0.6-0.38-0.84c-0.17-0.23-0.38-0.42-0.63-0.55c-0.25-0.13-0.54-0.2-0.87-0.2
		c-0.34,0-0.63,0.07-0.87,0.2c-0.25,0.13-0.45,0.31-0.62,0.55c-0.17,0.23-0.29,0.51-0.38,0.84c-0.08,0.32-0.12,0.68-0.12,1.08v1.77
		c0,0.85,0.17,1.5,0.5,1.96C113.32,139.45,113.82,139.68,114.48,139.68z M113.69,136.14c0-0.21,0.08-0.4,0.23-0.55
		c0.16-0.16,0.34-0.23,0.55-0.23c0.21,0,0.4,0.08,0.55,0.23c0.16,0.16,0.23,0.34,0.23,0.55s-0.08,0.4-0.23,0.55
		c-0.16,0.16-0.34,0.23-0.55,0.23c-0.21,0-0.4-0.08-0.55-0.23C113.77,136.54,113.69,136.35,113.69,136.14z"/>
	<path d="M24.99,155.22h-1.9l-2.13-6.11h1.13l1.87,5.66h0.15l1.87-5.66h1.13L24.99,155.22z"/>
	<path d="M33.33,154.19h-0.15c-0.2,0.41-0.47,0.71-0.82,0.91c-0.35,0.2-0.72,0.3-1.1,0.3c-0.4,0-0.78-0.07-1.12-0.2
		c-0.34-0.14-0.65-0.34-0.9-0.6c-0.26-0.27-0.46-0.59-0.61-0.98c-0.15-0.39-0.22-0.83-0.22-1.34v-0.2c0-0.5,0.07-0.94,0.22-1.33
		c0.15-0.39,0.35-0.71,0.61-0.98c0.26-0.27,0.56-0.47,0.9-0.61c0.34-0.14,0.71-0.21,1.1-0.21c0.42,0,0.8,0.09,1.14,0.28
		c0.34,0.18,0.61,0.47,0.81,0.86h0.15v-0.96h0.96v4.85c0,0.25,0.11,0.37,0.33,0.37h0.31v0.89h-0.65c-0.28,0-0.51-0.09-0.68-0.27
		c-0.18-0.18-0.26-0.41-0.26-0.69V154.19z M31.36,154.48c0.29,0,0.55-0.05,0.79-0.16c0.24-0.11,0.45-0.26,0.62-0.46
		s0.31-0.43,0.41-0.71c0.1-0.27,0.15-0.58,0.15-0.92v-0.15c0-0.33-0.05-0.63-0.15-0.9c-0.1-0.28-0.24-0.51-0.41-0.71
		c-0.18-0.2-0.39-0.35-0.63-0.46c-0.24-0.11-0.5-0.17-0.78-0.17c-0.29,0-0.55,0.05-0.79,0.16c-0.24,0.11-0.45,0.26-0.62,0.45
		c-0.18,0.19-0.31,0.43-0.41,0.7c-0.1,0.28-0.15,0.58-0.15,0.91v0.2c0,0.7,0.18,1.24,0.55,1.63
		C30.3,154.29,30.77,154.48,31.36,154.48z"/>
	<path d="M37.7,150.69c0,0.3,0.12,0.52,0.38,0.68c0.25,0.16,0.71,0.26,1.37,0.31c0.71,0.06,1.26,0.23,1.63,0.51
		c0.37,0.28,0.56,0.7,0.56,1.24v0.07c0,0.3-0.06,0.56-0.18,0.79c-0.12,0.23-0.28,0.43-0.49,0.6c-0.21,0.16-0.46,0.29-0.76,0.38
		c-0.3,0.09-0.63,0.13-0.98,0.13c-0.48,0-0.88-0.06-1.23-0.19c-0.34-0.13-0.62-0.3-0.85-0.5c-0.23-0.21-0.4-0.45-0.51-0.71
		c-0.12-0.27-0.18-0.54-0.2-0.81l0.91-0.22c0.04,0.47,0.22,0.84,0.54,1.13c0.32,0.28,0.75,0.42,1.28,0.42
		c0.45,0,0.81-0.09,1.09-0.26c0.27-0.18,0.41-0.42,0.41-0.74c0-0.35-0.14-0.59-0.41-0.74c-0.27-0.15-0.71-0.24-1.32-0.28
		c-0.71-0.05-1.25-0.21-1.63-0.49c-0.38-0.28-0.57-0.69-0.57-1.22v-0.07c0-0.29,0.06-0.54,0.18-0.76c0.12-0.22,0.29-0.4,0.5-0.55
		c0.21-0.15,0.45-0.26,0.71-0.33c0.26-0.07,0.54-0.11,0.82-0.11c0.4,0,0.76,0.06,1.06,0.17c0.3,0.11,0.56,0.25,0.76,0.43
		c0.21,0.18,0.36,0.38,0.47,0.61c0.11,0.23,0.18,0.46,0.22,0.69l-0.91,0.22c-0.04-0.39-0.2-0.7-0.47-0.92
		c-0.28-0.22-0.63-0.33-1.08-0.33c-0.17,0-0.34,0.02-0.5,0.06c-0.16,0.04-0.3,0.09-0.42,0.17c-0.12,0.07-0.22,0.17-0.3,0.28
		C37.73,150.42,37.7,150.54,37.7,150.69z"/>
	<path d="M48.4,154.19h-0.15c-0.2,0.41-0.47,0.71-0.82,0.91c-0.35,0.2-0.72,0.3-1.1,0.3c-0.4,0-0.78-0.07-1.12-0.2
		c-0.34-0.14-0.65-0.34-0.9-0.6c-0.26-0.27-0.46-0.59-0.61-0.98c-0.15-0.39-0.22-0.83-0.22-1.34v-0.2c0-0.5,0.07-0.94,0.22-1.33
		c0.15-0.39,0.35-0.71,0.61-0.98c0.26-0.27,0.56-0.47,0.9-0.61c0.34-0.14,0.71-0.21,1.1-0.21c0.42,0,0.8,0.09,1.14,0.28
		c0.34,0.18,0.61,0.47,0.81,0.86h0.15v-0.96h0.96v4.85c0,0.25,0.11,0.37,0.33,0.37H50v0.89h-0.65c-0.28,0-0.51-0.09-0.68-0.27
		c-0.18-0.18-0.26-0.41-0.26-0.69V154.19z M46.43,154.48c0.29,0,0.55-0.05,0.79-0.16c0.24-0.11,0.45-0.26,0.62-0.46
		c0.17-0.2,0.31-0.43,0.41-0.71c0.1-0.27,0.15-0.58,0.15-0.92v-0.15c0-0.33-0.05-0.63-0.15-0.9c-0.1-0.28-0.24-0.51-0.41-0.71
		c-0.18-0.2-0.39-0.35-0.63-0.46c-0.24-0.11-0.5-0.17-0.78-0.17c-0.29,0-0.55,0.05-0.79,0.16c-0.24,0.11-0.45,0.26-0.62,0.45
		c-0.18,0.19-0.31,0.43-0.41,0.7c-0.1,0.28-0.15,0.58-0.15,0.91v0.2c0,0.7,0.18,1.24,0.55,1.63
		C45.37,154.29,45.84,154.48,46.43,154.48z M47.74,146.75l-1.03,1.45h-0.89l0.81-1.45H47.74z"/>
	<path d="M51.16,149.12h2.22v0.81h0.15c0.16-0.34,0.38-0.58,0.66-0.74c0.29-0.16,0.62-0.24,0.98-0.24c0.62,0,1.11,0.2,1.49,0.6
		c0.38,0.4,0.58,0.99,0.6,1.76l-1.01,0.15c0-0.57-0.14-0.97-0.41-1.23c-0.27-0.25-0.6-0.38-1-0.38c-0.25,0-0.47,0.05-0.66,0.15
		c-0.18,0.1-0.34,0.23-0.46,0.41c-0.12,0.17-0.21,0.37-0.27,0.6c-0.06,0.23-0.09,0.48-0.09,0.74v2.59h1.55v0.89h-3.92v-0.89h1.4V150
		h-1.26V149.12z"/>
	<path d="M60,155.22h-0.96v-6.11H60v1.03h0.15c0.38-0.8,1.03-1.21,1.97-1.21c0.71,0,1.27,0.22,1.69,0.66
		c0.42,0.44,0.63,1.1,0.63,1.98v3.64h-0.96v-3.45c0-0.64-0.14-1.12-0.43-1.44c-0.29-0.32-0.68-0.48-1.17-0.48
		c-0.58,0-1.04,0.2-1.37,0.6c-0.33,0.4-0.5,0.93-0.5,1.59V155.22z"/>
	<path d="M71,154.19h-0.15c-0.2,0.41-0.47,0.71-0.82,0.91c-0.35,0.2-0.72,0.3-1.1,0.3c-0.4,0-0.78-0.07-1.12-0.2
		c-0.34-0.14-0.65-0.34-0.9-0.6c-0.26-0.27-0.46-0.59-0.61-0.98c-0.15-0.39-0.22-0.83-0.22-1.34v-0.2c0-0.5,0.07-0.94,0.22-1.33
		c0.15-0.39,0.35-0.71,0.61-0.98c0.26-0.27,0.56-0.47,0.9-0.61c0.34-0.14,0.71-0.21,1.1-0.21c0.42,0,0.8,0.09,1.14,0.28
		c0.34,0.18,0.61,0.47,0.81,0.86H71v-0.96h0.96v4.85c0,0.25,0.11,0.37,0.33,0.37h0.31v0.89h-0.65c-0.28,0-0.51-0.09-0.68-0.27
		c-0.18-0.18-0.26-0.41-0.26-0.69V154.19z M69.03,154.48c0.29,0,0.55-0.05,0.79-0.16c0.24-0.11,0.45-0.26,0.62-0.46
		c0.17-0.2,0.31-0.43,0.41-0.71c0.1-0.27,0.15-0.58,0.15-0.92v-0.15c0-0.33-0.05-0.63-0.15-0.9c-0.1-0.28-0.24-0.51-0.41-0.71
		c-0.18-0.2-0.39-0.35-0.63-0.46c-0.24-0.11-0.5-0.17-0.78-0.17c-0.29,0-0.55,0.05-0.79,0.16c-0.24,0.11-0.45,0.26-0.62,0.45
		c-0.18,0.19-0.31,0.43-0.41,0.7c-0.1,0.28-0.15,0.58-0.15,0.91v0.2c0,0.7,0.18,1.24,0.55,1.63
		C67.98,154.29,68.45,154.48,69.03,154.48z"/>
	<path d="M74.85,157.69h-0.96v-8.57h0.96v0.96h0.15c0.21-0.37,0.51-0.65,0.89-0.84c0.38-0.19,0.79-0.29,1.23-0.29
		c0.38,0,0.73,0.07,1.07,0.21c0.34,0.14,0.63,0.34,0.89,0.6c0.26,0.26,0.46,0.59,0.62,0.97c0.15,0.39,0.23,0.82,0.23,1.32v0.25
		c0,0.5-0.07,0.94-0.22,1.33c-0.15,0.39-0.35,0.71-0.61,0.97c-0.26,0.26-0.56,0.46-0.9,0.6c-0.34,0.14-0.71,0.2-1.1,0.2
		c-0.2,0-0.4-0.02-0.6-0.07c-0.21-0.04-0.4-0.11-0.58-0.21s-0.36-0.21-0.51-0.35c-0.16-0.14-0.29-0.3-0.39-0.49h-0.15V157.69z
		 M76.89,154.48c0.3,0,0.57-0.05,0.81-0.15c0.25-0.1,0.46-0.25,0.65-0.44c0.18-0.19,0.33-0.42,0.43-0.69
		c0.1-0.27,0.15-0.57,0.15-0.91v-0.25c0-0.33-0.05-0.63-0.15-0.89c-0.1-0.27-0.25-0.5-0.43-0.69c-0.18-0.19-0.4-0.34-0.65-0.45
		c-0.25-0.11-0.52-0.16-0.81-0.16s-0.55,0.06-0.8,0.17c-0.25,0.11-0.46,0.26-0.65,0.46c-0.18,0.2-0.33,0.43-0.44,0.71
		c-0.11,0.27-0.16,0.58-0.16,0.9v0.15c0,0.34,0.05,0.64,0.16,0.92c0.11,0.27,0.25,0.51,0.44,0.71s0.4,0.35,0.65,0.46
		C76.34,154.43,76.6,154.48,76.89,154.48z"/>
	<path d="M93.24,145.3l0.86,0.27l-3.58,10.96l-0.87-0.27L93.24,145.3z"/>
	<path d="M105.21,155.22h-0.96v-8.62h0.96v3.62h0.15c0.19-0.39,0.45-0.71,0.79-0.94c0.34-0.23,0.76-0.34,1.25-0.34
		c0.67,0,1.2,0.22,1.62,0.66c0.41,0.44,0.62,1.1,0.62,1.98v3.64h-0.96v-3.45c0-0.64-0.14-1.12-0.43-1.44
		c-0.29-0.32-0.68-0.48-1.17-0.48c-0.58,0-1.04,0.2-1.37,0.6c-0.33,0.4-0.5,0.93-0.5,1.59V155.22z"/>
	<path d="M112.49,152.47c0.02,0.61,0.21,1.1,0.57,1.46c0.35,0.37,0.85,0.55,1.48,0.55c0.29,0,0.54-0.03,0.75-0.1
		c0.21-0.07,0.4-0.16,0.55-0.27c0.15-0.11,0.27-0.25,0.37-0.4c0.09-0.15,0.17-0.31,0.23-0.49l0.91,0.25
		c-0.17,0.57-0.49,1.03-0.95,1.39c-0.46,0.36-1.09,0.54-1.88,0.54c-0.44,0-0.84-0.08-1.2-0.23c-0.37-0.15-0.68-0.37-0.94-0.65
		c-0.26-0.28-0.47-0.61-0.62-1c-0.15-0.39-0.22-0.81-0.22-1.28v-0.3c0-0.43,0.08-0.82,0.23-1.19c0.15-0.37,0.36-0.69,0.63-0.95
		c0.27-0.27,0.59-0.48,0.95-0.63c0.37-0.15,0.76-0.23,1.19-0.23c0.5,0,0.93,0.09,1.3,0.28c0.37,0.18,0.66,0.41,0.9,0.68
		c0.23,0.27,0.41,0.57,0.52,0.89c0.11,0.32,0.17,0.62,0.17,0.89v0.79H112.49z M114.53,149.85c-0.27,0-0.52,0.04-0.76,0.13
		c-0.23,0.09-0.44,0.21-0.62,0.36c-0.18,0.16-0.32,0.34-0.43,0.55c-0.11,0.21-0.18,0.44-0.22,0.68h3.94
		c-0.02-0.26-0.08-0.5-0.19-0.71c-0.11-0.21-0.25-0.39-0.43-0.54c-0.18-0.15-0.38-0.26-0.6-0.34S114.77,149.85,114.53,149.85z
		 M116,146.75l-1.03,1.45h-0.89l0.81-1.45H116z"/>
	<path d="M119.11,149.12h1.92v-2.51h0.96v2.51h2.36V150h-2.36v3.96c0,0.25,0.11,0.37,0.33,0.37h1.74v0.89h-2.08
		c-0.28,0-0.51-0.09-0.68-0.27c-0.18-0.18-0.26-0.41-0.26-0.69V150h-1.92V149.12z"/>
	<path d="M126.79,149.12h1.88v-1.55c0-0.28,0.09-0.51,0.26-0.69c0.18-0.18,0.4-0.27,0.68-0.27h2.41v0.89h-2.07
		c-0.22,0-0.33,0.12-0.33,0.37v1.26h2.55V150h-2.55v5.22h-0.96V150h-1.88V149.12z"/>
	<path d="M140.15,152.24c0,0.51-0.08,0.96-0.25,1.35c-0.17,0.39-0.39,0.72-0.67,0.98c-0.28,0.27-0.61,0.47-0.98,0.61
		c-0.37,0.14-0.76,0.21-1.16,0.21c-0.41,0-0.8-0.07-1.17-0.21c-0.37-0.14-0.69-0.34-0.97-0.61c-0.28-0.27-0.5-0.59-0.67-0.98
		c-0.17-0.39-0.25-0.84-0.25-1.35v-0.15c0-0.5,0.08-0.95,0.25-1.34c0.17-0.39,0.39-0.72,0.68-0.99c0.28-0.27,0.61-0.48,0.98-0.62
		c0.37-0.14,0.76-0.21,1.16-0.21c0.4,0,0.79,0.07,1.16,0.21c0.37,0.14,0.7,0.34,0.98,0.62c0.28,0.27,0.51,0.6,0.68,0.99
		c0.17,0.39,0.25,0.84,0.25,1.34V152.24z M137.09,154.48c0.3,0,0.57-0.05,0.82-0.15c0.25-0.1,0.47-0.25,0.66-0.45
		s0.34-0.43,0.44-0.71c0.11-0.28,0.16-0.58,0.16-0.93v-0.15c0-0.33-0.05-0.63-0.16-0.9c-0.11-0.28-0.25-0.51-0.44-0.71
		c-0.19-0.2-0.41-0.35-0.66-0.46c-0.25-0.11-0.53-0.17-0.81-0.17c-0.29,0-0.56,0.06-0.81,0.17c-0.25,0.11-0.48,0.26-0.67,0.46
		c-0.19,0.2-0.34,0.43-0.44,0.71c-0.11,0.27-0.16,0.58-0.16,0.9v0.15c0,0.34,0.05,0.65,0.16,0.93c0.11,0.27,0.25,0.51,0.44,0.71
		s0.41,0.35,0.66,0.45C136.52,154.43,136.79,154.48,137.09,154.48z M137.6,146.75l-1.03,1.45h-0.89l0.81-1.45H137.6z M139.38,146.75
		l-1.03,1.45h-0.89l0.81-1.45H139.38z"/>
	<path d="M26.73,169.11V170h-5.32v-1.53l4.36-3.55v-0.15h-4.28v-0.89h5.1v1.48l-4.38,3.6v0.15H26.73z"/>
	<path d="M33.33,168.96h-0.15c-0.2,0.41-0.47,0.71-0.82,0.91c-0.35,0.2-0.72,0.3-1.1,0.3c-0.4,0-0.78-0.07-1.12-0.2
		c-0.34-0.14-0.65-0.34-0.9-0.6c-0.26-0.27-0.46-0.59-0.61-0.98c-0.15-0.39-0.22-0.83-0.22-1.34v-0.2c0-0.5,0.07-0.94,0.22-1.33
		c0.15-0.39,0.35-0.71,0.61-0.98c0.26-0.27,0.56-0.47,0.9-0.61c0.34-0.14,0.71-0.21,1.1-0.21c0.42,0,0.8,0.09,1.14,0.28
		c0.34,0.18,0.61,0.47,0.81,0.86h0.15v-0.96h0.96v4.85c0,0.25,0.11,0.37,0.33,0.37h0.31V170h-0.65c-0.28,0-0.51-0.09-0.68-0.27
		c-0.18-0.18-0.26-0.41-0.26-0.69V168.96z M31.36,169.26c0.29,0,0.55-0.05,0.79-0.16c0.24-0.11,0.45-0.26,0.62-0.46
		c0.17-0.2,0.31-0.43,0.41-0.71c0.1-0.27,0.15-0.58,0.15-0.92v-0.15c0-0.33-0.05-0.63-0.15-0.9c-0.1-0.27-0.24-0.51-0.41-0.71
		c-0.18-0.2-0.39-0.35-0.63-0.46c-0.24-0.11-0.5-0.17-0.78-0.17c-0.29,0-0.55,0.05-0.79,0.16c-0.24,0.11-0.45,0.26-0.62,0.45
		c-0.18,0.19-0.31,0.43-0.41,0.7s-0.15,0.58-0.15,0.91v0.2c0,0.7,0.18,1.24,0.55,1.63C30.3,169.07,30.77,169.26,31.36,169.26z
		 M32.67,161.53l-1.03,1.45h-0.89l0.81-1.45H32.67z"/>
	<path d="M36.08,163.89h2.22v0.81h0.15c0.16-0.34,0.38-0.58,0.66-0.74c0.29-0.16,0.62-0.24,0.98-0.24c0.62,0,1.11,0.2,1.49,0.6
		c0.38,0.4,0.58,0.99,0.6,1.76l-1.01,0.15c0-0.57-0.14-0.97-0.41-1.23c-0.27-0.25-0.6-0.38-1-0.38c-0.25,0-0.47,0.05-0.66,0.15
		c-0.18,0.1-0.34,0.23-0.46,0.41c-0.12,0.17-0.21,0.37-0.27,0.6c-0.06,0.23-0.09,0.48-0.09,0.74v2.59h1.55V170h-3.92v-0.89h1.4
		v-4.33h-1.26V163.89z"/>
	<path d="M47.6,170h-1.9l-2.13-6.11h1.13l1.87,5.66h0.15l1.87-5.66h1.13L47.6,170z"/>
	<path d="M55.93,168.96h-0.15c-0.2,0.41-0.47,0.71-0.82,0.91c-0.35,0.2-0.72,0.3-1.1,0.3c-0.4,0-0.78-0.07-1.12-0.2
		c-0.34-0.14-0.65-0.34-0.9-0.6c-0.26-0.27-0.46-0.59-0.61-0.98c-0.15-0.39-0.22-0.83-0.22-1.34v-0.2c0-0.5,0.07-0.94,0.22-1.33
		c0.15-0.39,0.35-0.71,0.61-0.98c0.26-0.27,0.56-0.47,0.9-0.61c0.34-0.14,0.71-0.21,1.1-0.21c0.42,0,0.8,0.09,1.14,0.28
		c0.34,0.18,0.61,0.47,0.81,0.86h0.15v-0.96h0.96v4.85c0,0.25,0.11,0.37,0.33,0.37h0.31V170h-0.65c-0.28,0-0.51-0.09-0.68-0.27
		c-0.18-0.18-0.26-0.41-0.26-0.69V168.96z M53.96,169.26c0.29,0,0.55-0.05,0.79-0.16c0.24-0.11,0.45-0.26,0.62-0.46
		c0.17-0.2,0.31-0.43,0.41-0.71c0.1-0.27,0.15-0.58,0.15-0.92v-0.15c0-0.33-0.05-0.63-0.15-0.9c-0.1-0.27-0.24-0.51-0.41-0.71
		s-0.39-0.35-0.63-0.46c-0.24-0.11-0.5-0.17-0.78-0.17c-0.29,0-0.55,0.05-0.79,0.16c-0.24,0.11-0.45,0.26-0.62,0.45
		c-0.18,0.19-0.31,0.43-0.41,0.7c-0.1,0.27-0.15,0.58-0.15,0.91v0.2c0,0.7,0.18,1.24,0.55,1.63
		C52.91,169.07,53.38,169.26,53.96,169.26z"/>
	<path d="M68.41,164.58c0-0.24,0.08-0.44,0.25-0.61c0.17-0.17,0.37-0.25,0.61-0.25c0.24,0,0.44,0.08,0.61,0.25
		c0.17,0.17,0.25,0.37,0.25,0.61c0,0.24-0.08,0.44-0.25,0.61c-0.17,0.17-0.37,0.25-0.61,0.25c-0.24,0-0.44-0.08-0.61-0.25
		C68.49,165.02,68.41,164.82,68.41,164.58z M68.41,169.31c0-0.24,0.08-0.44,0.25-0.61c0.17-0.17,0.37-0.25,0.61-0.25
		c0.24,0,0.44,0.08,0.61,0.25c0.17,0.17,0.25,0.37,0.25,0.61c0,0.24-0.08,0.44-0.25,0.61c-0.17,0.17-0.37,0.25-0.61,0.25
		c-0.24,0-0.44-0.08-0.61-0.25C68.49,169.75,68.41,169.55,68.41,169.31z"/>
	<path d="M79.76,171.01v0.91h-0.44c-0.57,0-1.12-0.11-1.65-0.32c-0.53-0.21-0.99-0.52-1.39-0.93c-0.4-0.41-0.72-0.9-0.96-1.47
		c-0.24-0.57-0.36-1.23-0.36-1.96v-3.1c0-0.72,0.12-1.37,0.36-1.95c0.24-0.58,0.56-1.07,0.96-1.48c0.4-0.41,0.87-0.72,1.39-0.93
		c0.53-0.21,1.08-0.32,1.65-0.32h0.44v0.91h-0.44c-0.44,0-0.87,0.09-1.28,0.26c-0.41,0.18-0.77,0.43-1.08,0.76
		c-0.31,0.33-0.56,0.73-0.75,1.2c-0.19,0.47-0.28,1-0.28,1.59v3c0,0.59,0.09,1.12,0.28,1.59c0.19,0.47,0.44,0.87,0.75,1.2
		c0.31,0.33,0.67,0.58,1.08,0.76c0.41,0.18,0.84,0.26,1.28,0.26H79.76z"/>
	<rect x="53.46" y="91.19" width="2.89" height="2.89"/>
</g>
</svg>
