<?xml version="1.0" encoding="utf-8"?>
<!-- Generator: Adobe Illustrator 26.3.1, SVG Export Plug-In . SVG Version: 6.00 Build 0)  -->
<svg version="1.1" id="Layer_1" xmlns="http://www.w3.org/2000/svg" xmlns:xlink="http://www.w3.org/1999/xlink" x="0px" y="0px"
	 viewBox="0 0 139.93 80.73" style="enable-background:new 0 0 139.93 80.73;" xml:space="preserve">
<style type="text/css">
	.st0{fill:#1D1D1E;}
	.st1{fill:#184FD6;}
</style>
<g>
	<rect class="st1" width="10.03" height="80.73"/>
	<path d="M23.9,15.98h-2.88V4.66h2.88v1.69h0.41c0.26-0.64,0.68-1.13,1.26-1.48c0.58-0.35,1.26-0.53,2.03-0.53
		c0.55,0,1.06,0.09,1.54,0.26c0.48,0.17,0.9,0.45,1.27,0.81s0.65,0.83,0.86,1.39c0.21,0.56,0.31,1.23,0.31,2.01v7.17H28.7V9.55
		c0-0.81-0.19-1.44-0.58-1.91c-0.39-0.46-0.95-0.7-1.68-0.7c-0.85,0-1.49,0.29-1.91,0.86c-0.42,0.57-0.63,1.34-0.63,2.29V15.98z"/>
	<path d="M42.67,4.66h2.88v14.11c0,0.52-0.16,0.94-0.49,1.28s-0.75,0.5-1.27,0.5h-6.74v-2.74h5c0.41,0,0.62-0.23,0.62-0.68v-2.79
		h-0.41c-0.5,1.31-1.58,1.96-3.24,1.96c-0.56,0-1.09-0.09-1.58-0.27c-0.49-0.18-0.91-0.46-1.28-0.85c-0.37-0.38-0.65-0.86-0.86-1.43
		C35.1,13.19,35,12.51,35,11.74V4.66h2.88v6.49c0,0.81,0.19,1.43,0.57,1.88c0.38,0.45,0.95,0.67,1.71,0.67
		c0.87,0,1.5-0.28,1.91-0.83c0.4-0.56,0.61-1.31,0.61-2.27V4.66z"/>
	<polygon points="49.18,13.24 53.01,13.24 53.01,7.4 49.45,7.4 49.45,4.66 55.89,4.66 55.89,13.24 59.18,13.24 59.18,15.98 
		49.18,15.98 	"/>
	<path d="M61.27,4.66h3.36V0h2.88v4.66h4.09V7.4H67.5v5.16c0,0.46,0.21,0.69,0.62,0.69h3.06v2.74h-4.8c-0.52,0-0.94-0.17-1.27-0.5
		c-0.33-0.33-0.49-0.76-0.49-1.28V7.4h-3.36V4.66z"/>
	<path d="M74.76,4.66h3.11l2.67,9.96h0.41l2.67-9.96h3.11l-3.24,11.33h-5.48L74.76,4.66z"/>
	<path d="M96.87,14.34c-0.3,0.72-0.73,1.22-1.28,1.52c-0.55,0.3-1.19,0.45-1.92,0.45c-0.69,0-1.33-0.13-1.93-0.39
		c-0.6-0.26-1.13-0.64-1.59-1.14c-0.46-0.5-0.82-1.11-1.08-1.83c-0.27-0.72-0.4-1.53-0.4-2.44v-0.37c0-0.9,0.13-1.7,0.39-2.42
		c0.26-0.72,0.61-1.32,1.05-1.83c0.44-0.5,0.96-0.89,1.54-1.15s1.21-0.4,1.88-0.4c0.81,0,1.46,0.14,1.95,0.41
		c0.49,0.27,0.89,0.7,1.18,1.28h0.41V4.66h2.88v7.9c0,0.46,0.21,0.69,0.62,0.69H101v2.74h-1.96c-0.52,0-0.94-0.15-1.27-0.46
		c-0.33-0.3-0.49-0.7-0.49-1.19H96.87z M94.31,13.56c0.84,0,1.51-0.28,2.01-0.83c0.5-0.56,0.75-1.31,0.75-2.27v-0.27
		c0-0.96-0.25-1.72-0.75-2.27c-0.5-0.56-1.17-0.83-2.01-0.83c-0.84,0-1.51,0.28-2.01,0.83c-0.5,0.56-0.75,1.31-0.75,2.27v0.27
		c0,0.96,0.25,1.72,0.75,2.27C92.8,13.29,93.47,13.56,94.31,13.56z"/>
	<path d="M22.71,30.91h0.21l2.33-2.54h1.18v0.07l-2.54,2.79v0.22l2.83,2.94v0.07h-1.18l-2.6-2.68h-0.23v2.68h-0.96v-8.62h0.96V30.91
		z"/>
	<path d="M29.37,31.72c0.02,0.61,0.21,1.1,0.57,1.47c0.35,0.37,0.85,0.55,1.48,0.55c0.29,0,0.54-0.03,0.75-0.1
		c0.21-0.07,0.4-0.16,0.55-0.27c0.15-0.11,0.27-0.25,0.37-0.4c0.09-0.15,0.17-0.31,0.23-0.49l0.91,0.25
		c-0.17,0.57-0.49,1.03-0.95,1.39c-0.46,0.36-1.09,0.54-1.88,0.54c-0.44,0-0.84-0.08-1.2-0.23c-0.37-0.15-0.68-0.37-0.94-0.65
		c-0.26-0.28-0.47-0.61-0.62-1c-0.15-0.39-0.22-0.81-0.22-1.28v-0.3c0-0.43,0.08-0.82,0.23-1.19c0.15-0.37,0.36-0.69,0.63-0.95
		c0.27-0.27,0.59-0.48,0.95-0.63c0.37-0.15,0.76-0.23,1.19-0.23c0.5,0,0.93,0.09,1.3,0.28c0.37,0.18,0.66,0.41,0.9,0.68
		c0.23,0.27,0.41,0.57,0.52,0.89c0.11,0.32,0.17,0.62,0.17,0.89v0.79H29.37z M31.41,29.11c-0.27,0-0.52,0.04-0.76,0.13
		c-0.23,0.09-0.44,0.21-0.62,0.36c-0.18,0.16-0.32,0.34-0.43,0.55c-0.11,0.21-0.18,0.44-0.22,0.68h3.94
		c-0.02-0.26-0.08-0.5-0.19-0.71c-0.11-0.21-0.25-0.39-0.43-0.54c-0.18-0.15-0.38-0.26-0.6-0.34
		C31.88,29.15,31.65,29.11,31.41,29.11z"/>
	<path d="M40.93,33.55h-0.15c-0.1,0.19-0.22,0.35-0.38,0.49c-0.15,0.14-0.32,0.25-0.49,0.34c-0.18,0.09-0.36,0.16-0.56,0.2
		c-0.2,0.04-0.39,0.07-0.57,0.07c-0.41,0-0.79-0.07-1.15-0.21c-0.35-0.14-0.66-0.34-0.93-0.6c-0.27-0.26-0.48-0.59-0.63-0.98
		c-0.15-0.39-0.23-0.84-0.23-1.34v-0.2c0-0.49,0.08-0.93,0.23-1.32c0.16-0.39,0.37-0.72,0.63-0.98c0.26-0.27,0.57-0.47,0.92-0.61
		c0.35-0.14,0.73-0.21,1.12-0.21c0.42,0,0.81,0.09,1.18,0.28c0.37,0.18,0.65,0.47,0.84,0.86h0.15v-3.47h0.96v8.62h-0.96V33.55z
		 M38.89,33.74c0.29,0,0.55-0.05,0.8-0.16s0.46-0.26,0.65-0.46c0.18-0.2,0.33-0.43,0.44-0.71c0.11-0.27,0.16-0.58,0.16-0.92v-0.15
		c0-0.33-0.05-0.63-0.16-0.9c-0.11-0.27-0.25-0.51-0.44-0.71c-0.18-0.2-0.4-0.35-0.65-0.46c-0.25-0.11-0.52-0.17-0.79-0.17
		c-0.29,0-0.56,0.05-0.81,0.16c-0.25,0.11-0.47,0.26-0.65,0.46c-0.18,0.2-0.33,0.43-0.43,0.7c-0.1,0.27-0.15,0.57-0.15,0.9v0.2
		c0,0.34,0.05,0.65,0.15,0.92c0.1,0.27,0.25,0.5,0.43,0.7c0.18,0.19,0.4,0.34,0.65,0.44C38.32,33.69,38.59,33.74,38.89,33.74z"/>
	<path d="M48.47,33.55h-0.15c-0.1,0.19-0.22,0.35-0.38,0.49c-0.15,0.14-0.32,0.25-0.49,0.34c-0.18,0.09-0.36,0.16-0.56,0.2
		c-0.2,0.04-0.39,0.07-0.57,0.07c-0.41,0-0.79-0.07-1.15-0.21c-0.35-0.14-0.66-0.34-0.93-0.6c-0.27-0.26-0.48-0.59-0.63-0.98
		c-0.15-0.39-0.23-0.84-0.23-1.34v-0.2c0-0.49,0.08-0.93,0.23-1.32c0.16-0.39,0.37-0.72,0.63-0.98c0.26-0.27,0.57-0.47,0.92-0.61
		c0.35-0.14,0.73-0.21,1.12-0.21c0.42,0,0.81,0.09,1.18,0.28c0.37,0.18,0.65,0.47,0.84,0.86h0.15v-3.47h0.96v8.62h-0.96V33.55z
		 M46.42,33.74c0.29,0,0.55-0.05,0.8-0.16s0.46-0.26,0.65-0.46c0.18-0.2,0.33-0.43,0.44-0.71c0.11-0.27,0.16-0.58,0.16-0.92v-0.15
		c0-0.33-0.05-0.63-0.16-0.9c-0.11-0.27-0.25-0.51-0.44-0.71c-0.18-0.2-0.4-0.35-0.65-0.46c-0.25-0.11-0.52-0.17-0.79-0.17
		c-0.29,0-0.56,0.05-0.81,0.16c-0.25,0.11-0.47,0.26-0.65,0.46c-0.18,0.2-0.33,0.43-0.43,0.7c-0.1,0.27-0.15,0.57-0.15,0.9v0.2
		c0,0.34,0.05,0.65,0.15,0.92c0.1,0.27,0.25,0.5,0.43,0.7c0.18,0.19,0.4,0.34,0.65,0.44C45.86,33.69,46.13,33.74,46.42,33.74z"/>
	<path d="M59.66,30.84h3.69v0.89h-3.69V30.84z"/>
	<path d="M75.15,29.95c0,0.3,0.12,0.52,0.38,0.68c0.25,0.16,0.71,0.26,1.37,0.31c0.71,0.06,1.26,0.23,1.63,0.51
		c0.37,0.28,0.56,0.7,0.56,1.24v0.07c0,0.3-0.06,0.56-0.18,0.79c-0.12,0.23-0.28,0.43-0.49,0.6c-0.21,0.16-0.46,0.29-0.76,0.38
		c-0.3,0.09-0.63,0.13-0.98,0.13c-0.48,0-0.88-0.06-1.23-0.19c-0.34-0.13-0.62-0.3-0.85-0.5c-0.23-0.21-0.4-0.45-0.51-0.71
		c-0.12-0.27-0.18-0.54-0.2-0.81l0.91-0.22c0.04,0.47,0.22,0.84,0.54,1.13c0.32,0.28,0.75,0.42,1.28,0.42
		c0.45,0,0.81-0.09,1.09-0.26c0.27-0.18,0.41-0.42,0.41-0.75c0-0.34-0.14-0.59-0.41-0.74c-0.27-0.15-0.71-0.24-1.32-0.28
		c-0.71-0.05-1.25-0.21-1.63-0.49c-0.38-0.28-0.57-0.69-0.57-1.22v-0.07c0-0.29,0.06-0.54,0.18-0.76c0.12-0.22,0.29-0.4,0.5-0.55
		c0.21-0.15,0.45-0.26,0.71-0.33c0.26-0.07,0.54-0.11,0.82-0.11c0.4,0,0.76,0.06,1.06,0.17c0.3,0.11,0.56,0.25,0.76,0.43
		c0.21,0.18,0.36,0.38,0.47,0.61c0.11,0.23,0.18,0.46,0.22,0.69l-0.91,0.22c-0.04-0.39-0.2-0.7-0.47-0.92
		c-0.28-0.22-0.63-0.33-1.08-0.33c-0.17,0-0.34,0.02-0.5,0.06c-0.16,0.04-0.3,0.09-0.42,0.17c-0.12,0.07-0.22,0.17-0.3,0.28
		C75.19,29.67,75.15,29.8,75.15,29.95z"/>
	<path d="M86.79,33.6v0.89h-5.32v-1.53l4.36-3.55v-0.15h-4.28v-0.89h5.1v1.48l-4.38,3.6v0.15H86.79z"/>
	<path d="M94.72,31.5c0,0.51-0.08,0.96-0.25,1.35c-0.17,0.39-0.39,0.72-0.67,0.98c-0.28,0.27-0.61,0.47-0.98,0.61
		c-0.37,0.14-0.76,0.21-1.16,0.21c-0.41,0-0.8-0.07-1.17-0.21c-0.37-0.14-0.69-0.34-0.97-0.61c-0.28-0.27-0.5-0.59-0.67-0.98
		c-0.17-0.39-0.25-0.84-0.25-1.35v-0.15c0-0.5,0.08-0.95,0.25-1.34c0.17-0.39,0.39-0.72,0.68-0.99c0.28-0.27,0.61-0.48,0.98-0.62
		c0.37-0.14,0.76-0.21,1.16-0.21c0.4,0,0.79,0.07,1.16,0.21c0.37,0.14,0.7,0.34,0.98,0.62c0.28,0.27,0.51,0.6,0.68,0.99
		c0.17,0.39,0.25,0.84,0.25,1.34V31.5z M91.65,33.74c0.3,0,0.57-0.05,0.82-0.15c0.25-0.1,0.47-0.25,0.66-0.45s0.34-0.43,0.44-0.71
		c0.11-0.27,0.16-0.58,0.16-0.93v-0.15c0-0.33-0.05-0.63-0.16-0.9c-0.11-0.27-0.25-0.51-0.44-0.71c-0.19-0.2-0.41-0.35-0.66-0.46
		c-0.25-0.11-0.53-0.17-0.81-0.17c-0.29,0-0.56,0.06-0.81,0.17c-0.25,0.11-0.48,0.26-0.67,0.46c-0.19,0.2-0.34,0.43-0.44,0.71
		c-0.11,0.27-0.16,0.58-0.16,0.9v0.15c0,0.34,0.05,0.65,0.16,0.93c0.11,0.28,0.25,0.51,0.44,0.71s0.41,0.35,0.66,0.45
		C91.08,33.69,91.35,33.74,91.65,33.74z"/>
	<path d="M102.36,34.48h-0.96V30.1c0-0.29-0.07-0.52-0.2-0.71c-0.13-0.18-0.34-0.28-0.63-0.28c-0.27,0-0.49,0.1-0.66,0.3
		c-0.17,0.2-0.25,0.51-0.25,0.93v4.14H98.7v-4.43c0-0.27-0.07-0.49-0.22-0.67c-0.15-0.18-0.34-0.26-0.59-0.26
		c-0.3,0-0.52,0.11-0.68,0.32c-0.16,0.21-0.24,0.49-0.24,0.84v4.21h-0.96v-6.11h0.96v0.67h0.15c0.11-0.29,0.26-0.5,0.47-0.63
		c0.2-0.14,0.45-0.2,0.73-0.2c0.3,0,0.54,0.08,0.73,0.23c0.19,0.16,0.33,0.36,0.4,0.6h0.15c0.28-0.56,0.72-0.84,1.33-0.84
		c0.46,0,0.81,0.15,1.06,0.44c0.25,0.29,0.38,0.67,0.38,1.14V34.48z"/>
	<path d="M104.76,34.48h-0.96v-8.62h0.96v3.47h0.15c0.21-0.37,0.51-0.65,0.89-0.84c0.38-0.19,0.79-0.29,1.23-0.29
		c0.38,0,0.73,0.07,1.07,0.21c0.34,0.14,0.63,0.34,0.89,0.6c0.26,0.26,0.46,0.59,0.62,0.97c0.15,0.39,0.23,0.82,0.23,1.32v0.25
		c0,0.5-0.07,0.94-0.22,1.33c-0.15,0.39-0.35,0.71-0.61,0.97c-0.26,0.26-0.56,0.46-0.9,0.6c-0.34,0.14-0.71,0.2-1.1,0.2
		c-0.2,0-0.4-0.02-0.6-0.07c-0.21-0.05-0.4-0.11-0.58-0.21c-0.18-0.09-0.36-0.21-0.51-0.34c-0.16-0.14-0.29-0.3-0.39-0.49h-0.15
		V34.48z M106.81,33.74c0.3,0,0.57-0.05,0.81-0.15c0.25-0.1,0.46-0.25,0.65-0.44c0.18-0.19,0.33-0.42,0.43-0.69s0.15-0.57,0.15-0.91
		v-0.25c0-0.33-0.05-0.63-0.15-0.89c-0.1-0.27-0.25-0.5-0.43-0.69c-0.18-0.19-0.4-0.34-0.65-0.45c-0.25-0.11-0.52-0.16-0.81-0.16
		s-0.55,0.06-0.8,0.17c-0.25,0.11-0.46,0.26-0.65,0.46c-0.18,0.2-0.33,0.43-0.44,0.71c-0.11,0.27-0.16,0.58-0.16,0.9v0.15
		c0,0.34,0.05,0.64,0.16,0.92c0.11,0.28,0.25,0.51,0.44,0.71c0.18,0.2,0.4,0.35,0.65,0.46C106.25,33.69,106.52,33.74,106.81,33.74z"
		/>
	<path d="M115.99,33.45h-0.15c-0.2,0.41-0.47,0.71-0.82,0.91c-0.35,0.2-0.72,0.3-1.1,0.3c-0.4,0-0.78-0.07-1.12-0.2
		c-0.34-0.14-0.65-0.34-0.9-0.6c-0.26-0.27-0.46-0.59-0.61-0.98c-0.15-0.39-0.22-0.83-0.22-1.34v-0.2c0-0.5,0.07-0.94,0.22-1.33
		c0.15-0.39,0.35-0.71,0.61-0.98c0.26-0.27,0.56-0.47,0.9-0.61c0.34-0.14,0.71-0.21,1.1-0.21c0.42,0,0.8,0.09,1.14,0.28
		c0.34,0.18,0.61,0.47,0.81,0.86h0.15v-0.96h0.96v4.85c0,0.25,0.11,0.37,0.33,0.37h0.31v0.89h-0.65c-0.28,0-0.51-0.09-0.68-0.27
		c-0.18-0.18-0.26-0.41-0.26-0.69V33.45z M114.02,33.74c0.29,0,0.55-0.05,0.79-0.16s0.45-0.26,0.62-0.46
		c0.17-0.2,0.31-0.43,0.41-0.71c0.1-0.27,0.15-0.58,0.15-0.92v-0.15c0-0.33-0.05-0.63-0.15-0.9c-0.1-0.27-0.24-0.51-0.41-0.71
		c-0.18-0.2-0.39-0.35-0.63-0.46c-0.24-0.11-0.5-0.17-0.78-0.17c-0.29,0-0.55,0.05-0.79,0.16c-0.24,0.11-0.45,0.26-0.62,0.45
		c-0.18,0.19-0.31,0.43-0.41,0.7c-0.1,0.28-0.15,0.58-0.15,0.9v0.2c0,0.7,0.18,1.24,0.55,1.63
		C112.97,33.55,113.44,33.74,114.02,33.74z"/>
	<path d="M118.89,28.37h1.92v-2.51h0.96v2.51h2.36v0.89h-2.36v3.96c0,0.25,0.11,0.37,0.33,0.37h1.74v0.89h-2.08
		c-0.28,0-0.51-0.09-0.68-0.27c-0.18-0.18-0.26-0.41-0.26-0.69v-4.26h-1.92V28.37z"/>
	<path d="M23.37,48.3v-7.2h-0.15l-1.42,3.24h-1.02v-0.07l1.61-3.62h2.01v7.66h2.44v0.96h-5.91V48.3H23.37z"/>
	<path d="M30.91,48.3v-7.2h-0.15l-1.42,3.24h-1.02v-0.07l1.61-3.62h2.01v7.66h2.44v0.96h-5.91V48.3H30.91z"/>
	<path d="M38.04,43.84c0-0.24,0.08-0.44,0.25-0.61c0.17-0.17,0.37-0.25,0.61-0.25c0.24,0,0.44,0.08,0.61,0.25
		c0.17,0.17,0.25,0.37,0.25,0.61c0,0.24-0.08,0.44-0.25,0.61c-0.17,0.17-0.37,0.25-0.61,0.25c-0.24,0-0.44-0.08-0.61-0.25
		C38.12,44.28,38.04,44.08,38.04,43.84z M38.04,48.57c0-0.24,0.08-0.44,0.25-0.61c0.17-0.17,0.37-0.25,0.61-0.25
		c0.24,0,0.44,0.08,0.61,0.25c0.17,0.17,0.25,0.37,0.25,0.61c0,0.24-0.08,0.44-0.25,0.61c-0.17,0.17-0.37,0.25-0.61,0.25
		c-0.24,0-0.44-0.08-0.61-0.25C38.12,49.01,38.04,48.81,38.04,48.57z"/>
	<path d="M45.59,44.97v-1.43l2.81-1.8V41.6h-4.88v-0.96h5.76v1.58l-2.81,1.8v0.15h0.49c0.33,0,0.64,0.05,0.95,0.16
		c0.3,0.11,0.57,0.26,0.81,0.47c0.23,0.21,0.42,0.46,0.57,0.76c0.14,0.3,0.22,0.65,0.22,1.04v0.22c0,0.37-0.07,0.71-0.22,1.03
		c-0.15,0.32-0.35,0.6-0.62,0.83c-0.26,0.23-0.57,0.42-0.93,0.55c-0.36,0.14-0.75,0.2-1.16,0.2c-0.48,0-0.92-0.07-1.31-0.22
		c-0.39-0.15-0.71-0.35-0.98-0.61c-0.27-0.26-0.48-0.56-0.62-0.91c-0.14-0.35-0.22-0.72-0.22-1.11v-0.66h1.03v0.59
		c0,0.31,0.05,0.59,0.15,0.83c0.1,0.24,0.25,0.45,0.43,0.62c0.18,0.17,0.4,0.3,0.66,0.39c0.25,0.09,0.53,0.14,0.82,0.14
		c0.27,0,0.52-0.05,0.76-0.14c0.23-0.09,0.44-0.22,0.61-0.38c0.17-0.16,0.31-0.35,0.41-0.57c0.1-0.22,0.15-0.45,0.15-0.7v-0.07
		c0-0.52-0.16-0.92-0.49-1.21c-0.33-0.29-0.74-0.44-1.23-0.44H45.59z"/>
	<path d="M50.94,43.99c0-1.12,0.27-1.98,0.8-2.6c0.53-0.62,1.28-0.92,2.23-0.92c0.95,0,1.69,0.31,2.23,0.92
		c0.53,0.62,0.8,1.48,0.8,2.6v1.92c0,1.15-0.27,2.02-0.8,2.62c-0.53,0.6-1.28,0.9-2.23,0.9c-0.95,0-1.7-0.3-2.23-0.9
		c-0.53-0.6-0.8-1.47-0.8-2.62V43.99z M53.97,48.49c0.66,0,1.16-0.23,1.5-0.7c0.33-0.46,0.5-1.12,0.5-1.96v-1.77
		c0-0.39-0.04-0.75-0.12-1.08c-0.08-0.32-0.21-0.6-0.38-0.84c-0.17-0.23-0.38-0.42-0.63-0.55c-0.25-0.13-0.54-0.2-0.87-0.2
		c-0.34,0-0.63,0.07-0.87,0.2c-0.25,0.13-0.45,0.31-0.62,0.55c-0.17,0.23-0.29,0.51-0.38,0.84c-0.08,0.32-0.12,0.68-0.12,1.08v1.77
		c0,0.85,0.17,1.5,0.5,1.96C52.81,48.26,53.31,48.49,53.97,48.49z M53.18,44.95c0-0.21,0.08-0.4,0.23-0.55
		c0.16-0.16,0.34-0.23,0.55-0.23c0.21,0,0.4,0.08,0.55,0.23c0.16,0.16,0.23,0.34,0.23,0.55s-0.08,0.4-0.23,0.55
		c-0.16,0.16-0.34,0.23-0.55,0.23c-0.21,0-0.4-0.08-0.55-0.23C53.26,45.35,53.18,45.16,53.18,44.95z"/>
	<path d="M67.2,45.61h3.69v0.89H67.2V45.61z"/>
	<path d="M87.04,48.3v0.96h-5.84v-1.48c0-0.39,0.07-0.74,0.2-1.03c0.13-0.29,0.32-0.54,0.56-0.75c0.24-0.21,0.54-0.38,0.88-0.52
		c0.34-0.14,0.73-0.26,1.17-0.36c0.73-0.16,1.26-0.4,1.58-0.7c0.32-0.3,0.49-0.68,0.49-1.12v-0.07c0-0.22-0.04-0.44-0.11-0.65
		c-0.07-0.21-0.19-0.41-0.34-0.58c-0.16-0.17-0.36-0.31-0.6-0.41c-0.24-0.1-0.53-0.15-0.87-0.15c-0.63,0-1.12,0.19-1.47,0.58
		c-0.35,0.39-0.52,0.9-0.52,1.54v0.54h-1.03v-0.62c0-0.39,0.07-0.77,0.2-1.13c0.13-0.36,0.32-0.68,0.58-0.96
		c0.25-0.28,0.57-0.5,0.95-0.67c0.38-0.16,0.81-0.25,1.31-0.25c0.5,0,0.94,0.08,1.31,0.23c0.37,0.15,0.68,0.35,0.92,0.6
		c0.25,0.25,0.43,0.53,0.55,0.85c0.12,0.32,0.18,0.64,0.18,0.97v0.22c0,0.66-0.21,1.22-0.62,1.68c-0.41,0.46-1.07,0.79-1.97,0.99
		c-0.79,0.17-1.37,0.4-1.74,0.68c-0.37,0.28-0.55,0.7-0.55,1.24v0.37H87.04z"/>
	<path d="M88.62,43.99c0-1.12,0.27-1.98,0.8-2.6c0.53-0.62,1.28-0.92,2.23-0.92c0.95,0,1.69,0.31,2.23,0.92
		c0.53,0.62,0.8,1.48,0.8,2.6v1.92c0,1.15-0.27,2.02-0.8,2.62c-0.53,0.6-1.28,0.9-2.23,0.9c-0.95,0-1.7-0.3-2.23-0.9
		c-0.53-0.6-0.8-1.47-0.8-2.62V43.99z M91.65,48.49c0.66,0,1.16-0.23,1.5-0.7c0.33-0.46,0.5-1.12,0.5-1.96v-1.77
		c0-0.39-0.04-0.75-0.12-1.08c-0.08-0.32-0.21-0.6-0.38-0.84c-0.17-0.23-0.38-0.42-0.63-0.55c-0.25-0.13-0.54-0.2-0.87-0.2
		c-0.34,0-0.63,0.07-0.87,0.2c-0.25,0.13-0.45,0.31-0.62,0.55c-0.17,0.23-0.29,0.51-0.38,0.84c-0.08,0.32-0.12,0.68-0.12,1.08v1.77
		c0,0.85,0.17,1.5,0.5,1.96C90.49,48.26,90.98,48.49,91.65,48.49z M90.86,44.95c0-0.21,0.08-0.4,0.23-0.55
		c0.16-0.16,0.34-0.23,0.55-0.23c0.21,0,0.4,0.08,0.55,0.23c0.16,0.16,0.23,0.34,0.23,0.55s-0.08,0.4-0.23,0.55
		c-0.16,0.16-0.34,0.23-0.55,0.23c-0.21,0-0.4-0.08-0.55-0.23C90.94,45.35,90.86,45.16,90.86,44.95z"/>
	<path d="M98.32,43.84c0-0.24,0.08-0.44,0.25-0.61c0.17-0.17,0.37-0.25,0.61-0.25c0.24,0,0.44,0.08,0.61,0.25
		c0.17,0.17,0.25,0.37,0.25,0.61c0,0.24-0.08,0.44-0.25,0.61c-0.17,0.17-0.37,0.25-0.61,0.25c-0.24,0-0.44-0.08-0.61-0.25
		C98.41,44.28,98.32,44.08,98.32,43.84z M98.32,48.57c0-0.24,0.08-0.44,0.25-0.61c0.17-0.17,0.37-0.25,0.61-0.25
		c0.24,0,0.44,0.08,0.61,0.25c0.17,0.17,0.25,0.37,0.25,0.61c0,0.24-0.08,0.44-0.25,0.61c-0.17,0.17-0.37,0.25-0.61,0.25
		c-0.24,0-0.44-0.08-0.61-0.25C98.41,49.01,98.32,48.81,98.32,48.57z"/>
	<path d="M103.69,43.99c0-1.12,0.27-1.98,0.8-2.6c0.53-0.62,1.28-0.92,2.23-0.92c0.95,0,1.69,0.31,2.23,0.92
		c0.53,0.62,0.8,1.48,0.8,2.6v1.92c0,1.15-0.27,2.02-0.8,2.62c-0.53,0.6-1.28,0.9-2.23,0.9c-0.95,0-1.7-0.3-2.23-0.9
		c-0.53-0.6-0.8-1.47-0.8-2.62V43.99z M106.72,48.49c0.66,0,1.16-0.23,1.5-0.7c0.33-0.46,0.5-1.12,0.5-1.96v-1.77
		c0-0.39-0.04-0.75-0.12-1.08c-0.08-0.32-0.21-0.6-0.38-0.84c-0.17-0.23-0.38-0.42-0.63-0.55c-0.25-0.13-0.54-0.2-0.87-0.2
		c-0.34,0-0.63,0.07-0.87,0.2c-0.25,0.13-0.45,0.31-0.62,0.55c-0.17,0.23-0.29,0.51-0.38,0.84c-0.08,0.32-0.12,0.68-0.12,1.08v1.77
		c0,0.85,0.17,1.5,0.5,1.96C105.56,48.26,106.06,48.49,106.72,48.49z M105.93,44.95c0-0.21,0.08-0.4,0.23-0.55
		c0.16-0.16,0.34-0.23,0.55-0.23c0.21,0,0.4,0.08,0.55,0.23c0.16,0.16,0.23,0.34,0.23,0.55s-0.08,0.4-0.23,0.55
		c-0.16,0.16-0.34,0.23-0.55,0.23c-0.21,0-0.4-0.08-0.55-0.23C106.01,45.35,105.93,45.16,105.93,44.95z"/>
	<path d="M111.23,43.99c0-1.12,0.27-1.98,0.8-2.6c0.53-0.62,1.28-0.92,2.23-0.92c0.95,0,1.69,0.31,2.23,0.92
		c0.53,0.62,0.8,1.48,0.8,2.6v1.92c0,1.15-0.27,2.02-0.8,2.62c-0.53,0.6-1.28,0.9-2.23,0.9c-0.95,0-1.7-0.3-2.23-0.9
		c-0.53-0.6-0.8-1.47-0.8-2.62V43.99z M114.26,48.49c0.66,0,1.16-0.23,1.5-0.7c0.33-0.46,0.5-1.12,0.5-1.96v-1.77
		c0-0.39-0.04-0.75-0.12-1.08c-0.08-0.32-0.21-0.6-0.38-0.84c-0.17-0.23-0.38-0.42-0.63-0.55c-0.25-0.13-0.54-0.2-0.87-0.2
		c-0.34,0-0.63,0.07-0.87,0.2c-0.25,0.13-0.45,0.31-0.62,0.55c-0.17,0.23-0.29,0.51-0.38,0.84c-0.08,0.32-0.12,0.68-0.12,1.08v1.77
		c0,0.85,0.17,1.5,0.5,1.96C113.09,48.26,113.59,48.49,114.26,48.49z M113.47,44.95c0-0.21,0.08-0.4,0.23-0.55
		c0.16-0.16,0.34-0.23,0.55-0.23c0.21,0,0.4,0.08,0.55,0.23c0.16,0.16,0.23,0.34,0.23,0.55s-0.08,0.4-0.23,0.55
		c-0.16,0.16-0.34,0.23-0.55,0.23c-0.21,0-0.4-0.08-0.55-0.23C113.55,45.35,113.47,45.16,113.47,44.95z"/>
	<path d="M24.77,64.03h-1.9l-2.13-6.11h1.13l1.87,5.66h0.15l1.87-5.66h1.13L24.77,64.03z"/>
	<path d="M33.1,63h-0.15c-0.2,0.41-0.47,0.71-0.82,0.91c-0.35,0.2-0.72,0.3-1.1,0.3c-0.4,0-0.78-0.07-1.12-0.2
		c-0.34-0.14-0.65-0.34-0.9-0.6c-0.26-0.27-0.46-0.59-0.61-0.98c-0.15-0.39-0.22-0.83-0.22-1.34v-0.2c0-0.5,0.07-0.94,0.22-1.33
		c0.15-0.39,0.35-0.71,0.61-0.98c0.26-0.27,0.56-0.47,0.9-0.61c0.34-0.14,0.71-0.21,1.1-0.21c0.42,0,0.8,0.09,1.14,0.28
		s0.61,0.47,0.81,0.86h0.15v-0.96h0.96v4.85c0,0.25,0.11,0.37,0.33,0.37h0.31v0.89h-0.65c-0.28,0-0.51-0.09-0.68-0.27
		c-0.18-0.18-0.26-0.41-0.26-0.69V63z M31.13,63.29c0.29,0,0.55-0.05,0.79-0.16c0.24-0.11,0.45-0.26,0.62-0.46s0.31-0.43,0.41-0.71
		c0.1-0.27,0.15-0.58,0.15-0.92v-0.15c0-0.33-0.05-0.63-0.15-0.9c-0.1-0.27-0.24-0.51-0.41-0.71c-0.18-0.2-0.39-0.35-0.63-0.46
		c-0.24-0.11-0.5-0.17-0.78-0.17c-0.29,0-0.55,0.05-0.79,0.16c-0.24,0.11-0.45,0.26-0.62,0.45c-0.18,0.19-0.31,0.43-0.41,0.7
		s-0.15,0.58-0.15,0.91v0.2c0,0.7,0.18,1.24,0.55,1.63C30.07,63.1,30.55,63.29,31.13,63.29z"/>
	<path d="M37.47,59.5c0,0.3,0.12,0.52,0.38,0.68c0.25,0.16,0.71,0.26,1.37,0.31c0.71,0.06,1.26,0.23,1.63,0.51
		c0.37,0.28,0.56,0.7,0.56,1.24v0.07c0,0.3-0.06,0.56-0.18,0.79c-0.12,0.23-0.28,0.43-0.49,0.6c-0.21,0.16-0.46,0.29-0.76,0.38
		c-0.3,0.09-0.63,0.13-0.98,0.13c-0.48,0-0.88-0.06-1.23-0.19c-0.34-0.13-0.62-0.3-0.85-0.5c-0.23-0.21-0.4-0.45-0.51-0.71
		c-0.12-0.27-0.18-0.54-0.2-0.81l0.91-0.22c0.04,0.47,0.22,0.84,0.54,1.13c0.32,0.28,0.75,0.42,1.28,0.42
		c0.45,0,0.81-0.09,1.09-0.26c0.27-0.18,0.41-0.42,0.41-0.74c0-0.35-0.14-0.59-0.41-0.74c-0.27-0.15-0.71-0.24-1.32-0.28
		c-0.71-0.05-1.25-0.21-1.63-0.49c-0.38-0.28-0.57-0.69-0.57-1.22V59.5c0-0.29,0.06-0.54,0.18-0.76c0.12-0.22,0.29-0.4,0.5-0.55
		c0.21-0.15,0.45-0.26,0.71-0.33c0.26-0.07,0.54-0.11,0.82-0.11c0.4,0,0.76,0.06,1.06,0.17c0.3,0.11,0.56,0.25,0.76,0.43
		c0.21,0.18,0.36,0.38,0.47,0.61c0.11,0.23,0.18,0.46,0.22,0.69l-0.91,0.22c-0.04-0.39-0.2-0.7-0.47-0.92
		c-0.28-0.22-0.63-0.33-1.08-0.33c-0.17,0-0.34,0.02-0.5,0.06c-0.16,0.04-0.3,0.09-0.42,0.17c-0.12,0.07-0.22,0.17-0.3,0.28
		C37.51,59.22,37.47,59.35,37.47,59.5z"/>
	<path d="M48.17,63h-0.15c-0.2,0.41-0.47,0.71-0.82,0.91c-0.35,0.2-0.72,0.3-1.1,0.3c-0.4,0-0.78-0.07-1.12-0.2
		c-0.34-0.14-0.65-0.34-0.9-0.6c-0.26-0.27-0.46-0.59-0.61-0.98c-0.15-0.39-0.22-0.83-0.22-1.34v-0.2c0-0.5,0.07-0.94,0.22-1.33
		c0.15-0.39,0.35-0.71,0.61-0.98c0.26-0.27,0.56-0.47,0.9-0.61c0.34-0.14,0.71-0.21,1.1-0.21c0.42,0,0.8,0.09,1.14,0.28
		c0.34,0.18,0.61,0.47,0.81,0.86h0.15v-0.96h0.96v4.85c0,0.25,0.11,0.37,0.33,0.37h0.31v0.89h-0.65c-0.28,0-0.51-0.09-0.68-0.27
		c-0.18-0.18-0.26-0.41-0.26-0.69V63z M46.2,63.29c0.29,0,0.55-0.05,0.79-0.16c0.24-0.11,0.45-0.26,0.62-0.46
		c0.17-0.2,0.31-0.43,0.41-0.71c0.1-0.27,0.15-0.58,0.15-0.92v-0.15c0-0.33-0.05-0.63-0.15-0.9c-0.1-0.27-0.24-0.51-0.41-0.71
		c-0.18-0.2-0.39-0.35-0.63-0.46c-0.24-0.11-0.5-0.17-0.78-0.17c-0.29,0-0.55,0.05-0.79,0.16c-0.24,0.11-0.45,0.26-0.62,0.45
		c-0.18,0.19-0.31,0.43-0.41,0.7c-0.1,0.27-0.15,0.58-0.15,0.91v0.2c0,0.7,0.18,1.24,0.55,1.63C45.15,63.1,45.62,63.29,46.2,63.29z
		 M47.52,55.56l-1.03,1.45H45.6l0.81-1.45H47.52z"/>
	<path d="M50.93,57.93h2.22v0.81h0.15c0.16-0.34,0.38-0.58,0.66-0.74c0.29-0.16,0.62-0.24,0.98-0.24c0.62,0,1.11,0.2,1.49,0.6
		c0.38,0.4,0.58,0.99,0.6,1.76l-1.01,0.15c0-0.57-0.14-0.97-0.41-1.23c-0.27-0.25-0.6-0.38-1-0.38c-0.25,0-0.47,0.05-0.66,0.15
		c-0.18,0.1-0.34,0.23-0.46,0.41c-0.12,0.17-0.21,0.37-0.27,0.6c-0.06,0.23-0.09,0.48-0.09,0.74v2.59h1.55v0.89h-3.92v-0.89h1.4
		v-4.33h-1.26V57.93z"/>
	<path d="M59.77,64.03h-0.96v-6.11h0.96v1.03h0.15c0.38-0.8,1.03-1.21,1.97-1.21c0.71,0,1.27,0.22,1.69,0.66
		c0.42,0.44,0.63,1.1,0.63,1.98v3.64h-0.96v-3.45c0-0.64-0.14-1.12-0.43-1.44c-0.29-0.32-0.68-0.48-1.17-0.48
		c-0.58,0-1.04,0.2-1.37,0.6c-0.33,0.4-0.5,0.93-0.5,1.59V64.03z"/>
	<path d="M70.78,63h-0.15c-0.2,0.41-0.47,0.71-0.82,0.91c-0.35,0.2-0.72,0.3-1.1,0.3c-0.4,0-0.78-0.07-1.12-0.2
		c-0.34-0.14-0.65-0.34-0.9-0.6c-0.26-0.27-0.46-0.59-0.61-0.98c-0.15-0.39-0.22-0.83-0.22-1.34v-0.2c0-0.5,0.07-0.94,0.22-1.33
		c0.15-0.39,0.35-0.71,0.61-0.98c0.26-0.27,0.56-0.47,0.9-0.61c0.34-0.14,0.71-0.21,1.1-0.21c0.42,0,0.8,0.09,1.14,0.28
		c0.34,0.18,0.61,0.47,0.81,0.86h0.15v-0.96h0.96v4.85c0,0.25,0.11,0.37,0.33,0.37h0.31v0.89h-0.65c-0.28,0-0.51-0.09-0.68-0.27
		c-0.18-0.18-0.26-0.41-0.26-0.69V63z M68.81,63.29c0.29,0,0.55-0.05,0.79-0.16c0.24-0.11,0.45-0.26,0.62-0.46
		c0.17-0.2,0.31-0.43,0.41-0.71c0.1-0.27,0.15-0.58,0.15-0.92v-0.15c0-0.33-0.05-0.63-0.15-0.9c-0.1-0.27-0.24-0.51-0.41-0.71
		c-0.18-0.2-0.39-0.35-0.63-0.46c-0.24-0.11-0.5-0.17-0.78-0.17c-0.29,0-0.55,0.05-0.79,0.16c-0.24,0.11-0.45,0.26-0.62,0.45
		c-0.18,0.19-0.31,0.43-0.41,0.7s-0.15,0.58-0.15,0.91v0.2c0,0.7,0.18,1.24,0.55,1.63C67.75,63.1,68.23,63.29,68.81,63.29z"/>
	<path d="M74.62,66.5h-0.96v-8.57h0.96v0.96h0.15c0.21-0.37,0.51-0.65,0.89-0.84c0.38-0.19,0.79-0.29,1.23-0.29
		c0.38,0,0.73,0.07,1.07,0.21c0.34,0.14,0.63,0.34,0.89,0.6c0.26,0.26,0.46,0.59,0.62,0.97c0.15,0.39,0.23,0.82,0.23,1.32v0.25
		c0,0.5-0.07,0.94-0.22,1.33c-0.15,0.39-0.35,0.71-0.61,0.97c-0.26,0.26-0.56,0.46-0.9,0.6c-0.34,0.14-0.71,0.2-1.1,0.2
		c-0.2,0-0.4-0.02-0.6-0.07c-0.21-0.04-0.4-0.11-0.58-0.21c-0.18-0.09-0.36-0.21-0.51-0.35c-0.16-0.14-0.29-0.3-0.39-0.49h-0.15
		V66.5z M76.66,63.29c0.3,0,0.57-0.05,0.81-0.15c0.25-0.1,0.46-0.25,0.65-0.44c0.18-0.19,0.33-0.42,0.43-0.69
		c0.1-0.27,0.15-0.57,0.15-0.91v-0.25c0-0.33-0.05-0.63-0.15-0.89c-0.1-0.27-0.25-0.5-0.43-0.69c-0.18-0.19-0.4-0.34-0.65-0.45
		c-0.25-0.11-0.52-0.16-0.81-0.16s-0.55,0.06-0.8,0.17c-0.25,0.11-0.46,0.26-0.65,0.46c-0.18,0.2-0.33,0.43-0.44,0.71
		c-0.11,0.28-0.16,0.58-0.16,0.9v0.15c0,0.34,0.05,0.64,0.16,0.92c0.11,0.27,0.25,0.51,0.44,0.71s0.4,0.35,0.65,0.46
		C76.11,63.24,76.38,63.29,76.66,63.29z"/>
	<path d="M93.02,54.11l0.86,0.27L90.3,65.34l-0.87-0.27L93.02,54.11z"/>
	<path d="M104.98,64.03h-0.96v-8.62h0.96v3.62h0.15c0.19-0.39,0.45-0.71,0.79-0.94c0.34-0.23,0.76-0.34,1.25-0.34
		c0.67,0,1.2,0.22,1.62,0.66c0.41,0.44,0.62,1.1,0.62,1.98v3.64h-0.96v-3.45c0-0.64-0.14-1.12-0.43-1.44
		c-0.29-0.32-0.68-0.48-1.17-0.48c-0.58,0-1.04,0.2-1.37,0.6c-0.33,0.4-0.5,0.93-0.5,1.59V64.03z"/>
	<path d="M112.26,61.28c0.02,0.61,0.21,1.1,0.57,1.46c0.35,0.37,0.85,0.55,1.48,0.55c0.29,0,0.54-0.03,0.75-0.1
		c0.21-0.07,0.4-0.16,0.55-0.27c0.15-0.11,0.27-0.25,0.37-0.4c0.09-0.15,0.17-0.31,0.23-0.49l0.91,0.25
		c-0.17,0.57-0.49,1.03-0.95,1.39c-0.46,0.36-1.09,0.54-1.88,0.54c-0.44,0-0.84-0.08-1.2-0.23c-0.37-0.15-0.68-0.37-0.94-0.65
		c-0.26-0.28-0.47-0.61-0.62-1c-0.15-0.39-0.22-0.81-0.22-1.28v-0.3c0-0.43,0.08-0.82,0.23-1.19c0.15-0.37,0.36-0.69,0.63-0.95
		c0.27-0.27,0.59-0.48,0.95-0.63c0.37-0.15,0.76-0.23,1.19-0.23c0.5,0,0.93,0.09,1.3,0.28c0.37,0.18,0.66,0.41,0.9,0.68
		c0.23,0.27,0.41,0.57,0.52,0.89c0.11,0.32,0.17,0.62,0.17,0.89v0.79H112.26z M114.31,58.66c-0.27,0-0.52,0.04-0.76,0.13
		c-0.23,0.09-0.44,0.21-0.62,0.36c-0.18,0.16-0.32,0.34-0.43,0.55c-0.11,0.21-0.18,0.44-0.22,0.68h3.94
		c-0.02-0.26-0.08-0.5-0.19-0.71c-0.11-0.21-0.25-0.39-0.43-0.54c-0.18-0.15-0.38-0.26-0.6-0.34
		C114.78,58.71,114.54,58.66,114.31,58.66z M115.77,55.56l-1.03,1.45h-0.89l0.81-1.45H115.77z"/>
	<path d="M118.89,57.93h1.92v-2.51h0.96v2.51h2.36v0.89h-2.36v3.96c0,0.25,0.11,0.37,0.33,0.37h1.74v0.89h-2.08
		c-0.28,0-0.51-0.09-0.68-0.27c-0.18-0.18-0.26-0.41-0.26-0.69v-4.26h-1.92V57.93z"/>
	<path d="M126.57,57.93h1.88v-1.55c0-0.28,0.09-0.51,0.26-0.69c0.18-0.18,0.4-0.27,0.68-0.27h2.41v0.89h-2.07
		c-0.22,0-0.33,0.12-0.33,0.37v1.26h2.55v0.89h-2.55v5.22h-0.96v-5.22h-1.88V57.93z"/>
	<path d="M139.93,61.05c0,0.51-0.08,0.96-0.25,1.35c-0.17,0.39-0.39,0.72-0.67,0.98c-0.28,0.27-0.61,0.47-0.98,0.61
		c-0.37,0.14-0.76,0.21-1.16,0.21c-0.41,0-0.8-0.07-1.17-0.21c-0.37-0.14-0.69-0.34-0.97-0.61c-0.28-0.27-0.5-0.59-0.67-0.98
		c-0.17-0.39-0.25-0.84-0.25-1.35v-0.15c0-0.5,0.08-0.95,0.25-1.34c0.17-0.39,0.39-0.72,0.68-0.99c0.28-0.27,0.61-0.48,0.98-0.62
		c0.37-0.14,0.76-0.21,1.16-0.21c0.4,0,0.79,0.07,1.16,0.21c0.37,0.14,0.7,0.34,0.98,0.62c0.28,0.27,0.51,0.6,0.68,0.99
		c0.17,0.39,0.25,0.84,0.25,1.34V61.05z M136.86,63.29c0.3,0,0.57-0.05,0.82-0.15c0.25-0.1,0.47-0.25,0.66-0.45
		c0.19-0.2,0.34-0.43,0.44-0.71c0.11-0.28,0.16-0.58,0.16-0.93v-0.15c0-0.33-0.05-0.63-0.16-0.9c-0.11-0.27-0.25-0.51-0.44-0.71
		c-0.19-0.2-0.41-0.35-0.66-0.46c-0.25-0.11-0.53-0.17-0.81-0.17c-0.29,0-0.56,0.06-0.81,0.17c-0.25,0.11-0.48,0.26-0.67,0.46
		c-0.19,0.2-0.34,0.43-0.44,0.71c-0.11,0.28-0.16,0.58-0.16,0.9v0.15c0,0.34,0.05,0.65,0.16,0.93c0.11,0.27,0.25,0.51,0.44,0.71
		c0.19,0.2,0.41,0.35,0.66,0.45C136.29,63.24,136.57,63.29,136.86,63.29z M137.38,55.56l-1.03,1.45h-0.89l0.81-1.45H137.38z
		 M139.15,55.56l-1.03,1.45h-0.89l0.81-1.45H139.15z"/>
	<path d="M26.5,77.92v0.89h-5.32v-1.53l4.36-3.55v-0.15h-4.28V72.7h5.1v1.48l-4.38,3.6v0.15H26.5z"/>
	<path d="M33.1,77.77h-0.15c-0.2,0.41-0.47,0.71-0.82,0.91c-0.35,0.2-0.72,0.3-1.1,0.3c-0.4,0-0.78-0.07-1.12-0.2
		c-0.34-0.14-0.65-0.34-0.9-0.6c-0.26-0.27-0.46-0.59-0.61-0.98c-0.15-0.39-0.22-0.83-0.22-1.34v-0.2c0-0.5,0.07-0.94,0.22-1.33
		c0.15-0.39,0.35-0.71,0.61-0.98c0.26-0.27,0.56-0.47,0.9-0.61c0.34-0.14,0.71-0.21,1.1-0.21c0.42,0,0.8,0.09,1.14,0.28
		s0.61,0.47,0.81,0.86h0.15V72.7h0.96v4.85c0,0.25,0.11,0.37,0.33,0.37h0.31v0.89h-0.65c-0.28,0-0.51-0.09-0.68-0.27
		c-0.18-0.18-0.26-0.41-0.26-0.69V77.77z M31.13,78.07c0.29,0,0.55-0.05,0.79-0.16c0.24-0.11,0.45-0.26,0.62-0.46
		s0.31-0.43,0.41-0.71c0.1-0.28,0.15-0.58,0.15-0.92v-0.15c0-0.33-0.05-0.63-0.15-0.9c-0.1-0.27-0.24-0.51-0.41-0.71
		c-0.18-0.2-0.39-0.35-0.63-0.46c-0.24-0.11-0.5-0.17-0.78-0.17c-0.29,0-0.55,0.05-0.79,0.16c-0.24,0.11-0.45,0.26-0.62,0.45
		c-0.18,0.19-0.31,0.43-0.41,0.7c-0.1,0.27-0.15,0.58-0.15,0.91v0.2c0,0.7,0.18,1.24,0.55,1.63C30.07,77.87,30.55,78.07,31.13,78.07
		z M32.45,70.34l-1.03,1.45h-0.89l0.81-1.45H32.45z"/>
	<path d="M35.86,72.7h2.22v0.81h0.15c0.16-0.34,0.38-0.58,0.66-0.74c0.29-0.16,0.62-0.24,0.98-0.24c0.62,0,1.11,0.2,1.49,0.6
		c0.38,0.4,0.58,0.99,0.6,1.76l-1.01,0.15c0-0.57-0.14-0.97-0.41-1.23c-0.27-0.25-0.6-0.38-1-0.38c-0.25,0-0.47,0.05-0.66,0.15
		c-0.18,0.1-0.34,0.23-0.46,0.41c-0.12,0.17-0.21,0.37-0.27,0.6c-0.06,0.23-0.09,0.48-0.09,0.74v2.59h1.55v0.89h-3.92v-0.89h1.4
		v-4.33h-1.26V72.7z"/>
	<path d="M47.37,78.81h-1.9l-2.13-6.11h1.13l1.87,5.66h0.15l1.87-5.66h1.13L47.37,78.81z"/>
	<path d="M55.71,77.77h-0.15c-0.2,0.41-0.47,0.71-0.82,0.91c-0.35,0.2-0.72,0.3-1.1,0.3c-0.4,0-0.78-0.07-1.12-0.2
		c-0.34-0.14-0.65-0.34-0.9-0.6c-0.26-0.27-0.46-0.59-0.61-0.98c-0.15-0.39-0.22-0.83-0.22-1.34v-0.2c0-0.5,0.07-0.94,0.22-1.33
		c0.15-0.39,0.35-0.71,0.61-0.98c0.26-0.27,0.56-0.47,0.9-0.61c0.34-0.14,0.71-0.21,1.1-0.21c0.42,0,0.8,0.09,1.14,0.28
		s0.61,0.47,0.81,0.86h0.15V72.7h0.96v4.85c0,0.25,0.11,0.37,0.33,0.37h0.31v0.89h-0.65c-0.28,0-0.51-0.09-0.68-0.27
		c-0.18-0.18-0.26-0.41-0.26-0.69V77.77z M53.74,78.07c0.29,0,0.55-0.05,0.79-0.16c0.24-0.11,0.45-0.26,0.62-0.46
		c0.17-0.2,0.31-0.43,0.41-0.71c0.1-0.28,0.15-0.58,0.15-0.92v-0.15c0-0.33-0.05-0.63-0.15-0.9c-0.1-0.27-0.24-0.51-0.41-0.71
		s-0.39-0.35-0.63-0.46c-0.24-0.11-0.5-0.17-0.78-0.17c-0.29,0-0.55,0.05-0.79,0.16c-0.24,0.11-0.45,0.26-0.62,0.45
		c-0.18,0.19-0.31,0.43-0.41,0.7c-0.1,0.27-0.15,0.58-0.15,0.91v0.2c0,0.7,0.18,1.24,0.55,1.63C52.68,77.87,53.16,78.07,53.74,78.07
		z"/>
	<path d="M68.18,73.39c0-0.24,0.08-0.44,0.25-0.61c0.17-0.17,0.37-0.25,0.61-0.25c0.24,0,0.44,0.08,0.61,0.25
		c0.17,0.17,0.25,0.37,0.25,0.61c0,0.24-0.08,0.44-0.25,0.61c-0.17,0.17-0.37,0.25-0.61,0.25c-0.24,0-0.44-0.08-0.61-0.25
		C68.27,73.83,68.18,73.63,68.18,73.39z M68.18,78.12c0-0.24,0.08-0.44,0.25-0.61c0.17-0.17,0.37-0.25,0.61-0.25
		c0.24,0,0.44,0.08,0.61,0.25c0.17,0.17,0.25,0.37,0.25,0.61c0,0.24-0.08,0.44-0.25,0.61c-0.17,0.17-0.37,0.25-0.61,0.25
		c-0.24,0-0.44-0.08-0.61-0.25C68.27,78.56,68.18,78.36,68.18,78.12z"/>
	<path d="M79.53,79.82v0.91h-0.44c-0.57,0-1.12-0.11-1.65-0.32c-0.53-0.21-0.99-0.52-1.39-0.93c-0.4-0.41-0.72-0.9-0.96-1.47
		c-0.24-0.57-0.36-1.23-0.36-1.96v-3.1c0-0.72,0.12-1.37,0.36-1.95c0.24-0.58,0.56-1.07,0.96-1.48c0.4-0.41,0.87-0.72,1.39-0.93
		c0.53-0.21,1.08-0.32,1.65-0.32h0.44v0.91h-0.44c-0.44,0-0.87,0.09-1.28,0.26c-0.41,0.18-0.77,0.43-1.08,0.76
		c-0.31,0.33-0.56,0.73-0.75,1.2c-0.19,0.47-0.28,1-0.28,1.59v3c0,0.59,0.09,1.12,0.28,1.59c0.19,0.47,0.44,0.87,0.75,1.2
		s0.67,0.58,1.08,0.76c0.41,0.18,0.84,0.26,1.28,0.26H79.53z"/>
	<rect x="53.23" width="2.89" height="2.89"/>
</g>
</svg>
