<?xml version="1.0" encoding="utf-8"?>
<!-- Generator: Adobe Illustrator 26.5.0, SVG Export Plug-In . SVG Version: 6.00 Build 0)  -->
<svg version="1.1" id="Layer_1" xmlns="http://www.w3.org/2000/svg" xmlns:xlink="http://www.w3.org/1999/xlink" x="0px" y="0px"
	 viewBox="0 0 312 171.9" style="enable-background:new 0 0 312 171.9;" xml:space="preserve">
<style type="text/css">
	.pst0{fill:#1D1D1E;}
	.st1{fill:#184FD6;}
	.st2{font-weight: bold;}
	.st3{font-size:11px;}
</style>
<g>
	<g>
		<path class="pst0" d="M272.9,8.3c-0.3-0.8-0.7-1.4-1.2-1.9s-1.1-0.9-1.8-1.2c-0.7-0.3-1.4-0.4-2.1-0.4c-0.9,0-1.7,0.2-2.5,0.6
			c-0.8,0.4-1.4,0.9-1.8,1.7h-0.3V5.1h-1.9v15.7h1.9v-5.3h0.3c0.2,0.4,0.5,0.7,0.8,1c0.3,0.3,0.7,0.5,1,0.7s0.8,0.3,1.2,0.4
			s0.8,0.1,1.2,0.1c0.8,0,1.5-0.1,2.2-0.4c0.7-0.3,1.3-0.7,1.8-1.2c0.5-0.5,0.9-1.2,1.2-1.9c0.3-0.8,0.5-1.7,0.5-2.7v-0.5
			C273.4,9.9,273.2,9.1,272.9,8.3z M271.4,11.4c0,0.7-0.1,1.3-0.3,1.8c-0.2,0.6-0.5,1-0.9,1.4c-0.4,0.4-0.8,0.7-1.3,0.9
			c-0.5,0.2-1,0.3-1.6,0.3c-0.6,0-1.1-0.1-1.6-0.3c-0.5-0.2-0.9-0.5-1.3-0.9c-0.4-0.4-0.7-0.9-0.9-1.4s-0.3-1.2-0.3-1.8V11
			c0-0.7,0.1-1.3,0.3-1.8c0.2-0.6,0.5-1,0.9-1.4c0.4-0.4,0.8-0.7,1.3-0.9c0.5-0.2,1-0.3,1.6-0.3s1.1,0.1,1.6,0.3s0.9,0.5,1.3,0.9
			s0.7,0.8,0.9,1.4c0.2,0.5,0.3,1.1,0.3,1.8V11.4z"/>
		<polygon class="pst0" points="276.1,15.5 280.4,15.5 280.4,6.8 276.5,6.8 276.5,5.1 282.3,5.1 282.3,15.5 286.4,15.5 286.4,17.3 
			276.1,17.3 		"/>
		<path class="pst0" d="M296.8,6.8V5.1h-4.7V0h-1.9v5.1h-3.9v1.8h3.9v8.6c0,0.6,0.2,1,0.5,1.4s0.8,0.5,1.4,0.5h4.2v-1.8h-3.5
			c-0.4,0-0.7-0.2-0.7-0.7v-8H296.8z"/>
		<path class="pst0" d="M311.4,15.5c-0.5,0-0.7-0.2-0.7-0.7V5.1h-1.9V7h-0.3c-0.4-0.8-0.9-1.3-1.6-1.7c-0.7-0.4-1.5-0.6-2.3-0.6
			c-0.8,0-1.5,0.1-2.2,0.4s-1.3,0.7-1.8,1.2c-0.5,0.5-0.9,1.2-1.2,2c-0.3,0.8-0.4,1.7-0.4,2.7v0.4c0,1,0.1,1.9,0.4,2.7
			c0.3,0.8,0.7,1.4,1.2,2c0.5,0.5,1.1,0.9,1.8,1.2c0.7,0.3,1.4,0.4,2.2,0.4c0.8,0,1.5-0.2,2.2-0.6c0.7-0.4,1.2-1,1.6-1.8h0.3v0.1
			c0,0.6,0.2,1,0.5,1.4c0.4,0.4,0.8,0.5,1.4,0.5h1.3v-1.8L311.4,15.5L311.4,15.5z M308.8,11.3c0,0.7-0.1,1.3-0.3,1.8
			c-0.2,0.6-0.5,1-0.8,1.4c-0.4,0.4-0.8,0.7-1.2,0.9c-0.5,0.2-1,0.3-1.6,0.3c-1.2,0-2.1-0.4-2.9-1.2c-0.7-0.8-1.1-1.9-1.1-3.3V11
			c0-0.7,0.1-1.3,0.3-1.8c0.2-0.6,0.5-1,0.8-1.4c0.4-0.4,0.8-0.7,1.2-0.9c0.5-0.2,1-0.3,1.6-0.3c0.6,0,1.1,0.1,1.6,0.3
			c0.5,0.2,0.9,0.5,1.3,0.9s0.6,0.9,0.8,1.4c0.2,0.6,0.3,1.2,0.3,1.8L308.8,11.3L308.8,11.3z"/>
		<g>
			<path class="pst0" d="M272.9,29c-0.3-0.8-0.7-1.4-1.2-2c-0.5-0.5-1.1-0.9-1.8-1.2s-1.4-0.4-2.1-0.4c-0.9,0-1.7,0.2-2.5,0.6
				c-0.8,0.4-1.4,1-1.8,1.7h-0.3V23h-1.9V38h1.9v-1.9h0.3c0.2,0.4,0.5,0.7,0.8,1c0.3,0.3,0.7,0.5,1,0.7s0.8,0.3,1.2,0.4
				c0.4,0.1,0.8,0.1,1.2,0.1c0.8,0,1.5-0.1,2.2-0.4s1.3-0.7,1.8-1.2c0.5-0.5,0.9-1.2,1.2-2c0.3-0.8,0.5-1.7,0.5-2.7v-0.5
				C273.4,30.6,273.2,29.8,272.9,29z M271.4,32.1c0,0.7-0.1,1.3-0.3,1.8c-0.2,0.5-0.5,1-0.9,1.4c-0.4,0.4-0.8,0.7-1.3,0.9
				s-1,0.3-1.6,0.3c-0.6,0-1.1-0.1-1.6-0.3c-0.5-0.2-0.9-0.5-1.3-0.9c-0.4-0.4-0.7-0.9-0.9-1.4s-0.3-1.2-0.3-1.8v-0.3
				c0-0.7,0.1-1.3,0.3-1.8c0.2-0.5,0.5-1,0.9-1.4s0.8-0.7,1.3-0.9c0.5-0.2,1-0.3,1.6-0.3s1.1,0.1,1.6,0.3s0.9,0.5,1.3,0.9
				s0.7,0.9,0.9,1.4c0.2,0.5,0.3,1.1,0.3,1.8V32.1z"/>
			<path class="pst0" d="M287.8,36.2c-0.5,0-0.7-0.2-0.7-0.7v-9.7h-1.9v1.9h-0.3c-0.4-0.8-0.9-1.4-1.6-1.7c-0.7-0.4-1.5-0.6-2.3-0.6
				c-0.8,0-1.5,0.1-2.2,0.4s-1.3,0.7-1.8,1.2c-0.5,0.5-0.9,1.2-1.2,2c-0.3,0.8-0.5,1.7-0.5,2.7v0.4c0,1,0.1,1.9,0.5,2.7
				c0.3,0.8,0.7,1.4,1.2,2c0.5,0.5,1.1,0.9,1.8,1.2s1.4,0.4,2.2,0.4c0.8,0,1.5-0.2,2.2-0.6c0.7-0.4,1.2-1,1.6-1.8h0.3v0.2
				c0,0.6,0.2,1,0.5,1.4c0.4,0.4,0.8,0.5,1.4,0.5h1.3v-1.8L287.8,36.2L287.8,36.2z M285.2,32c0,0.7-0.1,1.3-0.3,1.8
				c-0.2,0.5-0.5,1-0.8,1.4c-0.4,0.4-0.8,0.7-1.2,0.9c-0.5,0.2-1,0.3-1.6,0.3c-1.2,0-2.1-0.4-2.9-1.2c-0.7-0.8-1.1-1.9-1.1-3.3v-0.4
				c0-0.7,0.1-1.3,0.3-1.8c0.2-0.5,0.5-1,0.8-1.4s0.8-0.7,1.2-0.9s1-0.3,1.6-0.3c0.6,0,1.1,0.1,1.6,0.3c0.5,0.2,0.9,0.5,1.3,0.9
				c0.4,0.4,0.6,0.9,0.8,1.4c0.2,0.5,0.3,1.2,0.3,1.8L285.2,32L285.2,32z"/>
			<path class="pst0" d="M301.7,26.6c-0.8-0.8-1.8-1.2-3-1.2c-0.7,0-1.4,0.2-2,0.5c-0.6,0.3-1,0.8-1.3,1.5h-0.3v-1.6h-4.5v1.8h2.5
				v8.7h-2.8V38h7.9v-1.8h-3.1V31c0-0.5,0.1-1,0.2-1.5c0.1-0.5,0.3-0.9,0.5-1.2c0.2-0.3,0.6-0.6,0.9-0.8c0.4-0.2,0.8-0.3,1.3-0.3
				c0.8,0,1.5,0.2,2,0.8c0.5,0.5,0.8,1.3,0.8,2.5l2-0.3C302.8,28.6,302.4,27.4,301.7,26.6z"/>
		</g>
		<rect x="279.8" y="0" class="pst0" width="2.9" height="2.8"/>
		<rect x="279.8" y="20.4" class="pst0" width="2.9" height="2.9"/>
	</g>
	<g>
		<path class="st1" d="M91.1,47.8h-1.2c-1.5,0-2.2-0.8-2.2-2.5V17.3c0-0.2-0.2-0.4-0.4-0.4h-9.6c-0.2,0-0.4,0.2-0.4,0.4v4.1
			c0,0.2-0.2,0.4-0.4,0.4h-0.8c-0.2,0-0.3-0.1-0.4-0.2c-1-2-2.4-3.4-4.1-4.4c-1.8-1-4.1-1.5-7-1.5c-2.4,0-4.7,0.5-6.8,1.4
			c-2.1,1-4,2.4-5.6,4.2s-2.9,4-3.8,6.6S47,33.4,47,36.6v1.3c0,3.3,0.5,6.2,1.4,8.8c1,2.6,2.3,4.8,3.9,6.6s3.5,3.2,5.7,4.1
			c2.2,0.9,4.5,1.4,7,1.4c2.6,0,4.9-0.5,6.9-1.6c1.9-1,3.4-2.8,4.5-5.2c0.1-0.2,0.2-0.2,0.4-0.2h0.8c0.2,0,0.4,0.2,0.4,0.4
			c0.1,1.6,0.7,2.9,1.8,3.9c1.2,1.1,2.7,1.7,4.6,1.7H91c0.2,0,0.4-0.2,0.4-0.4v-9.1C91.5,48,91.3,47.8,91.1,47.8z M77.3,37.8
			c0,3.5-0.9,6.2-2.7,8.2s-4.2,3-7.2,3s-5.4-1-7.2-3c-1.8-2-2.7-4.7-2.7-8.2v-1c0-3.5,0.9-6.2,2.7-8.2s4.2-3,7.2-3s5.4,1,7.2,3
			c1.8,2,2.7,4.7,2.7,8.2V37.8z"/>
		<path class="st1" d="M107.2,32.5c0.6-1.5,1.4-2.7,2.3-3.7c1-1,2.1-1.8,3.5-2.4c1.3-0.5,2.7-0.8,4.2-0.8c3.2,0,5.7,0.9,7.4,2.6
			c1.7,1.6,2.7,3.6,3.1,5.8c0,0.2,0.3,0.4,0.5,0.3l9.4-2.4c0.2,0,0.3-0.3,0.3-0.5c-1-4.6-3.2-8.4-6.6-11.3c-3.5-3-8.2-4.4-13.9-4.4
			c-3,0-5.8,0.5-8.4,1.5s-4.9,2.4-6.8,4.3c-1.9,1.9-3.5,4.1-4.6,6.8c-1.1,2.6-1.7,5.6-1.7,8.9v1c0,3.3,0.6,6.2,1.7,8.8
			c1.1,2.6,2.6,4.8,4.5,6.5s4.2,3.1,6.8,4c2.6,0.9,5.4,1.4,8.4,1.4c5.8,0,10.5-1.5,14-4.5c3.4-2.9,5.6-6.7,6.6-11.3
			c0-0.2-0.1-0.4-0.3-0.5l-9.4-2.3c-0.2-0.1-0.4,0.1-0.5,0.3c-0.5,2.5-1.6,4.5-3.2,6c-1.7,1.6-4.1,2.4-7.3,2.4
			c-1.5,0-2.9-0.2-4.2-0.7s-2.5-1.2-3.5-2.1s-1.8-2.1-2.3-3.5s-0.9-3-0.9-4.8v-0.5C106.4,35.5,106.7,33.9,107.2,32.5z"/>
		<path class="st1" d="M178.8,47.8h-11c-0.2,0-0.4-0.2-0.4-0.4V17.3c0-0.2-0.2-0.4-0.4-0.4h-22.4c-0.2,0-0.4,0.2-0.4,0.4v9.1
			c0,0.2,0.2,0.4,0.4,0.4h12c0.2,0,0.4,0.2,0.4,0.4v20.3c0,0.2-0.2,0.4-0.4,0.4h-13c-0.2,0-0.4,0.2-0.4,0.4v9.1
			c0,0.2,0.2,0.4,0.4,0.4h35.2c0.2,0,0.4-0.2,0.4-0.4v-9.1C179.2,48,179,47.8,178.8,47.8z"/>
		<path class="st1" d="M207.2,37.6c-0.1-0.1-0.1-0.2-0.1-0.2v-1.2c0-0.1,0-0.2,0.1-0.2l13.1-18.5c0,0,0.1-0.1,0.1-0.1l0,0
			c0-0.2-0.2-0.4-0.4-0.4h-10.8c-0.1,0-0.2,0.1-0.3,0.2l-10.6,14.6c-0.1,0.1-0.2,0.2-0.3,0.2h-1.4c-0.2,0-0.4-0.2-0.4-0.4v-31
			c0-0.2-0.2-0.4-0.4-0.4h-9.6c-0.2,0-0.4,0.2-0.4,0.4v56.8c0,0.2,0.2,0.4,0.4,0.4h9.6c0.2,0,0.4-0.2,0.4-0.4V42.1
			c0-0.2,0.2-0.4,0.4-0.4h1.4c0.1,0,0.2,0.1,0.3,0.2l11.4,15.6c0.1,0.1,0.2,0.2,0.3,0.2h11.2c0.2,0,0.4-0.2,0.4-0.4
			c0-0.1,0-0.1-0.1-0.2L207.2,37.6z"/>
		<path class="st1" d="M262.4,47.8h-11c-0.2,0-0.4-0.2-0.4-0.4V17.3c0-0.2-0.2-0.4-0.4-0.4h-22.4c-0.2,0-0.4,0.2-0.4,0.4v9.1
			c0,0.2,0.2,0.4,0.4,0.4h12c0.2,0,0.4,0.2,0.4,0.4v20.3c0,0.2-0.2,0.4-0.4,0.4h-13c-0.2,0-0.4,0.2-0.4,0.4v9.1
			c0,0.2,0.2,0.4,0.4,0.4h35.2c0.2,0,0.4-0.2,0.4-0.4v-9.1C262.8,48,262.6,47.8,262.4,47.8z"/>
		<path class="st1" d="M240.4,11h10.1c0.2,0,0.4-0.2,0.4-0.4V0.5c0-0.2-0.2-0.4-0.4-0.4h-10.1c-0.2,0-0.4,0.2-0.4,0.4v10.1
			C239.9,10.8,240.1,11,240.4,11z"/>
		<path class="st1" d="M278.7,47.8h-9c-0.2,0-0.4,0.2-0.4,0.4v9c0,0.2,0.2,0.4,0.4,0.4h9c0.2,0,0.4-0.2,0.4-0.4v-9
			C279.1,48,279,47.8,278.7,47.8z"/>
		<path class="st1" d="M156.5,11h10.1c0.2,0,0.4-0.2,0.4-0.4V0.5c0-0.2-0.2-0.4-0.4-0.4h-10.1c-0.2,0-0.4,0.2-0.4,0.4v10.1
			C156.1,10.8,156.3,11,156.5,11z"/>
		<path class="st1" d="M10.5,35.1c0.1-0.7,0.3-1.4,0.5-2.1c0.1-0.2,0.1-0.4,0.2-0.5c0.1-0.4,0.3-0.7,0.5-1c0.5-1,1.1-1.9,1.9-2.6
			l0,0c0.2-0.2,0.5-0.5,0.8-0.7c0.4-0.3,0.8-0.6,1.3-0.9c0.3-0.2,0.6-0.4,0.9-0.5c0.2-0.1,0.3-0.1,0.5-0.2c0.2-0.1,0.5-0.2,0.8-0.3
			c0.7-0.2,1.4-0.4,2.1-0.5c0.5,0,0.9-0.1,1.4-0.1c3.2,0,5.7,0.9,7.4,2.6l0,0c0.4,0.4,0.8,0.8,1.1,1.3c0.4,0.6,0.8,1.1,1.1,1.8
			c0.2,0.4,0.3,0.8,0.5,1.1c0.1,0.3,0.2,0.5,0.2,0.8c0.1,0.3,0.1,0.5,0.2,0.8c0,0.1,0,0.1,0.1,0.2c0.1,0.1,0.3,0.2,0.4,0.1l9.4-2.4
			c0,0,0,0,0.1,0c0.1,0,0.2-0.1,0.2-0.2c0,0,0,0,0,0c0,0,0-0.1,0-0.2c-1-4.6-3.2-8.4-6.6-11.3c-0.1-0.1-0.2-0.2-0.3-0.3
			c-0.3-0.3-0.7-0.5-1-0.8c-0.3-0.2-0.5-0.4-0.8-0.5c-0.2-0.1-0.3-0.2-0.5-0.3c-1.2-0.7-2.5-1.2-3.9-1.6c-0.6-0.2-1.2-0.3-1.8-0.5
			c-0.2,0-0.4-0.1-0.6-0.1c-0.3,0-0.6-0.1-0.9-0.1c-0.5-0.1-1-0.1-1.5-0.2c-0.7-0.1-1.3-0.1-2-0.1c0,0,0,0,0,0c-0.2,0-0.3,0-0.5,0h0
			c-3,0-5.8,0.5-8.4,1.5s-4.9,2.4-6.8,4.3c-1.9,1.9-3.5,4.1-4.6,6.8C0.6,30.9,0,33.8,0,37.1v1c0,0.8,0,1.6,0.1,2.4
			c0,0.4,0.1,0.8,0.1,1.2c0.1,0.6,0.2,1.1,0.3,1.7c0.1,0.4,0.2,0.7,0.3,1.1s0.2,0.7,0.3,1c0.2,0.5,0.4,1,0.6,1.5
			c0.1,0.3,0.3,0.6,0.4,1c1,2.2,2.4,4,4.1,5.6c0.1,0.1,0.2,0.2,0.4,0.3C6.8,54,7,54.2,7.3,54.4c0.3,0.2,0.5,0.4,0.8,0.6
			c0.9,0.7,1.9,1.2,3,1.7c0.6,0.3,1.2,0.5,1.9,0.8c2.6,0.9,5.4,1.4,8.4,1.4c4.4,0,8.1-0.8,11.1-2.5c0.2-0.1,0.5-0.3,0.8-0.4
			c0.2-0.2,0.5-0.3,0.7-0.5c0.5-0.3,0.9-0.7,1.4-1c0.3-0.3,0.6-0.5,0.9-0.8c2.9-2.8,4.7-6.2,5.6-10.5c0-0.2-0.1-0.4-0.2-0.5
			c0,0,0,0-0.1,0l-9.4-2.3c-0.2-0.1-0.5,0.1-0.5,0.3c-0.5,2.5-1.6,4.5-3.2,6c-1.7,1.6-4.1,2.4-7.3,2.4c-1.5,0-2.9-0.2-4.2-0.7
			s-2.5-1.2-3.5-2.1c-0.2-0.2-0.5-0.5-0.7-0.7c-0.4-0.5-0.8-1.1-1.2-1.8c-0.2-0.3-0.3-0.7-0.5-1c-0.1-0.2-0.1-0.3-0.2-0.5
			c-0.2-0.7-0.4-1.4-0.5-2.1c-0.1-0.7-0.2-1.4-0.2-2.2v-0.5C10.4,36.6,10.4,35.8,10.5,35.1z"/>
	</g>
</g>
<g>
	<rect x="171.6" y="92.8" class="st1" width="10.5" height="42.3"/>
	<path d="M195.7,103c-0.4,0-0.8-0.1-1.2-0.2c-0.4-0.1-0.7-0.3-0.9-0.5s-0.4-0.5-0.6-0.7s-0.2-0.6-0.2-0.9v-0.2
		c0-0.3,0.1-0.6,0.1-0.8s0.2-0.4,0.4-0.6s0.3-0.3,0.5-0.4c0.2-0.1,0.4-0.2,0.6-0.3v-0.2c-0.2-0.1-0.4-0.1-0.5-0.3s-0.3-0.2-0.4-0.4
		s-0.2-0.3-0.3-0.5c-0.1-0.2-0.1-0.4-0.1-0.7v-0.2c0-0.3,0.1-0.6,0.2-0.9c0.1-0.3,0.3-0.5,0.6-0.7c0.2-0.2,0.5-0.3,0.9-0.5
		s0.7-0.2,1.1-0.2h0.1c0.4,0,0.8,0.1,1.1,0.2s0.6,0.3,0.9,0.5c0.2,0.2,0.4,0.4,0.6,0.7s0.2,0.6,0.2,0.9v0.2c0,0.2,0,0.5-0.1,0.7
		c-0.1,0.2-0.2,0.4-0.3,0.5s-0.3,0.3-0.4,0.4c-0.2,0.1-0.3,0.2-0.5,0.3v0.2c0.2,0.1,0.4,0.1,0.6,0.3c0.2,0.1,0.4,0.3,0.5,0.4
		s0.3,0.4,0.4,0.6c0.1,0.2,0.1,0.5,0.1,0.8v0.2c0,0.3-0.1,0.7-0.2,0.9c-0.1,0.3-0.3,0.5-0.6,0.7s-0.6,0.4-0.9,0.5
		c-0.4,0.1-0.8,0.2-1.2,0.2H195.7z M195.9,102.1c0.6,0,1-0.1,1.4-0.4s0.5-0.7,0.5-1.1v-0.1c0-0.5-0.2-0.9-0.5-1.2s-0.8-0.4-1.4-0.4
		h-0.1c-0.6,0-1,0.1-1.4,0.4s-0.5,0.7-0.5,1.2v0.1c0,0.5,0.2,0.8,0.5,1.1s0.8,0.4,1.4,0.4H195.9z M195.8,97.9c0.5,0,0.9-0.1,1.3-0.4
		c0.3-0.3,0.5-0.6,0.5-1v-0.1c0-0.4-0.2-0.8-0.5-1s-0.7-0.4-1.3-0.4c-0.5,0-0.9,0.1-1.3,0.4s-0.5,0.6-0.5,1v0.1c0,0.4,0.2,0.8,0.5,1
		C194.9,97.8,195.3,97.9,195.8,97.9z"/>
	<path d="M200.3,97.6c0-1.1,0.3-2,0.8-2.6c0.5-0.6,1.3-0.9,2.2-0.9s1.7,0.3,2.2,0.9c0.5,0.6,0.8,1.5,0.8,2.6v1.9
		c0,1.2-0.3,2-0.8,2.6c-0.5,0.6-1.3,0.9-2.2,0.9s-1.7-0.3-2.2-0.9s-0.8-1.5-0.8-2.6V97.6z M203.3,102.1c0.7,0,1.2-0.2,1.5-0.7
		c0.3-0.5,0.5-1.1,0.5-2v-1.8c0-0.4,0-0.8-0.1-1.1s-0.2-0.6-0.4-0.8c-0.2-0.2-0.4-0.4-0.6-0.6c-0.2-0.1-0.5-0.2-0.9-0.2
		c-0.3,0-0.6,0.1-0.9,0.2c-0.2,0.1-0.4,0.3-0.6,0.6c-0.2,0.2-0.3,0.5-0.4,0.8c-0.1,0.3-0.1,0.7-0.1,1.1v1.8c0,0.8,0.2,1.5,0.5,2
		C202.2,101.8,202.7,102.1,203.3,102.1z M202.5,98.5c0-0.2,0.1-0.4,0.2-0.6c0.2-0.2,0.3-0.2,0.6-0.2s0.4,0.1,0.6,0.2
		c0.2,0.2,0.2,0.3,0.2,0.6c0,0.2-0.1,0.4-0.2,0.6c-0.2,0.2-0.3,0.2-0.6,0.2s-0.4-0.1-0.6-0.2C202.6,98.9,202.5,98.8,202.5,98.5z"/>
	<path d="M207.8,97.6c0-1.1,0.3-2,0.8-2.6c0.5-0.6,1.3-0.9,2.2-0.9s1.7,0.3,2.2,0.9c0.5,0.6,0.8,1.5,0.8,2.6v1.9
		c0,1.2-0.3,2-0.8,2.6c-0.5,0.6-1.3,0.9-2.2,0.9s-1.7-0.3-2.2-0.9s-0.8-1.5-0.8-2.6V97.6z M210.9,102.1c0.7,0,1.2-0.2,1.5-0.7
		c0.3-0.5,0.5-1.1,0.5-2v-1.8c0-0.4,0-0.8-0.1-1.1s-0.2-0.6-0.4-0.8c-0.2-0.2-0.4-0.4-0.6-0.6c-0.2-0.1-0.5-0.2-0.9-0.2
		c-0.3,0-0.6,0.1-0.9,0.2c-0.2,0.1-0.4,0.3-0.6,0.6c-0.2,0.2-0.3,0.5-0.4,0.8c-0.1,0.3-0.1,0.7-0.1,1.1v1.8c0,0.8,0.2,1.5,0.5,2
		C209.7,101.8,210.2,102.1,210.9,102.1z M210.1,98.5c0-0.2,0.1-0.4,0.2-0.6c0.2-0.2,0.3-0.2,0.6-0.2s0.4,0.1,0.6,0.2
		c0.2,0.2,0.2,0.3,0.2,0.6c0,0.2-0.1,0.4-0.2,0.6c-0.2,0.2-0.3,0.2-0.6,0.2s-0.4-0.1-0.6-0.2S210.1,98.8,210.1,98.5z"/>
	<path d="M215.4,97.6c0-1.1,0.3-2,0.8-2.6c0.5-0.6,1.3-0.9,2.2-0.9s1.7,0.3,2.2,0.9c0.5,0.6,0.8,1.5,0.8,2.6v1.9
		c0,1.2-0.3,2-0.8,2.6c-0.5,0.6-1.3,0.9-2.2,0.9s-1.7-0.3-2.2-0.9s-0.8-1.5-0.8-2.6V97.6z M218.4,102.1c0.7,0,1.2-0.2,1.5-0.7
		c0.3-0.5,0.5-1.1,0.5-2v-1.8c0-0.4,0-0.8-0.1-1.1s-0.2-0.6-0.4-0.8c-0.2-0.2-0.4-0.4-0.6-0.6c-0.2-0.1-0.5-0.2-0.9-0.2
		c-0.3,0-0.6,0.1-0.9,0.2c-0.2,0.1-0.4,0.3-0.6,0.6c-0.2,0.2-0.3,0.5-0.4,0.8c-0.1,0.3-0.1,0.7-0.1,1.1v1.8c0,0.8,0.2,1.5,0.5,2
		C217.2,101.8,217.7,102.1,218.4,102.1z M217.6,98.5c0-0.2,0.1-0.4,0.2-0.6c0.2-0.2,0.3-0.2,0.6-0.2s0.4,0.1,0.6,0.2
		c0.2,0.2,0.2,0.3,0.2,0.6c0,0.2-0.1,0.4-0.2,0.6c-0.2,0.2-0.3,0.2-0.6,0.2s-0.4-0.1-0.6-0.2C217.7,98.9,217.6,98.8,217.6,98.5z"/>
	<path d="M235.5,96.7c0-0.3-0.1-0.5-0.2-0.7s-0.3-0.4-0.4-0.5s-0.4-0.2-0.6-0.3c-0.2-0.1-0.5-0.1-0.8-0.1c-0.2,0-0.5,0-0.7,0.1
		c-0.2,0.1-0.4,0.2-0.6,0.3c-0.2,0.1-0.3,0.3-0.4,0.4c-0.1,0.2-0.1,0.4-0.1,0.6v0.1c0,0.2,0.1,0.4,0.1,0.6c0.1,0.2,0.2,0.3,0.4,0.4
		c0.2,0.1,0.4,0.2,0.7,0.3c0.3,0.1,0.6,0.2,1,0.2c0.9,0.1,1.6,0.4,2,0.8c0.4,0.4,0.6,0.9,0.6,1.6v0.2c0,0.4-0.1,0.7-0.2,1
		s-0.3,0.6-0.6,0.8s-0.6,0.4-0.9,0.5c-0.4,0.1-0.8,0.2-1.3,0.2c-0.6,0-1-0.1-1.5-0.2c-0.4-0.2-0.8-0.4-1.1-0.7
		c-0.3-0.3-0.5-0.6-0.6-1s-0.2-0.8-0.2-1.2v-0.4h1v0.3c0,0.8,0.2,1.3,0.6,1.7c0.4,0.4,1,0.6,1.7,0.6c0.6,0,1.1-0.1,1.4-0.4
		c0.3-0.3,0.5-0.7,0.5-1.1v-0.1c0-0.4-0.2-0.8-0.5-1c-0.3-0.2-0.9-0.4-1.6-0.5c-0.4-0.1-0.8-0.2-1.2-0.3c-0.4-0.1-0.6-0.3-0.9-0.5
		c-0.2-0.2-0.4-0.4-0.6-0.7c-0.1-0.3-0.2-0.6-0.2-1v-0.2c0-0.3,0.1-0.6,0.2-0.9s0.3-0.5,0.6-0.7c0.2-0.2,0.6-0.4,0.9-0.5
		c0.4-0.1,0.7-0.2,1.1-0.2c0.5,0,0.9,0.1,1.3,0.2s0.7,0.3,1,0.6c0.3,0.2,0.5,0.5,0.6,0.8c0.1,0.3,0.2,0.7,0.2,1v0.5h-1L235.5,96.7
		L235.5,96.7z"/>
	<path d="M243.7,102v0.9h-5.3v-1.5l4.4-3.6v-0.2h-4.3v-0.9h5.1v1.5l-4.4,3.6v0.2H243.7z"/>
	<path d="M245.8,96.7h1.9v-1.6c0-0.3,0.1-0.5,0.3-0.7c0.2-0.2,0.4-0.3,0.7-0.3h2.4v0.9h-2.1c-0.2,0-0.3,0.1-0.3,0.4v1.3h2.6v0.9
		h-2.6v5.2h-1v-5.2h-1.9L245.8,96.7L245.8,96.7z"/>
	<path d="M257,102.8h-1.9l-2.1-6.1h1.1l1.9,5.7h0.1l1.9-5.7h1.1L257,102.8z"/>
	<path d="M265.4,101.8h-0.1c-0.2,0.4-0.5,0.7-0.8,0.9c-0.4,0.2-0.7,0.3-1.1,0.3c-0.4,0-0.8-0.1-1.1-0.2c-0.3-0.1-0.6-0.3-0.9-0.6
		c-0.3-0.3-0.5-0.6-0.6-1c-0.1-0.4-0.2-0.8-0.2-1.3v-0.2c0-0.5,0.1-0.9,0.2-1.3s0.4-0.7,0.6-1c0.3-0.3,0.6-0.5,0.9-0.6
		s0.7-0.2,1.1-0.2c0.4,0,0.8,0.1,1.1,0.3c0.3,0.2,0.6,0.5,0.8,0.9h0.1v-1h1v4.8c0,0.2,0.1,0.4,0.3,0.4h0.3v0.9h-0.6
		c-0.3,0-0.5-0.1-0.7-0.3C265.5,102.4,265.4,102.2,265.4,101.8L265.4,101.8L265.4,101.8z M263.4,102.1c0.3,0,0.5-0.1,0.8-0.2
		c0.2-0.1,0.5-0.3,0.6-0.5c0.2-0.2,0.3-0.4,0.4-0.7s0.1-0.6,0.1-0.9v-0.2c0-0.3,0-0.6-0.1-0.9c-0.1-0.3-0.2-0.5-0.4-0.7
		c-0.2-0.2-0.4-0.3-0.6-0.5s-0.5-0.2-0.8-0.2c-0.3,0-0.5,0.1-0.8,0.2c-0.2,0.1-0.5,0.3-0.6,0.4c-0.2,0.2-0.3,0.4-0.4,0.7
		c-0.1,0.3-0.1,0.6-0.1,0.9v0.2c0,0.7,0.2,1.2,0.5,1.6C262.3,101.9,262.8,102.1,263.4,102.1z M264.7,94.4l-1,1.4h-0.9l0.8-1.4H264.7
		z"/>
	<path d="M268.1,96.7h2.2v0.8h0.1c0.2-0.3,0.4-0.6,0.7-0.7c0.3-0.2,0.6-0.2,1-0.2c0.6,0,1.1,0.2,1.5,0.6s0.6,1,0.6,1.8l-1,0.2
		c0-0.6-0.1-1-0.4-1.2c-0.3-0.2-0.6-0.4-1-0.4c-0.2,0-0.5,0.1-0.7,0.2c-0.2,0.1-0.3,0.2-0.5,0.4c-0.1,0.2-0.2,0.4-0.3,0.6
		c-0.1,0.2-0.1,0.5-0.1,0.7v2.6h1.5v0.9h-3.9V102h1.4v-4.3h-1.3L268.1,96.7L268.1,96.7z"/>
	<path d="M193,109h5.8v1.6l-5.2,6v0.1h5.3v1h-6.2v-1.6l5.2-6V110H193L193,109L193,109z"/>
	<path d="M201.9,113.1c0,0.3,0.1,0.5,0.4,0.7c0.2,0.2,0.7,0.3,1.4,0.3c0.7,0.1,1.3,0.2,1.6,0.5c0.4,0.3,0.6,0.7,0.6,1.2v0.1
		c0,0.3-0.1,0.6-0.2,0.8s-0.3,0.4-0.5,0.6c-0.2,0.2-0.5,0.3-0.8,0.4c-0.3,0.1-0.6,0.1-1,0.1c-0.5,0-0.9-0.1-1.2-0.2
		c-0.3-0.1-0.6-0.3-0.9-0.5c-0.2-0.2-0.4-0.4-0.5-0.7c-0.1-0.3-0.2-0.5-0.2-0.8l0.9-0.2c0,0.5,0.2,0.8,0.5,1.1
		c0.3,0.3,0.8,0.4,1.3,0.4c0.4,0,0.8-0.1,1.1-0.3c0.3-0.2,0.4-0.4,0.4-0.7c0-0.3-0.1-0.6-0.4-0.7s-0.7-0.2-1.3-0.3
		c-0.7-0.1-1.2-0.2-1.6-0.5s-0.6-0.7-0.6-1.2v-0.1c0-0.3,0.1-0.5,0.2-0.8s0.3-0.4,0.5-0.6s0.4-0.3,0.7-0.3c0.3-0.1,0.5-0.1,0.8-0.1
		c0.4,0,0.8,0.1,1.1,0.2s0.6,0.2,0.8,0.4c0.2,0.2,0.4,0.4,0.5,0.6s0.2,0.5,0.2,0.7l-0.9,0.2c0-0.4-0.2-0.7-0.5-0.9s-0.6-0.3-1.1-0.3
		c-0.2,0-0.3,0-0.5,0.1s-0.3,0.1-0.4,0.2c-0.1,0.1-0.2,0.2-0.3,0.3C201.9,112.8,201.9,112.9,201.9,113.1z"/>
	<path d="M213.9,114.6c0,0.5-0.1,1-0.2,1.3c-0.2,0.4-0.4,0.7-0.7,1c-0.3,0.3-0.6,0.5-1,0.6s-0.8,0.2-1.2,0.2c-0.4,0-0.8-0.1-1.2-0.2
		s-0.7-0.3-1-0.6s-0.5-0.6-0.7-1c-0.2-0.4-0.2-0.8-0.2-1.3v-0.2c0-0.5,0.1-0.9,0.2-1.3s0.4-0.7,0.7-1c0.3-0.3,0.6-0.5,1-0.6
		s0.8-0.2,1.2-0.2c0.4,0,0.8,0.1,1.2,0.2c0.4,0.1,0.7,0.3,1,0.6c0.3,0.3,0.5,0.6,0.7,1s0.2,0.8,0.2,1.3L213.9,114.6L213.9,114.6z
		 M210.9,116.9c0.3,0,0.6-0.1,0.8-0.1c0.2-0.1,0.5-0.2,0.7-0.4s0.3-0.4,0.4-0.7c0.1-0.3,0.2-0.6,0.2-0.9v-0.2c0-0.3-0.1-0.6-0.2-0.9
		c-0.1-0.3-0.2-0.5-0.4-0.7s-0.4-0.3-0.7-0.5s-0.5-0.2-0.8-0.2c-0.3,0-0.6,0.1-0.8,0.2s-0.5,0.3-0.7,0.5s-0.3,0.4-0.4,0.7
		c-0.1,0.3-0.2,0.6-0.2,0.9v0.2c0,0.3,0.1,0.7,0.2,0.9s0.2,0.5,0.4,0.7s0.4,0.4,0.7,0.4C210.3,116.8,210.6,116.9,210.9,116.9z"/>
	<path d="M215.7,116.7h2.2v-6.8h-2.1V109h3.1v7.7h2.2v0.9h-5.4L215.7,116.7L215.7,116.7z"/>
	<path d="M223,111.5h1.9V109h1v2.5h2.4v0.9h-2.4v4c0,0.2,0.1,0.4,0.3,0.4h1.7v0.9h-2.1c-0.3,0-0.5-0.1-0.7-0.3
		c-0.2-0.2-0.3-0.4-0.3-0.7v-4.3H223L223,111.5L223,111.5z"/>
	<path d="M242.7,111.5h1v6.1h-1v-1.1h-0.1c-0.2,0.4-0.5,0.7-0.8,0.9c-0.3,0.2-0.7,0.3-1.2,0.3c-0.3,0-0.6-0.1-0.9-0.2
		s-0.5-0.3-0.7-0.5s-0.4-0.5-0.5-0.8c-0.1-0.3-0.2-0.7-0.2-1.1v-3.6h1v3.5c0,0.6,0.1,1.1,0.4,1.4c0.3,0.3,0.7,0.4,1.2,0.4
		c0.6,0,1-0.2,1.4-0.6c0.3-0.4,0.5-0.9,0.5-1.6L242.7,111.5L242.7,111.5z"/>
	<path d="M245.6,111.5h1.9V109h1v2.5h2.4v0.9h-2.4v4c0,0.2,0.1,0.4,0.3,0.4h1.7v0.9h-2.1c-0.3,0-0.5-0.1-0.7-0.3
		c-0.2-0.2-0.3-0.4-0.3-0.7v-4.3h-1.9L245.6,111.5L245.6,111.5z"/>
	<path d="M259.1,115.5c-0.1,0.3-0.2,0.7-0.3,0.9s-0.4,0.5-0.6,0.7c-0.2,0.2-0.5,0.4-0.9,0.5c-0.3,0.1-0.7,0.2-1.1,0.2
		c-0.4,0-0.8-0.1-1.2-0.2s-0.7-0.3-1-0.6c-0.3-0.3-0.5-0.6-0.7-1c-0.2-0.4-0.2-0.8-0.2-1.3v-0.2c0-0.5,0.1-0.9,0.2-1.3
		s0.4-0.7,0.7-1c0.3-0.3,0.6-0.5,1-0.6c0.4-0.2,0.8-0.2,1.2-0.2c0.4,0,0.7,0.1,1.1,0.2c0.3,0.1,0.6,0.3,0.9,0.5s0.5,0.5,0.6,0.7
		c0.2,0.3,0.3,0.6,0.3,0.9l-1,0.2c0-0.2-0.1-0.4-0.2-0.6c-0.1-0.2-0.2-0.4-0.4-0.5s-0.4-0.3-0.6-0.4c-0.2-0.1-0.5-0.1-0.8-0.1
		c-0.3,0-0.6,0.1-0.8,0.2s-0.5,0.3-0.7,0.5c-0.2,0.2-0.4,0.4-0.5,0.7s-0.2,0.6-0.2,0.9v0.2c0,0.3,0.1,0.7,0.2,0.9s0.3,0.5,0.5,0.7
		c0.2,0.2,0.4,0.3,0.7,0.4c0.3,0.1,0.6,0.1,0.8,0.1s0.6-0.1,0.8-0.1c0.2-0.1,0.4-0.2,0.6-0.4c0.2-0.1,0.3-0.3,0.4-0.5
		c0.1-0.2,0.2-0.4,0.2-0.6L259.1,115.5z"/>
	<path d="M265.4,116.6h-0.1c-0.2,0.4-0.5,0.7-0.8,0.9s-0.7,0.3-1.1,0.3c-0.4,0-0.8-0.1-1.1-0.2c-0.3-0.1-0.6-0.3-0.9-0.6
		c-0.3-0.3-0.5-0.6-0.6-1c-0.1-0.4-0.2-0.8-0.2-1.3v-0.2c0-0.5,0.1-0.9,0.2-1.3s0.4-0.7,0.6-1c0.3-0.3,0.6-0.5,0.9-0.6
		s0.7-0.2,1.1-0.2c0.4,0,0.8,0.1,1.1,0.3c0.3,0.2,0.6,0.5,0.8,0.9h0.1v-1h1v4.9c0,0.2,0.1,0.4,0.3,0.4h0.3v0.9h-0.6
		c-0.3,0-0.5-0.1-0.7-0.3C265.5,117.2,265.4,117,265.4,116.6L265.4,116.6L265.4,116.6z M263.4,116.9c0.3,0,0.5-0.1,0.8-0.2
		c0.2-0.1,0.5-0.3,0.6-0.5c0.2-0.2,0.3-0.4,0.4-0.7s0.1-0.6,0.1-0.9v-0.2c0-0.3,0-0.6-0.1-0.9c-0.1-0.3-0.2-0.5-0.4-0.7
		c-0.2-0.2-0.4-0.3-0.6-0.5s-0.5-0.2-0.8-0.2c-0.3,0-0.5,0.1-0.8,0.2c-0.2,0.1-0.5,0.3-0.6,0.4c-0.2,0.2-0.3,0.4-0.4,0.7
		c-0.1,0.3-0.1,0.6-0.1,0.9v0.2c0,0.7,0.2,1.2,0.5,1.6C262.3,116.7,262.8,116.9,263.4,116.9z"/>
	<path d="M278.2,116.7v-7.2h-0.1l-1.4,3.2h-1v-0.1l1.6-3.6h2v7.7h2.4v1h-5.9v-1L278.2,116.7L278.2,116.7z"/>
	<path d="M285.4,116.9c0-0.2,0.1-0.4,0.2-0.6s0.4-0.2,0.6-0.2s0.4,0.1,0.6,0.2c0.2,0.2,0.2,0.4,0.2,0.6s-0.1,0.4-0.2,0.6
		s-0.4,0.2-0.6,0.2s-0.4-0.1-0.6-0.2C285.4,117.4,285.4,117.2,285.4,116.9z"/>
</g>
<g>
	<rect x="0.2" y="91.2" class="st1" width="10" height="80.7"/>
	<path d="M24.1,107.2h-2.9V95.8h2.9v1.7h0.4c0.3-0.6,0.7-1.1,1.3-1.5c0.6-0.3,1.3-0.5,2-0.5c0.5,0,1.1,0.1,1.5,0.3
		c0.5,0.2,0.9,0.4,1.3,0.8c0.4,0.4,0.6,0.8,0.9,1.4c0.2,0.6,0.3,1.2,0.3,2v7.2h-2.9v-6.4c0-0.8-0.2-1.4-0.6-1.9
		c-0.4-0.5-1-0.7-1.7-0.7c-0.9,0-1.5,0.3-1.9,0.9s-0.6,1.3-0.6,2.3C24.1,101.3,24.1,107.2,24.1,107.2z"/>
	<path d="M42.9,95.8h2.9V110c0,0.5-0.2,0.9-0.5,1.3c-0.3,0.3-0.8,0.5-1.3,0.5h-6.7V109h5c0.4,0,0.6-0.2,0.6-0.7v-2.8h-0.4
		c-0.5,1.3-1.6,2-3.2,2c-0.6,0-1.1-0.1-1.6-0.3s-0.9-0.5-1.3-0.8c-0.4-0.4-0.7-0.9-0.9-1.4s-0.3-1.2-0.3-2v-7.1h2.9v6.5
		c0,0.8,0.2,1.4,0.6,1.9s1,0.7,1.7,0.7c0.9,0,1.5-0.3,1.9-0.8c0.4-0.6,0.6-1.3,0.6-2.3C42.9,101.8,42.9,95.8,42.9,95.8z"/>
	<polygon points="49.4,104.4 53.2,104.4 53.2,98.6 49.7,98.6 49.7,95.8 56.1,95.8 56.1,104.4 59.4,104.4 59.4,107.2 49.4,107.2 	"/>
	<path d="M61.5,95.8h3.4v-4.7h2.9v4.7h4.1v2.7h-4.1v5.2c0,0.5,0.2,0.7,0.6,0.7h3.1v2.7h-4.8c-0.5,0-0.9-0.2-1.3-0.5
		c-0.3-0.3-0.5-0.8-0.5-1.3v-6.8h-3.4C61.5,98.6,61.5,95.8,61.5,95.8z"/>
	<path d="M75,95.8h3.1l2.7,10h0.4l2.7-10H87l-3.2,11.3h-5.5L75,95.8z"/>
	<path d="M97.1,105.5c-0.3,0.7-0.7,1.2-1.3,1.5c-0.6,0.3-1.2,0.4-1.9,0.4c-0.7,0-1.3-0.1-1.9-0.4s-1.1-0.6-1.6-1.1s-0.8-1.1-1.1-1.8
		c-0.3-0.7-0.4-1.5-0.4-2.4v-0.4c0-0.9,0.1-1.7,0.4-2.4s0.6-1.3,1.1-1.8c0.4-0.5,1-0.9,1.5-1.2c0.6-0.3,1.2-0.4,1.9-0.4
		c0.8,0,1.5,0.1,1.9,0.4c0.5,0.3,0.9,0.7,1.2,1.3h0.4v-1.4h2.9v7.9c0,0.5,0.2,0.7,0.6,0.7h0.4v2.7h-2c-0.5,0-0.9-0.2-1.3-0.5
		c-0.3-0.3-0.5-0.7-0.5-1.2L97.1,105.5L97.1,105.5z M94.5,104.8c0.8,0,1.5-0.3,2-0.8c0.5-0.6,0.8-1.3,0.8-2.3v-0.3
		c0-1-0.2-1.7-0.8-2.3c-0.5-0.6-1.2-0.8-2-0.8c-0.8,0-1.5,0.3-2,0.8c-0.5,0.6-0.8,1.3-0.8,2.3v0.3c0,1,0.2,1.7,0.8,2.3
		C93,104.5,93.7,104.8,94.5,104.8z"/>
	<path d="M22.9,122.1h0.2l2.3-2.5h1.2v0.1l-2.5,2.8v0.2l2.8,2.9v0.1h-1.2l-2.6-2.7h-0.2v2.7h-1V117h1V122.1z"/>
	<path d="M29.6,122.9c0,0.6,0.2,1.1,0.6,1.5c0.4,0.4,0.9,0.6,1.5,0.6c0.3,0,0.5,0,0.8-0.1c0.2-0.1,0.4-0.2,0.5-0.3
		c0.2-0.1,0.3-0.2,0.4-0.4c0.1-0.2,0.2-0.3,0.2-0.5l0.9,0.2c-0.2,0.6-0.5,1-1,1.4s-1.1,0.5-1.9,0.5c-0.4,0-0.8-0.1-1.2-0.2
		c-0.4-0.2-0.7-0.4-0.9-0.7s-0.5-0.6-0.6-1c-0.1-0.4-0.2-0.8-0.2-1.3v-0.3c0-0.4,0.1-0.8,0.2-1.2s0.4-0.7,0.6-0.9
		c0.3-0.3,0.6-0.5,1-0.6c0.4-0.2,0.8-0.2,1.2-0.2c0.5,0,0.9,0.1,1.3,0.3c0.4,0.2,0.7,0.4,0.9,0.7c0.2,0.3,0.4,0.6,0.5,0.9
		s0.2,0.6,0.2,0.9v0.8L29.6,122.9L29.6,122.9z M31.6,120.3c-0.3,0-0.5,0-0.8,0.1c-0.2,0.1-0.4,0.2-0.6,0.4c-0.2,0.2-0.3,0.3-0.4,0.6
		c-0.1,0.2-0.2,0.4-0.2,0.7h3.9c0-0.3-0.1-0.5-0.2-0.7c-0.1-0.2-0.2-0.4-0.4-0.5s-0.4-0.3-0.6-0.3C32.1,120.3,31.9,120.3,31.6,120.3
		z"/>
	<path d="M41.2,124.7H41c-0.1,0.2-0.2,0.3-0.4,0.5c-0.2,0.1-0.3,0.2-0.5,0.3c-0.2,0.1-0.4,0.2-0.6,0.2c-0.2,0-0.4,0.1-0.6,0.1
		c-0.4,0-0.8-0.1-1.2-0.2c-0.3-0.1-0.7-0.3-0.9-0.6s-0.5-0.6-0.6-1c-0.2-0.4-0.2-0.8-0.2-1.3v-0.2c0-0.5,0.1-0.9,0.2-1.3
		c0.2-0.4,0.4-0.7,0.6-1c0.3-0.3,0.6-0.5,0.9-0.6s0.7-0.2,1.1-0.2c0.4,0,0.8,0.1,1.2,0.3c0.4,0.2,0.7,0.5,0.8,0.9h0.2v-3.5h1v8.6h-1
		L41.2,124.7L41.2,124.7z M39.1,124.9c0.3,0,0.5-0.1,0.8-0.2s0.5-0.3,0.7-0.5s0.3-0.4,0.4-0.7c0.1-0.3,0.2-0.6,0.2-0.9v-0.2
		c0-0.3,0-0.6-0.2-0.9c-0.1-0.3-0.2-0.5-0.4-0.7c-0.2-0.2-0.4-0.3-0.7-0.5s-0.5-0.2-0.8-0.2c-0.3,0-0.6,0.1-0.8,0.2
		s-0.5,0.3-0.7,0.5s-0.3,0.4-0.4,0.7s-0.2,0.6-0.2,0.9v0.2c0,0.3,0,0.7,0.2,0.9c0.1,0.3,0.2,0.5,0.4,0.7c0.2,0.2,0.4,0.3,0.7,0.4
		S38.8,124.9,39.1,124.9z"/>
	<path d="M48.7,124.7h-0.2c-0.1,0.2-0.2,0.3-0.4,0.5c-0.2,0.1-0.3,0.2-0.5,0.3c-0.2,0.1-0.4,0.2-0.6,0.2c-0.2,0-0.4,0.1-0.6,0.1
		c-0.4,0-0.8-0.1-1.2-0.2c-0.3-0.1-0.7-0.3-0.9-0.6s-0.5-0.6-0.6-1c-0.2-0.4-0.2-0.8-0.2-1.3v-0.2c0-0.5,0.1-0.9,0.2-1.3
		c0.2-0.4,0.4-0.7,0.6-1c0.3-0.3,0.6-0.5,0.9-0.6s0.7-0.2,1.1-0.2c0.4,0,0.8,0.1,1.2,0.3c0.4,0.2,0.7,0.5,0.8,0.9h0.2v-3.5h1v8.6h-1
		L48.7,124.7L48.7,124.7z M46.7,124.9c0.3,0,0.5-0.1,0.8-0.2s0.5-0.3,0.7-0.5s0.3-0.4,0.4-0.7c0.1-0.3,0.2-0.6,0.2-0.9v-0.2
		c0-0.3,0-0.6-0.2-0.9c-0.1-0.3-0.2-0.5-0.4-0.7c-0.2-0.2-0.4-0.3-0.7-0.5s-0.5-0.2-0.8-0.2c-0.3,0-0.6,0.1-0.8,0.2
		s-0.5,0.3-0.7,0.5s-0.3,0.4-0.4,0.7s-0.2,0.6-0.2,0.9v0.2c0,0.3,0,0.7,0.2,0.9c0.1,0.3,0.2,0.5,0.4,0.7c0.2,0.2,0.4,0.3,0.7,0.4
		S46.3,124.9,46.7,124.9z"/>
	<path d="M59.9,122h3.7v0.9h-3.7V122z"/>
	<path d="M75.4,121.1c0,0.3,0.1,0.5,0.4,0.7c0.2,0.2,0.7,0.3,1.4,0.3c0.7,0.1,1.3,0.2,1.6,0.5c0.4,0.3,0.6,0.7,0.6,1.2v0.1
		c0,0.3-0.1,0.6-0.2,0.8s-0.3,0.4-0.5,0.6c-0.2,0.2-0.5,0.3-0.8,0.4s-0.6,0.1-1,0.1c-0.5,0-0.9-0.1-1.2-0.2
		c-0.3-0.1-0.6-0.3-0.8-0.5c-0.2-0.2-0.4-0.4-0.5-0.7c-0.1-0.3-0.2-0.5-0.2-0.8l0.9-0.2c0,0.5,0.2,0.8,0.5,1.1
		c0.3,0.3,0.8,0.4,1.3,0.4c0.4,0,0.8-0.1,1.1-0.3c0.3-0.2,0.4-0.4,0.4-0.8c0-0.3-0.1-0.6-0.4-0.7c-0.3-0.2-0.7-0.2-1.3-0.3
		c-0.7-0.1-1.2-0.2-1.6-0.5s-0.6-0.7-0.6-1.2v-0.1c0-0.3,0.1-0.5,0.2-0.8s0.3-0.4,0.5-0.6s0.4-0.3,0.7-0.3s0.5-0.1,0.8-0.1
		c0.4,0,0.8,0.1,1.1,0.2c0.3,0.1,0.6,0.2,0.8,0.4c0.2,0.2,0.4,0.4,0.5,0.6s0.2,0.5,0.2,0.7l-0.9,0.2c0-0.4-0.2-0.7-0.5-0.9
		c-0.3-0.2-0.6-0.3-1.1-0.3c-0.2,0-0.3,0-0.5,0.1s-0.3,0.1-0.4,0.2c-0.1,0.1-0.2,0.2-0.3,0.3C75.4,120.9,75.4,121,75.4,121.1z"/>
	<path d="M87,124.8v0.9h-5.3v-1.5l4.4-3.6v-0.2h-4.3v-0.9h5.1v1.5l-4.4,3.6v0.2H87z"/>
	<path d="M94.9,122.7c0,0.5-0.1,1-0.2,1.3s-0.4,0.7-0.7,1c-0.3,0.3-0.6,0.5-1,0.6s-0.8,0.2-1.2,0.2c-0.4,0-0.8-0.1-1.2-0.2
		c-0.4-0.1-0.7-0.3-1-0.6c-0.3-0.3-0.5-0.6-0.7-1c-0.2-0.4-0.2-0.8-0.2-1.3v-0.2c0-0.5,0.1-0.9,0.2-1.3s0.4-0.7,0.7-1
		c0.3-0.3,0.6-0.5,1-0.6s0.8-0.2,1.2-0.2s0.8,0.1,1.2,0.2s0.7,0.3,1,0.6c0.3,0.3,0.5,0.6,0.7,1s0.2,0.8,0.2,1.3L94.9,122.7
		L94.9,122.7z M91.9,124.9c0.3,0,0.6-0.1,0.8-0.2s0.5-0.2,0.7-0.4s0.3-0.4,0.4-0.7c0.1-0.3,0.2-0.6,0.2-0.9v-0.2
		c0-0.3-0.1-0.6-0.2-0.9c-0.1-0.3-0.2-0.5-0.4-0.7s-0.4-0.3-0.7-0.5s-0.5-0.2-0.8-0.2c-0.3,0-0.6,0.1-0.8,0.2s-0.5,0.3-0.7,0.5
		c-0.2,0.2-0.3,0.4-0.4,0.7c-0.1,0.3-0.2,0.6-0.2,0.9v0.2c0,0.3,0.1,0.7,0.2,0.9s0.2,0.5,0.4,0.7s0.4,0.3,0.7,0.4
		C91.3,124.9,91.6,124.9,91.9,124.9z"/>
	<path d="M102.6,125.7h-1v-4.4c0-0.3-0.1-0.5-0.2-0.7c-0.1-0.2-0.3-0.3-0.6-0.3c-0.3,0-0.5,0.1-0.7,0.3c-0.2,0.2-0.2,0.5-0.2,0.9
		v4.1h-1v-4.4c0-0.3-0.1-0.5-0.2-0.7s-0.3-0.3-0.6-0.3c-0.3,0-0.5,0.1-0.7,0.3s-0.2,0.5-0.2,0.8v4.2h-1v-6.1h1v0.7h0.2
		c0.1-0.3,0.3-0.5,0.5-0.6c0.2-0.1,0.4-0.2,0.7-0.2c0.3,0,0.5,0.1,0.7,0.2c0.2,0.2,0.3,0.4,0.4,0.6h0.2c0.3-0.6,0.7-0.8,1.3-0.8
		c0.5,0,0.8,0.2,1.1,0.4s0.4,0.7,0.4,1.1L102.6,125.7L102.6,125.7z"/>
	<path d="M105,125.7h-1V117h1v3.5h0.2c0.2-0.4,0.5-0.7,0.9-0.8c0.4-0.2,0.8-0.3,1.2-0.3c0.4,0,0.7,0.1,1.1,0.2s0.6,0.3,0.9,0.6
		s0.5,0.6,0.6,1c0.2,0.4,0.2,0.8,0.2,1.3v0.2c0,0.5-0.1,0.9-0.2,1.3s-0.3,0.7-0.6,1s-0.6,0.5-0.9,0.6c-0.3,0.1-0.7,0.2-1.1,0.2
		c-0.2,0-0.4,0-0.6-0.1c-0.2-0.1-0.4-0.1-0.6-0.2c-0.2-0.1-0.4-0.2-0.5-0.3c-0.2-0.1-0.3-0.3-0.4-0.5H105L105,125.7L105,125.7z
		 M107,124.9c0.3,0,0.6-0.1,0.8-0.2s0.5-0.2,0.7-0.4c0.2-0.2,0.3-0.4,0.4-0.7c0.1-0.3,0.2-0.6,0.2-0.9v-0.2c0-0.3-0.1-0.6-0.2-0.9
		c-0.1-0.3-0.2-0.5-0.4-0.7s-0.4-0.3-0.7-0.4s-0.5-0.2-0.8-0.2s-0.6,0.1-0.8,0.2s-0.5,0.3-0.7,0.5c-0.2,0.2-0.3,0.4-0.4,0.7
		s-0.2,0.6-0.2,0.9v0.2c0,0.3,0.1,0.6,0.2,0.9s0.2,0.5,0.4,0.7s0.4,0.3,0.7,0.5C106.5,124.9,106.7,124.9,107,124.9z"/>
	<path d="M116.2,124.6h-0.2c-0.2,0.4-0.5,0.7-0.8,0.9c-0.3,0.2-0.7,0.3-1.1,0.3c-0.4,0-0.8-0.1-1.1-0.2c-0.3-0.1-0.7-0.3-0.9-0.6
		c-0.3-0.3-0.5-0.6-0.6-1c-0.2-0.4-0.2-0.8-0.2-1.3v-0.2c0-0.5,0.1-0.9,0.2-1.3s0.3-0.7,0.6-1c0.3-0.3,0.6-0.5,0.9-0.6
		c0.3-0.1,0.7-0.2,1.1-0.2c0.4,0,0.8,0.1,1.1,0.3c0.3,0.2,0.6,0.5,0.8,0.9h0.2v-1h1v4.8c0,0.2,0.1,0.4,0.3,0.4h0.3v0.9h-0.7
		c-0.3,0-0.5-0.1-0.7-0.3C116.3,125.2,116.2,125,116.2,124.6L116.2,124.6L116.2,124.6z M114.2,124.9c0.3,0,0.6-0.1,0.8-0.2
		s0.4-0.3,0.6-0.5c0.2-0.2,0.3-0.4,0.4-0.7c0.1-0.3,0.2-0.6,0.2-0.9v-0.2c0-0.3-0.1-0.6-0.2-0.9c-0.1-0.3-0.2-0.5-0.4-0.7
		c-0.2-0.2-0.4-0.3-0.6-0.5s-0.5-0.2-0.8-0.2c-0.3,0-0.6,0.1-0.8,0.2s-0.4,0.3-0.6,0.4c-0.2,0.2-0.3,0.4-0.4,0.7
		c-0.1,0.3-0.2,0.6-0.2,0.9v0.2c0,0.7,0.2,1.2,0.6,1.6C113.2,124.7,113.7,124.9,114.2,124.9z"/>
	<path d="M119.1,119.6h1.9v-2.5h1v2.5h2.4v0.9H122v4c0,0.2,0.1,0.4,0.3,0.4h1.7v0.9H122c-0.3,0-0.5-0.1-0.7-0.3
		c-0.2-0.2-0.3-0.4-0.3-0.7v-4.3h-1.9L119.1,119.6L119.1,119.6z"/>
	<path d="M23.6,139.5v-7.2h-0.1l-1.4,3.2h-1v-0.1l1.6-3.6h2v7.7h2.4v1h-5.9v-1L23.6,139.5L23.6,139.5z"/>
	<path d="M31.1,139.5v-7.2H31l-1.4,3.2h-1v-0.1l1.6-3.6h2v7.7h2.4v1h-5.9v-1L31.1,139.5L31.1,139.5z"/>
	<path d="M38.3,135c0-0.2,0.1-0.4,0.2-0.6s0.4-0.2,0.6-0.2s0.4,0.1,0.6,0.2c0.2,0.2,0.2,0.4,0.2,0.6s-0.1,0.4-0.2,0.6
		s-0.4,0.2-0.6,0.2s-0.4-0.1-0.6-0.2C38.3,135.5,38.3,135.3,38.3,135z M38.3,139.8c0-0.2,0.1-0.4,0.2-0.6s0.4-0.2,0.6-0.2
		s0.4,0.1,0.6,0.2c0.2,0.2,0.2,0.4,0.2,0.6s-0.1,0.4-0.2,0.6s-0.4,0.2-0.6,0.2s-0.4-0.1-0.6-0.2C38.3,140.2,38.3,140,38.3,139.8z"/>
	<path d="M45.8,136.2v-1.4l2.8-1.8v-0.1h-4.9v-1h5.8v1.6l-2.8,1.8v0.1h0.5c0.3,0,0.6,0.1,1,0.2c0.3,0.1,0.6,0.3,0.8,0.5
		c0.2,0.2,0.4,0.5,0.6,0.8c0.1,0.3,0.2,0.6,0.2,1v0.2c0,0.4-0.1,0.7-0.2,1c-0.2,0.3-0.3,0.6-0.6,0.8c-0.3,0.2-0.6,0.4-0.9,0.6
		c-0.4,0.1-0.8,0.2-1.2,0.2c-0.5,0-0.9-0.1-1.3-0.2c-0.4-0.1-0.7-0.4-1-0.6s-0.5-0.6-0.6-0.9s-0.2-0.7-0.2-1.1v-0.7h1v0.6
		c0,0.3,0,0.6,0.2,0.8c0.1,0.2,0.2,0.4,0.4,0.6s0.4,0.3,0.7,0.4c0.2,0.1,0.5,0.1,0.8,0.1c0.3,0,0.5-0.1,0.8-0.1
		c0.2-0.1,0.4-0.2,0.6-0.4c0.2-0.2,0.3-0.4,0.4-0.6s0.2-0.4,0.2-0.7v-0.1c0-0.5-0.2-0.9-0.5-1.2c-0.3-0.3-0.7-0.4-1.2-0.4
		L45.8,136.2L45.8,136.2z"/>
	<path d="M51.2,135.2c0-1.1,0.3-2,0.8-2.6c0.5-0.6,1.3-0.9,2.2-0.9s1.7,0.3,2.2,0.9c0.5,0.6,0.8,1.5,0.8,2.6v1.9
		c0,1.1-0.3,2-0.8,2.6c-0.5,0.6-1.3,0.9-2.2,0.9s-1.7-0.3-2.2-0.9c-0.5-0.6-0.8-1.5-0.8-2.6V135.2z M54.2,139.7
		c0.7,0,1.2-0.2,1.5-0.7c0.3-0.5,0.5-1.1,0.5-2v-1.8c0-0.4,0-0.8-0.1-1.1c-0.1-0.3-0.2-0.6-0.4-0.8c-0.2-0.2-0.4-0.4-0.6-0.6
		s-0.5-0.2-0.9-0.2c-0.3,0-0.6,0.1-0.9,0.2c-0.2,0.1-0.5,0.3-0.6,0.6c-0.2,0.2-0.3,0.5-0.4,0.8c-0.1,0.3-0.1,0.7-0.1,1.1v1.8
		c0,0.9,0.2,1.5,0.5,2C53,139.4,53.5,139.7,54.2,139.7z M53.4,136.1c0-0.2,0.1-0.4,0.2-0.6c0.2-0.2,0.3-0.2,0.5-0.2s0.4,0.1,0.5,0.2
		c0.2,0.2,0.2,0.3,0.2,0.6s-0.1,0.4-0.2,0.6c-0.2,0.2-0.3,0.2-0.5,0.2s-0.4-0.1-0.5-0.2C53.5,136.5,53.4,136.4,53.4,136.1z"/>
	<path d="M67.4,136.8h3.7v0.9h-3.7V136.8z"/>
	<path d="M87.3,139.5v1h-5.8V139c0-0.4,0.1-0.7,0.2-1s0.3-0.5,0.6-0.8s0.5-0.4,0.9-0.5s0.7-0.3,1.2-0.4c0.7-0.2,1.3-0.4,1.6-0.7
		s0.5-0.7,0.5-1.1v-0.1c0-0.2,0-0.4-0.1-0.6c-0.1-0.2-0.2-0.4-0.3-0.6c-0.2-0.2-0.4-0.3-0.6-0.4s-0.5-0.1-0.9-0.1
		c-0.6,0-1.1,0.2-1.5,0.6s-0.5,0.9-0.5,1.5v0.5h-1v-0.6c0-0.4,0.1-0.8,0.2-1.1s0.3-0.7,0.6-1c0.2-0.3,0.6-0.5,0.9-0.7
		c0.4-0.2,0.8-0.2,1.3-0.2s0.9,0.1,1.3,0.2c0.4,0.1,0.7,0.4,0.9,0.6c0.2,0.2,0.4,0.5,0.6,0.9s0.2,0.6,0.2,1v0.2
		c0,0.7-0.2,1.2-0.6,1.7c-0.4,0.5-1.1,0.8-2,1c-0.8,0.2-1.4,0.4-1.7,0.7c-0.4,0.3-0.6,0.7-0.6,1.2v0.4H87.3z"/>
	<path d="M88.8,135.2c0-1.1,0.3-2,0.8-2.6c0.5-0.6,1.3-0.9,2.2-0.9c0.9,0,1.7,0.3,2.2,0.9c0.5,0.6,0.8,1.5,0.8,2.6v1.9
		c0,1.1-0.3,2-0.8,2.6c-0.5,0.6-1.3,0.9-2.2,0.9c-0.9,0-1.7-0.3-2.2-0.9c-0.5-0.6-0.8-1.5-0.8-2.6V135.2z M91.9,139.7
		c0.7,0,1.2-0.2,1.5-0.7c0.3-0.5,0.5-1.1,0.5-2v-1.8c0-0.4,0-0.8-0.1-1.1c-0.1-0.3-0.2-0.6-0.4-0.8c-0.2-0.2-0.4-0.4-0.6-0.6
		s-0.5-0.2-0.9-0.2c-0.3,0-0.6,0.1-0.9,0.2c-0.2,0.1-0.4,0.3-0.6,0.6c-0.2,0.2-0.3,0.5-0.4,0.8c-0.1,0.3-0.1,0.7-0.1,1.1v1.8
		c0,0.9,0.2,1.5,0.5,2C90.7,139.4,91.2,139.7,91.9,139.7z M91.1,136.1c0-0.2,0.1-0.4,0.2-0.6c0.2-0.2,0.3-0.2,0.6-0.2
		c0.2,0,0.4,0.1,0.6,0.2c0.2,0.2,0.2,0.3,0.2,0.6s-0.1,0.4-0.2,0.6c-0.2,0.2-0.3,0.2-0.6,0.2c-0.2,0-0.4-0.1-0.6-0.2
		C91.2,136.5,91.1,136.4,91.1,136.1z"/>
	<path d="M98.6,135c0-0.2,0.1-0.4,0.2-0.6s0.4-0.2,0.6-0.2s0.4,0.1,0.6,0.2s0.2,0.4,0.2,0.6s-0.1,0.4-0.2,0.6s-0.4,0.2-0.6,0.2
		s-0.4-0.1-0.6-0.2C98.6,135.5,98.6,135.3,98.6,135z M98.6,139.8c0-0.2,0.1-0.4,0.2-0.6s0.4-0.2,0.6-0.2s0.4,0.1,0.6,0.2
		s0.2,0.4,0.2,0.6s-0.1,0.4-0.2,0.6s-0.4,0.2-0.6,0.2s-0.4-0.1-0.6-0.2C98.6,140.2,98.6,140,98.6,139.8z"/>
	<path d="M103.9,135.2c0-1.1,0.3-2,0.8-2.6c0.5-0.6,1.3-0.9,2.2-0.9c0.9,0,1.7,0.3,2.2,0.9c0.5,0.6,0.8,1.5,0.8,2.6v1.9
		c0,1.1-0.3,2-0.8,2.6c-0.5,0.6-1.3,0.9-2.2,0.9c-0.9,0-1.7-0.3-2.2-0.9c-0.5-0.6-0.8-1.5-0.8-2.6V135.2z M106.9,139.7
		c0.7,0,1.2-0.2,1.5-0.7c0.3-0.5,0.5-1.1,0.5-2v-1.8c0-0.4,0-0.8-0.1-1.1c-0.1-0.3-0.2-0.6-0.4-0.8c-0.2-0.2-0.4-0.4-0.6-0.6
		s-0.5-0.2-0.9-0.2c-0.3,0-0.6,0.1-0.9,0.2c-0.2,0.1-0.4,0.3-0.6,0.6c-0.2,0.2-0.3,0.5-0.4,0.8c-0.1,0.3-0.1,0.7-0.1,1.1v1.8
		c0,0.9,0.2,1.5,0.5,2C105.8,139.4,106.3,139.7,106.9,139.7z M106.2,136.1c0-0.2,0.1-0.4,0.2-0.6c0.2-0.2,0.3-0.2,0.6-0.2
		c0.2,0,0.4,0.1,0.6,0.2c0.2,0.2,0.2,0.3,0.2,0.6s-0.1,0.4-0.2,0.6c-0.2,0.2-0.3,0.2-0.6,0.2c-0.2,0-0.4-0.1-0.6-0.2
		C106.2,136.5,106.2,136.4,106.2,136.1z"/>
	<path d="M111.4,135.2c0-1.1,0.3-2,0.8-2.6c0.5-0.6,1.3-0.9,2.2-0.9c0.9,0,1.7,0.3,2.2,0.9c0.5,0.6,0.8,1.5,0.8,2.6v1.9
		c0,1.1-0.3,2-0.8,2.6c-0.5,0.6-1.3,0.9-2.2,0.9c-0.9,0-1.7-0.3-2.2-0.9c-0.5-0.6-0.8-1.5-0.8-2.6V135.2z M114.5,139.7
		c0.7,0,1.2-0.2,1.5-0.7c0.3-0.5,0.5-1.1,0.5-2v-1.8c0-0.4,0-0.8-0.1-1.1c-0.1-0.3-0.2-0.6-0.4-0.8c-0.2-0.2-0.4-0.4-0.6-0.6
		s-0.5-0.2-0.9-0.2c-0.3,0-0.6,0.1-0.9,0.2c-0.2,0.1-0.4,0.3-0.6,0.6c-0.2,0.2-0.3,0.5-0.4,0.8c-0.1,0.3-0.1,0.7-0.1,1.1v1.8
		c0,0.9,0.2,1.5,0.5,2C113.3,139.4,113.8,139.7,114.5,139.7z M113.7,136.1c0-0.2,0.1-0.4,0.2-0.6c0.2-0.2,0.3-0.2,0.6-0.2
		c0.2,0,0.4,0.1,0.6,0.2c0.2,0.2,0.2,0.3,0.2,0.6s-0.1,0.4-0.2,0.6c-0.2,0.2-0.3,0.2-0.6,0.2c-0.2,0-0.4-0.1-0.6-0.2
		C113.8,136.5,113.7,136.4,113.7,136.1z"/>
	<path d="M25,155.2h-1.9l-2.1-6.1h1.1l1.9,5.7h0.1l1.9-5.7h1.1L25,155.2z"/>
	<path d="M33.3,154.2h-0.2c-0.2,0.4-0.5,0.7-0.8,0.9s-0.7,0.3-1.1,0.3c-0.4,0-0.8-0.1-1.1-0.2c-0.3-0.1-0.6-0.3-0.9-0.6
		c-0.3-0.3-0.5-0.6-0.6-1c-0.1-0.4-0.2-0.8-0.2-1.3v-0.2c0-0.5,0.1-0.9,0.2-1.3s0.4-0.7,0.6-1c0.3-0.3,0.6-0.5,0.9-0.6
		s0.7-0.2,1.1-0.2c0.4,0,0.8,0.1,1.1,0.3c0.3,0.2,0.6,0.5,0.8,0.9h0.2v-1h1v4.9c0,0.2,0.1,0.4,0.3,0.4h0.3v0.9h-0.7
		c-0.3,0-0.5-0.1-0.7-0.3C33.4,154.8,33.4,154.6,33.3,154.2L33.3,154.2L33.3,154.2z M31.4,154.5c0.3,0,0.5-0.1,0.8-0.2
		s0.5-0.3,0.6-0.5s0.3-0.4,0.4-0.7c0.1-0.3,0.2-0.6,0.2-0.9v-0.1c0-0.3,0-0.6-0.2-0.9c-0.1-0.3-0.2-0.5-0.4-0.7
		c-0.2-0.2-0.4-0.4-0.6-0.5c-0.2-0.1-0.5-0.2-0.8-0.2c-0.3,0-0.5,0.1-0.8,0.2c-0.2,0.1-0.5,0.3-0.6,0.4c-0.2,0.2-0.3,0.4-0.4,0.7
		c-0.1,0.3-0.1,0.6-0.1,0.9v0.2c0,0.7,0.2,1.2,0.5,1.6C30.3,154.3,30.8,154.5,31.4,154.5z"/>
	<path d="M37.7,150.7c0,0.3,0.1,0.5,0.4,0.7c0.2,0.2,0.7,0.3,1.4,0.3c0.7,0.1,1.3,0.2,1.6,0.5c0.4,0.3,0.6,0.7,0.6,1.2v0.1
		c0,0.3-0.1,0.6-0.2,0.8s-0.3,0.4-0.5,0.6c-0.2,0.2-0.5,0.3-0.8,0.4c-0.3,0.1-0.6,0.1-1,0.1c-0.5,0-0.9-0.1-1.2-0.2
		c-0.3-0.1-0.6-0.3-0.8-0.5c-0.2-0.2-0.4-0.4-0.5-0.7c-0.1-0.3-0.2-0.5-0.2-0.8l0.9-0.2c0,0.5,0.2,0.8,0.5,1.1
		c0.3,0.3,0.8,0.4,1.3,0.4c0.5,0,0.8-0.1,1.1-0.3c0.3-0.2,0.4-0.4,0.4-0.7c0-0.4-0.1-0.6-0.4-0.7c-0.3-0.1-0.7-0.2-1.3-0.3
		c-0.7-0.1-1.2-0.2-1.6-0.5s-0.6-0.7-0.6-1.2v-0.1c0-0.3,0.1-0.5,0.2-0.8s0.3-0.4,0.5-0.6c0.2-0.1,0.5-0.3,0.7-0.3s0.5-0.1,0.8-0.1
		c0.4,0,0.8,0.1,1.1,0.2c0.3,0.1,0.6,0.2,0.8,0.4c0.2,0.2,0.4,0.4,0.5,0.6s0.2,0.5,0.2,0.7l-0.9,0.2c0-0.4-0.2-0.7-0.5-0.9
		c-0.3-0.2-0.6-0.3-1.1-0.3c-0.2,0-0.3,0-0.5,0.1s-0.3,0.1-0.4,0.2c-0.1,0.1-0.2,0.2-0.3,0.3C37.7,150.4,37.7,150.5,37.7,150.7z"/>
	<path d="M48.4,154.2h-0.2c-0.2,0.4-0.5,0.7-0.8,0.9s-0.7,0.3-1.1,0.3c-0.4,0-0.8-0.1-1.1-0.2c-0.3-0.1-0.7-0.3-0.9-0.6
		c-0.3-0.3-0.5-0.6-0.6-1s-0.2-0.8-0.2-1.3v-0.2c0-0.5,0.1-0.9,0.2-1.3s0.3-0.7,0.6-1c0.3-0.3,0.6-0.5,0.9-0.6s0.7-0.2,1.1-0.2
		c0.4,0,0.8,0.1,1.1,0.3c0.3,0.2,0.6,0.5,0.8,0.9h0.2v-1h1v4.9c0,0.2,0.1,0.4,0.3,0.4H50v0.9h-0.7c-0.3,0-0.5-0.1-0.7-0.3
		C48.5,154.8,48.4,154.6,48.4,154.2L48.4,154.2L48.4,154.2z M46.4,154.5c0.3,0,0.5-0.1,0.8-0.2s0.5-0.3,0.6-0.5
		c0.2-0.2,0.3-0.4,0.4-0.7c0.1-0.3,0.2-0.6,0.2-0.9v-0.1c0-0.3,0-0.6-0.2-0.9c-0.1-0.3-0.2-0.5-0.4-0.7c-0.2-0.2-0.4-0.4-0.6-0.5
		s-0.5-0.2-0.8-0.2c-0.3,0-0.5,0.1-0.8,0.2s-0.5,0.3-0.6,0.4c-0.2,0.2-0.3,0.4-0.4,0.7c-0.1,0.3-0.2,0.6-0.2,0.9v0.2
		c0,0.7,0.2,1.2,0.5,1.6C45.4,154.3,45.8,154.5,46.4,154.5z M47.7,146.8l-1,1.4h-0.9l0.8-1.4H47.7z"/>
	<path d="M51.2,149.1h2.2v0.8h0.2c0.2-0.3,0.4-0.6,0.7-0.7c0.3-0.2,0.6-0.2,1-0.2c0.6,0,1.1,0.2,1.5,0.6c0.4,0.4,0.6,1,0.6,1.8
		l-1,0.1c0-0.6-0.1-1-0.4-1.2c-0.3-0.2-0.6-0.4-1-0.4c-0.2,0-0.5,0.1-0.7,0.1c-0.2,0.1-0.3,0.2-0.5,0.4c-0.1,0.2-0.2,0.4-0.3,0.6
		c-0.1,0.2-0.1,0.5-0.1,0.7v2.6h1.5v0.9H51v-0.9h1.4V150h-1.3L51.2,149.1L51.2,149.1z"/>
	<path d="M60,155.2h-1v-6.1h1v1h0.2c0.4-0.8,1-1.2,2-1.2c0.7,0,1.3,0.2,1.7,0.7c0.4,0.4,0.6,1.1,0.6,2v3.6h-1v-3.4
		c0-0.6-0.1-1.1-0.4-1.4s-0.7-0.5-1.2-0.5c-0.6,0-1,0.2-1.4,0.6c-0.3,0.4-0.5,0.9-0.5,1.6L60,155.2L60,155.2z"/>
	<path d="M71,154.2h-0.2c-0.2,0.4-0.5,0.7-0.8,0.9s-0.7,0.3-1.1,0.3c-0.4,0-0.8-0.1-1.1-0.2c-0.3-0.1-0.7-0.3-0.9-0.6
		c-0.3-0.3-0.5-0.6-0.6-1s-0.2-0.8-0.2-1.3v-0.2c0-0.5,0.1-0.9,0.2-1.3s0.3-0.7,0.6-1c0.3-0.3,0.6-0.5,0.9-0.6
		c0.3-0.1,0.7-0.2,1.1-0.2c0.4,0,0.8,0.1,1.1,0.3c0.3,0.2,0.6,0.5,0.8,0.9H71v-1h1v4.9c0,0.2,0.1,0.4,0.3,0.4h0.3v0.9h-0.7
		c-0.3,0-0.5-0.1-0.7-0.3C71.1,154.8,71,154.6,71,154.2L71,154.2L71,154.2z M69,154.5c0.3,0,0.6-0.1,0.8-0.2s0.4-0.3,0.6-0.5
		c0.2-0.2,0.3-0.4,0.4-0.7c0.1-0.3,0.2-0.6,0.2-0.9v-0.1c0-0.3-0.1-0.6-0.2-0.9c-0.1-0.3-0.2-0.5-0.4-0.7c-0.2-0.2-0.4-0.4-0.6-0.5
		s-0.5-0.2-0.8-0.2c-0.3,0-0.6,0.1-0.8,0.2s-0.4,0.3-0.6,0.4c-0.2,0.2-0.3,0.4-0.4,0.7c-0.1,0.3-0.2,0.6-0.2,0.9v0.2
		c0,0.7,0.2,1.2,0.6,1.6C68,154.3,68.4,154.5,69,154.5z"/>
	<path d="M74.8,157.7h-1v-8.6h1v1H75c0.2-0.4,0.5-0.6,0.9-0.8s0.8-0.3,1.2-0.3c0.4,0,0.7,0.1,1.1,0.2s0.6,0.3,0.9,0.6
		c0.3,0.3,0.5,0.6,0.6,1c0.2,0.4,0.2,0.8,0.2,1.3v0.2c0,0.5-0.1,0.9-0.2,1.3s-0.3,0.7-0.6,1s-0.6,0.5-0.9,0.6
		c-0.3,0.1-0.7,0.2-1.1,0.2c-0.2,0-0.4,0-0.6-0.1c-0.2,0-0.4-0.1-0.6-0.2s-0.4-0.2-0.5-0.4c-0.2-0.1-0.3-0.3-0.4-0.5h-0.2
		L74.8,157.7L74.8,157.7z M76.9,154.5c0.3,0,0.6-0.1,0.8-0.1c0.2-0.1,0.5-0.2,0.7-0.4c0.2-0.2,0.3-0.4,0.4-0.7s0.2-0.6,0.2-0.9V152
		c0-0.3-0.1-0.6-0.2-0.9c-0.1-0.3-0.2-0.5-0.4-0.7s-0.4-0.3-0.7-0.4s-0.5-0.2-0.8-0.2s-0.6,0.1-0.8,0.2s-0.5,0.3-0.7,0.5
		c-0.2,0.2-0.3,0.4-0.4,0.7c-0.1,0.3-0.2,0.6-0.2,0.9v0.1c0,0.3,0.1,0.6,0.2,0.9c0.1,0.3,0.2,0.5,0.4,0.7s0.4,0.4,0.7,0.5
		C76.3,154.4,76.6,154.5,76.9,154.5z"/>
	<path d="M93.2,145.3l0.9,0.3l-3.6,11l-0.9-0.3L93.2,145.3z"/>
	<path d="M105.2,155.2h-1v-8.6h1v3.6h0.2c0.2-0.4,0.4-0.7,0.8-0.9c0.3-0.2,0.8-0.3,1.2-0.3c0.7,0,1.2,0.2,1.6,0.7
		c0.4,0.4,0.6,1.1,0.6,2v3.6h-1v-3.4c0-0.6-0.1-1.1-0.4-1.4s-0.7-0.5-1.2-0.5c-0.6,0-1,0.2-1.4,0.6c-0.3,0.4-0.5,0.9-0.5,1.6
		C105.2,152,105.2,155.2,105.2,155.2z"/>
	<path d="M112.5,152.5c0,0.6,0.2,1.1,0.6,1.5c0.3,0.4,0.8,0.6,1.5,0.6c0.3,0,0.5,0,0.8-0.1s0.4-0.2,0.6-0.3s0.3-0.2,0.4-0.4
		c0.1-0.1,0.2-0.3,0.2-0.5l0.9,0.2c-0.2,0.6-0.5,1-0.9,1.4s-1.1,0.5-1.9,0.5c-0.4,0-0.8-0.1-1.2-0.2c-0.4-0.1-0.7-0.4-0.9-0.6
		s-0.5-0.6-0.6-1s-0.2-0.8-0.2-1.3v-0.3c0-0.4,0.1-0.8,0.2-1.2s0.4-0.7,0.6-0.9c0.3-0.3,0.6-0.5,0.9-0.6c0.4-0.1,0.8-0.2,1.2-0.2
		c0.5,0,0.9,0.1,1.3,0.3c0.4,0.2,0.7,0.4,0.9,0.7c0.2,0.3,0.4,0.6,0.5,0.9c0.1,0.3,0.2,0.6,0.2,0.9v0.8L112.5,152.5L112.5,152.5z
		 M114.5,149.9c-0.3,0-0.5,0-0.8,0.1c-0.2,0.1-0.4,0.2-0.6,0.4c-0.2,0.2-0.3,0.3-0.4,0.6s-0.2,0.4-0.2,0.7h3.9
		c0-0.3-0.1-0.5-0.2-0.7s-0.2-0.4-0.4-0.5s-0.4-0.3-0.6-0.3S114.8,149.9,114.5,149.9z M116,146.8l-1,1.4h-0.9l0.8-1.4H116z"/>
	<path d="M119.1,149.1h1.9v-2.5h1v2.5h2.4v0.9H122v4c0,0.2,0.1,0.4,0.3,0.4h1.7v0.9H122c-0.3,0-0.5-0.1-0.7-0.3
		c-0.2-0.2-0.3-0.4-0.3-0.7V150h-1.9L119.1,149.1L119.1,149.1z"/>
	<path d="M126.8,149.1h1.9v-1.6c0-0.3,0.1-0.5,0.3-0.7c0.2-0.2,0.4-0.3,0.7-0.3h2.4v0.9h-2.1c-0.2,0-0.3,0.1-0.3,0.4v1.3h2.6v0.9
		h-2.6v5.2h-1V150h-1.9L126.8,149.1L126.8,149.1z"/>
	<path d="M140.1,152.2c0,0.5-0.1,1-0.2,1.4s-0.4,0.7-0.7,1c-0.3,0.3-0.6,0.5-1,0.6s-0.8,0.2-1.2,0.2c-0.4,0-0.8-0.1-1.2-0.2
		s-0.7-0.3-1-0.6s-0.5-0.6-0.7-1s-0.2-0.8-0.2-1.4v-0.1c0-0.5,0.1-0.9,0.2-1.3s0.4-0.7,0.7-1c0.3-0.3,0.6-0.5,1-0.6s0.8-0.2,1.2-0.2
		c0.4,0,0.8,0.1,1.2,0.2c0.4,0.1,0.7,0.3,1,0.6c0.3,0.3,0.5,0.6,0.7,1s0.2,0.8,0.2,1.3L140.1,152.2L140.1,152.2z M137.1,154.5
		c0.3,0,0.6-0.1,0.8-0.1c0.2-0.1,0.5-0.2,0.7-0.4s0.3-0.4,0.4-0.7c0.1-0.3,0.2-0.6,0.2-0.9v-0.1c0-0.3-0.1-0.6-0.2-0.9
		c-0.1-0.3-0.2-0.5-0.4-0.7c-0.2-0.2-0.4-0.4-0.7-0.5s-0.5-0.2-0.8-0.2c-0.3,0-0.6,0.1-0.8,0.2s-0.5,0.3-0.7,0.5
		c-0.2,0.2-0.3,0.4-0.4,0.7c-0.1,0.3-0.2,0.6-0.2,0.9v0.1c0,0.3,0.1,0.6,0.2,0.9c0.1,0.3,0.2,0.5,0.4,0.7s0.4,0.4,0.7,0.4
		C136.5,154.4,136.8,154.5,137.1,154.5z M137.6,146.8l-1,1.4h-0.9l0.8-1.4H137.6z M139.4,146.8l-1,1.4h-0.9l0.8-1.4H139.4z"/>
	<path d="M26.7,169.1v0.9h-5.3v-1.5l4.4-3.6v-0.1h-4.3v-0.9h5.1v1.5l-4.4,3.6v0.1H26.7z"/>
	<path d="M33.3,169h-0.2c-0.2,0.4-0.5,0.7-0.8,0.9s-0.7,0.3-1.1,0.3c-0.4,0-0.8-0.1-1.1-0.2c-0.3-0.1-0.6-0.3-0.9-0.6
		c-0.3-0.3-0.5-0.6-0.6-1c-0.1-0.4-0.2-0.8-0.2-1.3v-0.2c0-0.5,0.1-0.9,0.2-1.3s0.4-0.7,0.6-1c0.3-0.3,0.6-0.5,0.9-0.6
		s0.7-0.2,1.1-0.2c0.4,0,0.8,0.1,1.1,0.3c0.3,0.2,0.6,0.5,0.8,0.9h0.2v-1h1v4.9c0,0.2,0.1,0.4,0.3,0.4h0.3v0.9h-0.7
		c-0.3,0-0.5-0.1-0.7-0.3C33.4,169.6,33.4,169.3,33.3,169L33.3,169L33.3,169z M31.4,169.3c0.3,0,0.5-0.1,0.8-0.2s0.5-0.3,0.6-0.5
		c0.2-0.2,0.3-0.4,0.4-0.7c0.1-0.3,0.2-0.6,0.2-0.9v-0.1c0-0.3,0-0.6-0.2-0.9c-0.1-0.3-0.2-0.5-0.4-0.7c-0.2-0.2-0.4-0.4-0.6-0.5
		c-0.2-0.1-0.5-0.2-0.8-0.2c-0.3,0-0.5,0.1-0.8,0.2c-0.2,0.1-0.5,0.3-0.6,0.4c-0.2,0.2-0.3,0.4-0.4,0.7s-0.1,0.6-0.1,0.9v0.2
		c0,0.7,0.2,1.2,0.5,1.6C30.3,169.1,30.8,169.3,31.4,169.3z M32.7,161.5l-1,1.4h-0.9l0.8-1.4H32.7z"/>
	<path d="M36.1,163.9h2.2v0.8h0.2c0.2-0.3,0.4-0.6,0.7-0.7c0.3-0.2,0.6-0.2,1-0.2c0.6,0,1.1,0.2,1.5,0.6c0.4,0.4,0.6,1,0.6,1.8
		l-1,0.1c0-0.6-0.1-1-0.4-1.2c-0.3-0.2-0.6-0.4-1-0.4c-0.2,0-0.5,0.1-0.7,0.1c-0.2,0.1-0.3,0.2-0.5,0.4c-0.1,0.2-0.2,0.4-0.3,0.6
		c-0.1,0.2-0.1,0.5-0.1,0.7v2.6h1.5v0.9h-3.9v-0.9h1.4v-4.3h-1.3L36.1,163.9L36.1,163.9z"/>
	<path d="M47.6,170h-1.9l-2.1-6.1h1.1l1.9,5.7h0.2l1.9-5.7h1.1L47.6,170z"/>
	<path d="M55.9,169h-0.2c-0.2,0.4-0.5,0.7-0.8,0.9s-0.7,0.3-1.1,0.3c-0.4,0-0.8-0.1-1.1-0.2c-0.3-0.1-0.7-0.3-0.9-0.6
		c-0.3-0.3-0.5-0.6-0.6-1s-0.2-0.8-0.2-1.3v-0.2c0-0.5,0.1-0.9,0.2-1.3s0.3-0.7,0.6-1c0.3-0.3,0.6-0.5,0.9-0.6s0.7-0.2,1.1-0.2
		c0.4,0,0.8,0.1,1.1,0.3c0.3,0.2,0.6,0.5,0.8,0.9h0.2v-1h1v4.9c0,0.2,0.1,0.4,0.3,0.4h0.3v0.9h-0.7c-0.3,0-0.5-0.1-0.7-0.3
		C56,169.6,56,169.3,55.9,169L55.9,169L55.9,169z M54,169.3c0.3,0,0.5-0.1,0.8-0.2s0.5-0.3,0.6-0.5c0.2-0.2,0.3-0.4,0.4-0.7
		c0.1-0.3,0.2-0.6,0.2-0.9v-0.1c0-0.3,0-0.6-0.2-0.9c-0.1-0.3-0.2-0.5-0.4-0.7s-0.4-0.4-0.6-0.5s-0.5-0.2-0.8-0.2
		c-0.3,0-0.5,0.1-0.8,0.2s-0.5,0.3-0.6,0.4c-0.2,0.2-0.3,0.4-0.4,0.7s-0.2,0.6-0.2,0.9v0.2c0,0.7,0.2,1.2,0.5,1.6
		C52.9,169.1,53.4,169.3,54,169.3z"/>
	<path d="M68.4,164.6c0-0.2,0.1-0.4,0.2-0.6s0.4-0.2,0.6-0.2s0.4,0.1,0.6,0.2s0.2,0.4,0.2,0.6s-0.1,0.4-0.2,0.6s-0.4,0.2-0.6,0.2
		s-0.4-0.1-0.6-0.2C68.5,165,68.4,164.8,68.4,164.6z M68.4,169.3c0-0.2,0.1-0.4,0.2-0.6s0.4-0.2,0.6-0.2s0.4,0.1,0.6,0.2
		s0.2,0.4,0.2,0.6s-0.1,0.4-0.2,0.6s-0.4,0.2-0.6,0.2s-0.4-0.1-0.6-0.2C68.5,169.8,68.4,169.6,68.4,169.3z"/>
	<path d="M79.8,171v0.9h-0.4c-0.6,0-1.1-0.1-1.7-0.3s-1-0.5-1.4-0.9c-0.4-0.4-0.7-0.9-1-1.5s-0.4-1.2-0.4-2v-3.1
		c0-0.7,0.1-1.4,0.4-1.9s0.6-1.1,1-1.5c0.4-0.4,0.9-0.7,1.4-0.9c0.5-0.2,1.1-0.3,1.7-0.3h0.4v0.9h-0.4c-0.4,0-0.9,0.1-1.3,0.3
		c-0.4,0.2-0.8,0.4-1.1,0.8c-0.3,0.3-0.6,0.7-0.8,1.2s-0.3,1-0.3,1.6v3c0,0.6,0.1,1.1,0.3,1.6s0.4,0.9,0.8,1.2s0.7,0.6,1.1,0.8
		s0.8,0.3,1.3,0.3L79.8,171L79.8,171z"/>
	<rect x="53.5" y="91.2" width="2.9" height="2.9"/>
</g>
<text transform="matrix(1 0 0 1 192.0733 134.69)" class="st2 st3">+36 20 809 88 66</text>
</svg>
