<?xml version="1.0" encoding="utf-8"?>
<!-- Generator: Adobe Illustrator 26.3.1, SVG Export Plug-In . SVG Version: 6.00 Build 0)  -->
<svg version="1.1" id="Layer_1" xmlns="http://www.w3.org/2000/svg" xmlns:xlink="http://www.w3.org/1999/xlink" x="0px" y="0px"
	 viewBox="0 0 290 54.7" style="enable-background:new 0 0 290 54.7;" xml:space="preserve">
<style type="text/css">
	.teloland0{fill:#184FD6;}
	.teloland1{fill:#1D1D1E;}
</style>
<g>
	<g>
		<path class="teloland0" d="M253.66,7.7c-0.28-0.72-0.67-1.32-1.15-1.82c-0.48-0.49-1.04-0.86-1.66-1.12c-0.63-0.26-1.29-0.39-2-0.39
			c-0.83,0-1.6,0.18-2.3,0.54c-0.71,0.36-1.26,0.89-1.66,1.58h-0.28V4.69h-1.79v14.56h1.79v-4.91h0.28c0.2,0.35,0.44,0.65,0.74,0.91
			c0.29,0.25,0.61,0.47,0.96,0.64c0.35,0.18,0.71,0.31,1.09,0.39c0.38,0.08,0.76,0.12,1.12,0.12c0.72,0,1.4-0.12,2.05-0.38
			c0.64-0.25,1.21-0.62,1.69-1.11c0.48-0.49,0.86-1.1,1.14-1.82c0.28-0.72,0.42-1.55,0.42-2.48v-0.46
			C254.09,9.24,253.95,8.42,253.66,7.7z M252.25,10.62c0,0.63-0.1,1.19-0.29,1.7c-0.19,0.51-0.46,0.94-0.8,1.29
			c-0.34,0.36-0.75,0.62-1.21,0.82c-0.46,0.19-0.97,0.29-1.52,0.29c-0.54,0-1.03-0.1-1.49-0.3c-0.46-0.2-0.86-0.48-1.21-0.85
			c-0.35-0.37-0.62-0.81-0.82-1.32c-0.2-0.51-0.3-1.08-0.3-1.71v-0.28c0-0.61,0.1-1.17,0.3-1.69c0.2-0.51,0.47-0.96,0.82-1.32
			c0.34-0.37,0.75-0.65,1.21-0.86c0.46-0.21,0.96-0.31,1.49-0.31c0.54,0,1.04,0.1,1.51,0.3c0.47,0.2,0.87,0.48,1.22,0.84
			c0.35,0.36,0.61,0.79,0.8,1.29c0.19,0.5,0.29,1.05,0.29,1.66V10.62z"/>
		<polygon class="teloland0" points="256.64,14.44 260.64,14.44 260.64,6.34 257.05,6.34 257.05,4.69 262.43,4.69 262.43,14.44 
			266.15,14.44 266.15,16.09 256.64,16.09 		"/>
		<path class="teloland0" d="M275.86,6.34V4.69h-4.41V0h-1.79v4.69h-3.59v1.65h3.59v7.95c0,0.52,0.16,0.95,0.49,1.29
			c0.33,0.34,0.75,0.51,1.28,0.51h3.88v-1.65h-3.24c-0.41,0-0.62-0.23-0.62-0.69v-7.4H275.86z"/>
		<path class="teloland0" d="M289.43,14.44c-0.42,0-0.62-0.23-0.62-0.69V4.69h-1.79v1.79h-0.28c-0.37-0.72-0.87-1.25-1.5-1.6
			c-0.64-0.35-1.35-0.52-2.13-0.52c-0.72,0-1.4,0.13-2.04,0.39c-0.64,0.26-1.21,0.64-1.69,1.14c-0.48,0.5-0.86,1.11-1.14,1.83
			c-0.28,0.72-0.41,1.55-0.41,2.48v0.37c0,0.95,0.14,1.79,0.41,2.51c0.28,0.72,0.66,1.33,1.14,1.83c0.48,0.5,1.05,0.87,1.69,1.12
			c0.64,0.25,1.34,0.38,2.09,0.38c0.72,0,1.4-0.18,2.05-0.55c0.65-0.37,1.16-0.93,1.53-1.7h0.28v0.14c0,0.52,0.17,0.95,0.5,1.29
			c0.33,0.34,0.75,0.51,1.28,0.51H290v-1.65H289.43z M287.01,10.53c0,0.63-0.09,1.2-0.28,1.71c-0.18,0.51-0.44,0.96-0.76,1.32
			c-0.32,0.37-0.71,0.65-1.16,0.85c-0.45,0.2-0.94,0.3-1.48,0.3c-1.09,0-1.97-0.36-2.66-1.09c-0.68-0.73-1.02-1.75-1.02-3.05v-0.37
			c0-0.61,0.09-1.18,0.28-1.69c0.18-0.51,0.44-0.95,0.77-1.31c0.33-0.36,0.72-0.64,1.16-0.84c0.44-0.2,0.93-0.3,1.47-0.3
			c0.52,0,1.01,0.1,1.46,0.31c0.45,0.21,0.84,0.49,1.17,0.86c0.33,0.37,0.58,0.81,0.77,1.32c0.18,0.51,0.28,1.08,0.28,1.69V10.53z"
			/>
		<g>
			<path class="teloland0" d="M253.66,26.95c-0.28-0.72-0.67-1.33-1.15-1.82c-0.48-0.49-1.04-0.87-1.66-1.13c-0.63-0.26-1.29-0.39-2-0.39
				c-0.83,0-1.6,0.18-2.3,0.54c-0.71,0.36-1.26,0.89-1.66,1.57h-0.28v-4.41h-1.79v14.02h1.79v-1.75h0.28
				c0.2,0.35,0.44,0.65,0.74,0.91c0.29,0.25,0.61,0.47,0.96,0.64c0.35,0.18,0.71,0.31,1.09,0.39c0.38,0.08,0.76,0.13,1.12,0.13
				c0.72,0,1.4-0.13,2.05-0.38c0.64-0.25,1.21-0.62,1.69-1.12c0.48-0.49,0.86-1.1,1.14-1.82c0.28-0.72,0.42-1.55,0.42-2.48v-0.46
				C254.09,28.49,253.95,27.67,253.66,26.95z M252.25,29.87c0,0.63-0.1,1.19-0.29,1.7c-0.19,0.5-0.46,0.93-0.8,1.29
				c-0.34,0.35-0.75,0.62-1.21,0.82c-0.46,0.19-0.97,0.29-1.52,0.29c-0.54,0-1.03-0.1-1.49-0.3c-0.46-0.2-0.86-0.48-1.21-0.85
				c-0.35-0.37-0.62-0.8-0.82-1.32c-0.2-0.51-0.3-1.08-0.3-1.71V29.5c0-0.61,0.1-1.18,0.3-1.69c0.2-0.51,0.47-0.95,0.82-1.32
				c0.34-0.37,0.75-0.66,1.21-0.86c0.46-0.21,0.96-0.31,1.49-0.31c0.54,0,1.04,0.1,1.51,0.3c0.47,0.2,0.87,0.48,1.22,0.84
				c0.35,0.36,0.61,0.79,0.8,1.29c0.19,0.5,0.29,1.05,0.29,1.67V29.87z"/>
			<path class="teloland0" d="M267.47,33.68c-0.42,0-0.62-0.23-0.62-0.69v-9.06h-1.79v1.79h-0.28c-0.37-0.72-0.87-1.25-1.51-1.6
				c-0.64-0.35-1.35-0.52-2.12-0.52c-0.72,0-1.4,0.13-2.05,0.39c-0.64,0.26-1.21,0.64-1.69,1.14c-0.49,0.5-0.86,1.11-1.14,1.83
				c-0.28,0.72-0.42,1.55-0.42,2.48v0.37c0,0.95,0.14,1.79,0.42,2.51c0.28,0.72,0.65,1.33,1.14,1.83c0.48,0.5,1.04,0.87,1.69,1.13
				c0.64,0.25,1.34,0.38,2.09,0.38c0.72,0,1.41-0.18,2.06-0.55c0.65-0.37,1.16-0.93,1.53-1.7h0.28v0.14c0,0.52,0.17,0.95,0.49,1.29
				c0.33,0.34,0.76,0.5,1.28,0.5h1.22v-1.65H267.47z M265.06,29.78c0,0.63-0.09,1.2-0.28,1.71c-0.18,0.51-0.44,0.95-0.76,1.32
				c-0.32,0.37-0.71,0.65-1.16,0.85c-0.45,0.2-0.95,0.3-1.48,0.3c-1.09,0-1.97-0.36-2.65-1.09c-0.68-0.73-1.02-1.74-1.02-3.05v-0.37
				c0-0.61,0.09-1.18,0.28-1.69c0.18-0.51,0.44-0.95,0.77-1.31c0.33-0.36,0.72-0.64,1.16-0.84c0.44-0.2,0.93-0.3,1.47-0.3
				c0.52,0,1.01,0.1,1.46,0.31c0.45,0.21,0.85,0.5,1.17,0.86c0.33,0.37,0.59,0.81,0.77,1.32c0.18,0.51,0.28,1.08,0.28,1.69V29.78z"
				/>
			<path class="teloland0" d="M280.41,24.74c-0.71-0.75-1.63-1.12-2.78-1.12c-0.69,0-1.3,0.15-1.84,0.45c-0.54,0.3-0.95,0.76-1.24,1.39
				h-0.28v-1.52h-4.14v1.66h2.35v8.09h-2.62v1.65h7.31v-1.65h-2.9v-4.83c0-0.49,0.05-0.95,0.16-1.38c0.11-0.43,0.28-0.8,0.5-1.13
				c0.23-0.32,0.52-0.57,0.86-0.76c0.35-0.18,0.75-0.28,1.23-0.28c0.74,0,1.36,0.23,1.86,0.7c0.5,0.47,0.76,1.23,0.76,2.29
				l1.89-0.28C281.49,26.59,281.11,25.5,280.41,24.74z"/>
		</g>
		<rect x="260.07" y="0" class="teloland0" width="2.65" height="2.65"/>
		<rect x="260.07" y="18.96" class="teloland0" width="2.65" height="2.65"/>
	</g>
	<g>
		<path d="M84.65,44.44h-1.07c-1.38,0-2.07-0.77-2.07-2.3v-26.1c0-0.21-0.17-0.38-0.38-0.38h-8.88c-0.21,0-0.38,0.17-0.38,0.38v3.83
			c0,0.21-0.17,0.38-0.38,0.38h-0.77c-0.14,0-0.27-0.08-0.34-0.21c-0.96-1.83-2.24-3.19-3.84-4.08c-1.66-0.92-3.84-1.38-6.54-1.38
			c-2.25,0-4.35,0.45-6.31,1.34c-1.96,0.89-3.69,2.18-5.17,3.87c-1.48,1.68-2.65,3.73-3.52,6.12c-0.87,2.4-1.3,5.1-1.3,8.11v1.22
			c0,3.06,0.45,5.79,1.34,8.19c0.89,2.4,2.1,4.44,3.64,6.12c1.53,1.68,3.3,2.96,5.32,3.83c2.02,0.87,4.17,1.3,6.47,1.3
			c2.45,0,4.59-0.5,6.43-1.49c1.78-0.96,3.17-2.58,4.19-4.86c0.06-0.14,0.2-0.23,0.35-0.23h0.76c0.2,0,0.37,0.16,0.38,0.36
			c0.07,1.47,0.62,2.68,1.64,3.62c1.1,1.02,2.51,1.53,4.25,1.53h6.2c0.21,0,0.38-0.17,0.38-0.38v-8.42
			C85.03,44.61,84.86,44.44,84.65,44.44z M71.87,35.1c0,3.21-0.84,5.75-2.53,7.62c-1.68,1.86-3.93,2.79-6.74,2.79
			c-2.81,0-5.05-0.93-6.74-2.79c-1.68-1.86-2.53-4.4-2.53-7.62v-0.92c0-3.21,0.84-5.75,2.53-7.62c1.68-1.86,3.93-2.79,6.74-2.79
			c2.81,0,5.05,0.93,6.74,2.79c1.68,1.86,2.53,4.4,2.53,7.62V35.1z"/>
		<path d="M99.69,30.17c0.54-1.35,1.26-2.5,2.18-3.44c0.92-0.94,1.99-1.67,3.21-2.18c1.22-0.51,2.53-0.77,3.9-0.77
			c2.96,0,5.25,0.82,6.89,2.45c1.53,1.53,2.48,3.33,2.84,5.4c0.04,0.22,0.25,0.37,0.47,0.31l8.73-2.25c0.2-0.05,0.32-0.25,0.28-0.45
			c-0.91-4.33-2.96-7.83-6.17-10.51c-3.29-2.76-7.59-4.13-12.9-4.13c-2.76,0-5.35,0.46-7.77,1.38c-2.42,0.92-4.54,2.25-6.35,3.98
			c-1.81,1.74-3.23,3.83-4.25,6.28c-1.02,2.45-1.53,5.2-1.53,8.27v0.92c0,3.06,0.51,5.79,1.53,8.19c1.02,2.4,2.42,4.41,4.21,6.05
			c1.79,1.63,3.89,2.88,6.31,3.75c2.42,0.87,5.04,1.3,7.85,1.3c5.41,0,9.73-1.38,12.97-4.13c3.15-2.68,5.18-6.18,6.09-10.51
			c0.04-0.2-0.08-0.4-0.28-0.45l-8.75-2.19c-0.21-0.05-0.42,0.08-0.46,0.29c-0.49,2.32-1.47,4.18-2.95,5.58
			c-1.56,1.48-3.81,2.22-6.77,2.22c-1.38,0-2.68-0.22-3.9-0.65c-1.22-0.43-2.3-1.08-3.21-1.95c-0.92-0.87-1.65-1.95-2.18-3.25
			c-0.54-1.3-0.8-2.79-0.8-4.48v-0.46C98.89,33.04,99.15,31.52,99.69,30.17z"/>
		<path d="M166.17,44.44H155.9c-0.21,0-0.38-0.17-0.38-0.38V16.04c0-0.21-0.17-0.38-0.38-0.38h-20.82c-0.21,0-0.38,0.17-0.38,0.38
			v8.42c0,0.21,0.17,0.38,0.38,0.38h11.18c0.21,0,0.38,0.17,0.38,0.38v18.83c0,0.21-0.17,0.38-0.38,0.38h-12.1
			c-0.21,0-0.38,0.17-0.38,0.38v8.42c0,0.21,0.17,0.38,0.38,0.38h32.76c0.21,0,0.38-0.17,0.38-0.38v-8.42
			C166.55,44.61,166.38,44.44,166.17,44.44z"/>
		<path d="M192.57,34.97c-0.05-0.07-0.07-0.14-0.07-0.23v-1.13c0-0.08,0.02-0.15,0.07-0.22l12.13-17.21
			c0.03-0.04,0.04-0.09,0.04-0.14v0c0-0.21-0.17-0.38-0.38-0.38h-9.99c-0.12,0-0.24,0.06-0.31,0.16l-9.88,13.62
			c-0.07,0.1-0.19,0.16-0.31,0.16h-1.26c-0.21,0-0.38-0.17-0.38-0.38V0.43c0-0.21-0.17-0.38-0.38-0.38h-8.88
			c-0.21,0-0.38,0.17-0.38,0.38v52.82c0,0.21,0.17,0.38,0.38,0.38h8.88c0.21,0,0.38-0.17,0.38-0.38V39.16
			c0-0.21,0.17-0.38,0.38-0.38h1.26c0.12,0,0.23,0.06,0.31,0.16l10.64,14.54c0.07,0.1,0.19,0.16,0.31,0.16h10.45
			c0.21,0,0.38-0.17,0.38-0.38c0-0.05-0.02-0.1-0.05-0.14L192.57,34.97z"/>
		<path d="M243.85,44.44h-10.26c-0.21,0-0.38-0.17-0.38-0.38V16.04c0-0.21-0.17-0.38-0.38-0.38h-20.82c-0.21,0-0.38,0.17-0.38,0.38
			v8.42c0,0.21,0.17,0.38,0.38,0.38h11.18c0.21,0,0.38,0.17,0.38,0.38v18.83c0,0.21-0.17,0.38-0.38,0.38h-12.1
			c-0.21,0-0.38,0.17-0.38,0.38v8.42c0,0.21,0.17,0.38,0.38,0.38h32.76c0.21,0,0.38-0.17,0.38-0.38v-8.42
			C244.23,44.61,244.06,44.44,243.85,44.44z"/>
		<path d="M223.4,10.24h9.43c0.21,0,0.38-0.17,0.38-0.38V0.43c0-0.21-0.17-0.38-0.38-0.38h-9.43c-0.21,0-0.38,0.17-0.38,0.38v9.43
			C223.02,10.07,223.19,10.24,223.4,10.24z"/>
		<path class="teloland0" d="M259.08,44.45h-8.38c-0.21,0-0.38,0.17-0.38,0.38v8.38c0,0.21,0.17,0.38,0.38,0.38h8.38c0.21,0,0.38-0.17,0.38-0.38v-8.38
			C259.46,44.62,259.29,44.45,259.08,44.45z"/>
		<path d="M145.47,10.24h9.43c0.21,0,0.38-0.17,0.38-0.38V0.43c0-0.21-0.17-0.38-0.38-0.38h-9.43c-0.21,0-0.38,0.17-0.38,0.38v9.43
			C145.09,10.07,145.26,10.24,145.47,10.24z"/>
		<path d="M9.8,32.6c0.1-0.67,0.26-1.31,0.46-1.92c0.06-0.17,0.12-0.34,0.19-0.51c0.13-0.34,0.28-0.66,0.44-0.97
			c0.47-0.94,1.05-1.76,1.74-2.47l0,0c0.23-0.24,0.47-0.46,0.72-0.67c0.37-0.31,0.77-0.6,1.18-0.85c0.28-0.17,0.56-0.32,0.86-0.46
			c0.15-0.07,0.3-0.14,0.45-0.2c0.23-0.1,0.46-0.18,0.7-0.26c0.63-0.21,1.27-0.35,1.94-0.43c0.41-0.05,0.84-0.08,1.27-0.08
			c2.96,0,5.26,0.82,6.89,2.45h0c0.38,0.38,0.73,0.78,1.04,1.2c0.39,0.52,0.72,1.07,0.99,1.64c0.17,0.34,0.31,0.7,0.43,1.06
			c0.08,0.24,0.16,0.49,0.22,0.74c0.06,0.25,0.12,0.51,0.17,0.76c0.01,0.07,0.04,0.13,0.09,0.18c0.09,0.11,0.24,0.16,0.38,0.12
			l8.73-2.26c0.02-0.01,0.04-0.01,0.06-0.02c0.1-0.04,0.17-0.12,0.2-0.22c0.01-0.01,0.01-0.03,0.01-0.04c0.01-0.05,0.01-0.11,0-0.16
			c-0.91-4.33-2.96-7.83-6.16-10.51c-0.1-0.09-0.21-0.17-0.31-0.25c-0.31-0.25-0.64-0.49-0.97-0.71c-0.24-0.17-0.49-0.32-0.74-0.48
			c-0.16-0.1-0.32-0.19-0.48-0.28c-1.11-0.62-2.31-1.12-3.6-1.51c-0.54-0.16-1.09-0.3-1.66-0.41c-0.18-0.04-0.36-0.07-0.54-0.1
			c-0.27-0.05-0.54-0.09-0.81-0.13c-0.45-0.06-0.91-0.12-1.38-0.16c-0.61-0.05-1.24-0.08-1.87-0.1c-0.02,0-0.03,0-0.04,0
			c-0.15,0-0.3,0-0.45,0H19.9c-2.76,0-5.34,0.46-7.77,1.38c-2.43,0.92-4.54,2.25-6.35,3.98c-1.81,1.73-3.23,3.82-4.25,6.28
			C0.51,28.67,0,31.43,0,34.49v0.92c0,0.76,0.03,1.51,0.1,2.24c0.03,0.36,0.07,0.72,0.12,1.07c0.07,0.53,0.16,1.05,0.27,1.55
			c0.07,0.34,0.15,0.67,0.24,0.99c0.09,0.33,0.18,0.65,0.29,0.96c0.15,0.47,0.33,0.93,0.52,1.38c0.13,0.3,0.26,0.59,0.4,0.88
			c0.98,2.02,2.25,3.74,3.81,5.17c0.11,0.1,0.22,0.2,0.34,0.3c0.23,0.2,0.46,0.39,0.7,0.58c0.24,0.18,0.48,0.37,0.73,0.54
			c0.87,0.61,1.8,1.14,2.79,1.61c0.57,0.26,1.15,0.5,1.76,0.72c2.42,0.87,5.04,1.3,7.85,1.3c4.06,0,7.5-0.78,10.34-2.33
			c0.24-0.13,0.47-0.26,0.7-0.4c0.23-0.14,0.45-0.29,0.67-0.44c0.44-0.3,0.86-0.63,1.26-0.97c0.3-0.25,0.58-0.51,0.86-0.78
			c2.67-2.57,4.41-5.81,5.23-9.73c0.04-0.18-0.06-0.36-0.22-0.43c-0.02-0.01-0.04-0.01-0.06-0.02l-8.75-2.19
			c-0.21-0.05-0.42,0.08-0.46,0.29c-0.49,2.32-1.47,4.18-2.95,5.58c-1.56,1.48-3.81,2.22-6.77,2.22c-1.38,0-2.68-0.22-3.9-0.65
			c-1.22-0.43-2.29-1.08-3.21-1.95c-0.23-0.22-0.45-0.45-0.65-0.69c-0.41-0.49-0.78-1.03-1.09-1.63c-0.16-0.3-0.3-0.61-0.44-0.93
			c-0.06-0.14-0.11-0.29-0.16-0.43c-0.22-0.62-0.39-1.28-0.49-1.99c-0.1-0.65-0.15-1.34-0.15-2.06v-0.46
			C9.64,33.98,9.69,33.28,9.8,32.6z"/>
	</g>
</g>
</svg>
