<?xml version="1.0" encoding="utf-8"?>
<!-- Generator: Adobe Illustrator 26.3.1, SVG Export Plug-In . SVG Version: 6.00 Build 0)  -->
<svg version="1.1" id="Layer_1" xmlns="http://www.w3.org/2000/svg" xmlns:xlink="http://www.w3.org/1999/xlink" x="0px" y="0px"
	 viewBox="0 0 312 58.85" style="enable-background:new 0 0 312 58.85;" xml:space="preserve">
<style type="text/css">
	.st0{fill:#1D1D1E;}
	.st1{fill:#184FD6;}
</style>
<g>
	<g>
		<path class="st0" d="M272.91,8.28c-0.3-0.77-0.72-1.42-1.24-1.95c-0.52-0.53-1.11-0.93-1.79-1.21c-0.68-0.28-1.39-0.42-2.15-0.42
			c-0.89,0-1.72,0.2-2.47,0.58c-0.76,0.39-1.35,0.95-1.78,1.7h-0.3V5.05h-1.93v15.67h1.93v-5.28h0.3c0.21,0.38,0.48,0.7,0.79,0.98
			c0.32,0.27,0.66,0.5,1.03,0.69c0.37,0.19,0.76,0.33,1.17,0.42c0.41,0.09,0.81,0.13,1.21,0.13c0.77,0,1.51-0.13,2.2-0.41
			c0.69-0.27,1.3-0.67,1.82-1.2c0.52-0.53,0.93-1.18,1.22-1.95c0.3-0.77,0.45-1.66,0.45-2.67v-0.5
			C273.36,9.94,273.21,9.06,272.91,8.28z M271.39,11.43c0,0.68-0.11,1.29-0.31,1.83c-0.21,0.55-0.49,1.01-0.87,1.38
			c-0.37,0.38-0.8,0.67-1.3,0.88c-0.49,0.21-1.04,0.31-1.63,0.31c-0.58,0-1.11-0.11-1.61-0.32c-0.49-0.21-0.93-0.52-1.3-0.91
			c-0.37-0.4-0.66-0.87-0.88-1.42c-0.22-0.55-0.32-1.16-0.32-1.84v-0.3c0-0.66,0.11-1.26,0.32-1.81c0.21-0.55,0.51-1.03,0.88-1.42
			c0.37-0.4,0.8-0.7,1.3-0.93c0.49-0.23,1.03-0.34,1.61-0.34c0.58,0,1.12,0.11,1.62,0.32c0.5,0.21,0.94,0.51,1.31,0.9
			c0.37,0.39,0.66,0.85,0.87,1.38c0.21,0.54,0.31,1.13,0.31,1.79V11.43z"/>
		<polygon class="st0" points="276.11,15.53 280.41,15.53 280.41,6.83 276.55,6.83 276.55,5.05 282.34,5.05 282.34,15.53 
			286.35,15.53 286.35,17.31 276.11,17.31 		"/>
		<path class="st0" d="M296.79,6.82V5.05h-4.74V0h-1.93v5.05h-3.86v1.78h3.86v8.56c0,0.56,0.17,1.02,0.53,1.38
			c0.36,0.36,0.81,0.55,1.37,0.55h4.18v-1.78h-3.49c-0.44,0-0.66-0.25-0.66-0.74V6.82H296.79z"/>
		<path class="st0" d="M311.38,15.53c-0.45,0-0.67-0.25-0.67-0.74V5.05h-1.93v1.93h-0.3c-0.4-0.78-0.93-1.35-1.62-1.72
			c-0.68-0.37-1.45-0.56-2.29-0.56c-0.77,0-1.51,0.14-2.2,0.42c-0.69,0.28-1.3,0.69-1.82,1.22c-0.52,0.54-0.93,1.19-1.23,1.97
			c-0.3,0.77-0.44,1.66-0.44,2.67v0.4c0,1.02,0.15,1.92,0.44,2.7c0.3,0.77,0.71,1.43,1.23,1.97c0.52,0.53,1.13,0.94,1.82,1.21
			c0.69,0.27,1.44,0.41,2.25,0.41c0.77,0,1.51-0.2,2.21-0.59c0.7-0.4,1.25-1,1.64-1.83h0.3v0.15c0,0.56,0.18,1.02,0.53,1.38
			c0.35,0.36,0.81,0.55,1.37,0.55H312v-1.78H311.38z M308.79,11.32c0,0.68-0.1,1.29-0.3,1.84c-0.2,0.55-0.47,1.03-0.81,1.42
			c-0.35,0.4-0.76,0.7-1.25,0.91c-0.49,0.22-1.02,0.32-1.59,0.32c-1.17,0-2.12-0.39-2.86-1.17c-0.73-0.78-1.1-1.88-1.1-3.28v-0.4
			c0-0.66,0.1-1.27,0.3-1.82c0.2-0.55,0.47-1.02,0.83-1.41c0.35-0.39,0.77-0.69,1.25-0.9c0.47-0.22,1-0.32,1.58-0.32
			c0.56,0,1.08,0.11,1.57,0.34c0.49,0.22,0.91,0.53,1.26,0.93c0.35,0.4,0.63,0.87,0.83,1.42c0.2,0.55,0.3,1.16,0.3,1.81V11.32z"/>
		<g>
			<path class="st0" d="M272.91,29c-0.3-0.77-0.72-1.43-1.24-1.95c-0.52-0.53-1.11-0.93-1.79-1.21s-1.39-0.42-2.15-0.42
				c-0.89,0-1.72,0.19-2.47,0.58c-0.76,0.39-1.35,0.95-1.78,1.69h-0.3v-4.74h-1.93v15.08h1.93v-1.88h0.3
				c0.21,0.38,0.48,0.7,0.79,0.98c0.32,0.27,0.66,0.5,1.03,0.69c0.37,0.19,0.76,0.33,1.17,0.42c0.41,0.09,0.81,0.14,1.21,0.14
				c0.77,0,1.51-0.14,2.2-0.41c0.69-0.27,1.3-0.67,1.82-1.2c0.52-0.53,0.93-1.18,1.22-1.95c0.3-0.78,0.45-1.66,0.45-2.67v-0.49
				C273.36,30.65,273.21,29.77,272.91,29z M271.39,32.14c0,0.68-0.11,1.29-0.31,1.83c-0.21,0.54-0.49,1-0.87,1.38
				c-0.37,0.38-0.8,0.67-1.3,0.88s-1.04,0.31-1.63,0.31c-0.58,0-1.11-0.11-1.61-0.32c-0.49-0.21-0.93-0.52-1.3-0.92
				c-0.37-0.4-0.66-0.87-0.88-1.42c-0.22-0.55-0.32-1.17-0.32-1.84v-0.3c0-0.66,0.11-1.27,0.32-1.82c0.21-0.55,0.51-1.02,0.88-1.42
				c0.37-0.4,0.8-0.71,1.3-0.93c0.49-0.22,1.03-0.33,1.61-0.33c0.58,0,1.12,0.11,1.62,0.32c0.5,0.21,0.94,0.51,1.31,0.9
				c0.37,0.39,0.66,0.85,0.87,1.38c0.21,0.54,0.31,1.13,0.31,1.8V32.14z"/>
			<path class="st0" d="M287.77,36.24c-0.45,0-0.67-0.25-0.67-0.74v-9.74h-1.93v1.93h-0.3c-0.4-0.77-0.94-1.35-1.62-1.72
				c-0.68-0.37-1.45-0.56-2.29-0.56c-0.77,0-1.51,0.14-2.2,0.42c-0.69,0.28-1.3,0.69-1.81,1.23c-0.52,0.53-0.93,1.19-1.23,1.97
				c-0.3,0.77-0.45,1.66-0.45,2.67v0.4c0,1.02,0.15,1.92,0.45,2.7c0.3,0.77,0.7,1.43,1.23,1.97c0.52,0.54,1.12,0.94,1.81,1.21
				c0.69,0.27,1.44,0.41,2.25,0.41c0.77,0,1.51-0.2,2.21-0.59c0.7-0.4,1.25-1,1.64-1.83h0.3v0.15c0,0.56,0.18,1.02,0.53,1.38
				c0.36,0.36,0.81,0.54,1.37,0.54h1.31v-1.78H287.77z M285.17,32.04c0,0.68-0.1,1.29-0.3,1.84c-0.2,0.55-0.47,1.02-0.81,1.42
				c-0.35,0.4-0.76,0.7-1.25,0.92c-0.49,0.21-1.02,0.32-1.6,0.32c-1.17,0-2.12-0.39-2.85-1.17c-0.74-0.78-1.1-1.87-1.1-3.28v-0.4
				c0-0.66,0.1-1.27,0.3-1.81c0.2-0.55,0.47-1.02,0.83-1.41c0.36-0.39,0.77-0.69,1.25-0.9c0.48-0.21,1-0.32,1.58-0.32
				c0.56,0,1.08,0.11,1.57,0.33c0.49,0.22,0.91,0.53,1.26,0.93c0.36,0.4,0.63,0.87,0.83,1.42c0.2,0.55,0.3,1.16,0.3,1.82V32.04z"/>
			<path class="st0" d="M301.68,26.62c-0.76-0.81-1.76-1.21-2.99-1.21c-0.74,0-1.4,0.16-1.98,0.48c-0.58,0.32-1.02,0.82-1.34,1.49
				h-0.3v-1.63h-4.45v1.78h2.52v8.7h-2.82v1.78h7.86v-1.78h-3.12v-5.19c0-0.53,0.06-1.02,0.17-1.48c0.11-0.46,0.3-0.87,0.54-1.21
				c0.25-0.34,0.56-0.62,0.93-0.81c0.37-0.2,0.81-0.3,1.32-0.3c0.79,0,1.46,0.25,2,0.75c0.54,0.51,0.81,1.32,0.81,2.46l2.03-0.3
				C302.84,28.61,302.43,27.43,301.68,26.62z"/>
		</g>
		<rect x="279.8" y="0" class="st0" width="2.85" height="2.85"/>
		<rect x="279.8" y="20.4" class="st0" width="2.85" height="2.85"/>
	</g>
	<g>
		<path class="st1" d="M91.07,47.81h-1.16c-1.48,0-2.22-0.82-2.22-2.47V17.26c0-0.23-0.18-0.41-0.41-0.41h-9.56
			c-0.23,0-0.41,0.18-0.41,0.41v4.12c0,0.23-0.18,0.41-0.41,0.41h-0.83c-0.15,0-0.29-0.09-0.36-0.22c-1.03-1.97-2.41-3.44-4.13-4.39
			c-1.78-0.99-4.13-1.48-7.04-1.48c-2.42,0-4.68,0.48-6.79,1.44c-2.11,0.96-3.97,2.35-5.56,4.16c-1.59,1.81-2.86,4.01-3.79,6.59
			c-0.93,2.58-1.4,5.49-1.4,8.73v1.32c0,3.29,0.48,6.23,1.44,8.81c0.96,2.58,2.26,4.78,3.91,6.59c1.65,1.81,3.55,3.18,5.72,4.12
			c2.17,0.93,4.49,1.4,6.96,1.4c2.64,0,4.94-0.54,6.92-1.61c1.91-1.04,3.41-2.78,4.5-5.23c0.07-0.15,0.21-0.25,0.37-0.25h0.82
			c0.22,0,0.4,0.17,0.41,0.38c0.08,1.58,0.67,2.88,1.76,3.9c1.18,1.1,2.7,1.65,4.57,1.65h6.67c0.23,0,0.41-0.18,0.41-0.41v-9.06
			C91.48,48,91.3,47.81,91.07,47.81z M77.32,37.77c0,3.46-0.91,6.19-2.72,8.19c-1.81,2-4.23,3.01-7.25,3.01
			c-3.02,0-5.43-1-7.25-3.01c-1.81-2-2.72-4.73-2.72-8.19v-0.99c0-3.46,0.91-6.19,2.72-8.19c1.81-2,4.23-3.01,7.25-3.01
			c3.02,0,5.43,1,7.25,3.01c1.81,2,2.72,4.73,2.72,8.19V37.77z"/>
		<path class="st1" d="M107.25,32.46c0.58-1.45,1.36-2.69,2.35-3.71c0.99-1.02,2.14-1.8,3.46-2.35c1.32-0.55,2.72-0.82,4.2-0.82
			c3.18,0,5.65,0.88,7.41,2.64c1.65,1.65,2.67,3.59,3.06,5.81c0.04,0.24,0.27,0.39,0.51,0.33l9.4-2.43c0.21-0.05,0.34-0.27,0.3-0.48
			c-0.98-4.65-3.19-8.42-6.63-11.31c-3.54-2.96-8.17-4.45-13.88-4.45c-2.96,0-5.75,0.49-8.36,1.48c-2.61,0.99-4.89,2.42-6.83,4.28
			c-1.95,1.87-3.47,4.12-4.57,6.75c-1.1,2.64-1.65,5.6-1.65,8.89v0.99c0,3.29,0.55,6.23,1.65,8.81c1.1,2.58,2.61,4.75,4.53,6.51
			c1.92,1.76,4.19,3.1,6.79,4.03c2.61,0.93,5.42,1.4,8.44,1.4c5.82,0,10.47-1.48,13.96-4.45c3.39-2.89,5.58-6.65,6.55-11.31
			c0.04-0.21-0.09-0.43-0.3-0.48l-9.41-2.35c-0.23-0.06-0.45,0.09-0.5,0.32c-0.53,2.49-1.58,4.49-3.17,6
			c-1.68,1.59-4.1,2.39-7.29,2.39c-1.48,0-2.88-0.23-4.2-0.7c-1.32-0.47-2.47-1.17-3.46-2.1c-0.99-0.93-1.77-2.1-2.35-3.5
			c-0.58-1.4-0.86-3.01-0.86-4.82v-0.49C106.39,35.54,106.68,33.91,107.25,32.46z"/>
		<path class="st1" d="M178.77,47.81h-11.04c-0.23,0-0.41-0.18-0.41-0.41V17.26c0-0.23-0.18-0.41-0.41-0.41h-22.4
			c-0.23,0-0.41,0.18-0.41,0.41v9.06c0,0.23,0.18,0.41,0.41,0.41h12.03c0.23,0,0.41,0.18,0.41,0.41V47.4c0,0.23-0.18,0.41-0.41,0.41
			h-13.02c-0.23,0-0.41,0.18-0.41,0.41v9.06c0,0.23,0.18,0.41,0.41,0.41h35.25c0.23,0,0.41-0.18,0.41-0.41v-9.06
			C179.18,48,179,47.81,178.77,47.81z"/>
		<path class="st1" d="M207.17,37.63c-0.05-0.07-0.08-0.16-0.08-0.24v-1.22c0-0.08,0.03-0.17,0.07-0.24l13.05-18.52
			c0.03-0.04,0.05-0.1,0.05-0.15v0c0-0.23-0.18-0.41-0.41-0.41h-10.75c-0.13,0-0.25,0.06-0.33,0.17l-10.62,14.65
			c-0.08,0.11-0.2,0.17-0.33,0.17h-1.36c-0.23,0-0.41-0.18-0.41-0.41V0.46c0-0.23-0.18-0.41-0.41-0.41h-9.56
			c-0.23,0-0.41,0.18-0.41,0.41v56.82c0,0.23,0.18,0.41,0.41,0.41h9.56c0.23,0,0.41-0.18,0.41-0.41V42.13
			c0-0.23,0.18-0.41,0.41-0.41h1.36c0.13,0,0.25,0.06,0.33,0.17l11.45,15.64c0.08,0.11,0.2,0.17,0.33,0.17h11.24
			c0.23,0,0.41-0.18,0.41-0.41c0-0.06-0.02-0.11-0.05-0.15L207.17,37.63z"/>
		<path class="st1" d="M262.35,47.81h-11.04c-0.23,0-0.41-0.18-0.41-0.41V17.26c0-0.23-0.18-0.41-0.41-0.41h-22.4
			c-0.23,0-0.41,0.18-0.41,0.41v9.06c0,0.23,0.18,0.41,0.41,0.41h12.03c0.23,0,0.41,0.18,0.41,0.41V47.4c0,0.23-0.18,0.41-0.41,0.41
			H227.1c-0.23,0-0.41,0.18-0.41,0.41v9.06c0,0.23,0.18,0.41,0.41,0.41h35.25c0.23,0,0.41-0.18,0.41-0.41v-9.06
			C262.76,48,262.58,47.81,262.35,47.81z"/>
		<path class="st1" d="M240.35,11.01h10.14c0.23,0,0.41-0.18,0.41-0.41V0.46c0-0.23-0.18-0.41-0.41-0.41h-10.14
			c-0.23,0-0.41,0.18-0.41,0.41V10.6C239.94,10.83,240.13,11.01,240.35,11.01z"/>
		<path class="st1" d="M278.73,47.82h-9.02c-0.23,0-0.41,0.18-0.41,0.41v9.02c0,0.23,0.18,0.41,0.41,0.41h9.02
			c0.23,0,0.41-0.18,0.41-0.41v-9.02C279.14,48.01,278.96,47.82,278.73,47.82z"/>
		<path class="st1" d="M156.51,11.01h10.14c0.23,0,0.41-0.18,0.41-0.41V0.46c0-0.23-0.18-0.41-0.41-0.41h-10.14
			c-0.23,0-0.41,0.18-0.41,0.41V10.6C156.1,10.83,156.28,11.01,156.51,11.01z"/>
		<path class="st1" d="M10.54,35.08c0.11-0.73,0.28-1.41,0.5-2.07c0.06-0.19,0.13-0.37,0.2-0.55c0.14-0.36,0.3-0.71,0.47-1.05
			c0.51-1.01,1.13-1.89,1.88-2.65l0,0c0.25-0.25,0.5-0.49,0.77-0.72c0.4-0.34,0.82-0.64,1.27-0.91c0.3-0.18,0.61-0.35,0.92-0.5
			c0.16-0.08,0.32-0.15,0.49-0.22c0.25-0.1,0.5-0.2,0.75-0.28c0.67-0.23,1.37-0.38,2.09-0.46c0.45-0.05,0.9-0.08,1.36-0.08
			c3.18,0,5.66,0.88,7.41,2.64h0c0.41,0.41,0.79,0.84,1.12,1.29c0.42,0.56,0.77,1.15,1.07,1.77c0.18,0.37,0.33,0.75,0.46,1.14
			c0.09,0.26,0.17,0.53,0.23,0.79c0.07,0.27,0.13,0.54,0.18,0.82c0.01,0.08,0.05,0.14,0.09,0.2c0.1,0.11,0.25,0.17,0.41,0.13
			l9.4-2.43c0.02-0.01,0.05-0.01,0.07-0.02c0.1-0.05,0.18-0.13,0.22-0.24c0.01-0.02,0.01-0.03,0.01-0.05c0.01-0.05,0.01-0.11,0-0.17
			c-0.98-4.65-3.18-8.42-6.63-11.31c-0.11-0.09-0.23-0.19-0.34-0.27c-0.34-0.27-0.68-0.52-1.04-0.76c-0.26-0.18-0.53-0.35-0.8-0.51
			c-0.17-0.1-0.34-0.2-0.51-0.3c-1.2-0.67-2.49-1.21-3.87-1.62c-0.58-0.17-1.17-0.32-1.78-0.45c-0.19-0.04-0.39-0.08-0.58-0.11
			c-0.29-0.05-0.58-0.1-0.87-0.14c-0.48-0.07-0.98-0.13-1.48-0.17c-0.66-0.06-1.33-0.09-2.02-0.11c-0.02,0-0.03,0-0.05,0
			c-0.16,0-0.32,0-0.48,0h-0.05c-2.96,0-5.75,0.49-8.36,1.48c-2.61,0.99-4.89,2.42-6.84,4.28c-1.95,1.87-3.47,4.11-4.57,6.75
			C0.55,30.85,0,33.81,0,37.11v0.99c0,0.82,0.04,1.63,0.1,2.41c0.04,0.39,0.08,0.77,0.13,1.15c0.08,0.57,0.17,1.13,0.29,1.67
			c0.08,0.36,0.16,0.72,0.26,1.07c0.1,0.35,0.2,0.7,0.31,1.04c0.17,0.51,0.35,1.01,0.56,1.49c0.14,0.32,0.28,0.64,0.43,0.95
			c1.05,2.17,2.42,4.02,4.1,5.56c0.12,0.11,0.24,0.22,0.36,0.33c0.25,0.21,0.5,0.42,0.75,0.62c0.26,0.2,0.52,0.39,0.79,0.58
			c0.93,0.65,1.93,1.23,3,1.73c0.61,0.28,1.24,0.54,1.89,0.78c2.61,0.93,5.42,1.4,8.44,1.4c4.36,0,8.07-0.83,11.13-2.5
			c0.25-0.14,0.5-0.28,0.75-0.43c0.24-0.15,0.48-0.31,0.72-0.47c0.47-0.33,0.92-0.67,1.36-1.04c0.32-0.27,0.63-0.55,0.92-0.83
			c2.87-2.76,4.74-6.25,5.63-10.47c0.04-0.19-0.06-0.38-0.23-0.46c-0.02-0.01-0.04-0.02-0.07-0.02l-9.42-2.35
			c-0.23-0.06-0.45,0.09-0.5,0.32c-0.53,2.5-1.58,4.49-3.17,6c-1.67,1.59-4.1,2.39-7.29,2.39c-1.48,0-2.88-0.23-4.2-0.7
			c-1.32-0.47-2.47-1.16-3.46-2.1c-0.25-0.23-0.48-0.48-0.7-0.74c-0.44-0.52-0.83-1.11-1.17-1.75c-0.17-0.32-0.33-0.66-0.47-1.01
			c-0.06-0.15-0.12-0.31-0.17-0.46c-0.24-0.67-0.42-1.38-0.53-2.14c-0.11-0.7-0.16-1.44-0.16-2.22v-0.49
			C10.37,36.56,10.43,35.8,10.54,35.08z"/>
	</g>
</g>
</svg>
