<?xml version="1.0" encoding="utf-8"?>
<!-- Generator: Adobe Illustrator 26.3.1, SVG Export Plug-In . SVG Version: 6.00 Build 0)  -->
<svg version="1.1" id="Layer_1" xmlns="http://www.w3.org/2000/svg" xmlns:xlink="http://www.w3.org/1999/xlink" x="0px" y="0px"
	 viewBox="0 0 140.4 55.86" style="enable-background:new 0 0 140.4 55.86;" xml:space="preserve">
<style type="text/css">
	.st0{fill:#1D1D1E;}
	.st1{fill:#184FD6;}
</style>
<g>
	<rect class="st1" width="10.48" height="55.86"/>
	<path d="M22.51,5.25v3.55h-1.03V0.17h3.08c0.44,0,0.83,0.06,1.16,0.19c0.33,0.13,0.6,0.3,0.82,0.51c0.22,0.21,0.38,0.46,0.49,0.74
		c0.11,0.28,0.17,0.58,0.17,0.89v0.37c0,0.31-0.06,0.61-0.17,0.9c-0.11,0.29-0.28,0.54-0.5,0.76c-0.22,0.22-0.5,0.39-0.82,0.52
		c-0.33,0.13-0.71,0.19-1.15,0.19H22.51z M22.51,4.28h1.92c1.15,0,1.72-0.49,1.72-1.48V2.59c0-0.43-0.14-0.79-0.42-1.05
		s-0.72-0.4-1.3-0.4h-1.92V4.28z"/>
	<path d="M29.18,7.9h2.14V3.57H29.4V2.68h2.88V7.9h1.99v0.89h-5.1V7.9z M30.93,0.86c0-0.24,0.08-0.44,0.25-0.61
		C31.35,0.08,31.55,0,31.79,0c0.24,0,0.44,0.08,0.61,0.25c0.17,0.17,0.25,0.37,0.25,0.61c0,0.24-0.08,0.44-0.25,0.61
		c-0.17,0.17-0.37,0.25-0.61,0.25c-0.24,0-0.44-0.08-0.61-0.25C31.01,1.3,30.93,1.1,30.93,0.86z"/>
	<path d="M36.36,2.68h1.92V0.17h0.96v2.51h2.36v0.89h-2.36v3.96c0,0.25,0.11,0.37,0.33,0.37h1.74v0.89h-2.08
		c-0.28,0-0.51-0.09-0.68-0.27c-0.18-0.18-0.26-0.41-0.26-0.69V3.57h-1.92V2.68z"/>
	<path d="M48.54,7.76h-0.15c-0.2,0.41-0.47,0.71-0.82,0.91c-0.35,0.2-0.72,0.3-1.1,0.3c-0.4,0-0.78-0.07-1.12-0.2
		c-0.34-0.14-0.65-0.34-0.9-0.6c-0.26-0.27-0.46-0.59-0.61-0.98c-0.15-0.39-0.22-0.83-0.22-1.34v-0.2c0-0.5,0.07-0.94,0.22-1.33
		c0.15-0.39,0.35-0.71,0.61-0.98c0.26-0.27,0.56-0.47,0.9-0.61c0.34-0.14,0.71-0.21,1.1-0.21c0.42,0,0.8,0.09,1.14,0.28
		c0.34,0.18,0.61,0.47,0.81,0.86h0.15V2.68h0.96v4.85c0,0.25,0.11,0.37,0.33,0.37h0.31v0.89h-0.65c-0.28,0-0.51-0.09-0.68-0.27
		c-0.18-0.18-0.26-0.41-0.26-0.69V7.76z M46.57,8.05c0.29,0,0.55-0.05,0.79-0.16c0.24-0.11,0.45-0.26,0.62-0.46
		c0.17-0.2,0.31-0.43,0.41-0.71s0.15-0.58,0.15-0.92V5.66c0-0.33-0.05-0.63-0.15-0.9s-0.24-0.51-0.41-0.71
		c-0.18-0.2-0.39-0.35-0.63-0.46c-0.24-0.11-0.5-0.17-0.78-0.17c-0.29,0-0.55,0.05-0.79,0.16c-0.24,0.11-0.45,0.26-0.62,0.45
		c-0.18,0.19-0.31,0.43-0.41,0.7c-0.1,0.27-0.15,0.58-0.15,0.91v0.2c0,0.7,0.18,1.24,0.55,1.63C45.51,7.86,45.98,8.05,46.57,8.05z"
		/>
	<path d="M56.28,7.86h-0.15c-0.2,0.37-0.47,0.65-0.81,0.83c-0.34,0.18-0.71,0.28-1.11,0.28c-0.41,0-0.8-0.07-1.16-0.21
		c-0.36-0.14-0.68-0.34-0.95-0.6c-0.28-0.26-0.49-0.59-0.65-0.98c-0.16-0.39-0.24-0.84-0.24-1.34v-0.2c0-0.49,0.08-0.93,0.25-1.32
		c0.16-0.39,0.38-0.72,0.65-0.98c0.27-0.27,0.59-0.47,0.95-0.61s0.74-0.21,1.13-0.21c0.44,0,0.83,0.1,1.16,0.29
		c0.33,0.19,0.59,0.47,0.78,0.84h0.15V2.68h0.96v7.61c0,0.28-0.09,0.51-0.26,0.69c-0.18,0.18-0.4,0.27-0.68,0.27h-3.98v-0.89h3.63
		c0.22,0,0.33-0.12,0.33-0.37V7.86z M54.24,8.05c0.29,0,0.55-0.05,0.8-0.16c0.25-0.11,0.46-0.26,0.65-0.46
		c0.18-0.2,0.33-0.43,0.44-0.71c0.11-0.27,0.16-0.58,0.16-0.92V5.66c0-0.33-0.05-0.63-0.16-0.9c-0.11-0.27-0.25-0.51-0.44-0.71
		c-0.18-0.2-0.4-0.35-0.65-0.46c-0.25-0.11-0.52-0.17-0.79-0.17c-0.29,0-0.56,0.05-0.81,0.16c-0.25,0.11-0.47,0.26-0.65,0.46
		c-0.18,0.2-0.33,0.43-0.43,0.7c-0.1,0.27-0.15,0.57-0.15,0.9v0.2c0,0.34,0.05,0.65,0.15,0.92s0.25,0.5,0.43,0.7
		c0.18,0.19,0.4,0.34,0.65,0.44C53.67,8,53.94,8.05,54.24,8.05z"/>
	<path d="M63.53,2.68h0.96v6.11h-0.96V7.68h-0.15c-0.2,0.39-0.46,0.71-0.78,0.94c-0.32,0.23-0.73,0.34-1.22,0.34
		c-0.34,0-0.65-0.06-0.93-0.17c-0.28-0.11-0.53-0.28-0.73-0.5c-0.2-0.22-0.36-0.5-0.47-0.82c-0.11-0.33-0.17-0.71-0.17-1.14V2.68
		h0.96v3.52c0,0.64,0.13,1.11,0.39,1.4c0.26,0.3,0.66,0.44,1.21,0.44c0.58,0,1.04-0.2,1.37-0.6c0.33-0.4,0.5-0.93,0.5-1.59V2.68z"/>
	<path d="M66.36,2.68h2.22V3.5h0.15c0.16-0.34,0.38-0.58,0.66-0.74c0.29-0.16,0.62-0.24,0.98-0.24c0.62,0,1.11,0.2,1.49,0.6
		c0.38,0.4,0.58,0.99,0.6,1.76l-1.01,0.15c0-0.57-0.14-0.97-0.41-1.23c-0.27-0.25-0.6-0.38-1-0.38c-0.25,0-0.47,0.05-0.66,0.15
		c-0.18,0.1-0.34,0.23-0.46,0.41c-0.12,0.17-0.21,0.37-0.27,0.6c-0.06,0.23-0.09,0.48-0.09,0.74V7.9h1.55v0.89h-3.92V7.9h1.4V3.57
		h-1.26V2.68z"/>
	<path d="M78.6,2.68h0.96v6.11H78.6V7.68h-0.15c-0.2,0.39-0.46,0.71-0.78,0.94c-0.32,0.23-0.73,0.34-1.22,0.34
		c-0.34,0-0.65-0.06-0.93-0.17s-0.53-0.28-0.73-0.5c-0.2-0.22-0.36-0.5-0.47-0.82c-0.11-0.33-0.17-0.71-0.17-1.14V2.68h0.96v3.52
		c0,0.64,0.13,1.11,0.39,1.4c0.26,0.3,0.66,0.44,1.21,0.44c0.58,0,1.04-0.2,1.37-0.6c0.33-0.4,0.5-0.93,0.5-1.59V2.68z"/>
	<path d="M90.37,8.79h-1.03V0.17h1.03v3.82h0.28l3.31-3.82h1.28v0.07l-3.57,4.16v0.15l3.72,4.16v0.07h-1.31l-3.44-3.84h-0.28V8.79z"
		/>
	<path d="M96.79,2.68h1.88V1.13c0-0.28,0.09-0.51,0.26-0.69c0.18-0.18,0.4-0.27,0.68-0.27h2.41v0.89h-2.07
		c-0.22,0-0.33,0.12-0.33,0.37v1.26h2.55v0.89h-2.55v5.22h-0.96V3.57h-1.88V2.68z"/>
	<path d="M104.18,2.68h1.92V0.17h0.96v2.51h2.36v0.89h-2.36v3.96c0,0.25,0.11,0.37,0.33,0.37h1.74v0.89h-2.08
		c-0.28,0-0.51-0.09-0.68-0.27c-0.18-0.18-0.26-0.41-0.26-0.69V3.57h-1.92V2.68z"/>
	<path d="M113.76,8.1c0-0.24,0.08-0.44,0.25-0.61c0.17-0.17,0.37-0.25,0.61-0.25c0.24,0,0.44,0.08,0.61,0.25
		c0.17,0.17,0.25,0.37,0.25,0.61c0,0.24-0.08,0.44-0.25,0.61c-0.17,0.17-0.37,0.25-0.61,0.25c-0.24,0-0.44-0.08-0.61-0.25
		C113.84,8.54,113.76,8.34,113.76,8.1z"/>
	<path d="M24.08,23.74c-0.44,0-0.83-0.06-1.18-0.18c-0.35-0.12-0.66-0.28-0.91-0.49c-0.25-0.21-0.45-0.46-0.59-0.74
		c-0.14-0.28-0.2-0.59-0.2-0.93v-0.15c0-0.3,0.05-0.56,0.14-0.79c0.09-0.23,0.21-0.43,0.36-0.6c0.15-0.17,0.32-0.32,0.51-0.43
		c0.19-0.11,0.39-0.2,0.6-0.26v-0.15c-0.19-0.06-0.37-0.14-0.53-0.26c-0.16-0.12-0.31-0.25-0.44-0.41c-0.13-0.16-0.23-0.33-0.3-0.54
		c-0.07-0.2-0.11-0.42-0.11-0.66v-0.15c0-0.33,0.07-0.63,0.2-0.9c0.13-0.27,0.32-0.51,0.56-0.71c0.24-0.2,0.53-0.35,0.86-0.46
		c0.33-0.11,0.7-0.17,1.11-0.17h0.07c0.4,0,0.77,0.06,1.11,0.17c0.34,0.11,0.63,0.26,0.87,0.46c0.24,0.2,0.43,0.43,0.56,0.71
		c0.13,0.27,0.2,0.58,0.2,0.9v0.15c0,0.24-0.04,0.46-0.11,0.66c-0.07,0.2-0.17,0.38-0.3,0.54c-0.13,0.16-0.28,0.29-0.44,0.41
		c-0.17,0.12-0.34,0.2-0.52,0.26v0.15c0.21,0.06,0.4,0.14,0.6,0.26c0.19,0.12,0.36,0.26,0.51,0.43c0.15,0.17,0.27,0.37,0.36,0.6
		c0.09,0.23,0.14,0.49,0.14,0.79v0.15c0,0.34-0.07,0.65-0.2,0.93c-0.14,0.28-0.33,0.53-0.58,0.74c-0.25,0.21-0.56,0.37-0.91,0.49
		c-0.35,0.12-0.75,0.18-1.18,0.18H24.08z M24.27,22.8c0.56,0,1.01-0.14,1.36-0.43c0.35-0.29,0.52-0.66,0.52-1.12v-0.07
		c0-0.51-0.18-0.9-0.54-1.18c-0.36-0.28-0.82-0.42-1.39-0.42h-0.07c-0.57,0-1.03,0.14-1.39,0.42c-0.36,0.28-0.54,0.67-0.54,1.18
		v0.07c0,0.46,0.17,0.83,0.52,1.12c0.35,0.29,0.8,0.43,1.36,0.43H24.27z M24.19,18.62c0.52,0,0.94-0.14,1.26-0.41
		c0.32-0.27,0.48-0.61,0.48-1.02v-0.07c0-0.42-0.16-0.76-0.47-1.02c-0.32-0.26-0.74-0.39-1.26-0.39c-0.53,0-0.95,0.13-1.26,0.39
		c-0.32,0.26-0.47,0.6-0.47,1.02v0.07c0,0.41,0.16,0.75,0.48,1.02C23.26,18.48,23.68,18.62,24.19,18.62z"/>
	<path d="M28.7,18.3c0-1.12,0.27-1.98,0.8-2.6c0.53-0.62,1.28-0.92,2.23-0.92c0.95,0,1.69,0.31,2.23,0.92
		c0.53,0.62,0.8,1.48,0.8,2.6v1.92c0,1.15-0.27,2.02-0.8,2.62c-0.53,0.6-1.28,0.9-2.23,0.9c-0.95,0-1.7-0.3-2.23-0.9
		c-0.53-0.6-0.8-1.47-0.8-2.62V18.3z M31.73,22.8c0.66,0,1.16-0.23,1.5-0.7c0.33-0.46,0.5-1.12,0.5-1.96v-1.77
		c0-0.39-0.04-0.75-0.12-1.08c-0.08-0.32-0.21-0.6-0.38-0.84c-0.17-0.23-0.38-0.42-0.63-0.55c-0.25-0.13-0.54-0.2-0.87-0.2
		c-0.34,0-0.63,0.07-0.87,0.2c-0.25,0.13-0.45,0.31-0.62,0.55c-0.17,0.23-0.29,0.51-0.38,0.84c-0.08,0.32-0.12,0.68-0.12,1.08v1.77
		c0,0.85,0.17,1.5,0.5,1.96C30.56,22.57,31.06,22.8,31.73,22.8z M30.94,19.26c0-0.21,0.08-0.4,0.23-0.55
		c0.16-0.16,0.34-0.23,0.55-0.23c0.21,0,0.4,0.08,0.55,0.23s0.23,0.34,0.23,0.55c0,0.21-0.08,0.4-0.23,0.55
		c-0.16,0.16-0.34,0.23-0.55,0.23c-0.21,0-0.4-0.08-0.55-0.23C31.02,19.66,30.94,19.47,30.94,19.26z"/>
	<path d="M36.24,18.3c0-1.12,0.27-1.98,0.8-2.6c0.53-0.62,1.28-0.92,2.23-0.92c0.95,0,1.69,0.31,2.23,0.92
		c0.53,0.62,0.8,1.48,0.8,2.6v1.92c0,1.15-0.27,2.02-0.8,2.62c-0.53,0.6-1.28,0.9-2.23,0.9c-0.95,0-1.7-0.3-2.23-0.9
		c-0.53-0.6-0.8-1.47-0.8-2.62V18.3z M39.26,22.8c0.66,0,1.16-0.23,1.5-0.7c0.33-0.46,0.5-1.12,0.5-1.96v-1.77
		c0-0.39-0.04-0.75-0.12-1.08c-0.08-0.32-0.21-0.6-0.38-0.84c-0.17-0.23-0.38-0.42-0.63-0.55c-0.25-0.13-0.54-0.2-0.87-0.2
		c-0.34,0-0.63,0.07-0.87,0.2c-0.25,0.13-0.45,0.31-0.62,0.55c-0.17,0.23-0.29,0.51-0.38,0.84c-0.08,0.32-0.12,0.68-0.12,1.08v1.77
		c0,0.85,0.17,1.5,0.5,1.96C38.1,22.57,38.6,22.8,39.26,22.8z M38.48,19.26c0-0.21,0.08-0.4,0.23-0.55s0.34-0.23,0.55-0.23
		c0.21,0,0.4,0.08,0.55,0.23s0.23,0.34,0.23,0.55c0,0.21-0.08,0.4-0.23,0.55c-0.16,0.16-0.34,0.23-0.55,0.23
		c-0.21,0-0.4-0.08-0.55-0.23C38.55,19.66,38.48,19.47,38.48,19.26z"/>
	<path d="M43.77,18.3c0-1.12,0.27-1.98,0.8-2.6c0.53-0.62,1.28-0.92,2.23-0.92c0.95,0,1.69,0.31,2.23,0.92
		c0.53,0.62,0.8,1.48,0.8,2.6v1.92c0,1.15-0.27,2.02-0.8,2.62c-0.53,0.6-1.28,0.9-2.23,0.9c-0.95,0-1.7-0.3-2.23-0.9
		c-0.53-0.6-0.8-1.47-0.8-2.62V18.3z M46.8,22.8c0.66,0,1.16-0.23,1.5-0.7c0.33-0.46,0.5-1.12,0.5-1.96v-1.77
		c0-0.39-0.04-0.75-0.12-1.08c-0.08-0.32-0.21-0.6-0.38-0.84c-0.17-0.23-0.38-0.42-0.63-0.55c-0.25-0.13-0.54-0.2-0.87-0.2
		c-0.34,0-0.63,0.07-0.87,0.2c-0.25,0.13-0.45,0.31-0.62,0.55c-0.17,0.23-0.29,0.51-0.38,0.84c-0.08,0.32-0.12,0.68-0.12,1.08v1.77
		c0,0.85,0.17,1.5,0.5,1.96C45.64,22.57,46.13,22.8,46.8,22.8z M46.01,19.26c0-0.21,0.08-0.4,0.23-0.55
		c0.16-0.16,0.34-0.23,0.55-0.23c0.21,0,0.4,0.08,0.55,0.23c0.16,0.16,0.23,0.34,0.23,0.55c0,0.21-0.08,0.4-0.23,0.55
		c-0.16,0.16-0.34,0.23-0.55,0.23c-0.21,0-0.4-0.08-0.55-0.23C46.09,19.66,46.01,19.47,46.01,19.26z"/>
	<path d="M63.9,17.44c0-0.28-0.06-0.53-0.17-0.74c-0.11-0.21-0.26-0.39-0.45-0.53c-0.19-0.14-0.41-0.25-0.65-0.32
		c-0.25-0.07-0.5-0.11-0.78-0.11c-0.24,0-0.46,0.03-0.68,0.09c-0.21,0.06-0.4,0.15-0.57,0.26c-0.17,0.12-0.3,0.26-0.4,0.42
		c-0.1,0.17-0.15,0.36-0.15,0.58v0.07c0,0.24,0.05,0.44,0.15,0.61c0.1,0.17,0.24,0.31,0.44,0.43c0.19,0.12,0.43,0.22,0.72,0.3
		c0.29,0.08,0.62,0.15,1.01,0.2c0.9,0.14,1.57,0.4,1.99,0.79c0.43,0.39,0.64,0.91,0.64,1.57v0.15c0,0.37-0.06,0.71-0.19,1.02
		c-0.13,0.31-0.32,0.57-0.57,0.79s-0.56,0.39-0.93,0.52c-0.37,0.12-0.8,0.18-1.28,0.18c-0.55,0-1.04-0.08-1.46-0.24
		c-0.42-0.16-0.78-0.38-1.06-0.66c-0.28-0.28-0.5-0.62-0.65-1c-0.15-0.38-0.22-0.8-0.22-1.25v-0.37h1.03v0.3
		c0,0.76,0.21,1.32,0.62,1.7c0.41,0.38,0.99,0.57,1.73,0.57c0.64,0,1.12-0.14,1.45-0.42c0.32-0.28,0.49-0.66,0.49-1.13v-0.07
		c0-0.45-0.17-0.8-0.5-1.03c-0.33-0.24-0.87-0.41-1.62-0.52c-0.44-0.06-0.83-0.15-1.18-0.26c-0.35-0.12-0.65-0.27-0.89-0.47
		c-0.25-0.19-0.44-0.42-0.57-0.7c-0.13-0.27-0.2-0.59-0.2-0.96v-0.15c0-0.34,0.07-0.64,0.21-0.92c0.14-0.28,0.33-0.52,0.58-0.73
		c0.25-0.2,0.55-0.36,0.9-0.47c0.35-0.11,0.73-0.17,1.15-0.17c0.48,0,0.92,0.07,1.3,0.21c0.38,0.14,0.7,0.33,0.97,0.56
		c0.26,0.23,0.46,0.51,0.6,0.82c0.14,0.32,0.2,0.65,0.2,0.99v0.52H63.9V17.44z"/>
	<path d="M72.08,22.68v0.89h-5.32v-1.53l4.36-3.55v-0.15h-4.28v-0.89h5.1v1.48l-4.38,3.6v0.15H72.08z"/>
	<path d="M74.18,17.46h1.88v-1.55c0-0.28,0.09-0.51,0.26-0.69c0.18-0.18,0.4-0.27,0.68-0.27h2.41v0.89h-2.07
		c-0.22,0-0.33,0.12-0.33,0.37v1.26h2.55v0.89h-2.55v5.22h-0.96v-5.22h-1.88V17.46z"/>
	<path d="M85.41,23.57h-1.9l-2.13-6.11h1.13l1.87,5.66h0.15l1.87-5.66h1.13L85.41,23.57z"/>
	<path d="M93.75,22.53H93.6c-0.2,0.41-0.47,0.71-0.82,0.91c-0.35,0.2-0.72,0.3-1.1,0.3c-0.4,0-0.78-0.07-1.12-0.2
		c-0.34-0.14-0.65-0.34-0.9-0.6c-0.26-0.27-0.46-0.59-0.61-0.98c-0.15-0.39-0.22-0.83-0.22-1.34v-0.2c0-0.5,0.07-0.94,0.22-1.33
		c0.15-0.39,0.35-0.71,0.61-0.98c0.26-0.27,0.56-0.47,0.9-0.61c0.34-0.14,0.71-0.21,1.1-0.21c0.42,0,0.8,0.09,1.14,0.28
		s0.61,0.47,0.81,0.86h0.15v-0.96h0.96v4.85c0,0.25,0.11,0.37,0.33,0.37h0.31v0.89H94.7c-0.28,0-0.51-0.09-0.68-0.27
		c-0.18-0.18-0.26-0.41-0.26-0.69V22.53z M91.78,22.83c0.29,0,0.55-0.05,0.79-0.16c0.24-0.11,0.45-0.26,0.62-0.46
		c0.17-0.2,0.31-0.43,0.41-0.71c0.1-0.27,0.15-0.58,0.15-0.92v-0.15c0-0.33-0.05-0.63-0.15-0.9c-0.1-0.27-0.24-0.51-0.41-0.71
		c-0.18-0.2-0.39-0.35-0.63-0.46c-0.24-0.11-0.5-0.17-0.78-0.17c-0.29,0-0.55,0.05-0.79,0.16c-0.24,0.11-0.45,0.26-0.62,0.45
		c-0.18,0.19-0.31,0.43-0.41,0.7c-0.1,0.27-0.15,0.58-0.15,0.91v0.2c0,0.7,0.18,1.24,0.55,1.63C90.72,22.63,91.2,22.83,91.78,22.83z
		 M93.1,15.1l-1.03,1.45h-0.89l0.81-1.45H93.1z"/>
	<path d="M96.51,17.46h2.22v0.81h0.15c0.16-0.34,0.38-0.58,0.66-0.74c0.29-0.16,0.62-0.24,0.98-0.24c0.62,0,1.11,0.2,1.49,0.6
		c0.38,0.4,0.58,0.99,0.6,1.76l-1.01,0.15c0-0.57-0.14-0.97-0.41-1.23c-0.27-0.25-0.6-0.38-1-0.38c-0.25,0-0.47,0.05-0.66,0.15
		c-0.18,0.1-0.34,0.23-0.46,0.41c-0.12,0.17-0.21,0.37-0.27,0.6c-0.06,0.23-0.09,0.48-0.09,0.74v2.59h1.55v0.89h-3.92v-0.89h1.4
		v-4.33h-1.26V17.46z"/>
	<path d="M21.37,29.72h5.76v1.55l-5.17,5.96v0.15h5.32v0.96h-6.21v-1.55l5.17-5.96v-0.15h-4.88V29.72z"/>
	<path d="M30.3,33.81c0,0.3,0.12,0.52,0.38,0.68c0.25,0.16,0.71,0.26,1.37,0.31c0.71,0.06,1.26,0.23,1.63,0.51
		c0.37,0.28,0.56,0.7,0.56,1.24v0.07c0,0.3-0.06,0.56-0.18,0.79c-0.12,0.23-0.28,0.43-0.49,0.6c-0.21,0.16-0.46,0.29-0.76,0.38
		c-0.3,0.09-0.63,0.13-0.98,0.13c-0.48,0-0.88-0.06-1.23-0.19c-0.34-0.13-0.62-0.3-0.85-0.5c-0.23-0.21-0.4-0.45-0.51-0.71
		c-0.12-0.27-0.18-0.54-0.2-0.81l0.91-0.22c0.04,0.47,0.22,0.84,0.54,1.13c0.32,0.28,0.75,0.42,1.28,0.42
		c0.45,0,0.81-0.09,1.09-0.26c0.27-0.18,0.41-0.42,0.41-0.74c0-0.35-0.14-0.59-0.41-0.74c-0.27-0.15-0.71-0.24-1.32-0.28
		c-0.71-0.05-1.25-0.21-1.63-0.49c-0.38-0.28-0.57-0.69-0.57-1.22v-0.07c0-0.29,0.06-0.54,0.18-0.76c0.12-0.22,0.29-0.4,0.5-0.55
		c0.21-0.15,0.45-0.26,0.71-0.33c0.26-0.07,0.54-0.11,0.82-0.11c0.4,0,0.76,0.06,1.06,0.17c0.3,0.11,0.56,0.25,0.76,0.43
		c0.21,0.18,0.36,0.38,0.47,0.61c0.11,0.23,0.18,0.46,0.22,0.69l-0.91,0.22c-0.04-0.39-0.2-0.7-0.47-0.92
		c-0.28-0.22-0.63-0.33-1.08-0.33c-0.17,0-0.34,0.02-0.5,0.06c-0.16,0.04-0.3,0.09-0.42,0.17c-0.12,0.07-0.22,0.17-0.3,0.28
		C30.34,33.53,30.3,33.66,30.3,33.81z"/>
	<path d="M42.33,35.36c0,0.51-0.08,0.96-0.25,1.35c-0.17,0.39-0.39,0.72-0.67,0.98c-0.28,0.27-0.61,0.47-0.98,0.61
		c-0.37,0.14-0.76,0.21-1.16,0.21c-0.41,0-0.8-0.07-1.17-0.21c-0.37-0.14-0.69-0.34-0.97-0.61c-0.28-0.27-0.5-0.59-0.67-0.98
		c-0.17-0.39-0.25-0.84-0.25-1.35v-0.15c0-0.5,0.08-0.95,0.25-1.34c0.17-0.39,0.39-0.72,0.68-0.99c0.28-0.27,0.61-0.48,0.98-0.62
		c0.37-0.14,0.76-0.21,1.16-0.21c0.4,0,0.79,0.07,1.16,0.21c0.37,0.14,0.7,0.34,0.98,0.62c0.28,0.27,0.51,0.6,0.68,0.99
		c0.17,0.39,0.25,0.84,0.25,1.34V35.36z M39.26,37.6c0.3,0,0.57-0.05,0.82-0.15c0.25-0.1,0.47-0.25,0.66-0.45s0.34-0.43,0.44-0.71
		c0.11-0.27,0.16-0.58,0.16-0.93v-0.15c0-0.33-0.05-0.63-0.16-0.9c-0.11-0.27-0.25-0.51-0.44-0.71s-0.41-0.35-0.66-0.46
		c-0.25-0.11-0.53-0.17-0.81-0.17c-0.29,0-0.56,0.06-0.81,0.17c-0.25,0.11-0.48,0.26-0.67,0.46c-0.19,0.2-0.34,0.43-0.44,0.71
		c-0.11,0.27-0.16,0.58-0.16,0.9v0.15c0,0.34,0.05,0.65,0.16,0.93c0.11,0.27,0.25,0.51,0.44,0.71c0.19,0.2,0.41,0.35,0.66,0.45
		C38.7,37.55,38.97,37.6,39.26,37.6z"/>
	<path d="M44.1,37.46h2.22v-6.85h-2.14v-0.89h3.1v7.73h2.22v0.89H44.1V37.46z"/>
	<path d="M51.43,32.24h1.92v-2.51h0.96v2.51h2.36v0.89h-2.36v3.96c0,0.25,0.11,0.37,0.33,0.37h1.74v0.89H54.3
		c-0.28,0-0.51-0.09-0.68-0.27c-0.18-0.18-0.26-0.41-0.26-0.69v-4.26h-1.92V32.24z"/>
	<path d="M71.07,32.24h0.96v6.11h-0.96v-1.11h-0.15c-0.2,0.39-0.46,0.71-0.78,0.94c-0.32,0.23-0.73,0.34-1.22,0.34
		c-0.34,0-0.65-0.06-0.93-0.17c-0.28-0.11-0.53-0.28-0.73-0.5c-0.2-0.22-0.36-0.5-0.47-0.82c-0.11-0.33-0.17-0.71-0.17-1.14v-3.64
		h0.96v3.52c0,0.64,0.13,1.11,0.39,1.4c0.26,0.3,0.66,0.44,1.21,0.44c0.58,0,1.04-0.2,1.37-0.6c0.33-0.4,0.5-0.93,0.5-1.59V32.24z"
		/>
	<path d="M74.04,32.24h1.92v-2.51h0.96v2.51h2.36v0.89h-2.36v3.96c0,0.25,0.11,0.37,0.33,0.37h1.74v0.89H76.9
		c-0.28,0-0.51-0.09-0.68-0.27c-0.18-0.18-0.26-0.41-0.26-0.69v-4.26h-1.92V32.24z"/>
	<path d="M87.49,36.18c-0.07,0.34-0.18,0.65-0.34,0.94c-0.16,0.29-0.36,0.54-0.61,0.74c-0.25,0.21-0.53,0.37-0.86,0.49
		c-0.33,0.12-0.69,0.17-1.1,0.17c-0.43,0-0.83-0.07-1.21-0.21c-0.38-0.14-0.72-0.34-1-0.61c-0.29-0.27-0.52-0.59-0.68-0.98
		c-0.17-0.39-0.25-0.83-0.25-1.33v-0.15c0-0.49,0.08-0.94,0.25-1.33c0.17-0.39,0.4-0.73,0.68-1c0.29-0.27,0.62-0.48,1-0.63
		c0.38-0.15,0.79-0.22,1.21-0.22c0.39,0,0.74,0.06,1.07,0.17c0.33,0.12,0.62,0.28,0.87,0.49c0.25,0.21,0.46,0.46,0.62,0.74
		c0.16,0.29,0.27,0.6,0.33,0.94l-0.96,0.22c-0.02-0.21-0.08-0.42-0.18-0.62c-0.09-0.2-0.22-0.38-0.38-0.53
		c-0.16-0.15-0.35-0.27-0.58-0.36c-0.23-0.09-0.5-0.14-0.8-0.14c-0.3,0-0.57,0.06-0.83,0.17c-0.26,0.11-0.49,0.27-0.68,0.47
		c-0.2,0.2-0.35,0.44-0.46,0.72c-0.11,0.28-0.17,0.58-0.17,0.91v0.15c0,0.34,0.06,0.65,0.17,0.93c0.11,0.27,0.26,0.51,0.46,0.7
		c0.2,0.19,0.43,0.33,0.69,0.44c0.26,0.1,0.55,0.15,0.85,0.15c0.3,0,0.57-0.05,0.79-0.14c0.23-0.09,0.42-0.22,0.58-0.37
		c0.16-0.15,0.29-0.33,0.38-0.52s0.16-0.4,0.19-0.62L87.49,36.18z"/>
	<path d="M93.75,37.31H93.6c-0.2,0.41-0.47,0.71-0.82,0.91c-0.35,0.2-0.72,0.3-1.1,0.3c-0.4,0-0.78-0.07-1.12-0.2
		c-0.34-0.14-0.65-0.34-0.9-0.6c-0.26-0.27-0.46-0.59-0.61-0.98c-0.15-0.39-0.22-0.83-0.22-1.34v-0.2c0-0.5,0.07-0.94,0.22-1.33
		c0.15-0.39,0.35-0.71,0.61-0.98c0.26-0.27,0.56-0.47,0.9-0.61c0.34-0.14,0.71-0.21,1.1-0.21c0.42,0,0.8,0.09,1.14,0.28
		c0.34,0.18,0.61,0.47,0.81,0.86h0.15v-0.96h0.96v4.85c0,0.25,0.11,0.37,0.33,0.37h0.31v0.89H94.7c-0.28,0-0.51-0.09-0.68-0.27
		c-0.18-0.18-0.26-0.41-0.26-0.69V37.31z M91.78,37.6c0.29,0,0.55-0.05,0.79-0.16c0.24-0.11,0.45-0.26,0.62-0.46
		c0.17-0.2,0.31-0.43,0.41-0.71c0.1-0.27,0.15-0.58,0.15-0.92v-0.15c0-0.33-0.05-0.63-0.15-0.9s-0.24-0.51-0.41-0.71
		c-0.18-0.2-0.39-0.35-0.63-0.46c-0.24-0.11-0.5-0.17-0.78-0.17c-0.29,0-0.55,0.05-0.79,0.16c-0.24,0.11-0.45,0.26-0.62,0.45
		c-0.18,0.19-0.31,0.43-0.41,0.7c-0.1,0.28-0.15,0.58-0.15,0.91v0.2c0,0.7,0.18,1.24,0.55,1.63C90.72,37.41,91.2,37.6,91.78,37.6z"
		/>
	<path d="M106.63,37.38v-7.2h-0.15l-1.42,3.24h-1.02v-0.07l1.61-3.62h2.01v7.66h2.44v0.96h-5.91v-0.96H106.63z"/>
	<path d="M113.76,37.65c0-0.24,0.08-0.44,0.25-0.61c0.17-0.17,0.37-0.25,0.61-0.25c0.24,0,0.44,0.08,0.61,0.25
		c0.17,0.17,0.25,0.37,0.25,0.61c0,0.24-0.08,0.44-0.25,0.61c-0.17,0.17-0.37,0.25-0.61,0.25c-0.24,0-0.44-0.08-0.61-0.25
		C113.84,38.09,113.76,37.89,113.76,37.65z"/>
	<path d="M21.62,48.11h1.87v-1.87h1.4v1.87h1.87v1.4h-1.87v1.87h-1.4v-1.87h-1.87V48.11z"/>
	<path d="M30.89,49.42v-2.56l2.14-0.59v-0.22h-4.28V44.5h5.61v2.71l-2.29,0.67v0.22h0.3c0.3,0,0.6,0.05,0.9,0.14
		s0.56,0.24,0.78,0.44c0.23,0.2,0.41,0.44,0.55,0.73c0.14,0.29,0.21,0.63,0.21,1.03v0.15c0,0.39-0.06,0.74-0.19,1.07
		c-0.13,0.33-0.32,0.61-0.57,0.86c-0.25,0.24-0.56,0.43-0.93,0.57c-0.37,0.14-0.79,0.21-1.27,0.21c-0.48,0-0.92-0.08-1.32-0.23
		c-0.39-0.16-0.73-0.37-1-0.64c-0.28-0.27-0.49-0.58-0.63-0.94c-0.15-0.35-0.22-0.73-0.22-1.12v-0.52h1.63v0.44
		c0,0.39,0.13,0.73,0.38,1.02c0.25,0.29,0.64,0.43,1.15,0.43c0.43,0,0.77-0.11,1-0.33c0.23-0.22,0.35-0.51,0.35-0.87
		c0-0.39-0.13-0.67-0.38-0.84c-0.25-0.18-0.57-0.26-0.95-0.26H30.89z"/>
	<path d="M40.56,46.94c0-0.29-0.1-0.54-0.31-0.74c-0.21-0.21-0.54-0.31-0.98-0.31c-0.44,0-0.79,0.13-1.05,0.39
		c-0.26,0.26-0.39,0.6-0.39,1.02v1.11h0.22c0.14-0.29,0.37-0.52,0.68-0.7c0.31-0.18,0.67-0.26,1.06-0.26c0.35,0,0.69,0.06,1,0.19
		c0.31,0.13,0.58,0.31,0.81,0.54c0.23,0.23,0.41,0.52,0.54,0.86c0.13,0.34,0.2,0.72,0.2,1.15v0.15c0,0.43-0.07,0.84-0.22,1.2
		c-0.14,0.37-0.35,0.68-0.62,0.94c-0.27,0.26-0.59,0.47-0.97,0.62c-0.38,0.15-0.8,0.22-1.27,0.22c-0.43,0-0.83-0.07-1.2-0.21
		c-0.37-0.14-0.7-0.33-0.97-0.58c-0.27-0.25-0.49-0.55-0.65-0.9c-0.16-0.35-0.24-0.73-0.24-1.15v-3.14c0-0.45,0.08-0.86,0.25-1.23
		c0.16-0.37,0.39-0.68,0.66-0.94c0.28-0.26,0.6-0.46,0.97-0.6c0.37-0.14,0.75-0.21,1.16-0.21c0.41,0,0.79,0.06,1.15,0.18
		c0.36,0.12,0.67,0.29,0.94,0.52s0.48,0.5,0.63,0.82c0.15,0.32,0.23,0.69,0.23,1.09H40.56z M39.26,51.74c0.42,0,0.76-0.13,1.03-0.38
		c0.27-0.25,0.41-0.58,0.41-1s-0.14-0.75-0.41-1c-0.27-0.25-0.62-0.38-1.03-0.38c-0.42,0-0.76,0.13-1.03,0.38
		c-0.27,0.25-0.41,0.58-0.41,1s0.14,0.75,0.41,1C38.5,51.61,38.85,51.74,39.26,51.74z"/>
	<path d="M57.43,51.57v1.55h-6.06v-1.7c0-0.45,0.07-0.84,0.2-1.16c0.14-0.32,0.33-0.59,0.58-0.81s0.55-0.4,0.9-0.55
		s0.75-0.26,1.19-0.36c0.33-0.07,0.6-0.16,0.81-0.25c0.21-0.09,0.38-0.2,0.5-0.32c0.12-0.12,0.21-0.25,0.25-0.39
		c0.05-0.14,0.07-0.31,0.07-0.49c0-0.35-0.13-0.63-0.38-0.86c-0.25-0.23-0.6-0.34-1.04-0.34c-0.47,0-0.84,0.14-1.12,0.42
		c-0.28,0.28-0.42,0.68-0.42,1.18v0.54h-1.63v-0.69c0-0.4,0.07-0.79,0.22-1.15c0.14-0.36,0.35-0.69,0.62-0.96
		c0.27-0.28,0.59-0.49,0.98-0.65c0.39-0.16,0.82-0.24,1.31-0.24c0.52,0,0.97,0.08,1.35,0.23c0.39,0.15,0.71,0.35,0.97,0.6
		c0.26,0.25,0.45,0.53,0.58,0.86c0.13,0.32,0.19,0.66,0.19,1v0.15c0,0.72-0.2,1.32-0.61,1.8c-0.41,0.48-1.07,0.82-1.99,1.03
		c-0.39,0.09-0.7,0.18-0.95,0.28c-0.25,0.09-0.45,0.2-0.59,0.31c-0.14,0.12-0.24,0.24-0.29,0.38c-0.05,0.14-0.08,0.29-0.08,0.46
		v0.15H57.43z"/>
	<path d="M58.69,47.85c0-1.12,0.28-1.98,0.84-2.6c0.56-0.62,1.34-0.92,2.33-0.92c0.99,0,1.77,0.31,2.33,0.92
		c0.56,0.62,0.84,1.48,0.84,2.6v1.92c0,1.15-0.28,2.02-0.84,2.62c-0.56,0.6-1.34,0.9-2.33,0.9c-0.99,0-1.77-0.3-2.33-0.9
		c-0.56-0.6-0.84-1.47-0.84-2.62V47.85z M61.87,51.81c0.3,0,0.54-0.05,0.74-0.14c0.2-0.09,0.36-0.23,0.48-0.4
		c0.12-0.17,0.21-0.38,0.26-0.62c0.05-0.24,0.07-0.5,0.07-0.79v-2.12c0-0.27-0.03-0.52-0.09-0.76c-0.06-0.24-0.15-0.44-0.27-0.62
		c-0.12-0.17-0.28-0.31-0.48-0.41c-0.2-0.1-0.44-0.15-0.71-0.15c-0.28,0-0.52,0.05-0.71,0.15c-0.2,0.1-0.36,0.24-0.48,0.41
		c-0.12,0.17-0.21,0.38-0.27,0.62c-0.06,0.24-0.09,0.49-0.09,0.76v2.12c0,0.29,0.02,0.55,0.07,0.79c0.05,0.24,0.14,0.44,0.26,0.62
		c0.12,0.17,0.28,0.31,0.48,0.4S61.57,51.81,61.87,51.81z M60.84,48.81c0-0.28,0.1-0.52,0.31-0.73c0.21-0.21,0.45-0.31,0.73-0.31
		c0.28,0,0.52,0.1,0.73,0.31c0.2,0.21,0.31,0.45,0.31,0.73c0,0.28-0.1,0.52-0.31,0.73c-0.21,0.2-0.45,0.31-0.73,0.31
		c-0.28,0-0.52-0.1-0.73-0.31C60.94,49.33,60.84,49.09,60.84,48.81z"/>
	<path d="M73.99,49.28V44.5h5.76v1.55h-4.14v2.34h0.22c0.11-0.32,0.33-0.6,0.65-0.83c0.32-0.23,0.74-0.35,1.27-0.35
		c0.4,0,0.76,0.07,1.08,0.21c0.32,0.14,0.59,0.33,0.81,0.58c0.22,0.25,0.39,0.54,0.51,0.89c0.12,0.34,0.18,0.72,0.18,1.13v0.07
		c0,0.43-0.07,0.85-0.22,1.23c-0.14,0.39-0.35,0.72-0.63,1.02c-0.28,0.29-0.61,0.52-1.02,0.7c-0.4,0.17-0.87,0.26-1.39,0.26
		c-0.53,0-0.99-0.07-1.39-0.22c-0.4-0.14-0.74-0.34-1.02-0.6c-0.27-0.26-0.48-0.57-0.63-0.92c-0.14-0.36-0.22-0.75-0.22-1.16v-0.3
		h1.63v0.15c0,0.44,0.13,0.79,0.4,1.08c0.27,0.28,0.66,0.42,1.18,0.42c0.52,0,0.93-0.14,1.23-0.42c0.3-0.28,0.45-0.67,0.45-1.16
		c0-0.47-0.11-0.82-0.33-1.05c-0.22-0.23-0.51-0.35-0.87-0.35c-0.24,0-0.43,0.05-0.58,0.15c-0.15,0.1-0.24,0.22-0.28,0.36H73.99z"/>
	<path d="M83.96,51.57v-6.25h-0.22l-0.81,2.95h-1.55v-0.15l1.03-3.62h3.18v7.07h2.14v1.55h-6.21v-1.55H83.96z"/>
	<path d="M91.5,51.57v-6.25h-0.22l-0.81,2.95h-1.55v-0.15l1.03-3.62h3.18v7.07h2.14v1.55h-6.21v-1.55H91.5z"/>
	<path d="M108.38,46.94c0-0.29-0.1-0.54-0.31-0.74s-0.54-0.31-0.98-0.31c-0.44,0-0.79,0.13-1.05,0.39c-0.26,0.26-0.39,0.6-0.39,1.02
		v1.11h0.22c0.14-0.29,0.37-0.52,0.68-0.7c0.31-0.18,0.67-0.26,1.06-0.26c0.35,0,0.69,0.06,1,0.19c0.31,0.13,0.58,0.31,0.81,0.54
		c0.23,0.23,0.41,0.52,0.54,0.86c0.13,0.34,0.2,0.72,0.2,1.15v0.15c0,0.43-0.07,0.84-0.22,1.2c-0.14,0.37-0.35,0.68-0.62,0.94
		c-0.27,0.26-0.59,0.47-0.97,0.62c-0.38,0.15-0.8,0.22-1.27,0.22c-0.43,0-0.83-0.07-1.2-0.21c-0.37-0.14-0.7-0.33-0.97-0.58
		c-0.28-0.25-0.49-0.55-0.65-0.9c-0.16-0.35-0.24-0.73-0.24-1.15v-3.14c0-0.45,0.08-0.86,0.25-1.23c0.16-0.37,0.39-0.68,0.66-0.94
		c0.28-0.26,0.6-0.46,0.97-0.6c0.37-0.14,0.75-0.21,1.16-0.21c0.41,0,0.79,0.06,1.15,0.18c0.36,0.12,0.67,0.29,0.94,0.52
		s0.48,0.5,0.63,0.82c0.15,0.32,0.23,0.69,0.23,1.09H108.38z M107.08,51.74c0.42,0,0.76-0.13,1.03-0.38c0.27-0.25,0.41-0.58,0.41-1
		s-0.14-0.75-0.41-1c-0.27-0.25-0.62-0.38-1.03-0.38c-0.42,0-0.76,0.13-1.03,0.38c-0.27,0.25-0.41,0.58-0.41,1s0.14,0.75,0.41,1
		C106.32,51.61,106.66,51.74,107.08,51.74z"/>
	<path d="M111.66,49.28V44.5h5.76v1.55h-4.14v2.34h0.22c0.11-0.32,0.33-0.6,0.65-0.83c0.32-0.23,0.74-0.35,1.27-0.35
		c0.4,0,0.76,0.07,1.08,0.21c0.32,0.14,0.59,0.33,0.81,0.58c0.22,0.25,0.39,0.54,0.51,0.89c0.12,0.34,0.18,0.72,0.18,1.13v0.07
		c0,0.43-0.07,0.85-0.22,1.23c-0.14,0.39-0.35,0.72-0.63,1.02c-0.28,0.29-0.61,0.52-1.02,0.7c-0.4,0.17-0.87,0.26-1.39,0.26
		c-0.53,0-0.99-0.07-1.39-0.22c-0.4-0.14-0.74-0.34-1.02-0.6c-0.27-0.26-0.48-0.57-0.63-0.92c-0.14-0.36-0.22-0.75-0.22-1.16v-0.3
		h1.63v0.15c0,0.44,0.13,0.79,0.4,1.08c0.27,0.28,0.66,0.42,1.18,0.42c0.52,0,0.93-0.14,1.23-0.42c0.3-0.28,0.45-0.67,0.45-1.16
		c0-0.47-0.11-0.82-0.33-1.05c-0.22-0.23-0.51-0.35-0.87-0.35c-0.24,0-0.43,0.05-0.58,0.15c-0.15,0.1-0.24,0.22-0.28,0.36H111.66z"
		/>
	<path d="M129.17,51.57v-6.25h-0.22l-0.81,2.95h-1.55v-0.15l1.03-3.62h3.18v7.07h2.14v1.55h-6.21v-1.55H129.17z"/>
	<path d="M134.05,47.85c0-1.12,0.28-1.98,0.84-2.6c0.56-0.62,1.34-0.92,2.33-0.92c0.99,0,1.77,0.31,2.33,0.92
		c0.56,0.62,0.84,1.48,0.84,2.6v1.92c0,1.15-0.28,2.02-0.84,2.62c-0.56,0.6-1.34,0.9-2.33,0.9c-0.99,0-1.77-0.3-2.33-0.9
		c-0.56-0.6-0.84-1.47-0.84-2.62V47.85z M137.23,51.81c0.3,0,0.54-0.05,0.74-0.14c0.2-0.09,0.36-0.23,0.48-0.4
		c0.12-0.17,0.21-0.38,0.26-0.62c0.05-0.24,0.07-0.5,0.07-0.79v-2.12c0-0.27-0.03-0.52-0.09-0.76c-0.06-0.24-0.15-0.44-0.27-0.62
		c-0.12-0.17-0.28-0.31-0.48-0.41c-0.2-0.1-0.44-0.15-0.71-0.15c-0.28,0-0.52,0.05-0.71,0.15c-0.2,0.1-0.36,0.24-0.48,0.41
		c-0.12,0.17-0.21,0.38-0.27,0.62c-0.06,0.24-0.09,0.49-0.09,0.76v2.12c0,0.29,0.02,0.55,0.07,0.79c0.05,0.24,0.14,0.44,0.26,0.62
		c0.12,0.17,0.28,0.31,0.48,0.4S136.93,51.81,137.23,51.81z M136.19,48.81c0-0.28,0.1-0.52,0.31-0.73c0.21-0.21,0.45-0.31,0.73-0.31
		c0.28,0,0.52,0.1,0.73,0.31c0.2,0.21,0.31,0.45,0.31,0.73c0,0.28-0.1,0.52-0.31,0.73c-0.21,0.2-0.45,0.31-0.73,0.31
		c-0.28,0-0.52-0.1-0.73-0.31C136.29,49.33,136.19,49.09,136.19,48.81z"/>
</g>
</svg>
