<?xml version="1.0" encoding="UTF-8"?><svg id="Layer_1" xmlns="http://www.w3.org/2000/svg" viewBox="0 0 100 100.01"><defs><style>.cls-1{fill:#5e5e5e;}</style></defs><path class="cls-1" d="M49.95,100.01C22.34,100-.13,77.61,0,49.89,.13,22.19,22.03,0,50.01,0c27.95,0,50.06,22.17,49.99,50.14-.08,27.9-22.26,49.75-50.05,49.87Zm23.59-40.82c1.7,3.41,3.18,4.32,5.95,3.73,2.35-.5,3.92-2.09,5.05-4.11,.18-.32,.07-1.02-.18-1.3-.44-.48-.89-.09-1.22,.34-.3,.39-.57,.82-.91,1.18-.84,.86-1.9,1.32-3.05,.87-1.11-.43-1.22-1.55-1.1-2.55,.26-2.28,.57-4.56,.99-6.81,.4-2.1,.48-2.05,2.55-2.13,.98-.04,1.99-.12,2.92-.4,.39-.12,.8-.8,.84-1.26,.06-.69-.6-.85-1.2-.87-.75-.03-1.5,0-2.24-.04-.59-.04-1.17-.15-1.95-.25,.24-1.19,.48-2.14,.62-3.1,.11-.75,.11-1.51-.86-1.81-2.1-.63-3.28,.03-3.74,2.13-.04,.18-.09,.36-.13,.54-.39,1.92-.39,1.96-2.32,2.11-1,.08-1.51,.49-1.48,1.49,.01,.42,.11,.83,.18,1.28,.8,.16,1.51,.3,2.4,.48-.12,1.04-.31,2-.33,2.97-.06,2.2-.89,4.14-2.07,5.91-.57,.85-1.42,1.59-2.3,2.11-1.25,.74-2.34,.26-2.77-1.13-.21-.68-.18-1.45-.19-2.18,0-.49,.13-.98,.19-1.48,.34-3.1,.99-6.11,2-9.07,.7-2.05,1.16-4.19,1.59-6.32,.1-.48-.28-1.49-.59-1.55-1.12-.23-2.32-.31-3.46-.17-.85,.1-.97,1.02-1.13,1.76-.54,2.55-1.07,5.11-1.65,7.65-.45,1.96-1.84,3.07-4.03,3.26-.18-.63-.36-1.28-.55-1.93-.69-2.35-2.5-3.67-4.91-3.86-3.4-.28-6.15,.89-8.15,3.58-2.57,3.46-3.35,7.3-1.77,11.43,.49,1.28,1.47,2.21,2.79,2.57,3.67,1.01,7.34,.41,9.67-2.9,.95-1.35,1.5-2.98,2.25-4.48,.24-.48,.45-1.08,.85-1.33,.82-.51,1.77-.82,2.83-1.28-.03,.5-.04,.85-.07,1.2-.16,1.73-.49,3.46-.45,5.18,.07,2.72,1.73,4.26,4.39,4.32,1.82,.04,3.4-.66,4.74-1.88,.63-.57,1.22-1.18,1.97-1.9Zm-45.77-7.87c.14,.02,.28,.05,.42,.07,.06,.65,.1,1.29,.19,1.94,.25,1.78,.35,3.6,.81,5.32,1.13,4.26,5.3,5.34,8.28,2.12,1.12-1.21,2.05-2.67,2.77-4.16,1.85-3.76,2.92-7.79,3.62-11.91,.27-1.59,.49-3.2,.52-4.8,.04-1.86-.78-2.59-2.59-2.64-.37-.01-.75-.02-1.12,.01-1.42,.11-1.84,.66-1.7,2.06,.12,1.17,.24,2.35,.2,3.52-.04,1.67-.17,3.35-.36,5.01-.35,3.09-.77,6.17-1.89,9.1-.38,1.01-.84,2.19-2.01,2.19-1.27,0-1.49-1.29-1.74-2.32-.13-.54-.26-1.09-.31-1.64-.14-1.42-.29-2.84-.35-4.26-.04-.93,.09-1.86,.12-2.79,.07-2.05,.17-4.1,.16-6.14,0-.41-.32-1-.66-1.19-1.23-.69-3.03-.05-3.66,1.25-.57,1.17-1.05,2.39-1.59,3.58-1.84,4.01-3.69,8.02-5.56,12.01-.18,.39-.51,.72-1.02,1.41-.2-2.11-.61-3.79-.46-5.42,.39-4.07,1.04-8.11,1.57-12.17,.09-.7,.09-1.41,.14-2.06-4.07-.94-4.85,.61-5.31,3.07-.07,.37-.14,.73-.19,1.1-.31,2.59-.54,5.18-.93,7.76-.46,3.07,.14,6.06,.55,9.06,.12,.88,.68,1.46,1.49,1.77,3,1.13,4.83,.43,6.31-2.46,1.17-2.27,2.28-4.56,3.43-6.84,.26-.52,.57-1.02,.86-1.53Z"/><path class="cls-1" d="M48.57,56.15c.04-2.65,.55-5.19,2.07-7.39,.46-.66,1.25-1.18,2-1.54,.89-.43,1.38-.05,1.49,.97,.06,.61-.04,1.25,.05,1.86,.09,.66,.17,1.41,.52,1.93,.72,1.06,.73,2.1,.27,3.17-.57,1.3-1.12,2.62-1.88,3.81-.56,.88-1.42,1.66-2.65,1.24-1.18-.41-1.74-1.35-1.85-2.55-.05-.49,0-.99,0-1.49Z"/></svg>