<?xml version="1.0" encoding="utf-8"?>
<!-- Generator: Adobe Illustrator 26.1.0, SVG Export Plug-In . SVG Version: 6.00 Build 0)  -->
<svg version="1.1" id="Layer_1" xmlns="http://www.w3.org/2000/svg" xmlns:xlink="http://www.w3.org/1999/xlink" x="0px" y="0px"
	 viewBox="0 0 1024.63 421.14" style="enable-background:new 0 0 1024.63 421.14;" xml:space="preserve">
<style type="text/css">
	.st0{fill:#FFFFFF;}
	.st1{fill:#184FD6;}
	.st2{fill:#68686A;}
	.st3{fill:#1D1D1E;}
	.st4{fill:#77777A;}
	.st5{fill:#EFEFEF;}
	.st6{fill:#FFEE1A;}
</style>
<g>
	<g>
		<path class="st3" d="M152.75,156.22c0.78,0.2,1.28,0.98,1.11,1.76c-3.58,17.08-11.59,30.92-24.05,41.51
			c-12.8,10.88-29.88,16.32-51.23,16.32c-11.08,0-21.41-1.71-30.98-5.14c-9.57-3.42-17.88-8.36-24.94-14.81
			c-7.06-6.45-12.6-14.4-16.62-23.88C2.01,162.52,0,151.73,0,139.64v-3.63c0-12.09,2.01-22.97,6.04-32.64
			c4.03-9.67,9.62-17.93,16.78-24.79c7.15-6.85,15.51-12.09,25.09-15.72c9.57-3.63,19.8-5.44,30.68-5.44
			c20.95,0,37.93,5.44,50.93,16.32c12.65,10.59,20.77,24.43,24.35,41.52c0.16,0.78-0.33,1.56-1.1,1.76l-34.49,8.9
			c-0.86,0.22-1.7-0.35-1.86-1.22c-1.44-8.17-5.18-15.29-11.23-21.34c-6.45-6.45-15.52-9.67-27.2-9.67
			c-5.44,0-10.58,1.01-15.42,3.02c-4.84,2.02-9.07,4.89-12.69,8.61c-3.63,3.73-6.5,8.27-8.61,13.6c-2.12,5.34-3.17,11.33-3.17,17.98
			v1.81c0,6.65,1.06,12.54,3.17,17.68c2.12,5.14,4.99,9.42,8.61,12.85c3.63,3.43,7.86,6,12.69,7.71c4.84,1.71,9.97,2.57,15.42,2.57
			c11.68,0,20.6-2.92,26.75-8.77c5.82-5.53,9.7-12.88,11.63-22.03c0.18-0.84,1-1.37,1.83-1.16L152.75,156.22z"/>
		<path class="st3" d="M282.08,189.82c-0.59,0-1.13,0.36-1.37,0.9c-4,9-9.51,15.4-16.53,19.2c-7.25,3.93-15.72,5.89-25.39,5.89
			c-9.07,0-17.58-1.71-25.54-5.14c-7.96-3.42-14.96-8.46-21.01-15.11c-6.04-6.65-10.83-14.71-14.36-24.18
			c-3.53-9.47-5.29-20.25-5.29-32.34v-4.84c0-11.89,1.71-22.57,5.14-32.04c3.42-9.47,8.06-17.53,13.9-24.18
			c5.84-6.65,12.64-11.74,20.4-15.26c7.75-3.52,16.07-5.29,24.94-5.29c10.68,0,19.29,1.81,25.84,5.44
			c6.31,3.5,11.36,8.87,15.15,16.11c0.26,0.5,0.77,0.81,1.33,0.81l3.03,0c0.83,0,1.5-0.67,1.5-1.5V63.16c0-0.83,0.67-1.5,1.5-1.5
			h35.08c0.83,0,1.5,0.67,1.5,1.5v103.08c0,6.05,2.72,9.07,8.16,9.07h4.24c0.83,0,1.5,0.67,1.5,1.5v33.27c0,0.83-0.67,1.5-1.5,1.5
			h-24.49c-6.85,0-12.44-2.01-16.78-6.05c-4.02-3.73-6.17-8.5-6.46-14.31c-0.04-0.79-0.7-1.4-1.49-1.4L282.08,189.82z
			 M247.25,179.54c11.08,0,19.95-3.67,26.6-11.03c6.65-7.35,9.97-17.38,9.97-30.07v-3.63c0-12.69-3.32-22.72-9.97-30.07
			c-6.65-7.35-15.52-11.03-26.6-11.03c-11.08,0-19.95,3.68-26.6,11.03c-6.65,7.36-9.97,17.38-9.97,30.07v3.63
			c0,12.69,3.32,22.72,9.97,30.07C227.3,175.87,236.16,179.54,247.25,179.54z"/>
		<path class="st3" d="M505.19,156.22c0.78,0.2,1.28,0.98,1.11,1.76c-3.58,17.08-11.59,30.92-24.05,41.51
			c-12.8,10.88-29.88,16.32-51.23,16.32c-11.08,0-21.41-1.71-30.98-5.14c-9.57-3.42-17.88-8.36-24.94-14.81
			c-7.06-6.45-12.6-14.4-16.62-23.88c-4.03-9.47-6.04-20.25-6.04-32.34v-3.63c0-12.09,2.01-22.97,6.04-32.64
			c4.03-9.67,9.62-17.93,16.78-24.79c7.15-6.85,15.51-12.09,25.09-15.72c9.57-3.63,19.8-5.44,30.68-5.44
			c20.95,0,37.93,5.44,50.93,16.32c12.65,10.59,20.77,24.43,24.35,41.52c0.16,0.78-0.33,1.56-1.1,1.76l-34.49,8.9
			c-0.86,0.22-1.7-0.35-1.86-1.22c-1.44-8.17-5.18-15.29-11.23-21.34c-6.45-6.45-15.52-9.67-27.2-9.67
			c-5.44,0-10.58,1.01-15.42,3.02c-4.84,2.02-9.07,4.89-12.69,8.61c-3.63,3.73-6.5,8.27-8.61,13.6c-2.12,5.34-3.17,11.33-3.17,17.98
			v1.81c0,6.65,1.06,12.54,3.17,17.68c2.12,5.14,4.99,9.42,8.61,12.85c3.63,3.43,7.86,6,12.69,7.71c4.84,1.71,9.97,2.57,15.42,2.57
			c11.68,0,20.6-2.92,26.75-8.77c5.82-5.53,9.7-12.88,11.63-22.03c0.18-0.84,1-1.37,1.83-1.16L505.19,156.22z"/>
		<path class="st3" d="M526.82,175.31h47.78c0.83,0,1.5-0.67,1.5-1.5V99.43c0-0.83-0.67-1.5-1.5-1.5h-44.15
			c-0.83,0-1.5-0.67-1.5-1.5V63.16c0-0.83,0.67-1.5,1.5-1.5h82.24c0.83,0,1.5,0.67,1.5,1.5v110.65c0,0.83,0.67,1.5,1.5,1.5h40.52
			c0.83,0,1.5,0.67,1.5,1.5v33.27c0,0.83-0.67,1.5-1.5,1.5H526.82c-0.83,0-1.5-0.67-1.5-1.5v-33.27
			C525.32,175.98,525.99,175.31,526.82,175.31z"/>
		<path class="st3" d="M721.17,116.67h4.99c0.48,0,0.93-0.23,1.21-0.62l39-53.77c0.28-0.39,0.73-0.62,1.21-0.62h39.45
			c0.83,0,1.5,0.67,1.5,1.5v0.01c0,0.2-0.06,0.39-0.17,0.55l-47.91,67.98c-0.18,0.25-0.27,0.55-0.27,0.86v4.47
			c0,0.32,0.1,0.63,0.29,0.89l52.72,71.59c0.12,0.16,0.19,0.36,0.19,0.57l0,0c0,0.83-0.67,1.5-1.5,1.5h-41.26
			c-0.48,0-0.93-0.23-1.21-0.61l-42.02-57.41c-0.28-0.39-0.73-0.61-1.21-0.61h-4.99c-0.83,0-1.5,0.67-1.5,1.5v55.64
			c0,0.83-0.67,1.5-1.5,1.5h-35.08c-0.83,0-1.5-0.67-1.5-1.5V1.5c0-0.83,0.67-1.5,1.5-1.5h35.08c0.83,0,1.5,0.67,1.5,1.5v113.67
			C719.67,116,720.35,116.67,721.17,116.67z"/>
		<path class="st3" d="M833.61,175.31h47.78c0.83,0,1.5-0.67,1.5-1.5V99.43c0-0.83-0.67-1.5-1.5-1.5h-44.15
			c-0.83,0-1.5-0.67-1.5-1.5V63.16c0-0.83,0.67-1.5,1.5-1.5h82.24c0.83,0,1.5,0.67,1.5,1.5v110.65c0,0.83,0.67,1.5,1.5,1.5H963
			c0.83,0,1.5,0.67,1.5,1.5v33.27c0,0.83-0.67,1.5-1.5,1.5H833.61c-0.83,0-1.5-0.67-1.5-1.5v-33.27
			C832.11,175.98,832.79,175.31,833.61,175.31z"/>
		<path class="st3" d="M919.48,40.23h-37.23c-0.83,0-1.5-0.67-1.5-1.5V1.5c0-0.83,0.67-1.5,1.5-1.5h37.23c0.83,0,1.5,0.67,1.5,1.5
			v37.23C920.98,39.56,920.31,40.23,919.48,40.23z"/>
		<path class="st1" d="M1023.13,211.45h-33.09c-0.83,0-1.5-0.67-1.5-1.5v-33.09c0-0.83,0.67-1.5,1.5-1.5h33.09
			c0.83,0,1.5,0.67,1.5,1.5v33.09C1024.63,210.78,1023.96,211.45,1023.13,211.45z"/>
		<path class="st3" d="M611.72,40.23H574.5c-0.83,0-1.5-0.67-1.5-1.5V1.5c0-0.83,0.67-1.5,1.5-1.5h37.23c0.83,0,1.5,0.67,1.5,1.5
			v37.23C613.22,39.56,612.55,40.23,611.72,40.23z"/>
	</g>
	<g>
		<path class="st4" d="M23.24,421.14H10.91V311.1h12.33v12.33h1.9c2.74-4.74,6.53-8.35,11.38-10.83c4.85-2.48,10.12-3.72,15.81-3.72
			c4.85,0,9.43,0.9,13.76,2.69c4.32,1.79,8.14,4.38,11.46,7.75c3.32,3.37,5.95,7.54,7.91,12.49c1.95,4.96,2.93,10.59,2.93,16.92
			v3.16c0,6.43-0.95,12.12-2.85,17.07c-1.9,4.96-4.51,9.12-7.83,12.49c-3.32,3.37-7.19,5.93-11.62,7.67
			c-4.43,1.74-9.12,2.61-14.07,2.61c-2.53,0-5.11-0.29-7.75-0.87c-2.64-0.58-5.14-1.47-7.51-2.68c-2.37-1.21-4.56-2.69-6.56-4.43
			c-2-1.74-3.69-3.82-5.06-6.25h-1.9V421.14z M49.49,380.03c3.79,0,7.27-0.66,10.43-1.98c3.16-1.32,5.93-3.19,8.3-5.61
			c2.37-2.42,4.22-5.38,5.53-8.85c1.32-3.48,1.98-7.38,1.98-11.7v-3.16c0-4.21-0.66-8.04-1.98-11.46c-1.32-3.42-3.16-6.38-5.53-8.85
			c-2.37-2.48-5.17-4.4-8.38-5.77c-3.22-1.37-6.67-2.06-10.36-2.06c-3.69,0-7.12,0.71-10.28,2.14c-3.16,1.42-5.93,3.4-8.3,5.93
			s-4.24,5.56-5.61,9.09c-1.37,3.53-2.06,7.4-2.06,11.62v1.9c0,4.33,0.69,8.25,2.06,11.78c1.37,3.53,3.24,6.56,5.61,9.09
			s5.14,4.48,8.3,5.85C42.38,379.35,45.8,380.03,49.49,380.03z"/>
		<path class="st4" d="M105.94,378.14h27.51v-55.66h-24.67V311.1h37v67.04h25.61v11.38h-65.46V378.14z M128.39,287.69
			c0-3.06,1.08-5.66,3.24-7.83c2.16-2.16,4.77-3.24,7.83-3.24c3.05,0,5.66,1.08,7.83,3.24c2.16,2.16,3.24,4.77,3.24,7.83
			c0,3.06-1.08,5.67-3.24,7.83c-2.16,2.16-4.77,3.24-7.83,3.24c-3.06,0-5.67-1.08-7.83-3.24
			C129.47,293.36,128.39,290.75,128.39,287.69z"/>
		<path class="st4" d="M185.78,311.1h24.67v-32.26h12.33v32.26h30.36v11.38h-30.36v50.91c0,3.16,1.42,4.74,4.27,4.74h22.29v11.38
			h-26.72c-3.58,0-6.51-1.16-8.78-3.48c-2.27-2.32-3.4-5.27-3.4-8.85v-54.71h-24.67V311.1z"/>
		<path class="st4" d="M329.83,376.24h-1.9c-2.53,5.27-6.03,9.17-10.51,11.7c-4.48,2.53-9.2,3.79-14.15,3.79
			c-5.17,0-9.96-0.87-14.39-2.61c-4.43-1.74-8.3-4.32-11.62-7.75c-3.32-3.42-5.93-7.61-7.83-12.57c-1.9-4.95-2.85-10.7-2.85-17.23
			v-2.53c0-6.43,0.95-12.12,2.85-17.08c1.9-4.95,4.51-9.14,7.83-12.57c3.32-3.42,7.19-6.03,11.62-7.83
			c4.43-1.79,9.12-2.69,14.07-2.69c5.38,0,10.25,1.19,14.63,3.56c4.37,2.37,7.83,6.04,10.36,10.99h1.9V311.1h12.33v62.3
			c0,3.16,1.42,4.74,4.27,4.74h3.95v11.38H342c-3.58,0-6.51-1.16-8.78-3.48c-2.27-2.32-3.4-5.27-3.4-8.85V376.24z M304.53,380.03
			c3.69,0,7.09-0.69,10.2-2.06c3.11-1.37,5.77-3.32,7.98-5.85c2.21-2.53,3.95-5.56,5.22-9.09c1.26-3.53,1.9-7.45,1.9-11.78v-1.9
			c0-4.21-0.63-8.09-1.9-11.62c-1.26-3.53-3.03-6.56-5.3-9.09c-2.27-2.53-4.96-4.51-8.06-5.93c-3.11-1.42-6.46-2.14-10.04-2.14
			c-3.69,0-7.06,0.69-10.12,2.06c-3.06,1.37-5.72,3.29-7.98,5.77c-2.27,2.48-4.03,5.48-5.3,9.01c-1.26,3.53-1.9,7.41-1.9,11.62v2.53
			c0,8.96,2.34,15.94,7.04,20.95C290.96,377.53,297.04,380.03,304.53,380.03z"/>
		<path class="st4" d="M457.11,389.52h-12.33V278.84h12.33v44.59h1.9c2.74-4.74,6.53-8.35,11.38-10.83
			c4.85-2.48,10.12-3.72,15.81-3.72c4.85,0,9.43,0.9,13.76,2.69c4.32,1.79,8.14,4.38,11.46,7.75c3.32,3.37,5.95,7.54,7.91,12.49
			c1.95,4.96,2.93,10.59,2.93,16.92v3.16c0,6.43-0.95,12.12-2.85,17.07c-1.9,4.96-4.51,9.12-7.83,12.49
			c-3.32,3.37-7.19,5.93-11.62,7.67c-4.43,1.74-9.12,2.61-14.07,2.61c-2.53,0-5.11-0.29-7.75-0.87c-2.64-0.58-5.14-1.47-7.51-2.68
			c-2.37-1.21-4.56-2.69-6.56-4.43c-2-1.74-3.69-3.82-5.06-6.25h-1.9V389.52z M483.35,380.03c3.79,0,7.27-0.66,10.43-1.98
			c3.16-1.32,5.93-3.19,8.3-5.61c2.37-2.42,4.22-5.38,5.53-8.85c1.32-3.48,1.98-7.38,1.98-11.7v-3.16c0-4.21-0.66-8.04-1.98-11.46
			c-1.32-3.42-3.16-6.38-5.53-8.85c-2.37-2.48-5.17-4.4-8.38-5.77c-3.22-1.37-6.67-2.06-10.36-2.06c-3.69,0-7.12,0.71-10.28,2.14
			c-3.16,1.42-5.93,3.4-8.3,5.93s-4.24,5.56-5.61,9.09c-1.37,3.53-2.06,7.4-2.06,11.62v1.9c0,4.33,0.69,8.25,2.06,11.78
			c1.37,3.53,3.24,6.56,5.61,9.09s5.14,4.48,8.3,5.85C476.24,379.35,479.66,380.03,483.35,380.03z"/>
		<path class="st4" d="M594.82,376.24h-1.9c-2.53,5.27-6.03,9.17-10.51,11.7c-4.48,2.53-9.2,3.79-14.15,3.79
			c-5.17,0-9.96-0.87-14.39-2.61c-4.43-1.74-8.3-4.32-11.62-7.75c-3.32-3.42-5.93-7.61-7.83-12.57c-1.9-4.95-2.85-10.7-2.85-17.23
			v-2.53c0-6.43,0.95-12.12,2.85-17.08c1.9-4.95,4.51-9.14,7.83-12.57c3.32-3.42,7.19-6.03,11.62-7.83
			c4.43-1.79,9.12-2.69,14.07-2.69c5.38,0,10.25,1.19,14.63,3.56c4.37,2.37,7.83,6.04,10.36,10.99h1.9V311.1h12.33v62.3
			c0,3.16,1.42,4.74,4.27,4.74h3.95v11.38H607c-3.58,0-6.51-1.16-8.78-3.48c-2.27-2.32-3.4-5.27-3.4-8.85V376.24z M569.52,380.03
			c3.69,0,7.09-0.69,10.2-2.06c3.11-1.37,5.77-3.32,7.98-5.85s3.95-5.56,5.22-9.09c1.26-3.53,1.9-7.45,1.9-11.78v-1.9
			c0-4.21-0.63-8.09-1.9-11.62s-3.03-6.56-5.3-9.09c-2.27-2.53-4.96-4.51-8.06-5.93c-3.11-1.42-6.46-2.14-10.04-2.14
			c-3.69,0-7.06,0.69-10.12,2.06c-3.06,1.37-5.72,3.29-7.98,5.77c-2.27,2.48-4.03,5.48-5.3,9.01c-1.26,3.53-1.9,7.41-1.9,11.62v2.53
			c0,8.96,2.34,15.94,7.04,20.95C555.95,377.53,562.04,380.03,569.52,380.03z"/>
		<path class="st4" d="M623.76,311.1h28.46v10.43h1.9c2-4.32,4.85-7.51,8.54-9.57c3.69-2.06,7.91-3.08,12.65-3.08
			c7.91,0,14.28,2.59,19.13,7.75c4.85,5.16,7.43,12.7,7.75,22.61l-12.96,1.9c0-7.27-1.74-12.52-5.22-15.73
			c-3.48-3.21-7.75-4.82-12.81-4.82c-3.27,0-6.09,0.63-8.46,1.9c-2.37,1.27-4.35,3.01-5.93,5.22c-1.58,2.22-2.74,4.8-3.48,7.75
			c-0.74,2.95-1.11,6.12-1.11,9.49v33.2h19.92v11.38h-50.28v-11.38h18.02v-55.66h-16.13V311.1z"/>
	</g>
</g>
</svg>
