<?xml version="1.0" encoding="utf-8"?>
<!-- Generator: Adobe Illustrator 26.1.0, SVG Export Plug-In . SVG Version: 6.00 Build 0)  -->
<svg version="1.1" id="Layer_1" xmlns="http://www.w3.org/2000/svg" xmlns:xlink="http://www.w3.org/1999/xlink" x="0px" y="0px"
	 viewBox="0 0 382.82 117.29" style="enable-background:new 0 0 382.82 117.29;" xml:space="preserve">
<style type="text/css">
	.st0{fill:#FFFFFF;}
	.st1{fill:#184FD6;}
	.st2{fill:#68686A;}
	.st3{fill:#1D1D1E;}
	.st4{fill:#77777A;}
	.st5{fill:#EFEFEF;}
	.st6{fill:#FFEE1A;}
</style>
<g>
	<path class="st0" d="M16.83,64.6c0.08,1.9,0.54,3.65,1.36,5.24c0.82,1.6,1.94,2.98,3.37,4.14c1.42,1.17,3.06,2.07,4.92,2.72
		c1.85,0.65,3.82,0.97,5.89,0.97c4.06,0,7.16-0.71,9.32-2.14c2.16-1.42,3.71-3.13,4.66-5.11l13.98,7.77
		c-0.78,1.64-1.86,3.35-3.24,5.11c-1.38,1.77-3.17,3.39-5.37,4.86c-2.2,1.47-4.88,2.68-8.03,3.62c-3.15,0.95-6.84,1.42-11.07,1.42
		c-4.83,0-9.24-0.78-13.21-2.33c-3.97-1.55-7.4-3.8-10.29-6.73C6.23,81.22,3.99,77.63,2.4,73.4C0.8,69.18,0,64.39,0,59.03v-0.78
		c0-4.92,0.84-9.41,2.52-13.46c1.68-4.06,3.99-7.51,6.93-10.36c2.93-2.85,6.36-5.07,10.29-6.67c3.93-1.6,8.13-2.4,12.62-2.4
		c5.52,0,10.27,0.97,14.24,2.91c3.97,1.94,7.25,4.4,9.84,7.38s4.49,6.26,5.7,9.84c1.21,3.58,1.81,7.06,1.81,10.42v8.67H16.83z
		 M32.24,40.13c-4.14,0-7.51,1.06-10.1,3.17c-2.59,2.12-4.27,4.55-5.05,7.31h30.29c-0.52-3.02-2.14-5.52-4.85-7.51
		C39.81,41.13,36.38,40.13,32.24,40.13z M32.62,0h17.35L39.1,17.61H25.89L32.62,0z"/>
	<path class="st0" d="M79.88,27.19h19.03V0.78h16.31v26.41h23.17v15.54h-23.17v29.26c0,2.59,1.17,3.88,3.5,3.88h17.35V91.4h-27.19
		c-2.94,0-5.33-0.95-7.19-2.85c-1.86-1.9-2.78-4.31-2.78-7.25V42.72H79.88V27.19z"/>
	<path class="st0" d="M160.53,75.86h22.53V16.31h-21.75V0.78h38.06v75.09h20.97V91.4h-59.81V75.86z"/>
	<path class="st0" d="M281.71,82.08c-1.73,4.06-4.14,6.93-7.25,8.61c-3.11,1.68-6.73,2.52-10.87,2.52c-3.88,0-7.53-0.73-10.94-2.2
		c-3.41-1.47-6.41-3.62-9-6.47c-2.59-2.85-4.64-6.3-6.15-10.36c-1.51-4.06-2.27-8.67-2.27-13.85v-2.07c0-5.09,0.73-9.67,2.2-13.72
		c1.47-4.06,3.45-7.51,5.96-10.36c2.5-2.85,5.42-5.03,8.74-6.54c3.32-1.51,6.88-2.27,10.68-2.27c4.57,0,8.26,0.78,11.07,2.33
		c2.8,1.55,5.03,3.97,6.67,7.25h2.33v-7.77h16.31v44.79c0,2.59,1.17,3.88,3.5,3.88h2.46V91.4h-11.13c-2.94,0-5.33-0.86-7.19-2.59
		c-1.86-1.73-2.78-3.97-2.78-6.73H281.71z M267.21,77.68c4.75,0,8.54-1.57,11.39-4.73c2.85-3.15,4.27-7.44,4.27-12.88v-1.55
		c0-5.44-1.42-9.73-4.27-12.88c-2.85-3.15-6.65-4.73-11.39-4.73c-4.75,0-8.54,1.58-11.39,4.73c-2.85,3.15-4.27,7.44-4.27,12.88v1.55
		c0,5.44,1.42,9.73,4.27,12.88C258.66,76.1,262.46,77.68,267.21,77.68z"/>
	<path class="st0" d="M332.33,117.29h-16.31V27.19h16.31v9.32h2.33c1.73-3.54,4.23-6.28,7.51-8.22c3.28-1.94,7.46-2.91,12.56-2.91
		c3.8,0,7.4,0.73,10.81,2.2c3.41,1.47,6.39,3.6,8.93,6.41c2.54,2.81,4.57,6.24,6.08,10.29c1.51,4.06,2.27,8.67,2.27,13.85v2.33
		c0,5.27-0.73,9.93-2.2,13.98c-1.47,4.06-3.45,7.49-5.96,10.29c-2.5,2.81-5.46,4.92-8.87,6.34c-3.41,1.42-7.1,2.14-11.07,2.14
		c-2.94,0-5.48-0.3-7.64-0.91c-2.16-0.6-4.04-1.42-5.63-2.46c-1.6-1.04-2.93-2.22-4.01-3.56c-1.08-1.34-2.01-2.74-2.78-4.21h-2.33
		V117.29z M349.42,77.68c5.09,0,9.21-1.57,12.36-4.73c3.15-3.15,4.72-7.44,4.72-12.88v-1.55c0-5.44-1.58-9.73-4.72-12.88
		c-3.15-3.15-7.27-4.73-12.36-4.73c-5.09,0-9.21,1.62-12.36,4.86c-3.15,3.24-4.73,7.49-4.73,12.75v1.55c0,5.27,1.57,9.52,4.73,12.75
		C340.2,76.06,344.32,77.68,349.42,77.68z"/>
</g>
</svg>
